ply
format ascii 1.0
element vertex 441
property double x
property double y
property double z
property double vx
property double vy
property double vz
property double s
element face 400
property list uchar int vertex_indices
end_header
-0.100000000000000006 -0.100000000000000006 0 0 0 0 0.0919172266423702172
-0.0900000000000000105 -0.100000000000000006 0 0 0 0 0.0910228594392538115
-0.0800000000000000155 -0.100000000000000006 0 0 0 0 0.091627435654401776
-0.0700000000000000205 -0.100000000000000006 0 0 0 0 0.0900104732215404463
-0.0600000000000000255 -0.100000000000000006 0 0 0 0 0.0864041017293930014
-0.0500000000000000305 -0.100000000000000006 0 0 0 0 0.0896995444297790517
-0.0400000000000000355 -0.100000000000000006 0 0 0 0 0.0850045768618583747
-0.0300000000000000405 -0.100000000000000006 0 0 0 0 0.0851920859217643739
-0.0200000000000000455 -0.100000000000000006 0 0 0 0 0.0832133516669273376
-0.0100000000000000505 -0.100000000000000006 0 0 0 0 0.0839504671841859867
-5.5511151231257827e-17 -0.100000000000000006 0 0 0 0 0.0837219267338514261
0.00999999999999993949 -0.100000000000000006 0 0 0 0 0.0824402139335870809
0.0199999999999999345 -0.100000000000000006 0 0 0 0 0.0901458378434181196
0.0299999999999999434 -0.100000000000000006 0 0 0 0 0.0856659740954637539
0.0399999999999999245 -0.100000000000000006 0 0 0 0 0.0888640237152576451
0.0499999999999999056 -0.100000000000000006 0 0 0 0 0.0807858137041330276
0.0599999999999999145 -0.100000000000000006 0 0 0 0 0.0879199090600013694
0.0699999999999999234 -0.100000000000000006 0 0 0 0 0.0841196466088294931
0.0799999999999999045 -0.100000000000000006 0 0 0 0 0.0901157732605934181
0.0899999999999998856 -0.100000000000000006 0 0 0 0 0.0916034019887447398
0.0999999999999998945 -0.100000000000000006 0 0 0 0 0.0892403154969215462
-0.100000000000000006 -0.0900000000000000105 0 0 0 0 0.0913909022808074983
-0.0900000000000000105 -0.0900000000000000105 0 0 0 0 0.0994160321950912501
-0.0800000000000000155 -0.0900000000000000105 0 0 0 0 0.0847170633822679486
-0.0700000000000000205 -0.0900000000000000105 0 0 0 0 0.0857567522302269958
-0.0600000000000000255 -0.0900000000000000105 0 0 0 0 0.085139940872788436
-0.0500000000000000305 -0.0900000000000000105 0 0 0 0 0.0829110616445541404
-0.0400000000000000355 -0.0900000000000000105 0 0 0 0 0.0794443337917327824
-0.0300000000000000405 -0.0900000000000000105 0 0 0 0 0.0865602257102727896
-0.0200000000000000455 -0.0900000000000000105 0 0 0 0 0.0799251799285411874
-0.0100000000000000505 -0.0900000000000000105 0 0 0 0 0.0829344940185546831
-5.5511151231257827e-17 -0.0900000000000000105 0 0 0 0 0.0808284633606672354
0.00999999999999993949 -0.0900000000000000105 0 0 0 0 0.0805241467654705112
0.0199999999999999345 -0.0900000000000000105 0 0 0 0 0.09028656584024429
0.0299999999999999434 -0.0900000000000000105 0 0 0 0 0.08446309953927994
0.0399999999999999245 -0.0900000000000000105 0 0 0 0 0.0875401763916015679
0.0499999999999999056 -0.0900000000000000105 0 0 0 0 0.0859710343927145015
0.0599999999999999145 -0.0900000000000000105 0 0 0 0 0.0823863732516765535
0.0699999999999999234 -0.0900000000000000105 0 0 0 0 0.0904030044376850084
0.0799999999999999045 -0.0900000000000000105 0 0 0 0 0.08327604602277279
0.0899999999999998856 -0.0900000000000000105 0 0 0 0 0.092204100281000137
0.0999999999999998945 -0.0900000000000000105 0 0 0 0 0.0895201230645179813
-0.100000000000000006 -0.0800000000000000155 0 0 0 0 0.0906188850402832036
-0.0900000000000000105 -0.0800000000000000155 0 0 0 0 0.0889553477317094748
-0.0800000000000000155 -0.0800000000000000155 0 0 0 0 0.0783492260426282838
-0.0700000000000000205 -0.0800000000000000155 0 0 0 0 0.0875671974420547533
-0.0600000000000000255 -0.0800000000000000155 0 0 0 0 0.0829885632991790717
-0.0500000000000000305 -0.0800000000000000155 0 0 0 0 0.0772550005763769088
-0.0400000000000000355 -0.0800000000000000155 0 0 0 0 0.083953580826520921
-0.0300000000000000405 -0.0800000000000000155 0 0 0 0 0.0758325028121471373
-0.0200000000000000455 -0.0800000000000000155 0 0 0 0 0.0858301440328359672
-0.0100000000000000505 -0.0800000000000000155 0 0 0 0 0.0806940567344427151
-5.5511151231257827e-17 -0.0800000000000000155 0 0 0 0 0.0799445162415504396
0.00999999999999993949 -0.0800000000000000155 0 0 0 0 0.0882085974663495975
0.0199999999999999345 -0.0800000000000000155 0 0 0 0 0.0849808872342109611
0.0299999999999999434 -0.0800000000000000155 0 0 0 0 0.0806779783219098989
0.0399999999999999245 -0.0800000000000000155 0 0 0 0 0.086045847401022918
0.0499999999999999056 -0.0800000000000000155 0 0 0 0 0.0818702826648950582
0.0599999999999999145 -0.0800000000000000155 0 0 0 0 0.0743925230354070682
0.0699999999999999234 -0.0800000000000000155 0 0 0 0 0.0785861721113324113
0.0799999999999999045 -0.0800000000000000155 0 0 0 0 0.0833334316909313255
0.0899999999999998856 -0.0800000000000000155 0 0 0 0 0.0869343849122524298
0.0999999999999998945 -0.0800000000000000155 0 0 0 0 0.0895711889863014254
-0.100000000000000006 -0.0700000000000000205 0 0 0 0 0.0828106816411018354
-0.0900000000000000105 -0.0700000000000000205 0 0 0 0 0.0782705289125442544
-0.0800000000000000155 -0.0700000000000000205 0 0 0 0 0.081489345580339434
-0.0700000000000000205 -0.0700000000000000205 0 0 0 0 0.0766544271558523144
-0.0600000000000000255 -0.0700000000000000205 0 0 0 0 0.079158958643674851
-0.0500000000000000305 -0.0700000000000000205 0 0 0 0 0.0724787222743034365
-0.0400000000000000355 -0.0700000000000000205 0 0 0 0 0.0807373394370079073
-0.0300000000000000405 -0.0700000000000000205 0 0 0 0 0.0788771351426839767
-0.0200000000000000455 -0.0700000000000000205 0 0 0 0 0.0746102768480777778
-0.0100000000000000505 -0.0700000000000000205 0 0 0 0 0.0753693427741527616
-5.5511151231257827e-17 -0.0700000000000000205 0 0 0 0 0.0762693013399839415
0.00999999999999993949 -0.0700000000000000205 0 0 0 0 0.0805349745899438807
0.0199999999999999345 -0.0700000000000000205 0 0 0 0 0.0783371046632528323
0.0299999999999999434 -0.0700000000000000205 0 0 0 0 0.0747779318839311563
0.0399999999999999245 -0.0700000000000000205 0 0 0 0 0.0729704327583313023
0.0499999999999999056 -0.0700000000000000205 0 0 0 0 0.0774997605681419371
0.0599999999999999145 -0.0700000000000000205 0 0 0 0 0.0802282785326242504
0.0699999999999999234 -0.0700000000000000205 0 0 0 0 0.0821267243623733517
0.0799999999999999045 -0.0700000000000000205 0 0 0 0 0.0848974871337413728
0.0899999999999998856 -0.0700000000000000205 0 0 0 0 0.0785630494356155396
0.0999999999999998945 -0.0700000000000000205 0 0 0 0 0.0868103947341442167
-0.100000000000000006 -0.0600000000000000255 0 0 0 0 0.0838615155816078151
-0.0900000000000000105 -0.0600000000000000255 0 0 0 0 0.0811104037165641806
-0.0800000000000000155 -0.0600000000000000255 0 0 0 0 0.0801173068583011655
-0.0700000000000000205 -0.0600000000000000255 0 0 0 0 0.0723892814740538654
-0.0600000000000000255 -0.0600000000000000255 0 0 0 0 0.0766538029909133861
-0.0500000000000000305 -0.0600000000000000255 0 0 0 0 0.0768361033499240925
-0.0400000000000000355 -0.0600000000000000255 0 0 0 0 0.0779419677555561047
-0.0300000000000000405 -0.0600000000000000255 0 0 0 0 0.0772920631170272848
-0.0200000000000000455 -0.0600000000000000255 0 0 0 0 0.0771156688928604089
-0.0100000000000000505 -0.0600000000000000255 0 0 0 0 0.0754740750640630759
-5.5511151231257827e-17 -0.0600000000000000255 0 0 0 0 0.0758170736208558099
0.00999999999999993949 -0.0600000000000000255 0 0 0 0 0.0718138557374477376
0.0199999999999999345 -0.0600000000000000255 0 0 0 0 0.0744278150871396094
0.0299999999999999434 -0.0600000000000000255 0 0 0 0 0.075963056355714792
0.0399999999999999245 -0.0600000000000000255 0 0 0 0 0.0808353778421878749
0.0499999999999999056 -0.0600000000000000255 0 0 0 0 0.0758935235552489762
0.0599999999999999145 -0.0600000000000000255 0 0 0 0 0.0738443863838911113
0.0699999999999999234 -0.0600000000000000255 0 0 0 0 0.079531784102320674
0.0799999999999999045 -0.0600000000000000255 0 0 0 0 0.0765433607995510135
0.0899999999999998856 -0.0600000000000000255 0 0 0 0 0.0777504310160875289
0.0999999999999998945 -0.0600000000000000255 0 0 0 0 0.0794758653938770349
-0.100000000000000006 -0.0500000000000000305 0 0 0 0 0.0867084043174982111
-0.0900000000000000105 -0.0500000000000000305 0 0 0 0 0.0781656007468700398
-0.0800000000000000155 -0.0500000000000000305 0 0 0 0 0.0784863241016864749
-0.0700000000000000205 -0.0500000000000000305 0 0 0 0 0.0750947583019733467
-0.0600000000000000255 -0.0500000000000000305 0 0 0 0 0.0745571470409631676
-0.0500000000000000305 -0.0500000000000000305 0 0 0 0 0.0762258241325616814
-0.0400000000000000355 -0.0500000000000000305 0 0 0 0 0.0780727388560771979
-0.0300000000000000405 -0.0500000000000000305 0 0 0 0 0.076591950207948678
-0.0200000000000000455 -0.0500000000000000305 0 0 0 0 0.0715354592055082311
-0.0100000000000000505 -0.0500000000000000305 0 0 0 0 0.072415805548429496
-5.5511151231257827e-17 -0.0500000000000000305 0 0 0 0 0.0739161697328090672
0.00999999999999993949 -0.0500000000000000305 0 0 0 0 0.0746430894732475342
0.0199999999999999345 -0.0500000000000000305 0 0 0 0 0.0772451447993516976
0.0299999999999999434 -0.0500000000000000305 0 0 0 0 0.0765326333940029163
0.0399999999999999245 -0.0500000000000000305 0 0 0 0 0.0776022934168577178
0.0499999999999999056 -0.0500000000000000305 0 0 0 0 0.078388764381408696
0.0599999999999999145 -0.0500000000000000305 0 0 0 0 0.079696557238698007
0.0699999999999999234 -0.0500000000000000305 0 0 0 0 0.0780972880274057452
0.0799999999999999045 -0.0500000000000000305 0 0 0 0 0.0770002783983945865
0.0899999999999998856 -0.0500000000000000305 0 0 0 0 0.0796260921359062263
0.0999999999999998945 -0.0500000000000000305 0 0 0 0 0.0841812213063240083
-0.100000000000000006 -0.0400000000000000355 0 0 0 0 0.0787365978062152805
-0.0900000000000000105 -0.0400000000000000355 0 0 0 0 0.0772948385626077705
-0.0800000000000000155 -0.0400000000000000355 0 0 0 0 0.078457044333219525
-0.0700000000000000205 -0.0400000000000000355 0 0 0 0 0.072086144432425503
-0.0600000000000000255 -0.0400000000000000355 0 0 0 0 0.0756227585077285797
-0.0500000000000000305 -0.0400000000000000355 0 0 0 0 0.0709615664482116659
-0.0400000000000000355 -0.0400000000000000355 0 0 0 0 0.0748020346760749771
-0.0300000000000000405 -0.0400000000000000355 0 0 0 0 0.0724064867794513706
-0.0200000000000000455 -0.0400000000000000355 0 0 0 0 0.0699065579324960745
-0.0100000000000000505 -0.0400000000000000355 0 0 0 0 0.0767212527096271524
-5.5511151231257827e-17 -0.0400000000000000355 0 0 0 0 0.0750853991806507137
0.00999999999999993949 -0.0400000000000000355 0 0 0 0 0.0791162023991346386
0.0199999999999999345 -0.0400000000000000355 0 0 0 0 0.0695331091284751845
0.0299999999999999434 -0.0400000000000000355 0 0 0 0 0.0708977641165256522
0.0399999999999999245 -0.0400000000000000355 0 0 0 0 0.0749214383214712176
0.0499999999999999056 -0.0400000000000000355 0 0 0 0 0.07589634437859058
0.0599999999999999145 -0.0400000000000000355 0 0 0 0 0.0782682084292173341
0.0699999999999999234 -0.0400000000000000355 0 0 0 0 0.077757084205746646
0.0799999999999999045 -0.0400000000000000355 0 0 0 0 0.0778974130153655964
0.0899999999999998856 -0.0400000000000000355 0 0 0 0 0.0804215700626373237
0.0999999999999998945 -0.0400000000000000355 0 0 0 0 0.0774867485761642494
-0.100000000000000006 -0.0300000000000000405 0 0 0 0 0.0734880701899528477
-0.0900000000000000105 -0.0300000000000000405 0 0 0 0 0.0716927710473537483
-0.0800000000000000155 -0.0300000000000000405 0 0 0 0 0.0740781573951244388
-0.0700000000000000205 -0.0300000000000000405 0 0 0 0 0.0758637313991784995
-0.0600000000000000255 -0.0300000000000000405 0 0 0 0 0.0681284970939159407
-0.0500000000000000305 -0.0300000000000000405 0 0 0 0 0.0714390565231442509
-0.0400000000000000355 -0.0300000000000000405 0 0 0 0 0.0741925076395273247
-0.0300000000000000405 -0.0300000000000000405 0 0 0 0 0.0707764662504196118
-0.0200000000000000455 -0.0300000000000000405 0 0 0 0 0.0682351634204387686
-0.0100000000000000505 -0.0300000000000000405 0 0 0 0 0.0690971585363149704
-5.5511151231257827e-17 -0.0300000000000000405 0 0 0 0 0.0723739230185747179
0.00999999999999993949 -0.0300000000000000405 0 0 0 0 0.0725230568200349868
0.0199999999999999345 -0.0300000000000000405 0 0 0 0 0.0747067097723484036
0.0299999999999999434 -0.0300000000000000405 0 0 0 0 0.0787389143183827439
0.0399999999999999245 -0.0300000000000000405 0 0 0 0 0.0719191575348377271
0.0499999999999999056 -0.0300000000000000405 0 0 0 0 0.0807294826656579922
0.0599999999999999145 -0.0300000000000000405 0 0 0 0 0.0767414861619472449
0.0699999999999999234 -0.0300000000000000405 0 0 0 0 0.0710377497524023044
0.0799999999999999045 -0.0300000000000000405 0 0 0 0 0.0796545996069908113
0.0899999999999998856 -0.0300000000000000405 0 0 0 0 0.0763074109703302389
0.0999999999999998945 -0.0300000000000000405 0 0 0 0 0.0805435161292552965
-0.100000000000000006 -0.0200000000000000455 0 0 0 0 0.0760485600084066377
-0.0900000000000000105 -0.0200000000000000455 0 0 0 0 0.071183204352855689
-0.0800000000000000155 -0.0200000000000000455 0 0 0 0 0.0746536886245012243
-0.0700000000000000205 -0.0200000000000000455 0 0 0 0 0.0672030921429395689
-0.0600000000000000255 -0.0200000000000000455 0 0 0 0 0.0726023817658424386
-0.0500000000000000305 -0.0200000000000000455 0 0 0 0 0.0723735437989234953
-0.0400000000000000355 -0.0200000000000000455 0 0 0 0 0.0664268607348203616
-0.0300000000000000405 -0.0200000000000000455 0 0 0 0 0.0751138363629579586
-0.0200000000000000455 -0.0200000000000000455 0 0 0 0 0.0721158025413751597
-0.0100000000000000505 -0.0200000000000000455 0 0 0 0 0.0778922976255416871
-5.5511151231257827e-17 -0.0200000000000000455 0 0 0 0 0.0706822119057178566
0.00999999999999993949 -0.0200000000000000455 0 0 0 0 0.0747028462141752225
0.0199999999999999345 -0.0200000000000000455 0 0 0 0 0.0739721218049526202
0.0299999999999999434 -0.0200000000000000455 0 0 0 0 0.0720360338389873511
0.0399999999999999245 -0.0200000000000000455 0 0 0 0 0.0719571022987365722
0.0499999999999999056 -0.0200000000000000455 0 0 0 0 0.0697319084629416525
0.0599999999999999145 -0.0200000000000000455 0 0 0 0 0.0743418251127004603
0.0699999999999999234 -0.0200000000000000455 0 0 0 0 0.0688846527785062779
0.0799999999999999045 -0.0200000000000000455 0 0 0 0 0.0817852399274706793
0.0899999999999998856 -0.0200000000000000455 0 0 0 0 0.0858625427633523952
0.0999999999999998945 -0.0200000000000000455 0 0 0 0 0.0839841763824224485
-0.100000000000000006 -0.0100000000000000505 0 0 0 0 0.0775746541470289236
-0.0900000000000000105 -0.0100000000000000505 0 0 0 0 0.0732031308859586727
-0.0800000000000000155 -0.0100000000000000505 0 0 0 0 0.0724956032633781444
-0.0700000000000000205 -0.0100000000000000505 0 0 0 0 0.066918424554169173
-0.0600000000000000255 -0.0100000000000000505 0 0 0 0 0.0720166620910167726
-0.0500000000000000305 -0.0100000000000000505 0 0 0 0 0.0721449362859129945
-0.0400000000000000355 -0.0100000000000000505 0 0 0 0 0.0694026480615139024
-0.0300000000000000405 -0.0100000000000000505 0 0 0 0 0.0751343428790569312
-0.0200000000000000455 -0.0100000000000000505 0 0 0 0 0.0736124757081270259
-0.0100000000000000505 -0.0100000000000000505 0 0 0 0 0.0691128496676683413
-5.5511151231257827e-17 -0.0100000000000000505 0 0 0 0 0.0704779482632875431
0.00999999999999993949 -0.0100000000000000505 0 0 0 0 0.072607113897800446
0.0199999999999999345 -0.0100000000000000505 0 0 0 0 0.0696809551566839186
0.0299999999999999434 -0.0100000000000000505 0 0 0 0 0.0686737578883767075
0.0399999999999999245 -0.0100000000000000505 0 0 0 0 0.0675246191248297656
0.0499999999999999056 -0.0100000000000000505 0 0 0 0 0.0737184174060821484
0.0599999999999999145 -0.0100000000000000505 0 0 0 0 0.0677013072222471257
0.0699999999999999234 -0.0100000000000000505 0 0 0 0 0.0731466000825166662
0.0799999999999999045 -0.0100000000000000505 0 0 0 0 0.0762413275986909833
0.0899999999999998856 -0.0100000000000000505 0 0 0 0 0.0771587182134389898
0.0999999999999998945 -0.0100000000000000505 0 0 0 0 0.082726823732256885
-0.100000000000000006 -5.5511151231257827e-17 0 0 0 0 0.0767613317444920534
-0.0900000000000000105 -5.5511151231257827e-17 0 0 0 0 0.0746008522212505409
-0.0800000000000000155 -5.5511151231257827e-17 0 0 0 0 0.0732916691377758917
-0.0700000000000000205 -5.5511151231257827e-17 0 0 0 0 0.0712494766116142236
-0.0600000000000000255 -5.5511151231257827e-17 0 0 0 0 0.071934992119669916
-0.0500000000000000305 -5.5511151231257827e-17 0 0 0 0 0.0681717180609703044
-0.0400000000000000355 -5.5511151231257827e-17 0 0 0 0 0.0710744489729404488
-0.0300000000000000405 -5.5511151231257827e-17 0 0 0 0 0.0727039242535829494
-0.0200000000000000455 -5.5511151231257827e-17 0 0 0 0 0.0731017320603132292
-0.0100000000000000505 -5.5511151231257827e-17 0 0 0 0 0.0614091667234897623
-5.5511151231257827e-17 -5.5511151231257827e-17 0 0 0 0 0.0693060080409050039
0.00999999999999993949 -5.5511151231257827e-17 0 0 0 0 0.0686610765457153355
0.0199999999999999345 -5.5511151231257827e-17 0 0 0 0 0.0720061420425772702
0.0299999999999999434 -5.5511151231257827e-17 0 0 0 0 0.0676757293120026637
0.0399999999999999245 -5.5511151231257827e-17 0 0 0 0 0.0711019385904073653
0.0499999999999999056 -5.5511151231257827e-17 0 0 0 0 0.0695698245316743874
0.0599999999999999145 -5.5511151231257827e-17 0 0 0 0 0.0753210259974002871
0.0699999999999999234 -5.5511151231257827e-17 0 0 0 0 0.0738052393794059736
0.0799999999999999045 -5.5511151231257827e-17 0 0 0 0 0.0781536743640899589
0.0899999999999998856 -5.5511151231257827e-17 0 0 0 0 0.0802816047072410638
0.0999999999999998945 -5.5511151231257827e-17 0 0 0 0 0.0855523087829351409
-0.100000000000000006 0.00999999999999993949 0 0 0 0 0.0742497919499874176
-0.0900000000000000105 0.00999999999999993949 0 0 0 0 0.0774416405111551243
-0.0800000000000000155 0.00999999999999993949 0 0 0 0 0.0672302968204021439
-0.0700000000000000205 0.00999999999999993949 0 0 0 0 0.07287051279842853
-0.0600000000000000255 0.00999999999999993949 0 0 0 0 0.0762596543431282026
-0.0500000000000000305 0.00999999999999993949 0 0 0 0 0.0729418923109769884
-0.0400000000000000355 0.00999999999999993949 0 0 0 0 0.0742103275507688537
-0.0300000000000000405 0.00999999999999993949 0 0 0 0 0.0712624174803495464
-0.0200000000000000455 0.00999999999999993949 0 0 0 0 0.0702314931601285969
-0.0100000000000000505 0.00999999999999993949 0 0 0 0 0.0645948787033557847
-5.5511151231257827e-17 0.00999999999999993949 0 0 0 0 0.0657127641737461077
0.00999999999999993949 0.00999999999999993949 0 0 0 0 0.0722492549717426297
0.0199999999999999345 0.00999999999999993949 0 0 0 0 0.0723119310587644615
0.0299999999999999434 0.00999999999999993949 0 0 0 0 0.0737257654741406421
0.0399999999999999245 0.00999999999999993949 0 0 0 0 0.0796018223762512273
0.0499999999999999056 0.00999999999999993949 0 0 0 0 0.0688742497861385278
0.0599999999999999145 0.00999999999999993949 0 0 0 0 0.0770162813663482632
0.0699999999999999234 0.00999999999999993949 0 0 0 0 0.0768597708046436373
0.0799999999999999045 0.00999999999999993949 0 0 0 0 0.0782900555431842865
0.0899999999999998856 0.00999999999999993949 0 0 0 0 0.0772649435698986031
0.0999999999999998945 0.00999999999999993949 0 0 0 0 0.0823495780080556877
-0.100000000000000006 0.0199999999999999345 0 0 0 0 0.076862703651189801
-0.0900000000000000105 0.0199999999999999345 0 0 0 0 0.0751446667462587342
-0.0800000000000000155 0.0199999999999999345 0 0 0 0 0.0780637809932231835
-0.0700000000000000205 0.0199999999999999345 0 0 0 0 0.0727350399643182793
-0.0600000000000000255 0.0199999999999999345 0 0 0 0 0.0775911324918270168
-0.0500000000000000305 0.0199999999999999345 0 0 0 0 0.0699615696519613334
-0.0400000000000000355 0.0199999999999999345 0 0 0 0 0.07234673492610455
-0.0300000000000000405 0.0199999999999999345 0 0 0 0 0.0702913216054439488
-0.0200000000000000455 0.0199999999999999345 0 0 0 0 0.0739501152783632321
-0.0100000000000000505 0.0199999999999999345 0 0 0 0 0.0706059707105159695
-5.5511151231257827e-17 0.0199999999999999345 0 0 0 0 0.0742732400968670881
0.00999999999999993949 0.0199999999999999345 0 0 0 0 0.0697464759498834658
0.0199999999999999345 0.0199999999999999345 0 0 0 0 0.0763756446391344046
0.0299999999999999434 0.0199999999999999345 0 0 0 0 0.0726757572740316382
0.0399999999999999245 0.0199999999999999345 0 0 0 0 0.0750007877051830224
0.0499999999999999056 0.0199999999999999345 0 0 0 0 0.0758088917881250407
0.0599999999999999145 0.0199999999999999345 0 0 0 0 0.0757226575613021841
0.0699999999999999234 0.0199999999999999345 0 0 0 0 0.0805848667174577649
0.0799999999999999045 0.0199999999999999345 0 0 0 0 0.0846457328796386688
0.0899999999999998856 0.0199999999999999345 0 0 0 0 0.0827310819178819629
0.0999999999999998945 0.0199999999999999345 0 0 0 0 0.0831229977756738625
-0.100000000000000006 0.0299999999999999434 0 0 0 0 0.0715456539988517798
-0.0900000000000000105 0.0299999999999999434 0 0 0 0 0.0798093223422765702
-0.0800000000000000155 0.0299999999999999434 0 0 0 0 0.0708551941961050036
-0.0700000000000000205 0.0299999999999999434 0 0 0 0 0.0724720799475908339
-0.0600000000000000255 0.0299999999999999434 0 0 0 0 0.0739976079463958714
-0.0500000000000000305 0.0299999999999999434 0 0 0 0 0.073649967014789583
-0.0400000000000000355 0.0299999999999999434 0 0 0 0 0.0752982674688100762
-0.0300000000000000405 0.0299999999999999434 0 0 0 0 0.0709534571915864942
-0.0200000000000000455 0.0299999999999999434 0 0 0 0 0.0699462500959634748
-0.0100000000000000505 0.0299999999999999434 0 0 0 0 0.0768867899775505098
-5.5511151231257827e-17 0.0299999999999999434 0 0 0 0 0.0702892069630324801
0.00999999999999993949 0.0299999999999999434 0 0 0 0 0.0675170682966709096
0.0199999999999999345 0.0299999999999999434 0 0 0 0 0.0724585872143506948
0.0299999999999999434 0.0299999999999999434 0 0 0 0 0.0703359765410423304
0.0399999999999999245 0.0299999999999999434 0 0 0 0 0.0729162969440221853
0.0499999999999999056 0.0299999999999999434 0 0 0 0 0.0760137278586626025
0.0599999999999999145 0.0299999999999999434 0 0 0 0 0.0771861905753612465
0.0699999999999999234 0.0299999999999999434 0 0 0 0 0.0711588801294565226
0.0799999999999999045 0.0299999999999999434 0 0 0 0 0.0785922575443983029
0.0899999999999998856 0.0299999999999999434 0 0 0 0 0.087333683729171746
0.0999999999999998945 0.0299999999999999434 0 0 0 0 0.088617157220840459
-0.100000000000000006 0.0399999999999999245 0 0 0 0 0.0754785069823265126
-0.0900000000000000105 0.0399999999999999245 0 0 0 0 0.0707195606827735884
-0.0800000000000000155 0.0399999999999999245 0 0 0 0 0.0781440043598413403
-0.0700000000000000205 0.0399999999999999245 0 0 0 0 0.0713130093887448246
-0.0600000000000000255 0.0399999999999999245 0 0 0 0 0.0714528870582580578
-0.0500000000000000305 0.0399999999999999245 0 0 0 0 0.0688968600034713802
-0.0400000000000000355 0.0399999999999999245 0 0 0 0 0.0661556611955165796
-0.0300000000000000405 0.0399999999999999245 0 0 0 0 0.0694989597797393832
-0.0200000000000000455 0.0399999999999999245 0 0 0 0 0.0752680384814739256
-0.0100000000000000505 0.0399999999999999245 0 0 0 0 0.0674782443568110457
-5.5511151231257827e-17 0.0399999999999999245 0 0 0 0 0.0819469619095325452
0.00999999999999993949 0.0399999999999999245 0 0 0 0 0.0714434883892536149
0.0199999999999999345 0.0399999999999999245 0 0 0 0 0.0782275099903345095
0.0299999999999999434 0.0399999999999999245 0 0 0 0 0.0739106451719999252
0.0399999999999999245 0.0399999999999999245 0 0 0 0 0.076004055321216582
0.0499999999999999056 0.0399999999999999245 0 0 0 0 0.0775549153238534877
0.0599999999999999145 0.0399999999999999245 0 0 0 0 0.0795728292465209958
0.0699999999999999234 0.0399999999999999245 0 0 0 0 0.079563052415847782
0.0799999999999999045 0.0399999999999999245 0 0 0 0 0.0901654781699180591
0.0899999999999998856 0.0399999999999999245 0 0 0 0 0.08931308981776237
0.0999999999999998945 0.0399999999999999245 0 0 0 0 0.091724076390266418
-0.100000000000000006 0.0499999999999999056 0 0 0 0 0.0756888135373592341
-0.0900000000000000105 0.0499999999999999056 0 0 0 0 0.0813385309725999789
-0.0800000000000000155 0.0499999999999999056 0 0 0 0 0.0735031459480524063
-0.0700000000000000205 0.0499999999999999056 0 0 0 0 0.0779710729569196709
-0.0600000000000000255 0.0499999999999999056 0 0 0 0 0.0793211802542209687
-0.0500000000000000305 0.0499999999999999056 0 0 0 0 0.0791965469121932997
-0.0400000000000000355 0.0499999999999999056 0 0 0 0 0.0701706245988607397
-0.0300000000000000405 0.0499999999999999056 0 0 0 0 0.0720787296891212403
-0.0200000000000000455 0.0499999999999999056 0 0 0 0 0.0752506547272205339
-0.0100000000000000505 0.0499999999999999056 0 0 0 0 0.0693758475929498741
-5.5511151231257827e-17 0.0499999999999999056 0 0 0 0 0.0771020983457565284
0.00999999999999993949 0.0499999999999999056 0 0 0 0 0.0726696764230728154
0.0199999999999999345 0.0499999999999999056 0 0 0 0 0.0752566183805465638
0.0299999999999999434 0.0499999999999999056 0 0 0 0 0.0805447590798139545
0.0399999999999999245 0.0499999999999999056 0 0 0 0 0.0778271424174308835
0.0499999999999999056 0.0499999999999999056 0 0 0 0 0.0791382203847169896
0.0599999999999999145 0.0499999999999999056 0 0 0 0 0.0858801486641168621
0.0699999999999999234 0.0499999999999999056 0 0 0 0 0.0856555062830448161
0.0799999999999999045 0.0499999999999999056 0 0 0 0 0.0845998596400022451
0.0899999999999998856 0.0499999999999999056 0 0 0 0 0.0875886184573173576
0.0999999999999998945 0.0499999999999999056 0 0 0 0 0.0950620026886463132
-0.100000000000000006 0.0599999999999999145 0 0 0 0 0.0895053323656320593
-0.0900000000000000105 0.0599999999999999145 0 0 0 0 0.0760602978467941337
-0.0800000000000000155 0.0599999999999999145 0 0 0 0 0.0756601946651935531
-0.0700000000000000205 0.0599999999999999145 0 0 0 0 0.0803908128440380121
-0.0600000000000000255 0.0599999999999999145 0 0 0 0 0.0764941912591457357
-0.0500000000000000305 0.0599999999999999145 0 0 0 0 0.0774026337713003137
-0.0400000000000000355 0.0599999999999999145 0 0 0 0 0.0773614500164985647
-0.0300000000000000405 0.0599999999999999145 0 0 0 0 0.0802727353051304882
-0.0200000000000000455 0.0599999999999999145 0 0 0 0 0.0809659846574068004
-0.0100000000000000505 0.0599999999999999145 0 0 0 0 0.0730759090632200209
-5.5511151231257827e-17 0.0599999999999999145 0 0 0 0 0.0815309376120567364
0.00999999999999993949 0.0599999999999999145 0 0 0 0 0.0855582713186740923
0.0199999999999999345 0.0599999999999999145 0 0 0 0 0.0735470117032527987
0.0299999999999999434 0.0599999999999999145 0 0 0 0 0.0858804013133049049
0.0399999999999999245 0.0599999999999999145 0 0 0 0 0.0855776873975992169
0.0499999999999999056 0.0599999999999999145 0 0 0 0 0.0873949597477912954
0.0599999999999999145 0.0599999999999999145 0 0 0 0 0.0771731699705123925
0.0699999999999999234 0.0599999999999999145 0 0 0 0 0.0861453997194766979
0.0799999999999999045 0.0599999999999999145 0 0 0 0 0.0955839724838733612
0.0899999999999998856 0.0599999999999999145 0 0 0 0 0.0941722719669342012
0.0999999999999998945 0.0599999999999999145 0 0 0 0 0.105865524113178247
-0.100000000000000006 0.0699999999999999234 0 0 0 0 0.0832755318284034707
-0.0900000000000000105 0.0699999999999999234 0 0 0 0 0.0793871611356735257
-0.0800000000000000155 0.0699999999999999234 0 0 0 0 0.0775617090463638359
-0.0700000000000000205 0.0699999999999999234 0 0 0 0 0.0805117180198430954
-0.0600000000000000255 0.0699999999999999234 0 0 0 0 0.078572618931531904
-0.0500000000000000305 0.0699999999999999234 0 0 0 0 0.0714084863215684873
-0.0400000000000000355 0.0699999999999999234 0 0 0 0 0.0774861436337232617
-0.0300000000000000405 0.0699999999999999234 0 0 0 0 0.0734188630133867232
-0.0200000000000000455 0.0699999999999999234 0 0 0 0 0.0785716398805379884
-0.0100000000000000505 0.0699999999999999234 0 0 0 0 0.0764997067600488717
-5.5511151231257827e-17 0.0699999999999999234 0 0 0 0 0.0733166477084159912
0.00999999999999993949 0.0699999999999999234 0 0 0 0 0.0825894915461540258
0.0199999999999999345 0.0699999999999999234 0 0 0 0 0.0771353789418935815
0.0299999999999999434 0.0699999999999999234 0 0 0 0 0.0818182295858859987
0.0399999999999999245 0.0699999999999999234 0 0 0 0 0.0844437830746173901
0.0499999999999999056 0.0699999999999999234 0 0 0 0 0.0894848751723766322
0.0599999999999999145 0.0699999999999999234 0 0 0 0 0.0989901455640792849
0.0699999999999999234 0.0699999999999999234 0 0 0 0 0.0924927384704351402
0.0799999999999999045 0.0699999999999999234 0 0 0 0 0.10058875872939825
0.0899999999999998856 0.0699999999999999234 0 0 0 0 0.101698232173919684
0.0999999999999998945 0.0699999999999999234 0 0 0 0 0.110638870537281039
-0.100000000000000006 0.0799999999999999045 0 0 0 0 0.0845670519620180111
-0.0900000000000000105 0.0799999999999999045 0 0 0 0 0.0876215132772922567
-0.0800000000000000155 0.0799999999999999045 0 0 0 0 0.0793796829432249079
-0.0700000000000000205 0.0799999999999999045 0 0 0 0 0.0833245368599891678
-0.0600000000000000255 0.0799999999999999045 0 0 0 0 0.0829080228805541969
-0.0500000000000000305 0.0799999999999999045 0 0 0 0 0.0776999477744102496
-0.0400000000000000355 0.0799999999999999045 0 0 0 0 0.0828918955177068706
-0.0300000000000000405 0.0799999999999999045 0 0 0 0 0.0817581888437271115
-0.0200000000000000455 0.0799999999999999045 0 0 0 0 0.0860548135787248675
-0.0100000000000000505 0.0799999999999999045 0 0 0 0 0.0860171629935503057
-5.5511151231257827e-17 0.0799999999999999045 0 0 0 0 0.0718101392686367052
0.00999999999999993949 0.0799999999999999045 0 0 0 0 0.0794954399913549437
0.0199999999999999345 0.0799999999999999045 0 0 0 0 0.0851703698933124476
0.0299999999999999434 0.0799999999999999045 0 0 0 0 0.0874769934117794051
0.0399999999999999245 0.0799999999999999045 0 0 0 0 0.0874441366791725155
0.0499999999999999056 0.0799999999999999045 0 0 0 0 0.0973678996860981028
0.0599999999999999145 0.0799999999999999045 0 0 0 0 0.0970464444011449878
0.0699999999999999234 0.0799999999999999045 0 0 0 0 0.0987156782150268586
0.0799999999999999045 0.0799999999999999045 0 0 0 0 0.103697475314140322
0.0899999999999998856 0.0799999999999999045 0 0 0 0 0.0987239757478237112
0.0999999999999998945 0.0799999999999999045 0 0 0 0 0.103496930241584781
-0.100000000000000006 0.0899999999999998856 0 0 0 0 0.0878222167789936004
-0.0900000000000000105 0.0899999999999998856 0 0 0 0 0.0885550074279308347
-0.0800000000000000155 0.0899999999999998856 0 0 0 0 0.0859918999373912862
-0.0700000000000000205 0.0899999999999998856 0 0 0 0 0.0833615334331989227
-0.0600000000000000255 0.0899999999999998856 0 0 0 0 0.0857566392719745635
-0.0500000000000000305 0.0899999999999998856 0 0 0 0 0.0866856940910220169
-0.0400000000000000355 0.0899999999999998856 0 0 0 0 0.0802160944044589957
-0.0300000000000000405 0.0899999999999998856 0 0 0 0 0.0846203625649213781
-0.0200000000000000455 0.0899999999999998856 0 0 0 0 0.0779906416237354239
-0.0100000000000000505 0.0899999999999998856 0 0 0 0 0.0877034411430358818
-5.5511151231257827e-17 0.0899999999999998856 0 0 0 0 0.0859384807348251289
0.00999999999999993949 0.0899999999999998856 0 0 0 0 0.0893006565719842854
0.0199999999999999345 0.0899999999999998856 0 0 0 0 0.0986060906052589475
0.0299999999999999434 0.0899999999999998856 0 0 0 0 0.0899121739268302911
0.0399999999999999245 0.0899999999999998856 0 0 0 0 0.0926871571391820886
0.0499999999999999056 0.0899999999999998856 0 0 0 0 0.0918654725551605184
0.0599999999999999145 0.0899999999999998856 0 0 0 0 0.0927052501887083019
0.0699999999999999234 0.0899999999999998856 0 0 0 0 0.100103292256593701
0.0799999999999999045 0.0899999999999998856 0 0 0 0 0.102410474061965948
0.0899999999999998856 0.0899999999999998856 0 0 0 0 0.105095448046922682
0.0999999999999998945 0.0899999999999998856 0 0 0 0 0.112182756528258321
-0.100000000000000006 0.0999999999999998945 0 0 0 0 0.0872576903104782114
-0.0900000000000000105 0.0999999999999998945 0 0 0 0 0.0850795153379440283
-0.0800000000000000155 0.0999999999999998945 0 0 0 0 0.0847445664703845997
-0.0700000000000000205 0.0999999999999998945 0 0 0 0 0.0846981120109558117
-0.0600000000000000255 0.0999999999999998945 0 0 0 0 0.0846608856916427621
-0.0500000000000000305 0.0999999999999998945 0 0 0 0 0.0833907093107700281
-0.0400000000000000355 0.0999999999999998945 0 0 0 0 0.0795801899433136034
-0.0300000000000000405 0.0999999999999998945 0 0 0 0 0.0872860053181648277
-0.0200000000000000455 0.0999999999999998945 0 0 0 0 0.0901273277103900872
-0.0100000000000000505 0.0999999999999998945 0 0 0 0 0.0889905540496110925
-5.5511151231257827e-17 0.0999999999999998945 0 0 0 0 0.0945135789215564709
0.00999999999999993949 0.0999999999999998945 0 0 0 0 0.0955449600517749853
0.0199999999999999345 0.0999999999999998945 0 0 0 0 0.0971916601806879082
0.0299999999999999434 0.0999999999999998945 0 0 0 0 0.0938540341109037335
0.0399999999999999245 0.0999999999999998945 0 0 0 0 0.097129218161106104
0.0499999999999999056 0.0999999999999998945 0 0 0 0 0.102627645164728165
0.0599999999999999145 0.0999999999999998945 0 0 0 0 0.110868080288171772
0.0699999999999999234 0.0999999999999998945 0 0 0 0 0.109345732599496842
0.0799999999999999045 0.0999999999999998945 0 0 0 0 0.111315903574228284
0.0899999999999998856 0.0999999999999998945 0 0 0 0 0.113803495496511461
0.0999999999999998945 0.0999999999999998945 0 0 0 0 0.120703752398490904
4 0 1 22 21
4 1 2 23 22
4 2 3 24 23
4 3 4 25 24
4 4 5 26 25
4 5 6 27 26
4 6 7 28 27
4 7 8 29 28
4 8 9 30 29
4 9 10 31 30
4 10 11 32 31
4 11 12 33 32
4 12 13 34 33
4 13 14 35 34
4 14 15 36 35
4 15 16 37 36
4 16 17 38 37
4 17 18 39 38
4 18 19 40 39
4 19 20 41 40
4 21 22 43 42
4 22 23 44 43
4 23 24 45 44
4 24 25 46 45
4 25 26 47 46
4 26 27 48 47
4 27 28 49 48
4 28 29 50 49
4 29 30 51 50
4 30 31 52 51
4 31 32 53 52
4 32 33 54 53
4 33 34 55 54
4 34 35 56 55
4 35 36 57 56
4 36 37 58 57
4 37 38 59 58
4 38 39 60 59
4 39 40 61 60
4 40 41 62 61
4 42 43 64 63
4 43 44 65 64
4 44 45 66 65
4 45 46 67 66
4 46 47 68 67
4 47 48 69 68
4 48 49 70 69
4 49 50 71 70
4 50 51 72 71
4 51 52 73 72
4 52 53 74 73
4 53 54 75 74
4 54 55 76 75
4 55 56 77 76
4 56 57 78 77
4 57 58 79 78
4 58 59 80 79
4 59 60 81 80
4 60 61 82 81
4 61 62 83 82
4 63 64 85 84
4 64 65 86 85
4 65 66 87 86
4 66 67 88 87
4 67 68 89 88
4 68 69 90 89
4 69 70 91 90
4 70 71 92 91
4 71 72 93 92
4 72 73 94 93
4 73 74 95 94
4 74 75 96 95
4 75 76 97 96
4 76 77 98 97
4 77 78 99 98
4 78 79 100 99
4 79 80 101 100
4 80 81 102 101
4 81 82 103 102
4 82 83 104 103
4 84 85 106 105
4 85 86 107 106
4 86 87 108 107
4 87 88 109 108
4 88 89 110 109
4 89 90 111 110
4 90 91 112 111
4 91 92 113 112
4 92 93 114 113
4 93 94 115 114
4 94 95 116 115
4 95 96 117 116
4 96 97 118 117
4 97 98 119 118
4 98 99 120 119
4 99 100 121 120
4 100 101 122 121
4 101 102 123 122
4 102 103 124 123
4 103 104 125 124
4 105 106 127 126
4 106 107 128 127
4 107 108 129 128
4 108 109 130 129
4 109 110 131 130
4 110 111 132 131
4 111 112 133 132
4 112 113 134 133
4 113 114 135 134
4 114 115 136 135
4 115 116 137 136
4 116 117 138 137
4 117 118 139 138
4 118 119 140 139
4 119 120 141 140
4 120 121 142 141
4 121 122 143 142
4 122 123 144 143
4 123 124 145 144
4 124 125 146 145
4 126 127 148 147
4 127 128 149 148
4 128 129 150 149
4 129 130 151 150
4 130 131 152 151
4 131 132 153 152
4 132 133 154 153
4 133 134 155 154
4 134 135 156 155
4 135 136 157 156
4 136 137 158 157
4 137 138 159 158
4 138 139 160 159
4 139 140 161 160
4 140 141 162 161
4 141 142 163 162
4 142 143 164 163
4 143 144 165 164
4 144 145 166 165
4 145 146 167 166
4 147 148 169 168
4 148 149 170 169
4 149 150 171 170
4 150 151 172 171
4 151 152 173 172
4 152 153 174 173
4 153 154 175 174
4 154 155 176 175
4 155 156 177 176
4 156 157 178 177
4 157 158 179 178
4 158 159 180 179
4 159 160 181 180
4 160 161 182 181
4 161 162 183 182
4 162 163 184 183
4 163 164 185 184
4 164 165 186 185
4 165 166 187 186
4 166 167 188 187
4 168 169 190 189
4 169 170 191 190
4 170 171 192 191
4 171 172 193 192
4 172 173 194 193
4 173 174 195 194
4 174 175 196 195
4 175 176 197 196
4 176 177 198 197
4 177 178 199 198
4 178 179 200 199
4 179 180 201 200
4 180 181 202 201
4 181 182 203 202
4 182 183 204 203
4 183 184 205 204
4 184 185 206 205
4 185 186 207 206
4 186 187 208 207
4 187 188 209 208
4 189 190 211 210
4 190 191 212 211
4 191 192 213 212
4 192 193 214 213
4 193 194 215 214
4 194 195 216 215
4 195 196 217 216
4 196 197 218 217
4 197 198 219 218
4 198 199 220 219
4 199 200 221 220
4 200 201 222 221
4 201 202 223 222
4 202 203 224 223
4 203 204 225 224
4 204 205 226 225
4 205 206 227 226
4 206 207 228 227
4 207 208 229 228
4 208 209 230 229
4 210 211 232 231
4 211 212 233 232
4 212 213 234 233
4 213 214 235 234
4 214 215 236 235
4 215 216 237 236
4 216 217 238 237
4 217 218 239 238
4 218 219 240 239
4 219 220 241 240
4 220 221 242 241
4 221 222 243 242
4 222 223 244 243
4 223 224 245 244
4 224 225 246 245
4 225 226 247 246
4 226 227 248 247
4 227 228 249 248
4 228 229 250 249
4 229 230 251 250
4 231 232 253 252
4 232 233 254 253
4 233 234 255 254
4 234 235 256 255
4 235 236 257 256
4 236 237 258 257
4 237 238 259 258
4 238 239 260 259
4 239 240 261 260
4 240 241 262 261
4 241 242 263 262
4 242 243 264 263
4 243 244 265 264
4 244 245 266 265
4 245 246 267 266
4 246 247 268 267
4 247 248 269 268
4 248 249 270 269
4 249 250 271 270
4 250 251 272 271
4 252 253 274 273
4 253 254 275 274
4 254 255 276 275
4 255 256 277 276
4 256 257 278 277
4 257 258 279 278
4 258 259 280 279
4 259 260 281 280
4 260 261 282 281
4 261 262 283 282
4 262 263 284 283
4 263 264 285 284
4 264 265 286 285
4 265 266 287 286
4 266 267 288 287
4 267 268 289 288
4 268 269 290 289
4 269 270 291 290
4 270 271 292 291
4 271 272 293 292
4 273 274 295 294
4 274 275 296 295
4 275 276 297 296
4 276 277 298 297
4 277 278 299 298
4 278 279 300 299
4 279 280 301 300
4 280 281 302 301
4 281 282 303 302
4 282 283 304 303
4 283 284 305 304
4 284 285 306 305
4 285 286 307 306
4 286 287 308 307
4 287 288 309 308
4 288 289 310 309
4 289 290 311 310
4 290 291 312 311
4 291 292 313 312
4 292 293 314 313
4 294 295 316 315
4 295 296 317 316
4 296 297 318 317
4 297 298 319 318
4 298 299 320 319
4 299 300 321 320
4 300 301 322 321
4 301 302 323 322
4 302 303 324 323
4 303 304 325 324
4 304 305 326 325
4 305 306 327 326
4 306 307 328 327
4 307 308 329 328
4 308 309 330 329
4 309 310 331 330
4 310 311 332 331
4 311 312 333 332
4 312 313 334 333
4 313 314 335 334
4 315 316 337 336
4 316 317 338 337
4 317 318 339 338
4 318 319 340 339
4 319 320 341 340
4 320 321 342 341
4 321 322 343 342
4 322 323 344 343
4 323 324 345 344
4 324 325 346 345
4 325 326 347 346
4 326 327 348 347
4 327 328 349 348
4 328 329 350 349
4 329 330 351 350
4 330 331 352 351
4 331 332 353 352
4 332 333 354 353
4 333 334 355 354
4 334 335 356 355
4 336 337 358 357
4 337 338 359 358
4 338 339 360 359
4 339 340 361 360
4 340 341 362 361
4 341 342 363 362
4 342 343 364 363
4 343 344 365 364
4 344 345 366 365
4 345 346 367 366
4 346 347 368 367
4 347 348 369 368
4 348 349 370 369
4 349 350 371 370
4 350 351 372 371
4 351 352 373 372
4 352 353 374 373
4 353 354 375 374
4 354 355 376 375
4 355 356 377 376
4 357 358 379 378
4 358 359 380 379
4 359 360 381 380
4 360 361 382 381
4 361 362 383 382
4 362 363 384 383
4 363 364 385 384
4 364 365 386 385
4 365 366 387 386
4 366 367 388 387
4 367 368 389 388
4 368 369 390 389
4 369 370 391 390
4 370 371 392 391
4 371 372 393 392
4 372 373 394 393
4 373 374 395 394
4 374 375 396 395
4 375 376 397 396
4 376 377 398 397
4 378 379 400 399
4 379 380 401 400
4 380 381 402 401
4 381 382 403 402
4 382 383 404 403
4 383 384 405 404
4 384 385 406 405
4 385 386 407 406
4 386 387 408 407
4 387 388 409 408
4 388 389 410 409
4 389 390 411 410
4 390 391 412 411
4 391 392 413 412
4 392 393 414 413
4 393 394 415 414
4 394 395 416 415
4 395 396 417 416
4 396 397 418 417
4 397 398 419 418
4 399 400 421 420
4 400 401 422 421
4 401 402 423 422
4 402 403 424 423
4 403 404 425 424
4 404 405 426 425
4 405 406 427 426
4 406 407 428 427
4 407 408 429 428
4 408 409 430 429
4 409 410 431 430
4 410 411 432 431
4 411 412 433 432
4 412 413 434 433
4 413 414 435 434
4 414 415 436 435
4 415 416 437 436
4 416 417 438 437
4 417 418 439 438
4 418 419 440 439
