ply
format ascii 1.0
element vertex 81
property double x
property double y
property double z
property double vx
property double vy
property double vz
property double s
element face 64
property list uchar int vertex_indices
end_header
-0.400000000000000022 -0.400000000000000022 0 0 0 0 178633.002124999999
-0.300000000000000044 -0.400000000000000022 0 0 0 0 15626.0536796875003
-0.200000000000000067 -0.400000000000000022 0 0 0 0 1291.36212890625006
-0.100000000000000089 -0.400000000000000022 0 0 0 0 637.322521484374988
-1.11022302462515654e-16 -0.400000000000000022 0 0 0 0 161.043777893066419
0.0999999999999998668 -0.400000000000000022 0 0 0 0 140.974146423339846
0.199999999999999845 -0.400000000000000022 0 0 0 0 267.621379882812505
0.299999999999999822 -0.400000000000000022 0 0 0 0 1023.1600483398438
0.3999999999999998 -0.400000000000000022 0 0 0 0 37876.6095625000016
-0.400000000000000022 -0.300000000000000044 0 0 0 0 5950.08128320312517
-0.300000000000000044 -0.300000000000000044 0 0 0 0 606.278916992187533
-0.200000000000000067 -0.300000000000000044 0 0 0 0 156.104200561523442
-0.100000000000000089 -0.300000000000000044 0 0 0 0 92.3842706298828062
-1.11022302462515654e-16 -0.300000000000000044 0 0 0 0 38.4025726318359375
0.0999999999999998668 -0.300000000000000044 0 0 0 0 37.2772016601562513
0.199999999999999845 -0.300000000000000044 0 0 0 0 53.532463836669919
0.299999999999999822 -0.300000000000000044 0 0 0 0 424.678510253906268
0.3999999999999998 -0.300000000000000044 0 0 0 0 6602.81162890625001
-0.400000000000000022 -0.200000000000000067 0 0 0 0 545.794300537109393
-0.300000000000000044 -0.200000000000000067 0 0 0 0 100.481719970703125
-0.200000000000000067 -0.200000000000000067 0 0 0 0 27.8482322845458974
-0.100000000000000089 -0.200000000000000067 0 0 0 0 8.73311188125610371
-1.11022302462515654e-16 -0.200000000000000067 0 0 0 0 6.68172808837890653
0.0999999999999998668 -0.200000000000000067 0 0 0 0 10.6001079864501957
0.199999999999999845 -0.200000000000000067 0 0 0 0 15.8565763397216806
0.299999999999999822 -0.200000000000000067 0 0 0 0 152.281541992187499
0.3999999999999998 -0.200000000000000067 0 0 0 0 2218.48502441406254
-0.400000000000000022 -0.100000000000000089 0 0 0 0 197.903948242187511
-0.300000000000000044 -0.100000000000000089 0 0 0 0 18.2208275375366213
-0.200000000000000067 -0.100000000000000089 0 0 0 0 5.03745740890502969
-0.100000000000000089 -0.100000000000000089 0 0 0 0 1.95518131923675531
-1.11022302462515654e-16 -0.100000000000000089 0 0 0 0 1.20218631553649913
0.0999999999999998668 -0.100000000000000089 0 0 0 0 1.66599610042572022
0.199999999999999845 -0.100000000000000089 0 0 0 0 7.01725260543823204
0.299999999999999822 -0.100000000000000089 0 0 0 0 235.568033325195302
0.3999999999999998 -0.100000000000000089 0 0 0 0 5078.04258007812496
-0.400000000000000022 -1.11022302462515654e-16 0 0 0 0 102.979783569335936
-0.300000000000000044 -1.11022302462515654e-16 0 0 0 0 12.929269050598144
-0.200000000000000067 -1.11022302462515654e-16 0 0 0 0 1.872606725692749
-0.100000000000000089 -1.11022302462515654e-16 0 0 0 0 0.872495904445648174
-1.11022302462515654e-16 -1.11022302462515654e-16 0 0 0 0 0.0414136636946350334
0.0999999999999998668 -1.11022302462515654e-16 0 0 0 0 0.585035959482193002
0.199999999999999845 -1.11022302462515654e-16 0 0 0 0 16.4647864303588882
0.299999999999999822 -1.11022302462515654e-16 0 0 0 0 477.355803222656277
0.3999999999999998 -1.11022302462515654e-16 0 0 0 0 10610.4842539062502
-0.400000000000000022 0.0999999999999998668 0 0 0 0 146.342011840820305
-0.300000000000000044 0.0999999999999998668 0 0 0 0 18.5280640640258802
-0.200000000000000067 0.0999999999999998668 0 0 0 0 4.32814635658264191
-0.100000000000000089 0.0999999999999998668 0 0 0 0 1.24876951313018791
-1.11022302462515654e-16 0.0999999999999998668 0 0 0 0 0.453042273759841907
0.0999999999999998668 0.0999999999999998668 0 0 0 0 0.992142248153686568
0.199999999999999845 0.0999999999999998668 0 0 0 0 16.878339241027831
0.299999999999999822 0.0999999999999998668 0 0 0 0 331.618488647460936
0.3999999999999998 0.0999999999999998668 0 0 0 0 5320.09082812500037
-0.400000000000000022 0.199999999999999845 0 0 0 0 706.869723632812452
-0.300000000000000044 0.199999999999999845 0 0 0 0 57.7777076110839829
-0.200000000000000067 0.199999999999999845 0 0 0 0 6.93550411224365249
-0.100000000000000089 0.199999999999999845 0 0 0 0 7.49126889801025353
-1.11022302462515654e-16 0.199999999999999845 0 0 0 0 2.159848246574402
0.0999999999999998668 0.199999999999999845 0 0 0 0 1.9532259283065796
0.199999999999999845 0.199999999999999845 0 0 0 0 7.57040803718566924
0.299999999999999822 0.199999999999999845 0 0 0 0 129.363901123046872
0.3999999999999998 0.199999999999999845 0 0 0 0 1659.38473876953117
-0.400000000000000022 0.299999999999999822 0 0 0 0 12489.3273750000008
-0.300000000000000044 0.299999999999999822 0 0 0 0 497.70765039062502
-0.200000000000000067 0.299999999999999822 0 0 0 0 794.891312500000026
-0.100000000000000089 0.299999999999999822 0 0 0 0 50.9074569396972691
-1.11022302462515654e-16 0.299999999999999822 0 0 0 0 45.4242038116455049
0.0999999999999998668 0.299999999999999822 0 0 0 0 13.9806702194213859
0.199999999999999845 0.299999999999999822 0 0 0 0 29.8387561950683597
0.299999999999999822 0.299999999999999822 0 0 0 0 284.208090087890639
0.3999999999999998 0.299999999999999822 0 0 0 0 6933.3397851562504
-0.400000000000000022 0.3999999999999998 0 0 0 0 906996.35400000005
-0.300000000000000044 0.3999999999999998 0 0 0 0 84073.4016874999943
-0.200000000000000067 0.3999999999999998 0 0 0 0 10370.5860898437495
-0.100000000000000089 0.3999999999999998 0 0 0 0 1033.66149072265625
-1.11022302462515654e-16 0.3999999999999998 0 0 0 0 548.14425170898437
0.0999999999999998668 0.3999999999999998 0 0 0 0 316.146109130859372
0.199999999999999845 0.3999999999999998 0 0 0 0 290.278254394531245
0.299999999999999822 0.3999999999999998 0 0 0 0 3769.03189453125015
0.3999999999999998 0.3999999999999998 0 0 0 0 53907.9874843750003
4 0 1 10 9
4 1 2 11 10
4 2 3 12 11
4 3 4 13 12
4 4 5 14 13
4 5 6 15 14
4 6 7 16 15
4 7 8 17 16
4 9 10 19 18
4 10 11 20 19
4 11 12 21 20
4 12 13 22 21
4 13 14 23 22
4 14 15 24 23
4 15 16 25 24
4 16 17 26 25
4 18 19 28 27
4 19 20 29 28
4 20 21 30 29
4 21 22 31 30
4 22 23 32 31
4 23 24 33 32
4 24 25 34 33
4 25 26 35 34
4 27 28 37 36
4 28 29 38 37
4 29 30 39 38
4 30 31 40 39
4 31 32 41 40
4 32 33 42 41
4 33 34 43 42
4 34 35 44 43
4 36 37 46 45
4 37 38 47 46
4 38 39 48 47
4 39 40 49 48
4 40 41 50 49
4 41 42 51 50
4 42 43 52 51
4 43 44 53 52
4 45 46 55 54
4 46 47 56 55
4 47 48 57 56
4 48 49 58 57
4 49 50 59 58
4 50 51 60 59
4 51 52 61 60
4 52 53 62 61
4 54 55 64 63
4 55 56 65 64
4 56 57 66 65
4 57 58 67 66
4 58 59 68 67
4 59 60 69 68
4 60 61 70 69
4 61 62 71 70
4 63 64 73 72
4 64 65 74 73
4 65 66 75 74
4 66 67 76 75
4 67 68 77 76
4 68 69 78 77
4 69 70 79 78
4 70 71 80 79
