ply
format ascii 1.0
element vertex 441
property double x
property double y
property double z
property double vx
property double vy
property double vz
property double s
element face 400
property list uchar int vertex_indices
end_header
-0.100000000000000006 -0.100000000000000006 0 0 0 0 0.0813914289027452414
-0.0900000000000000105 -0.100000000000000006 0 0 0 0 0.0761429646015167189
-0.0800000000000000155 -0.100000000000000006 0 0 0 0 0.0799596438705921231
-0.0700000000000000205 -0.100000000000000006 0 0 0 0 0.0827609302699565952
-0.0600000000000000255 -0.100000000000000006 0 0 0 0 0.0773919847607612565
-0.0500000000000000305 -0.100000000000000006 0 0 0 0 0.078509407997131353
-0.0400000000000000355 -0.100000000000000006 0 0 0 0 0.078182570785284039
-0.0300000000000000405 -0.100000000000000006 0 0 0 0 0.0830757498443126657
-0.0200000000000000455 -0.100000000000000006 0 0 0 0 0.0784467265829443955
-0.0100000000000000505 -0.100000000000000006 0 0 0 0 0.0794595431089401283
-5.5511151231257827e-17 -0.100000000000000006 0 0 0 0 0.0806526881456375161
0.00999999999999993949 -0.100000000000000006 0 0 0 0 0.0827548881769180344
0.0199999999999999345 -0.100000000000000006 0 0 0 0 0.0810620807707309737
0.0299999999999999434 -0.100000000000000006 0 0 0 0 0.0837978262305259652
0.0399999999999999245 -0.100000000000000006 0 0 0 0 0.0863889636993408205
0.0499999999999999056 -0.100000000000000006 0 0 0 0 0.0878419325351715019
0.0599999999999999145 -0.100000000000000006 0 0 0 0 0.0904695232808589989
0.0699999999999999234 -0.100000000000000006 0 0 0 0 0.0931443802416324629
0.0799999999999999045 -0.100000000000000006 0 0 0 0 0.102253711670637126
0.0899999999999998856 -0.100000000000000006 0 0 0 0 0.10813769626617431
0.0999999999999998945 -0.100000000000000006 0 0 0 0 0.103257145345211035
-0.100000000000000006 -0.0900000000000000105 0 0 0 0 0.0812884346842765865
-0.0900000000000000105 -0.0900000000000000105 0 0 0 0 0.0808068795502185772
-0.0800000000000000155 -0.0900000000000000105 0 0 0 0 0.0747536886334419226
-0.0700000000000000205 -0.0900000000000000105 0 0 0 0 0.0821723291575908593
-0.0600000000000000255 -0.0900000000000000105 0 0 0 0 0.0809038482904434197
-0.0500000000000000305 -0.0900000000000000105 0 0 0 0 0.0789798597693443238
-0.0400000000000000355 -0.0900000000000000105 0 0 0 0 0.0769863461703062107
-0.0300000000000000405 -0.0900000000000000105 0 0 0 0 0.0774778533726930563
-0.0200000000000000455 -0.0900000000000000105 0 0 0 0 0.0819670899361372024
-0.0100000000000000505 -0.0900000000000000105 0 0 0 0 0.0776431750357151063
-5.5511151231257827e-17 -0.0900000000000000105 0 0 0 0 0.0800621085166931118
0.00999999999999993949 -0.0900000000000000105 0 0 0 0 0.0790463156849145893
0.0199999999999999345 -0.0900000000000000105 0 0 0 0 0.0846618964523077056
0.0299999999999999434 -0.0900000000000000105 0 0 0 0 0.0890684865713119445
0.0399999999999999245 -0.0900000000000000105 0 0 0 0 0.0859211056232452447
0.0499999999999999056 -0.0900000000000000105 0 0 0 0 0.0880249767899513313
0.0599999999999999145 -0.0900000000000000105 0 0 0 0 0.0921598386168479972
0.0699999999999999234 -0.0900000000000000105 0 0 0 0 0.0921038408875465425
0.0799999999999999045 -0.0900000000000000105 0 0 0 0 0.102474124118685728
0.0899999999999998856 -0.0900000000000000105 0 0 0 0 0.101081614971160888
0.0999999999999998945 -0.0900000000000000105 0 0 0 0 0.103807266190648076
-0.100000000000000006 -0.0800000000000000155 0 0 0 0 0.0806203023791313145
-0.0900000000000000105 -0.0800000000000000155 0 0 0 0 0.0815309229046106282
-0.0800000000000000155 -0.0800000000000000155 0 0 0 0 0.0806709411144256594
-0.0700000000000000205 -0.0800000000000000155 0 0 0 0 0.072721835330128673
-0.0600000000000000255 -0.0800000000000000155 0 0 0 0 0.0739781596213579112
-0.0500000000000000305 -0.0800000000000000155 0 0 0 0 0.0771296355500817321
-0.0400000000000000355 -0.0800000000000000155 0 0 0 0 0.0730249971747398419
-0.0300000000000000405 -0.0800000000000000155 0 0 0 0 0.0714105695188045481
-0.0200000000000000455 -0.0800000000000000155 0 0 0 0 0.078471751764416689
-0.0100000000000000505 -0.0800000000000000155 0 0 0 0 0.0723252232223749181
-5.5511151231257827e-17 -0.0800000000000000155 0 0 0 0 0.075733118355274201
0.00999999999999993949 -0.0800000000000000155 0 0 0 0 0.0781539337038993781
0.0199999999999999345 -0.0800000000000000155 0 0 0 0 0.0713444094657897931
0.0299999999999999434 -0.0800000000000000155 0 0 0 0 0.0835368283390998806
0.0399999999999999245 -0.0800000000000000155 0 0 0 0 0.0848761967569589548
0.0499999999999999056 -0.0800000000000000155 0 0 0 0 0.0874819868654012622
0.0599999999999999145 -0.0800000000000000155 0 0 0 0 0.0845831658244133033
0.0699999999999999234 -0.0800000000000000155 0 0 0 0 0.0907551495730876956
0.0799999999999999045 -0.0800000000000000155 0 0 0 0 0.0855568873882293635
0.0899999999999998856 -0.0800000000000000155 0 0 0 0 0.098479998707771299
0.0999999999999998945 -0.0800000000000000155 0 0 0 0 0.104103156030178071
-0.100000000000000006 -0.0700000000000000205 0 0 0 0 0.0778864634931087513
-0.0900000000000000105 -0.0700000000000000205 0 0 0 0 0.0720942454338073663
-0.0800000000000000155 -0.0700000000000000205 0 0 0 0 0.076895068496465685
-0.0700000000000000205 -0.0700000000000000205 0 0 0 0 0.0741580251604318647
-0.0600000000000000255 -0.0700000000000000205 0 0 0 0 0.0725923927649855666
-0.0500000000000000305 -0.0700000000000000205 0 0 0 0 0.0726226290613412873
-0.0400000000000000355 -0.0700000000000000205 0 0 0 0 0.0729768782407045347
-0.0300000000000000405 -0.0700000000000000205 0 0 0 0 0.0695824125856161074
-0.0200000000000000455 -0.0700000000000000205 0 0 0 0 0.0702331215143203735
-0.0100000000000000505 -0.0700000000000000205 0 0 0 0 0.071557889759540555
-5.5511151231257827e-17 -0.0700000000000000205 0 0 0 0 0.0758725357204675654
0.00999999999999993949 -0.0700000000000000205 0 0 0 0 0.080973329156637186
0.0199999999999999345 -0.0700000000000000205 0 0 0 0 0.0841240070611238427
0.0299999999999999434 -0.0700000000000000205 0 0 0 0 0.0807990577816963262
0.0399999999999999245 -0.0700000000000000205 0 0 0 0 0.082363839894533164
0.0499999999999999056 -0.0700000000000000205 0 0 0 0 0.0818815238475799623
0.0599999999999999145 -0.0700000000000000205 0 0 0 0 0.087911835283041001
0.0699999999999999234 -0.0700000000000000205 0 0 0 0 0.0895851427614688806
0.0799999999999999045 -0.0700000000000000205 0 0 0 0 0.0943861593008041427
0.0899999999999998856 -0.0700000000000000205 0 0 0 0 0.0963346010148525278
0.0999999999999998945 -0.0700000000000000205 0 0 0 0 0.100612374693155288
-0.100000000000000006 -0.0600000000000000255 0 0 0 0 0.081630568772554396
-0.0900000000000000105 -0.0600000000000000255 0 0 0 0 0.074272769093513491
-0.0800000000000000155 -0.0600000000000000255 0 0 0 0 0.074023315653204913
-0.0700000000000000205 -0.0600000000000000255 0 0 0 0 0.0719510155320167571
-0.0600000000000000255 -0.0600000000000000255 0 0 0 0 0.0667591686993837391
-0.0500000000000000305 -0.0600000000000000255 0 0 0 0 0.0772357807606458696
-0.0400000000000000355 -0.0600000000000000255 0 0 0 0 0.0717706059217453063
-0.0300000000000000405 -0.0600000000000000255 0 0 0 0 0.0692925270572304769
-0.0200000000000000455 -0.0600000000000000255 0 0 0 0 0.0767030164152383842
-0.0100000000000000505 -0.0600000000000000255 0 0 0 0 0.0750668536275625187
-5.5511151231257827e-17 -0.0600000000000000255 0 0 0 0 0.0777549445927143146
0.00999999999999993949 -0.0600000000000000255 0 0 0 0 0.0702981081008911129
0.0199999999999999345 -0.0600000000000000255 0 0 0 0 0.07530127747356892
0.0299999999999999434 -0.0600000000000000255 0 0 0 0 0.0793540013954043416
0.0399999999999999245 -0.0600000000000000255 0 0 0 0 0.0785243799537420212
0.0499999999999999056 -0.0600000000000000255 0 0 0 0 0.0888418333381414405
0.0599999999999999145 -0.0600000000000000255 0 0 0 0 0.0823836723268032006
0.0699999999999999234 -0.0600000000000000255 0 0 0 0 0.0886726987659931243
0.0799999999999999045 -0.0600000000000000255 0 0 0 0 0.0918146158158779091
0.0899999999999998856 -0.0600000000000000255 0 0 0 0 0.091476956948637958
0.0999999999999998945 -0.0600000000000000255 0 0 0 0 0.099121262162923815
-0.100000000000000006 -0.0500000000000000305 0 0 0 0 0.0753005669414997109
-0.0900000000000000105 -0.0500000000000000305 0 0 0 0 0.0730782233178615542
-0.0800000000000000155 -0.0500000000000000305 0 0 0 0 0.0740281554907560313
-0.0700000000000000205 -0.0500000000000000305 0 0 0 0 0.0696566811203956637
-0.0600000000000000255 -0.0500000000000000305 0 0 0 0 0.073439223185181618
-0.0500000000000000305 -0.0500000000000000305 0 0 0 0 0.0712575263530015879
-0.0400000000000000355 -0.0500000000000000305 0 0 0 0 0.0710646862909197763
-0.0300000000000000405 -0.0500000000000000305 0 0 0 0 0.0685609820336103432
-0.0200000000000000455 -0.0500000000000000305 0 0 0 0 0.0707018730044364913
-0.0100000000000000505 -0.0500000000000000305 0 0 0 0 0.0734105212688446057
-5.5511151231257827e-17 -0.0500000000000000305 0 0 0 0 0.074141491785645483
0.00999999999999993949 -0.0500000000000000305 0 0 0 0 0.0716795997023582515
0.0199999999999999345 -0.0500000000000000305 0 0 0 0 0.0718098999261856108
0.0299999999999999434 -0.0500000000000000305 0 0 0 0 0.0795996698141098052
0.0399999999999999245 -0.0500000000000000305 0 0 0 0 0.0811979403495788621
0.0499999999999999056 -0.0500000000000000305 0 0 0 0 0.0805765747874975236
0.0599999999999999145 -0.0500000000000000305 0 0 0 0 0.0846484580487012889
0.0699999999999999234 -0.0500000000000000305 0 0 0 0 0.088388066560029982
0.0799999999999999045 -0.0500000000000000305 0 0 0 0 0.0902866339683532776
0.0899999999999998856 -0.0500000000000000305 0 0 0 0 0.0898252105116844196
0.0999999999999998945 -0.0500000000000000305 0 0 0 0 0.0919183563590049713
-0.100000000000000006 -0.0400000000000000355 0 0 0 0 0.0755394725203514111
-0.0900000000000000105 -0.0400000000000000355 0 0 0 0 0.0733580529168248174
-0.0800000000000000155 -0.0400000000000000355 0 0 0 0 0.0692490522935986508
-0.0700000000000000205 -0.0400000000000000355 0 0 0 0 0.0759454918205738072
-0.0600000000000000255 -0.0400000000000000355 0 0 0 0 0.078949007883667946
-0.0500000000000000305 -0.0400000000000000355 0 0 0 0 0.0733393345773220018
-0.0400000000000000355 -0.0400000000000000355 0 0 0 0 0.0681361342370510048
-0.0300000000000000405 -0.0400000000000000355 0 0 0 0 0.0743792607486248036
-0.0200000000000000455 -0.0400000000000000355 0 0 0 0 0.0745540292859077497
-0.0100000000000000505 -0.0400000000000000355 0 0 0 0 0.0717437979578971902
-5.5511151231257827e-17 -0.0400000000000000355 0 0 0 0 0.0697311254441738138
0.00999999999999993949 -0.0400000000000000355 0 0 0 0 0.0810067501068115203
0.0199999999999999345 -0.0400000000000000355 0 0 0 0 0.0807121024280786498
0.0299999999999999434 -0.0400000000000000355 0 0 0 0 0.0769872667640447567
0.0399999999999999245 -0.0400000000000000355 0 0 0 0 0.0774315854310989315
0.0499999999999999056 -0.0400000000000000355 0 0 0 0 0.0795843610912561478
0.0599999999999999145 -0.0400000000000000355 0 0 0 0 0.0851800113767385431
0.0699999999999999234 -0.0400000000000000355 0 0 0 0 0.0874321876466274267
0.0799999999999999045 -0.0400000000000000355 0 0 0 0 0.0949333208799362227
0.0899999999999998856 -0.0400000000000000355 0 0 0 0 0.0906473437845706914
0.0999999999999998945 -0.0400000000000000355 0 0 0 0 0.0955932750552892646
-0.100000000000000006 -0.0300000000000000405 0 0 0 0 0.0765817287862300827
-0.0900000000000000105 -0.0300000000000000405 0 0 0 0 0.0755566984713077483
-0.0800000000000000155 -0.0300000000000000405 0 0 0 0 0.0748109750151634278
-0.0700000000000000205 -0.0300000000000000405 0 0 0 0 0.0774804170876741416
-0.0600000000000000255 -0.0300000000000000405 0 0 0 0 0.0709505428895354229
-0.0500000000000000305 -0.0300000000000000405 0 0 0 0 0.067795344412326819
-0.0400000000000000355 -0.0300000000000000405 0 0 0 0 0.0657751442268490749
-0.0300000000000000405 -0.0300000000000000405 0 0 0 0 0.0720203036963939641
-0.0200000000000000455 -0.0300000000000000405 0 0 0 0 0.0734377483725547758
-0.0100000000000000505 -0.0300000000000000405 0 0 0 0 0.0710918419212102914
-5.5511151231257827e-17 -0.0300000000000000405 0 0 0 0 0.0761865199804306059
0.00999999999999993949 -0.0300000000000000405 0 0 0 0 0.0754171106964349747
0.0199999999999999345 -0.0300000000000000405 0 0 0 0 0.0741009464561939307
0.0299999999999999434 -0.0300000000000000405 0 0 0 0 0.0795896574854850769
0.0399999999999999245 -0.0300000000000000405 0 0 0 0 0.0787902637273073247
0.0499999999999999056 -0.0300000000000000405 0 0 0 0 0.0767475404739379891
0.0599999999999999145 -0.0300000000000000405 0 0 0 0 0.0818966612368822039
0.0699999999999999234 -0.0300000000000000405 0 0 0 0 0.0874257829785347051
0.0799999999999999045 -0.0300000000000000405 0 0 0 0 0.0898957439661026009
0.0899999999999998856 -0.0300000000000000405 0 0 0 0 0.0882817258536815613
0.0999999999999998945 -0.0300000000000000405 0 0 0 0 0.0941173929870128684
-0.100000000000000006 -0.0200000000000000455 0 0 0 0 0.0806585466265678369
-0.0900000000000000105 -0.0200000000000000455 0 0 0 0 0.0725861444920301441
-0.0800000000000000155 -0.0200000000000000455 0 0 0 0 0.0714567785486578955
-0.0700000000000000205 -0.0200000000000000455 0 0 0 0 0.0758205824494361941
-0.0600000000000000255 -0.0200000000000000455 0 0 0 0 0.0759505883082747524
-0.0500000000000000305 -0.0200000000000000455 0 0 0 0 0.0725712805986404447
-0.0400000000000000355 -0.0200000000000000455 0 0 0 0 0.0739577337726950584
-0.0300000000000000405 -0.0200000000000000455 0 0 0 0 0.0705627825558185623
-0.0200000000000000455 -0.0200000000000000455 0 0 0 0 0.0737405831217765872
-0.0100000000000000505 -0.0200000000000000455 0 0 0 0 0.0738227891251444779
-5.5511151231257827e-17 -0.0200000000000000455 0 0 0 0 0.075730272457003589
0.00999999999999993949 -0.0200000000000000455 0 0 0 0 0.0747602502107620193
0.0199999999999999345 -0.0200000000000000455 0 0 0 0 0.0692960352748632491
0.0299999999999999434 -0.0200000000000000455 0 0 0 0 0.0712031033635139449
0.0399999999999999245 -0.0200000000000000455 0 0 0 0 0.074189766079187397
0.0499999999999999056 -0.0200000000000000455 0 0 0 0 0.0808043176606297459
0.0599999999999999145 -0.0200000000000000455 0 0 0 0 0.0806806060075759834
0.0699999999999999234 -0.0200000000000000455 0 0 0 0 0.0860724267959594724
0.0799999999999999045 -0.0200000000000000455 0 0 0 0 0.0851306361407041523
0.0899999999999998856 -0.0200000000000000455 0 0 0 0 0.087637809485197074
0.0999999999999998945 -0.0200000000000000455 0 0 0 0 0.0936574446111917563
-0.100000000000000006 -0.0100000000000000505 0 0 0 0 0.0702535537183284764
-0.0900000000000000105 -0.0100000000000000505 0 0 0 0 0.0757896948158740952
-0.0800000000000000155 -0.0100000000000000505 0 0 0 0 0.0697594420462846754
-0.0700000000000000205 -0.0100000000000000505 0 0 0 0 0.0725002858787775067
-0.0600000000000000255 -0.0100000000000000505 0 0 0 0 0.0722329549044370689
-0.0500000000000000305 -0.0100000000000000505 0 0 0 0 0.0703044924288988154
-0.0400000000000000355 -0.0100000000000000505 0 0 0 0 0.068309270337224004
-0.0300000000000000405 -0.0100000000000000505 0 0 0 0 0.0714583035707473807
-0.0200000000000000455 -0.0100000000000000505 0 0 0 0 0.0679773744046688055
-0.0100000000000000505 -0.0100000000000000505 0 0 0 0 0.0771400703489780459
-5.5511151231257827e-17 -0.0100000000000000505 0 0 0 0 0.0755831583887338621
0.00999999999999993949 -0.0100000000000000505 0 0 0 0 0.0722501389384269666
0.0199999999999999345 -0.0100000000000000505 0 0 0 0 0.0751147677600383784
0.0299999999999999434 -0.0100000000000000505 0 0 0 0 0.075235102966427797
0.0399999999999999245 -0.0100000000000000505 0 0 0 0 0.0742734947651624705
0.0499999999999999056 -0.0100000000000000505 0 0 0 0 0.0733752733767032567
0.0599999999999999145 -0.0100000000000000505 0 0 0 0 0.076553024798631672
0.0699999999999999234 -0.0100000000000000505 0 0 0 0 0.0864212192893028253
0.0799999999999999045 -0.0100000000000000505 0 0 0 0 0.0784710770994424822
0.0899999999999998856 -0.0100000000000000505 0 0 0 0 0.0830868707895278946
0.0999999999999998945 -0.0100000000000000505 0 0 0 0 0.0845679577589035086
-0.100000000000000006 -5.5511151231257827e-17 0 0 0 0 0.0745628415346145657
-0.0900000000000000105 -5.5511151231257827e-17 0 0 0 0 0.0772792122364044237
-0.0800000000000000155 -5.5511151231257827e-17 0 0 0 0 0.0719871754348277992
-0.0700000000000000205 -5.5511151231257827e-17 0 0 0 0 0.0755248940587043699
-0.0600000000000000255 -5.5511151231257827e-17 0 0 0 0 0.0743105800449848225
-0.0500000000000000305 -5.5511151231257827e-17 0 0 0 0 0.0738695706203579966
-0.0400000000000000355 -5.5511151231257827e-17 0 0 0 0 0.0736453025341033962
-0.0300000000000000405 -5.5511151231257827e-17 0 0 0 0 0.076254395946860315
-0.0200000000000000455 -5.5511151231257827e-17 0 0 0 0 0.0695138312429189748
-0.0100000000000000505 -5.5511151231257827e-17 0 0 0 0 0.067153255969285966
-5.5511151231257827e-17 -5.5511151231257827e-17 0 0 0 0 0.0732738985419273403
0.00999999999999993949 -5.5511151231257827e-17 0 0 0 0 0.0743343769162893298
0.0199999999999999345 -5.5511151231257827e-17 0 0 0 0 0.0751796217411756507
0.0299999999999999434 -5.5511151231257827e-17 0 0 0 0 0.0792306123524904315
0.0399999999999999245 -5.5511151231257827e-17 0 0 0 0 0.0763326868116855628
0.0499999999999999056 -5.5511151231257827e-17 0 0 0 0 0.0733139982447028188
0.0599999999999999145 -5.5511151231257827e-17 0 0 0 0 0.0813786848187446621
0.0699999999999999234 -5.5511151231257827e-17 0 0 0 0 0.0845839099884033163
0.0799999999999999045 -5.5511151231257827e-17 0 0 0 0 0.0851345206797122916
0.0899999999999998856 -5.5511151231257827e-17 0 0 0 0 0.0876131440401077266
0.0999999999999998945 -5.5511151231257827e-17 0 0 0 0 0.0861733610928058641
-0.100000000000000006 0.00999999999999993949 0 0 0 0 0.0784351635426282917
-0.0900000000000000105 0.00999999999999993949 0 0 0 0 0.078702600240707396
-0.0800000000000000155 0.00999999999999993949 0 0 0 0 0.0747392056137323318
-0.0700000000000000205 0.00999999999999993949 0 0 0 0 0.070529876425862309
-0.0600000000000000255 0.00999999999999993949 0 0 0 0 0.0770852470546960766
-0.0500000000000000305 0.00999999999999993949 0 0 0 0 0.068997658893465999
-0.0400000000000000355 0.00999999999999993949 0 0 0 0 0.0751243173182010587
-0.0300000000000000405 0.00999999999999993949 0 0 0 0 0.0748781847655773103
-0.0200000000000000455 0.00999999999999993949 0 0 0 0 0.0704452454894781144
-0.0100000000000000505 0.00999999999999993949 0 0 0 0 0.0705129652470350282
-5.5511151231257827e-17 0.00999999999999993949 0 0 0 0 0.0725455900207161858
0.00999999999999993949 0.00999999999999993949 0 0 0 0 0.0723754112124442989
0.0199999999999999345 0.00999999999999993949 0 0 0 0 0.0707048383653163942
0.0299999999999999434 0.00999999999999993949 0 0 0 0 0.0672769636362791079
0.0399999999999999245 0.00999999999999993949 0 0 0 0 0.0722349047511816056
0.0499999999999999056 0.00999999999999993949 0 0 0 0 0.0762974983155727399
0.0599999999999999145 0.00999999999999993949 0 0 0 0 0.0759895199835300406
0.0699999999999999234 0.00999999999999993949 0 0 0 0 0.0799259656220674547
0.0799999999999999045 0.00999999999999993949 0 0 0 0 0.0830370505750179233
0.0899999999999998856 0.00999999999999993949 0 0 0 0 0.0850402543842792569
0.0999999999999998945 0.00999999999999993949 0 0 0 0 0.0847723109722137436
-0.100000000000000006 0.0199999999999999345 0 0 0 0 0.075905020698904993
-0.0900000000000000105 0.0199999999999999345 0 0 0 0 0.0760862453877925865
-0.0800000000000000155 0.0199999999999999345 0 0 0 0 0.0734615898728370603
-0.0700000000000000205 0.0199999999999999345 0 0 0 0 0.0722760955989360798
-0.0600000000000000255 0.0199999999999999345 0 0 0 0 0.0713031555712222986
-0.0500000000000000305 0.0199999999999999345 0 0 0 0 0.075173929840326309
-0.0400000000000000355 0.0199999999999999345 0 0 0 0 0.0739576504975557325
-0.0300000000000000405 0.0199999999999999345 0 0 0 0 0.0694119990766048495
-0.0200000000000000455 0.0199999999999999345 0 0 0 0 0.071408271104097365
-0.0100000000000000505 0.0199999999999999345 0 0 0 0 0.073549978926777837
-5.5511151231257827e-17 0.0199999999999999345 0 0 0 0 0.0693097132742405003
0.00999999999999993949 0.0199999999999999345 0 0 0 0 0.0688064267933368723
0.0199999999999999345 0.0199999999999999345 0 0 0 0 0.0766056464463472364
0.0299999999999999434 0.0199999999999999345 0 0 0 0 0.0714318838268518386
0.0399999999999999245 0.0199999999999999345 0 0 0 0 0.0731251592636108366
0.0499999999999999056 0.0199999999999999345 0 0 0 0 0.0708649207055568747
0.0599999999999999145 0.0199999999999999345 0 0 0 0 0.0774282188415527373
0.0699999999999999234 0.0199999999999999345 0 0 0 0 0.0774117738753557216
0.0799999999999999045 0.0199999999999999345 0 0 0 0 0.0787130560278892499
0.0899999999999998856 0.0199999999999999345 0 0 0 0 0.0854230489730834902
0.0999999999999998945 0.0199999999999999345 0 0 0 0 0.0884305289834737829
-0.100000000000000006 0.0299999999999999434 0 0 0 0 0.0795755355432629652
-0.0900000000000000105 0.0299999999999999434 0 0 0 0 0.0751019363552331981
-0.0800000000000000155 0.0299999999999999434 0 0 0 0 0.077590809375047684
-0.0700000000000000205 0.0299999999999999434 0 0 0 0 0.0866240803599357539
-0.0600000000000000255 0.0299999999999999434 0 0 0 0 0.0702891626805067088
-0.0500000000000000305 0.0299999999999999434 0 0 0 0 0.075716066822409625
-0.0400000000000000355 0.0299999999999999434 0 0 0 0 0.0736025767326354968
-0.0300000000000000405 0.0299999999999999434 0 0 0 0 0.0697874461710453059
-0.0200000000000000455 0.0299999999999999434 0 0 0 0 0.069845211669802662
-0.0100000000000000505 0.0299999999999999434 0 0 0 0 0.0648465378582477603
-5.5511151231257827e-17 0.0299999999999999434 0 0 0 0 0.076206092908978465
0.00999999999999993949 0.0299999999999999434 0 0 0 0 0.0707916425466537519
0.0199999999999999345 0.0299999999999999434 0 0 0 0 0.0721115807145834009
0.0299999999999999434 0.0299999999999999434 0 0 0 0 0.0711326921880245239
0.0399999999999999245 0.0299999999999999434 0 0 0 0 0.0782487458735704466
0.0499999999999999056 0.0299999999999999434 0 0 0 0 0.0743601994961500118
0.0599999999999999145 0.0299999999999999434 0 0 0 0 0.0757878173142671613
0.0699999999999999234 0.0299999999999999434 0 0 0 0 0.0806894230991601902
0.0799999999999999045 0.0299999999999999434 0 0 0 0 0.0791659203469753242
0.0899999999999998856 0.0299999999999999434 0 0 0 0 0.0887562083601951546
0.0999999999999998945 0.0299999999999999434 0 0 0 0 0.0822451864629983875
-0.100000000000000006 0.0399999999999999245 0 0 0 0 0.0867904682457447119
-0.0900000000000000105 0.0399999999999999245 0 0 0 0 0.0789199360162019664
-0.0800000000000000155 0.0399999999999999245 0 0 0 0 0.0743982789069414091
-0.0700000000000000205 0.0399999999999999245 0 0 0 0 0.0738481871485710123
-0.0600000000000000255 0.0399999999999999245 0 0 0 0 0.0767919132113456665
-0.0500000000000000305 0.0399999999999999245 0 0 0 0 0.0716477691531181293
-0.0400000000000000355 0.0399999999999999245 0 0 0 0 0.0806694410443306031
-0.0300000000000000405 0.0399999999999999245 0 0 0 0 0.0725783055275678601
-0.0200000000000000455 0.0399999999999999245 0 0 0 0 0.0723729148358106672
-0.0100000000000000505 0.0399999999999999245 0 0 0 0 0.0777393675446510363
-5.5511151231257827e-17 0.0399999999999999245 0 0 0 0 0.0734186898469924992
0.00999999999999993949 0.0399999999999999245 0 0 0 0 0.0725266707241535163
0.0199999999999999345 0.0399999999999999245 0 0 0 0 0.0729114163517951969
0.0299999999999999434 0.0399999999999999245 0 0 0 0 0.0722139146625995626
0.0399999999999999245 0.0399999999999999245 0 0 0 0 0.0771329699903726546
0.0499999999999999056 0.0399999999999999245 0 0 0 0 0.0785992895215749804
0.0599999999999999145 0.0399999999999999245 0 0 0 0 0.078323843538761137
0.0699999999999999234 0.0399999999999999245 0 0 0 0 0.0740686909556388801
0.0799999999999999045 0.0399999999999999245 0 0 0 0 0.0776995093524456004
0.0899999999999998856 0.0399999999999999245 0 0 0 0 0.0826569742709398203
0.0999999999999998945 0.0399999999999999245 0 0 0 0 0.0841053957641124672
-0.100000000000000006 0.0499999999999999056 0 0 0 0 0.0825890142023563423
-0.0900000000000000105 0.0499999999999999056 0 0 0 0 0.075856371819972998
-0.0800000000000000155 0.0499999999999999056 0 0 0 0 0.077744398117065433
-0.0700000000000000205 0.0499999999999999056 0 0 0 0 0.0749118324071168934
-0.0600000000000000255 0.0499999999999999056 0 0 0 0 0.0738701057136058742
-0.0500000000000000305 0.0499999999999999056 0 0 0 0 0.0718510625064373021
-0.0400000000000000355 0.0499999999999999056 0 0 0 0 0.0734029639065265638
-0.0300000000000000405 0.0499999999999999056 0 0 0 0 0.0752230330258607804
-0.0200000000000000455 0.0499999999999999056 0 0 0 0 0.0706416361629962908
-0.0100000000000000505 0.0499999999999999056 0 0 0 0 0.0703780315220356029
-5.5511151231257827e-17 0.0499999999999999056 0 0 0 0 0.0753468058407306684
0.00999999999999993949 0.0499999999999999056 0 0 0 0 0.0773535957485437381
0.0199999999999999345 0.0499999999999999056 0 0 0 0 0.0742797497212886876
0.0299999999999999434 0.0499999999999999056 0 0 0 0 0.0780151089578867002
0.0399999999999999245 0.0499999999999999056 0 0 0 0 0.0748774853423237741
0.0499999999999999056 0.0499999999999999056 0 0 0 0 0.0738712588176131252
0.0599999999999999145 0.0499999999999999056 0 0 0 0 0.0778071258664131127
0.0699999999999999234 0.0499999999999999056 0 0 0 0 0.0764130137264728559
0.0799999999999999045 0.0499999999999999056 0 0 0 0 0.0803151083290576939
0.0899999999999998856 0.0499999999999999056 0 0 0 0 0.0806648857891559545
0.0999999999999998945 0.0499999999999999056 0 0 0 0 0.080649558342993255
-0.100000000000000006 0.0599999999999999145 0 0 0 0 0.0857050891518592872
-0.0900000000000000105 0.0599999999999999145 0 0 0 0 0.0833075904399156603
-0.0800000000000000155 0.0599999999999999145 0 0 0 0 0.0844687867164611861
-0.0700000000000000205 0.0599999999999999145 0 0 0 0 0.0798690866231918373
-0.0600000000000000255 0.0599999999999999145 0 0 0 0 0.076667809814214713
-0.0500000000000000305 0.0599999999999999145 0 0 0 0 0.0794880111217498714
-0.0400000000000000355 0.0599999999999999145 0 0 0 0 0.0736635659635067053
-0.0300000000000000405 0.0599999999999999145 0 0 0 0 0.0719233329445123637
-0.0200000000000000455 0.0599999999999999145 0 0 0 0 0.0734696222096681562
-0.0100000000000000505 0.0599999999999999145 0 0 0 0 0.0711606426686048482
-5.5511151231257827e-17 0.0599999999999999145 0 0 0 0 0.0682509835511446034
0.00999999999999993949 0.0599999999999999145 0 0 0 0 0.0738993221223354368
0.0199999999999999345 0.0599999999999999145 0 0 0 0 0.0733863014280796006
0.0299999999999999434 0.0599999999999999145 0 0 0 0 0.0710053198933601332
0.0399999999999999245 0.0599999999999999145 0 0 0 0 0.0718831723630428271
0.0499999999999999056 0.0599999999999999145 0 0 0 0 0.0762723415791988352
0.0599999999999999145 0.0599999999999999145 0 0 0 0 0.0716786461770534539
0.0699999999999999234 0.0599999999999999145 0 0 0 0 0.0844797581434249822
0.0799999999999999045 0.0599999999999999145 0 0 0 0 0.077010093480348582
0.0899999999999998856 0.0599999999999999145 0 0 0 0 0.0849826481789350552
0.0999999999999998945 0.0599999999999999145 0 0 0 0 0.0860413020253181504
-0.100000000000000006 0.0699999999999999234 0 0 0 0 0.0934375088214874222
-0.0900000000000000105 0.0699999999999999234 0 0 0 0 0.0870452243685722327
-0.0800000000000000155 0.0699999999999999234 0 0 0 0 0.0875566701292991578
-0.0700000000000000205 0.0699999999999999234 0 0 0 0 0.0778398004248738312
-0.0600000000000000255 0.0699999999999999234 0 0 0 0 0.0833004281222820275
-0.0500000000000000305 0.0699999999999999234 0 0 0 0 0.0763370534628629721
-0.0400000000000000355 0.0699999999999999234 0 0 0 0 0.0769081463515758484
-0.0300000000000000405 0.0699999999999999234 0 0 0 0 0.080067979216575616
-0.0200000000000000455 0.0699999999999999234 0 0 0 0 0.0728130839318037043
-0.0100000000000000505 0.0699999999999999234 0 0 0 0 0.069744070783257478
-5.5511151231257827e-17 0.0699999999999999234 0 0 0 0 0.0784822346568107565
0.00999999999999993949 0.0699999999999999234 0 0 0 0 0.0712060527652502023
0.0199999999999999345 0.0699999999999999234 0 0 0 0 0.0725558861270546862
0.0299999999999999434 0.0699999999999999234 0 0 0 0 0.0734462114274501837
0.0399999999999999245 0.0699999999999999234 0 0 0 0 0.0749518783092498753
0.0499999999999999056 0.0699999999999999234 0 0 0 0 0.0773615691065788202
0.0599999999999999145 0.0699999999999999234 0 0 0 0 0.0768540766388177837
0.0699999999999999234 0.0699999999999999234 0 0 0 0 0.0768308717161416965
0.0799999999999999045 0.0699999999999999234 0 0 0 0 0.0767472662627697033
0.0899999999999998856 0.0699999999999999234 0 0 0 0 0.0800236454159021365
0.0999999999999998945 0.0699999999999999234 0 0 0 0 0.0866263768076896701
-0.100000000000000006 0.0799999999999999045 0 0 0 0 0.0867863946259021801
-0.0900000000000000105 0.0799999999999999045 0 0 0 0 0.084287873491644863
-0.0800000000000000155 0.0799999999999999045 0 0 0 0 0.0815878795087337516
-0.0700000000000000205 0.0799999999999999045 0 0 0 0 0.0822605952918529504
-0.0600000000000000255 0.0799999999999999045 0 0 0 0 0.0829713650643825462
-0.0500000000000000305 0.0799999999999999045 0 0 0 0 0.0781923576146364152
-0.0400000000000000355 0.0799999999999999045 0 0 0 0 0.074088201001286505
-0.0300000000000000405 0.0799999999999999045 0 0 0 0 0.0736910147070884702
-0.0200000000000000455 0.0799999999999999045 0 0 0 0 0.0761071216464042632
-0.0100000000000000505 0.0799999999999999045 0 0 0 0 0.075240980684757236
-5.5511151231257827e-17 0.0799999999999999045 0 0 0 0 0.0728495966792106625
0.00999999999999993949 0.0799999999999999045 0 0 0 0 0.075846764504909514
0.0199999999999999345 0.0799999999999999045 0 0 0 0 0.0722812422811985045
0.0299999999999999434 0.0799999999999999045 0 0 0 0 0.0738310881704092037
0.0399999999999999245 0.0799999999999999045 0 0 0 0 0.0781550056487321787
0.0499999999999999056 0.0799999999999999045 0 0 0 0 0.0821448651999235196
0.0599999999999999145 0.0799999999999999045 0 0 0 0 0.0794802567809820143
0.0699999999999999234 0.0799999999999999045 0 0 0 0 0.0765100706517696377
0.0799999999999999045 0.0799999999999999045 0 0 0 0 0.080763725802302358
0.0899999999999998856 0.0799999999999999045 0 0 0 0 0.0789195432066917418
0.0999999999999998945 0.0799999999999999045 0 0 0 0 0.0833470979928970374
-0.100000000000000006 0.0899999999999998856 0 0 0 0 0.0928682635724544514
-0.0900000000000000105 0.0899999999999998856 0 0 0 0 0.0916043055951595298
-0.0800000000000000155 0.0899999999999998856 0 0 0 0 0.0863000327348709129
-0.0700000000000000205 0.0899999999999998856 0 0 0 0 0.077280146092176441
-0.0600000000000000255 0.0899999999999998856 0 0 0 0 0.077082343429327016
-0.0500000000000000305 0.0899999999999998856 0 0 0 0 0.0824761376380920425
-0.0400000000000000355 0.0899999999999998856 0 0 0 0 0.0796712186038494169
-0.0300000000000000405 0.0899999999999998856 0 0 0 0 0.0825198370516300184
-0.0200000000000000455 0.0899999999999998856 0 0 0 0 0.0795948002338409399
-0.0100000000000000505 0.0899999999999998856 0 0 0 0 0.0813052483797073317
-5.5511151231257827e-17 0.0899999999999998856 0 0 0 0 0.0667520413175225202
0.00999999999999993949 0.0899999999999998856 0 0 0 0 0.0731080921292305008
0.0199999999999999345 0.0899999999999998856 0 0 0 0 0.0760896076411008843
0.0299999999999999434 0.0899999999999998856 0 0 0 0 0.0726245478242635717
0.0399999999999999245 0.0899999999999998856 0 0 0 0 0.0750257372781634319
0.0499999999999999056 0.0899999999999998856 0 0 0 0 0.0744450421929359479
0.0599999999999999145 0.0899999999999998856 0 0 0 0 0.0770263805687427527
0.0699999999999999234 0.0899999999999998856 0 0 0 0 0.0837806006968021405
0.0799999999999999045 0.0899999999999998856 0 0 0 0 0.0787602719515562016
0.0899999999999998856 0.0899999999999998856 0 0 0 0 0.0884479303359985286
0.0999999999999998945 0.0899999999999998856 0 0 0 0 0.0867409494221210442
-0.100000000000000006 0.0999999999999998945 0 0 0 0 0.0940739497542381342
-0.0900000000000000105 0.0999999999999998945 0 0 0 0 0.0940972681939601929
-0.0800000000000000155 0.0999999999999998945 0 0 0 0 0.0834190843105316188
-0.0700000000000000205 0.0999999999999998945 0 0 0 0 0.0854447819888591725
-0.0600000000000000255 0.0999999999999998945 0 0 0 0 0.0835485609322786371
-0.0500000000000000305 0.0999999999999998945 0 0 0 0 0.0859207839518785488
-0.0400000000000000355 0.0999999999999998945 0 0 0 0 0.089039812624454498
-0.0300000000000000405 0.0999999999999998945 0 0 0 0 0.0817393869459629024
-0.0200000000000000455 0.0999999999999998945 0 0 0 0 0.0810074676871299776
-0.0100000000000000505 0.0999999999999998945 0 0 0 0 0.0751756626367569014
-5.5511151231257827e-17 0.0999999999999998945 0 0 0 0 0.0801611446440219921
0.00999999999999993949 0.0999999999999998945 0 0 0 0 0.0754190104901790587
0.0199999999999999345 0.0999999999999998945 0 0 0 0 0.0764679003506898852
0.0299999999999999434 0.0999999999999998945 0 0 0 0 0.076000388875603675
0.0399999999999999245 0.0999999999999998945 0 0 0 0 0.0744992614984512358
0.0499999999999999056 0.0999999999999998945 0 0 0 0 0.0792832375615835222
0.0599999999999999145 0.0999999999999998945 0 0 0 0 0.0818761363029480022
0.0699999999999999234 0.0999999999999998945 0 0 0 0 0.0784754802882671326
0.0799999999999999045 0.0999999999999998945 0 0 0 0 0.0813286167085170708
0.0899999999999998856 0.0999999999999998945 0 0 0 0 0.0832518636584281962
0.0999999999999998945 0.0999999999999998945 0 0 0 0 0.0864572016596794196
4 0 1 22 21
4 1 2 23 22
4 2 3 24 23
4 3 4 25 24
4 4 5 26 25
4 5 6 27 26
4 6 7 28 27
4 7 8 29 28
4 8 9 30 29
4 9 10 31 30
4 10 11 32 31
4 11 12 33 32
4 12 13 34 33
4 13 14 35 34
4 14 15 36 35
4 15 16 37 36
4 16 17 38 37
4 17 18 39 38
4 18 19 40 39
4 19 20 41 40
4 21 22 43 42
4 22 23 44 43
4 23 24 45 44
4 24 25 46 45
4 25 26 47 46
4 26 27 48 47
4 27 28 49 48
4 28 29 50 49
4 29 30 51 50
4 30 31 52 51
4 31 32 53 52
4 32 33 54 53
4 33 34 55 54
4 34 35 56 55
4 35 36 57 56
4 36 37 58 57
4 37 38 59 58
4 38 39 60 59
4 39 40 61 60
4 40 41 62 61
4 42 43 64 63
4 43 44 65 64
4 44 45 66 65
4 45 46 67 66
4 46 47 68 67
4 47 48 69 68
4 48 49 70 69
4 49 50 71 70
4 50 51 72 71
4 51 52 73 72
4 52 53 74 73
4 53 54 75 74
4 54 55 76 75
4 55 56 77 76
4 56 57 78 77
4 57 58 79 78
4 58 59 80 79
4 59 60 81 80
4 60 61 82 81
4 61 62 83 82
4 63 64 85 84
4 64 65 86 85
4 65 66 87 86
4 66 67 88 87
4 67 68 89 88
4 68 69 90 89
4 69 70 91 90
4 70 71 92 91
4 71 72 93 92
4 72 73 94 93
4 73 74 95 94
4 74 75 96 95
4 75 76 97 96
4 76 77 98 97
4 77 78 99 98
4 78 79 100 99
4 79 80 101 100
4 80 81 102 101
4 81 82 103 102
4 82 83 104 103
4 84 85 106 105
4 85 86 107 106
4 86 87 108 107
4 87 88 109 108
4 88 89 110 109
4 89 90 111 110
4 90 91 112 111
4 91 92 113 112
4 92 93 114 113
4 93 94 115 114
4 94 95 116 115
4 95 96 117 116
4 96 97 118 117
4 97 98 119 118
4 98 99 120 119
4 99 100 121 120
4 100 101 122 121
4 101 102 123 122
4 102 103 124 123
4 103 104 125 124
4 105 106 127 126
4 106 107 128 127
4 107 108 129 128
4 108 109 130 129
4 109 110 131 130
4 110 111 132 131
4 111 112 133 132
4 112 113 134 133
4 113 114 135 134
4 114 115 136 135
4 115 116 137 136
4 116 117 138 137
4 117 118 139 138
4 118 119 140 139
4 119 120 141 140
4 120 121 142 141
4 121 122 143 142
4 122 123 144 143
4 123 124 145 144
4 124 125 146 145
4 126 127 148 147
4 127 128 149 148
4 128 129 150 149
4 129 130 151 150
4 130 131 152 151
4 131 132 153 152
4 132 133 154 153
4 133 134 155 154
4 134 135 156 155
4 135 136 157 156
4 136 137 158 157
4 137 138 159 158
4 138 139 160 159
4 139 140 161 160
4 140 141 162 161
4 141 142 163 162
4 142 143 164 163
4 143 144 165 164
4 144 145 166 165
4 145 146 167 166
4 147 148 169 168
4 148 149 170 169
4 149 150 171 170
4 150 151 172 171
4 151 152 173 172
4 152 153 174 173
4 153 154 175 174
4 154 155 176 175
4 155 156 177 176
4 156 157 178 177
4 157 158 179 178
4 158 159 180 179
4 159 160 181 180
4 160 161 182 181
4 161 162 183 182
4 162 163 184 183
4 163 164 185 184
4 164 165 186 185
4 165 166 187 186
4 166 167 188 187
4 168 169 190 189
4 169 170 191 190
4 170 171 192 191
4 171 172 193 192
4 172 173 194 193
4 173 174 195 194
4 174 175 196 195
4 175 176 197 196
4 176 177 198 197
4 177 178 199 198
4 178 179 200 199
4 179 180 201 200
4 180 181 202 201
4 181 182 203 202
4 182 183 204 203
4 183 184 205 204
4 184 185 206 205
4 185 186 207 206
4 186 187 208 207
4 187 188 209 208
4 189 190 211 210
4 190 191 212 211
4 191 192 213 212
4 192 193 214 213
4 193 194 215 214
4 194 195 216 215
4 195 196 217 216
4 196 197 218 217
4 197 198 219 218
4 198 199 220 219
4 199 200 221 220
4 200 201 222 221
4 201 202 223 222
4 202 203 224 223
4 203 204 225 224
4 204 205 226 225
4 205 206 227 226
4 206 207 228 227
4 207 208 229 228
4 208 209 230 229
4 210 211 232 231
4 211 212 233 232
4 212 213 234 233
4 213 214 235 234
4 214 215 236 235
4 215 216 237 236
4 216 217 238 237
4 217 218 239 238
4 218 219 240 239
4 219 220 241 240
4 220 221 242 241
4 221 222 243 242
4 222 223 244 243
4 223 224 245 244
4 224 225 246 245
4 225 226 247 246
4 226 227 248 247
4 227 228 249 248
4 228 229 250 249
4 229 230 251 250
4 231 232 253 252
4 232 233 254 253
4 233 234 255 254
4 234 235 256 255
4 235 236 257 256
4 236 237 258 257
4 237 238 259 258
4 238 239 260 259
4 239 240 261 260
4 240 241 262 261
4 241 242 263 262
4 242 243 264 263
4 243 244 265 264
4 244 245 266 265
4 245 246 267 266
4 246 247 268 267
4 247 248 269 268
4 248 249 270 269
4 249 250 271 270
4 250 251 272 271
4 252 253 274 273
4 253 254 275 274
4 254 255 276 275
4 255 256 277 276
4 256 257 278 277
4 257 258 279 278
4 258 259 280 279
4 259 260 281 280
4 260 261 282 281
4 261 262 283 282
4 262 263 284 283
4 263 264 285 284
4 264 265 286 285
4 265 266 287 286
4 266 267 288 287
4 267 268 289 288
4 268 269 290 289
4 269 270 291 290
4 270 271 292 291
4 271 272 293 292
4 273 274 295 294
4 274 275 296 295
4 275 276 297 296
4 276 277 298 297
4 277 278 299 298
4 278 279 300 299
4 279 280 301 300
4 280 281 302 301
4 281 282 303 302
4 282 283 304 303
4 283 284 305 304
4 284 285 306 305
4 285 286 307 306
4 286 287 308 307
4 287 288 309 308
4 288 289 310 309
4 289 290 311 310
4 290 291 312 311
4 291 292 313 312
4 292 293 314 313
4 294 295 316 315
4 295 296 317 316
4 296 297 318 317
4 297 298 319 318
4 298 299 320 319
4 299 300 321 320
4 300 301 322 321
4 301 302 323 322
4 302 303 324 323
4 303 304 325 324
4 304 305 326 325
4 305 306 327 326
4 306 307 328 327
4 307 308 329 328
4 308 309 330 329
4 309 310 331 330
4 310 311 332 331
4 311 312 333 332
4 312 313 334 333
4 313 314 335 334
4 315 316 337 336
4 316 317 338 337
4 317 318 339 338
4 318 319 340 339
4 319 320 341 340
4 320 321 342 341
4 321 322 343 342
4 322 323 344 343
4 323 324 345 344
4 324 325 346 345
4 325 326 347 346
4 326 327 348 347
4 327 328 349 348
4 328 329 350 349
4 329 330 351 350
4 330 331 352 351
4 331 332 353 352
4 332 333 354 353
4 333 334 355 354
4 334 335 356 355
4 336 337 358 357
4 337 338 359 358
4 338 339 360 359
4 339 340 361 360
4 340 341 362 361
4 341 342 363 362
4 342 343 364 363
4 343 344 365 364
4 344 345 366 365
4 345 346 367 366
4 346 347 368 367
4 347 348 369 368
4 348 349 370 369
4 349 350 371 370
4 350 351 372 371
4 351 352 373 372
4 352 353 374 373
4 353 354 375 374
4 354 355 376 375
4 355 356 377 376
4 357 358 379 378
4 358 359 380 379
4 359 360 381 380
4 360 361 382 381
4 361 362 383 382
4 362 363 384 383
4 363 364 385 384
4 364 365 386 385
4 365 366 387 386
4 366 367 388 387
4 367 368 389 388
4 368 369 390 389
4 369 370 391 390
4 370 371 392 391
4 371 372 393 392
4 372 373 394 393
4 373 374 395 394
4 374 375 396 395
4 375 376 397 396
4 376 377 398 397
4 378 379 400 399
4 379 380 401 400
4 380 381 402 401
4 381 382 403 402
4 382 383 404 403
4 383 384 405 404
4 384 385 406 405
4 385 386 407 406
4 386 387 408 407
4 387 388 409 408
4 388 389 410 409
4 389 390 411 410
4 390 391 412 411
4 391 392 413 412
4 392 393 414 413
4 393 394 415 414
4 394 395 416 415
4 395 396 417 416
4 396 397 418 417
4 397 398 419 418
4 399 400 421 420
4 400 401 422 421
4 401 402 423 422
4 402 403 424 423
4 403 404 425 424
4 404 405 426 425
4 405 406 427 426
4 406 407 428 427
4 407 408 429 428
4 408 409 430 429
4 409 410 431 430
4 410 411 432 431
4 411 412 433 432
4 412 413 434 433
4 413 414 435 434
4 414 415 436 435
4 415 416 437 436
4 416 417 438 437
4 417 418 439 438
4 418 419 440 439
