ply
format ascii 1.0
element vertex 441
property double x
property double y
property double z
property double vx
property double vy
property double vz
property double s
element face 400
property list uchar int vertex_indices
end_header
-0.100000000000000006 -0.100000000000000006 0 0 0 0 0.0719030028879642513
-0.0900000000000000105 -0.100000000000000006 0 0 0 0 0.0755265745967626523
-0.0800000000000000155 -0.100000000000000006 0 0 0 0 0.0732011446729302351
-0.0700000000000000205 -0.100000000000000006 0 0 0 0 0.0749520479366183323
-0.0600000000000000255 -0.100000000000000006 0 0 0 0 0.0702170297354459821
-0.0500000000000000305 -0.100000000000000006 0 0 0 0 0.0754705676510930012
-0.0400000000000000355 -0.100000000000000006 0 0 0 0 0.0758048010021448171
-0.0300000000000000405 -0.100000000000000006 0 0 0 0 0.0759239667356014225
-0.0200000000000000455 -0.100000000000000006 0 0 0 0 0.0724361259043216771
-0.0100000000000000505 -0.100000000000000006 0 0 0 0 0.0707853417620062791
-5.5511151231257827e-17 -0.100000000000000006 0 0 0 0 0.0714354645758867313
0.00999999999999993949 -0.100000000000000006 0 0 0 0 0.0709237973988056242
0.0199999999999999345 -0.100000000000000006 0 0 0 0 0.0735182093158364275
0.0299999999999999434 -0.100000000000000006 0 0 0 0 0.0742695327699184477
0.0399999999999999245 -0.100000000000000006 0 0 0 0 0.0707902812957763722
0.0499999999999999056 -0.100000000000000006 0 0 0 0 0.0715105434060096801
0.0599999999999999145 -0.100000000000000006 0 0 0 0 0.071635568022727969
0.0699999999999999234 -0.100000000000000006 0 0 0 0 0.0714407568722963265
0.0799999999999999045 -0.100000000000000006 0 0 0 0 0.0669908207952976259
0.0899999999999998856 -0.100000000000000006 0 0 0 0 0.0683170362561941191
0.0999999999999998945 -0.100000000000000006 0 0 0 0 0.0728468502908945076
-0.100000000000000006 -0.0900000000000000105 0 0 0 0 0.0719486930593848245
-0.0900000000000000105 -0.0900000000000000105 0 0 0 0 0.0704687778204679538
-0.0800000000000000155 -0.0900000000000000105 0 0 0 0 0.0682919866144657134
-0.0700000000000000205 -0.0900000000000000105 0 0 0 0 0.0722219816893339139
-0.0600000000000000255 -0.0900000000000000105 0 0 0 0 0.0737657396793365422
-0.0500000000000000305 -0.0900000000000000105 0 0 0 0 0.0697519624829292251
-0.0400000000000000355 -0.0900000000000000105 0 0 0 0 0.0740420576557517113
-0.0300000000000000405 -0.0900000000000000105 0 0 0 0 0.0705531227141618783
-0.0200000000000000455 -0.0900000000000000105 0 0 0 0 0.068072458423674112
-0.0100000000000000505 -0.0900000000000000105 0 0 0 0 0.0778639779686927797
-5.5511151231257827e-17 -0.0900000000000000105 0 0 0 0 0.0750474023148417491
0.00999999999999993949 -0.0900000000000000105 0 0 0 0 0.071308556824922556
0.0199999999999999345 -0.0900000000000000105 0 0 0 0 0.0749311633259057974
0.0299999999999999434 -0.0900000000000000105 0 0 0 0 0.0732695212364196796
0.0399999999999999245 -0.0900000000000000105 0 0 0 0 0.0699539251923561034
0.0499999999999999056 -0.0900000000000000105 0 0 0 0 0.0733741526454687182
0.0599999999999999145 -0.0900000000000000105 0 0 0 0 0.0677622669786214771
0.0699999999999999234 -0.0900000000000000105 0 0 0 0 0.0701272804290056229
0.0799999999999999045 -0.0900000000000000105 0 0 0 0 0.0734388770312070782
0.0899999999999998856 -0.0900000000000000105 0 0 0 0 0.072511134177446368
0.0999999999999998945 -0.0900000000000000105 0 0 0 0 0.0720341178029775681
-0.100000000000000006 -0.0800000000000000155 0 0 0 0 0.0726785144954919804
-0.0900000000000000105 -0.0800000000000000155 0 0 0 0 0.0693654560893774003
-0.0800000000000000155 -0.0800000000000000155 0 0 0 0 0.0735303651839494671
-0.0700000000000000205 -0.0800000000000000155 0 0 0 0 0.0702344068512320563
-0.0600000000000000255 -0.0800000000000000155 0 0 0 0 0.0736123844236135499
-0.0500000000000000305 -0.0800000000000000155 0 0 0 0 0.0754797382205724676
-0.0400000000000000355 -0.0800000000000000155 0 0 0 0 0.0709957911372184752
-0.0300000000000000405 -0.0800000000000000155 0 0 0 0 0.0692573649883270331
-0.0200000000000000455 -0.0800000000000000155 0 0 0 0 0.0798677544295787745
-0.0100000000000000505 -0.0800000000000000155 0 0 0 0 0.0777104814201593358
-5.5511151231257827e-17 -0.0800000000000000155 0 0 0 0 0.0717060080468654576
0.00999999999999993949 -0.0800000000000000155 0 0 0 0 0.068404562339186667
0.0199999999999999345 -0.0800000000000000155 0 0 0 0 0.0739023393839597642
0.0299999999999999434 -0.0800000000000000155 0 0 0 0 0.07180621787905693
0.0399999999999999245 -0.0800000000000000155 0 0 0 0 0.0701450339406728685
0.0499999999999999056 -0.0800000000000000155 0 0 0 0 0.0739907471239566739
0.0599999999999999145 -0.0800000000000000155 0 0 0 0 0.0836720431596040676
0.0699999999999999234 -0.0800000000000000155 0 0 0 0 0.0758463540077209536
0.0799999999999999045 -0.0800000000000000155 0 0 0 0 0.0697797244787216192
0.0899999999999998856 -0.0800000000000000155 0 0 0 0 0.0655745091736316676
0.0999999999999998945 -0.0800000000000000155 0 0 0 0 0.0690158410072326672
-0.100000000000000006 -0.0700000000000000205 0 0 0 0 0.0667942828834056923
-0.0900000000000000105 -0.0700000000000000205 0 0 0 0 0.0711672273129224792
-0.0800000000000000155 -0.0700000000000000205 0 0 0 0 0.0705776894688606299
-0.0700000000000000205 -0.0700000000000000205 0 0 0 0 0.069092780828475947
-0.0600000000000000255 -0.0700000000000000205 0 0 0 0 0.0669893966764211618
-0.0500000000000000305 -0.0700000000000000205 0 0 0 0 0.0730680690407752992
-0.0400000000000000355 -0.0700000000000000205 0 0 0 0 0.0718050939887762002
-0.0300000000000000405 -0.0700000000000000205 0 0 0 0 0.0726143499016761729
-0.0200000000000000455 -0.0700000000000000205 0 0 0 0 0.0735173471570014919
-0.0100000000000000505 -0.0700000000000000205 0 0 0 0 0.0774051109328866005
-5.5511151231257827e-17 -0.0700000000000000205 0 0 0 0 0.0740697971880436012
0.00999999999999993949 -0.0700000000000000205 0 0 0 0 0.0721946030706167169
0.0199999999999999345 -0.0700000000000000205 0 0 0 0 0.074422351032495504
0.0299999999999999434 -0.0700000000000000205 0 0 0 0 0.0750842414796352442
0.0399999999999999245 -0.0700000000000000205 0 0 0 0 0.0739885633662343001
0.0499999999999999056 -0.0700000000000000205 0 0 0 0 0.0678856248557567626
0.0599999999999999145 -0.0700000000000000205 0 0 0 0 0.069208616256713873
0.0699999999999999234 -0.0700000000000000205 0 0 0 0 0.0739511040151119292
0.0799999999999999045 -0.0700000000000000205 0 0 0 0 0.0754021788686513872
0.0899999999999998856 -0.0700000000000000205 0 0 0 0 0.074538920432329181
0.0999999999999998945 -0.0700000000000000205 0 0 0 0 0.0742135368138551743
-0.100000000000000006 -0.0600000000000000255 0 0 0 0 0.0713658783435821564
-0.0900000000000000105 -0.0600000000000000255 0 0 0 0 0.0737844477817416189
-0.0800000000000000155 -0.0600000000000000255 0 0 0 0 0.0722766825035214416
-0.0700000000000000205 -0.0600000000000000255 0 0 0 0 0.0672866279482841473
-0.0600000000000000255 -0.0600000000000000255 0 0 0 0 0.0749765684306621522
-0.0500000000000000305 -0.0600000000000000255 0 0 0 0 0.0716995948255062104
-0.0400000000000000355 -0.0600000000000000255 0 0 0 0 0.068264811962842939
-0.0300000000000000405 -0.0600000000000000255 0 0 0 0 0.0638423323333263404
-0.0200000000000000455 -0.0600000000000000255 0 0 0 0 0.0675615995526313851
-0.0100000000000000505 -0.0600000000000000255 0 0 0 0 0.0702724675238132479
-5.5511151231257827e-17 -0.0600000000000000255 0 0 0 0 0.0757156264483928726
0.00999999999999993949 -0.0600000000000000255 0 0 0 0 0.0723756341636180855
0.0199999999999999345 -0.0600000000000000255 0 0 0 0 0.0742589935064315865
0.0299999999999999434 -0.0600000000000000255 0 0 0 0 0.0736249489337205826
0.0399999999999999245 -0.0600000000000000255 0 0 0 0 0.0766770736724138313
0.0499999999999999056 -0.0600000000000000255 0 0 0 0 0.0732530277222394888
0.0599999999999999145 -0.0600000000000000255 0 0 0 0 0.0732206081897020383
0.0699999999999999234 -0.0600000000000000255 0 0 0 0 0.0666955499351024605
0.0799999999999999045 -0.0600000000000000255 0 0 0 0 0.0738404132276773428
0.0899999999999998856 -0.0600000000000000255 0 0 0 0 0.0736589519083499927
0.0999999999999998945 -0.0600000000000000255 0 0 0 0 0.0707219035625457765
-0.100000000000000006 -0.0500000000000000305 0 0 0 0 0.0765555055439472165
-0.0900000000000000105 -0.0500000000000000305 0 0 0 0 0.0716810390204191267
-0.0800000000000000155 -0.0500000000000000305 0 0 0 0 0.0661361895129084637
-0.0700000000000000205 -0.0500000000000000305 0 0 0 0 0.0712851275876164453
-0.0600000000000000255 -0.0500000000000000305 0 0 0 0 0.072718230724334712
-0.0500000000000000305 -0.0500000000000000305 0 0 0 0 0.067605603083968166
-0.0400000000000000355 -0.0500000000000000305 0 0 0 0 0.0746030481159686981
-0.0300000000000000405 -0.0500000000000000305 0 0 0 0 0.0704846495389938321
-0.0200000000000000455 -0.0500000000000000305 0 0 0 0 0.0779311455488204963
-0.0100000000000000505 -0.0500000000000000305 0 0 0 0 0.0710430843383073746
-5.5511151231257827e-17 -0.0500000000000000305 0 0 0 0 0.0692394014745950637
0.00999999999999993949 -0.0500000000000000305 0 0 0 0 0.0704142022877931595
0.0199999999999999345 -0.0500000000000000305 0 0 0 0 0.0644716811925172828
0.0299999999999999434 -0.0500000000000000305 0 0 0 0 0.0726248574405908565
0.0399999999999999245 -0.0500000000000000305 0 0 0 0 0.0722942500263452498
0.0499999999999999056 -0.0500000000000000305 0 0 0 0 0.0741940364688634807
0.0599999999999999145 -0.0500000000000000305 0 0 0 0 0.0706148344278335616
0.0699999999999999234 -0.0500000000000000305 0 0 0 0 0.0714935084581375113
0.0799999999999999045 -0.0500000000000000305 0 0 0 0 0.0740455278605222644
0.0899999999999998856 -0.0500000000000000305 0 0 0 0 0.0739553590863943067
0.0999999999999998945 -0.0500000000000000305 0 0 0 0 0.0731870189309120206
-0.100000000000000006 -0.0400000000000000355 0 0 0 0 0.0717735417336225479
-0.0900000000000000105 -0.0400000000000000355 0 0 0 0 0.0672634140402078584
-0.0800000000000000155 -0.0400000000000000355 0 0 0 0 0.0765930014103651108
-0.0700000000000000205 -0.0400000000000000355 0 0 0 0 0.0701456113457679803
-0.0600000000000000255 -0.0400000000000000355 0 0 0 0 0.0715474984869360897
-0.0500000000000000305 -0.0400000000000000355 0 0 0 0 0.076691809296607974
-0.0400000000000000355 -0.0400000000000000355 0 0 0 0 0.0722873920351266852
-0.0300000000000000405 -0.0400000000000000355 0 0 0 0 0.0731634088903665575
-0.0200000000000000455 -0.0400000000000000355 0 0 0 0 0.0750276694446802145
-0.0100000000000000505 -0.0400000000000000355 0 0 0 0 0.0760497890785336444
-5.5511151231257827e-17 -0.0400000000000000355 0 0 0 0 0.0695713208168745045
0.00999999999999993949 -0.0400000000000000355 0 0 0 0 0.0708685453608632054
0.0199999999999999345 -0.0400000000000000355 0 0 0 0 0.0695144561901688551
0.0299999999999999434 -0.0400000000000000355 0 0 0 0 0.076119716331362719
0.0399999999999999245 -0.0400000000000000355 0 0 0 0 0.0666319580078125057
0.0499999999999999056 -0.0400000000000000355 0 0 0 0 0.0734399714022874878
0.0599999999999999145 -0.0400000000000000355 0 0 0 0 0.0690126828849315643
0.0699999999999999234 -0.0400000000000000355 0 0 0 0 0.0770484564900398294
0.0799999999999999045 -0.0400000000000000355 0 0 0 0 0.0687489495426416436
0.0899999999999998856 -0.0400000000000000355 0 0 0 0 0.0709300949424505195
0.0999999999999998945 -0.0400000000000000355 0 0 0 0 0.0677913977801799794
-0.100000000000000006 -0.0300000000000000405 0 0 0 0 0.0692072530388832124
-0.0900000000000000105 -0.0300000000000000405 0 0 0 0 0.0709862656146287851
-0.0800000000000000155 -0.0300000000000000405 0 0 0 0 0.0752466885894537002
-0.0700000000000000205 -0.0300000000000000405 0 0 0 0 0.0750961956977844181
-0.0600000000000000255 -0.0300000000000000405 0 0 0 0 0.0754203966856002855
-0.0500000000000000305 -0.0300000000000000405 0 0 0 0 0.0710964392274618107
-0.0400000000000000355 -0.0300000000000000405 0 0 0 0 0.0750776565000414869
-0.0300000000000000405 -0.0300000000000000405 0 0 0 0 0.0767774911373853702
-0.0200000000000000455 -0.0300000000000000405 0 0 0 0 0.072046972393989564
-0.0100000000000000505 -0.0300000000000000405 0 0 0 0 0.0733183579072356206
-5.5511151231257827e-17 -0.0300000000000000405 0 0 0 0 0.075475301072001455
0.00999999999999993949 -0.0300000000000000405 0 0 0 0 0.0731375642567873019
0.0199999999999999345 -0.0300000000000000405 0 0 0 0 0.0714418868869543117
0.0299999999999999434 -0.0300000000000000405 0 0 0 0 0.0760036474019289005
0.0399999999999999245 -0.0300000000000000405 0 0 0 0 0.0711736681535840021
0.0499999999999999056 -0.0300000000000000405 0 0 0 0 0.0701919947564601937
0.0599999999999999145 -0.0300000000000000405 0 0 0 0 0.0700959563255310059
0.0699999999999999234 -0.0300000000000000405 0 0 0 0 0.0720981581807136479
0.0799999999999999045 -0.0300000000000000405 0 0 0 0 0.0710123778581619319
0.0899999999999998856 -0.0300000000000000405 0 0 0 0 0.0718910587877035073
0.0999999999999998945 -0.0300000000000000405 0 0 0 0 0.0797276345193386055
-0.100000000000000006 -0.0200000000000000455 0 0 0 0 0.070342143289744849
-0.0900000000000000105 -0.0200000000000000455 0 0 0 0 0.0753842188417911535
-0.0800000000000000155 -0.0200000000000000455 0 0 0 0 0.0742256509065628012
-0.0700000000000000205 -0.0200000000000000455 0 0 0 0 0.0766988925635814639
-0.0600000000000000255 -0.0200000000000000455 0 0 0 0 0.0743024300783872577
-0.0500000000000000305 -0.0200000000000000455 0 0 0 0 0.071720007009804243
-0.0400000000000000355 -0.0200000000000000455 0 0 0 0 0.072702978208661076
-0.0300000000000000405 -0.0200000000000000455 0 0 0 0 0.0708053206354379711
-0.0200000000000000455 -0.0200000000000000455 0 0 0 0 0.0691228968352079337
-0.0100000000000000505 -0.0200000000000000455 0 0 0 0 0.0719643671810626939
-5.5511151231257827e-17 -0.0200000000000000455 0 0 0 0 0.0688506818264722764
0.00999999999999993949 -0.0200000000000000455 0 0 0 0 0.0732488130927085868
0.0199999999999999345 -0.0200000000000000455 0 0 0 0 0.0713008792847394934
0.0299999999999999434 -0.0200000000000000455 0 0 0 0 0.0720938875973224647
0.0399999999999999245 -0.0200000000000000455 0 0 0 0 0.0665613484717905574
0.0499999999999999056 -0.0200000000000000455 0 0 0 0 0.0726210522651672408
0.0599999999999999145 -0.0200000000000000455 0 0 0 0 0.0746324464380741098
0.0699999999999999234 -0.0200000000000000455 0 0 0 0 0.0762829592078924229
0.0799999999999999045 -0.0200000000000000455 0 0 0 0 0.0728576829582452817
0.0899999999999998856 -0.0200000000000000455 0 0 0 0 0.0742870048284530599
0.0999999999999998945 -0.0200000000000000455 0 0 0 0 0.0701014236807823155
-0.100000000000000006 -0.0100000000000000505 0 0 0 0 0.0709590281248092675
-0.0900000000000000105 -0.0100000000000000505 0 0 0 0 0.0734742529094219166
-0.0800000000000000155 -0.0100000000000000505 0 0 0 0 0.0705975900590419814
-0.0700000000000000205 -0.0100000000000000505 0 0 0 0 0.0733688181489706021
-0.0600000000000000255 -0.0100000000000000505 0 0 0 0 0.0684832484722137508
-0.0500000000000000305 -0.0100000000000000505 0 0 0 0 0.0711722009032964703
-0.0400000000000000355 -0.0100000000000000505 0 0 0 0 0.0685622510761022541
-0.0300000000000000405 -0.0100000000000000505 0 0 0 0 0.0756394159793853799
-0.0200000000000000455 -0.0100000000000000505 0 0 0 0 0.0682477671578526485
-0.0100000000000000505 -0.0100000000000000505 0 0 0 0 0.0719561743885278743
-5.5511151231257827e-17 -0.0100000000000000505 0 0 0 0 0.0670142846703529332
0.00999999999999993949 -0.0100000000000000505 0 0 0 0 0.0708236991912126607
0.0199999999999999345 -0.0100000000000000505 0 0 0 0 0.0708082524240016969
0.0299999999999999434 -0.0100000000000000505 0 0 0 0 0.0760170505642890904
0.0399999999999999245 -0.0100000000000000505 0 0 0 0 0.0682847942709922801
0.0499999999999999056 -0.0100000000000000505 0 0 0 0 0.069573651835322381
0.0599999999999999145 -0.0100000000000000505 0 0 0 0 0.0744957086741924318
0.0699999999999999234 -0.0100000000000000505 0 0 0 0 0.0722792111635208179
0.0799999999999999045 -0.0100000000000000505 0 0 0 0 0.0693379576802253678
0.0899999999999998856 -0.0100000000000000505 0 0 0 0 0.0712043561041355161
0.0999999999999998945 -0.0100000000000000505 0 0 0 0 0.0725829755440354357
-0.100000000000000006 -5.5511151231257827e-17 0 0 0 0 0.0661588671654462779
-0.0900000000000000105 -5.5511151231257827e-17 0 0 0 0 0.0749604628682136592
-0.0800000000000000155 -5.5511151231257827e-17 0 0 0 0 0.0731720896810293259
-0.0700000000000000205 -5.5511151231257827e-17 0 0 0 0 0.0722116393744945545
-0.0600000000000000255 -5.5511151231257827e-17 0 0 0 0 0.0727628488689660985
-0.0500000000000000305 -5.5511151231257827e-17 0 0 0 0 0.0722461625486612302
-0.0400000000000000355 -5.5511151231257827e-17 0 0 0 0 0.0752013147473335197
-0.0300000000000000405 -5.5511151231257827e-17 0 0 0 0 0.0695456755012273803
-0.0200000000000000455 -5.5511151231257827e-17 0 0 0 0 0.0725348365753889085
-0.0100000000000000505 -5.5511151231257827e-17 0 0 0 0 0.0719829794615507168
-5.5511151231257827e-17 -5.5511151231257827e-17 0 0 0 0 0.0744177452623844132
0.00999999999999993949 -5.5511151231257827e-17 0 0 0 0 0.0721107046455144868
0.0199999999999999345 -5.5511151231257827e-17 0 0 0 0 0.0742314682304859169
0.0299999999999999434 -5.5511151231257827e-17 0 0 0 0 0.0697622260451316867
0.0399999999999999245 -5.5511151231257827e-17 0 0 0 0 0.075434964954853051
0.0499999999999999056 -5.5511151231257827e-17 0 0 0 0 0.0734803678467869786
0.0599999999999999145 -5.5511151231257827e-17 0 0 0 0 0.0755265950113534895
0.0699999999999999234 -5.5511151231257827e-17 0 0 0 0 0.0779307623207569078
0.0799999999999999045 -5.5511151231257827e-17 0 0 0 0 0.0773521052449941682
0.0899999999999998856 -5.5511151231257827e-17 0 0 0 0 0.0748055757060647059
0.0999999999999998945 -5.5511151231257827e-17 0 0 0 0 0.0672693666070699747
-0.100000000000000006 0.00999999999999993949 0 0 0 0 0.0743793487697839706
-0.0900000000000000105 0.00999999999999993949 0 0 0 0 0.073947285890579223
-0.0800000000000000155 0.00999999999999993949 0 0 0 0 0.0780138141214847536
-0.0700000000000000205 0.00999999999999993949 0 0 0 0 0.0713370137810707128
-0.0600000000000000255 0.00999999999999993949 0 0 0 0 0.070536221623420714
-0.0500000000000000305 0.00999999999999993949 0 0 0 0 0.0695851100683212292
-0.0400000000000000355 0.00999999999999993949 0 0 0 0 0.0684204468280076999
-0.0300000000000000405 0.00999999999999993949 0 0 0 0 0.0692694045081734683
-0.0200000000000000455 0.00999999999999993949 0 0 0 0 0.0696149711310863478
-0.0100000000000000505 0.00999999999999993949 0 0 0 0 0.0693156798183918038
-5.5511151231257827e-17 0.00999999999999993949 0 0 0 0 0.0715289308428764398
0.00999999999999993949 0.00999999999999993949 0 0 0 0 0.0771672764420509305
0.0199999999999999345 0.00999999999999993949 0 0 0 0 0.0720715657621622124
0.0299999999999999434 0.00999999999999993949 0 0 0 0 0.0725337934270501167
0.0399999999999999245 0.00999999999999993949 0 0 0 0 0.0722914108335971778
0.0499999999999999056 0.00999999999999993949 0 0 0 0 0.0738881682753562974
0.0599999999999999145 0.00999999999999993949 0 0 0 0 0.0687581856399774594
0.0699999999999999234 0.00999999999999993949 0 0 0 0 0.071350618228316301
0.0799999999999999045 0.00999999999999993949 0 0 0 0 0.069096956044435498
0.0899999999999998856 0.00999999999999993949 0 0 0 0 0.0667221561819315023
0.0999999999999998945 0.00999999999999993949 0 0 0 0 0.0782984058707952568
-0.100000000000000006 0.0199999999999999345 0 0 0 0 0.0750728369504213289
-0.0900000000000000105 0.0199999999999999345 0 0 0 0 0.0777552231401205107
-0.0800000000000000155 0.0199999999999999345 0 0 0 0 0.0690583017468452409
-0.0700000000000000205 0.0199999999999999345 0 0 0 0 0.0683712417334318145
-0.0600000000000000255 0.0199999999999999345 0 0 0 0 0.0724163103997707419
-0.0500000000000000305 0.0199999999999999345 0 0 0 0 0.0699607937335968016
-0.0400000000000000355 0.0199999999999999345 0 0 0 0 0.0675990413725376105
-0.0300000000000000405 0.0199999999999999345 0 0 0 0 0.0707173676639795273
-0.0200000000000000455 0.0199999999999999345 0 0 0 0 0.0663046765625476819
-0.0100000000000000505 0.0199999999999999345 0 0 0 0 0.0654818858355283723
-5.5511151231257827e-17 0.0199999999999999345 0 0 0 0 0.0698334115296602304
0.00999999999999993949 0.0199999999999999345 0 0 0 0 0.0686260176301002472
0.0199999999999999345 0.0199999999999999345 0 0 0 0 0.0737184693515300776
0.0299999999999999434 0.0199999999999999345 0 0 0 0 0.075472163379192353
0.0399999999999999245 0.0199999999999999345 0 0 0 0 0.0695605758875608438
0.0499999999999999056 0.0199999999999999345 0 0 0 0 0.0717898856997489926
0.0599999999999999145 0.0199999999999999345 0 0 0 0 0.0745143874585628557
0.0699999999999999234 0.0199999999999999345 0 0 0 0 0.07194848307967186
0.0799999999999999045 0.0199999999999999345 0 0 0 0 0.0749069793671369583
0.0899999999999998856 0.0199999999999999345 0 0 0 0 0.0737901565134525261
0.0999999999999998945 0.0199999999999999345 0 0 0 0 0.0680000295192003251
-0.100000000000000006 0.0299999999999999434 0 0 0 0 0.068440584793686865
-0.0900000000000000105 0.0299999999999999434 0 0 0 0 0.0746526616066694321
-0.0800000000000000155 0.0299999999999999434 0 0 0 0 0.0717646907866001105
-0.0700000000000000205 0.0299999999999999434 0 0 0 0 0.0666835776865482288
-0.0600000000000000255 0.0299999999999999434 0 0 0 0 0.0728385218679904883
-0.0500000000000000305 0.0299999999999999434 0 0 0 0 0.067546959504485124
-0.0400000000000000355 0.0299999999999999434 0 0 0 0 0.0718172561228275358
-0.0300000000000000405 0.0299999999999999434 0 0 0 0 0.0737937186062335992
-0.0200000000000000455 0.0299999999999999434 0 0 0 0 0.0683101869672536888
-0.0100000000000000505 0.0299999999999999434 0 0 0 0 0.0727432907074689883
-5.5511151231257827e-17 0.0299999999999999434 0 0 0 0 0.0727830836325883829
0.00999999999999993949 0.0299999999999999434 0 0 0 0 0.0764539325833320654
0.0199999999999999345 0.0299999999999999434 0 0 0 0 0.0723005189895629952
0.0299999999999999434 0.0299999999999999434 0 0 0 0 0.0702708805799484304
0.0399999999999999245 0.0299999999999999434 0 0 0 0 0.0689910671412944793
0.0499999999999999056 0.0299999999999999434 0 0 0 0 0.0688352599889039962
0.0599999999999999145 0.0299999999999999434 0 0 0 0 0.0738230970501899675
0.0699999999999999234 0.0299999999999999434 0 0 0 0 0.073377245053648954
0.0799999999999999045 0.0299999999999999434 0 0 0 0 0.0714067125692963572
0.0899999999999998856 0.0299999999999999434 0 0 0 0 0.0733183442875742913
0.0999999999999998945 0.0299999999999999434 0 0 0 0 0.0686604187041521125
-0.100000000000000006 0.0399999999999999245 0 0 0 0 0.0717137096151709563
-0.0900000000000000105 0.0399999999999999245 0 0 0 0 0.0746271567940711977
-0.0800000000000000155 0.0399999999999999245 0 0 0 0 0.0661052978932857582
-0.0700000000000000205 0.0399999999999999245 0 0 0 0 0.0678986304253339779
-0.0600000000000000255 0.0399999999999999245 0 0 0 0 0.073897511258721349
-0.0500000000000000305 0.0399999999999999245 0 0 0 0 0.0680643396377563492
-0.0400000000000000355 0.0399999999999999245 0 0 0 0 0.0674123054295778235
-0.0300000000000000405 0.0399999999999999245 0 0 0 0 0.0713784056156873681
-0.0200000000000000455 0.0399999999999999245 0 0 0 0 0.0724939877837896401
-0.0100000000000000505 0.0399999999999999245 0 0 0 0 0.0742598065212368985
-5.5511151231257827e-17 0.0399999999999999245 0 0 0 0 0.0730989932864904435
0.00999999999999993949 0.0399999999999999245 0 0 0 0 0.0686755951493978473
0.0199999999999999345 0.0399999999999999245 0 0 0 0 0.0731416151374578438
0.0299999999999999434 0.0399999999999999245 0 0 0 0 0.0751156616061925825
0.0399999999999999245 0.0399999999999999245 0 0 0 0 0.0729636894762516058
0.0499999999999999056 0.0399999999999999245 0 0 0 0 0.0697125929892063179
0.0599999999999999145 0.0399999999999999245 0 0 0 0 0.0709591031819581941
0.0699999999999999234 0.0399999999999999245 0 0 0 0 0.0734248498082160916
0.0799999999999999045 0.0399999999999999245 0 0 0 0 0.072152698010206226
0.0899999999999998856 0.0399999999999999245 0 0 0 0 0.0716176330819725954
0.0999999999999998945 0.0399999999999999245 0 0 0 0 0.0705714803934097273
-0.100000000000000006 0.0499999999999999056 0 0 0 0 0.0710426932424306906
-0.0900000000000000105 0.0499999999999999056 0 0 0 0 0.0704119210839271592
-0.0800000000000000155 0.0499999999999999056 0 0 0 0 0.0749149562567472393
-0.0700000000000000205 0.0499999999999999056 0 0 0 0 0.0717831195369362796
-0.0600000000000000255 0.0499999999999999056 0 0 0 0 0.0697659902498126011
-0.0500000000000000305 0.0499999999999999056 0 0 0 0 0.0723526973277330426
-0.0400000000000000355 0.0499999999999999056 0 0 0 0 0.0793991332501172986
-0.0300000000000000405 0.0499999999999999056 0 0 0 0 0.071221511602401727
-0.0200000000000000455 0.0499999999999999056 0 0 0 0 0.0714640457183122607
-0.0100000000000000505 0.0499999999999999056 0 0 0 0 0.0693476072996854764
-5.5511151231257827e-17 0.0499999999999999056 0 0 0 0 0.0711894767582416516
0.00999999999999993949 0.0499999999999999056 0 0 0 0 0.073068848833441738
0.0199999999999999345 0.0499999999999999056 0 0 0 0 0.0679353976845741281
0.0299999999999999434 0.0499999999999999056 0 0 0 0 0.0724228177070617707
0.0399999999999999245 0.0499999999999999056 0 0 0 0 0.0734985549151897372
0.0499999999999999056 0.0499999999999999056 0 0 0 0 0.0717181324064731646
0.0599999999999999145 0.0499999999999999056 0 0 0 0 0.0708738132417201933
0.0699999999999999234 0.0499999999999999056 0 0 0 0 0.0683483985662460269
0.0799999999999999045 0.0499999999999999056 0 0 0 0 0.0736950310319662155
0.0899999999999998856 0.0499999999999999056 0 0 0 0 0.071871564477682115
0.0999999999999998945 0.0499999999999999056 0 0 0 0 0.0696339726001024284
-0.100000000000000006 0.0599999999999999145 0 0 0 0 0.0747417144849896464
-0.0900000000000000105 0.0599999999999999145 0 0 0 0 0.0609342455267906161
-0.0800000000000000155 0.0599999999999999145 0 0 0 0 0.0745770364999771146
-0.0700000000000000205 0.0599999999999999145 0 0 0 0 0.071665871635079384
-0.0600000000000000255 0.0599999999999999145 0 0 0 0 0.0759016773104667641
-0.0500000000000000305 0.0599999999999999145 0 0 0 0 0.0702045226544141809
-0.0400000000000000355 0.0599999999999999145 0 0 0 0 0.0680969338417053288
-0.0300000000000000405 0.0599999999999999145 0 0 0 0 0.074824501678347588
-0.0200000000000000455 0.0599999999999999145 0 0 0 0 0.0762485206872224874
-0.0100000000000000505 0.0599999999999999145 0 0 0 0 0.0735459641665220237
-5.5511151231257827e-17 0.0599999999999999145 0 0 0 0 0.0720341686606407183
0.00999999999999993949 0.0599999999999999145 0 0 0 0 0.0729766437411308311
0.0199999999999999345 0.0599999999999999145 0 0 0 0 0.0745755309462547283
0.0299999999999999434 0.0599999999999999145 0 0 0 0 0.0696311106830835302
0.0399999999999999245 0.0599999999999999145 0 0 0 0 0.074939376585185527
0.0499999999999999056 0.0599999999999999145 0 0 0 0 0.0733613454699516276
0.0599999999999999145 0.0599999999999999145 0 0 0 0 0.0708046927750110577
0.0699999999999999234 0.0599999999999999145 0 0 0 0 0.0685474194474518239
0.0799999999999999045 0.0599999999999999145 0 0 0 0 0.0733008778765797675
0.0899999999999998856 0.0599999999999999145 0 0 0 0 0.0737044542133808156
0.0999999999999998945 0.0599999999999999145 0 0 0 0 0.0706487785875797303
-0.100000000000000006 0.0699999999999999234 0 0 0 0 0.0726822274401783958
-0.0900000000000000105 0.0699999999999999234 0 0 0 0 0.0696678512245416659
-0.0800000000000000155 0.0699999999999999234 0 0 0 0 0.0690486346110701504
-0.0700000000000000205 0.0699999999999999234 0 0 0 0 0.0751069894209504124
-0.0600000000000000255 0.0699999999999999234 0 0 0 0 0.0683839028701186125
-0.0500000000000000305 0.0699999999999999234 0 0 0 0 0.070045409172773368
-0.0400000000000000355 0.0699999999999999234 0 0 0 0 0.0730339803099632201
-0.0300000000000000405 0.0699999999999999234 0 0 0 0 0.0697925584018230377
-0.0200000000000000455 0.0699999999999999234 0 0 0 0 0.0730573890432715395
-0.0100000000000000505 0.0699999999999999234 0 0 0 0 0.0715723401755094524
-5.5511151231257827e-17 0.0699999999999999234 0 0 0 0 0.0729809776991605791
0.00999999999999993949 0.0699999999999999234 0 0 0 0 0.0758892069160938265
0.0199999999999999345 0.0699999999999999234 0 0 0 0 0.0736196990460157435
0.0299999999999999434 0.0699999999999999234 0 0 0 0 0.0735026966780424063
0.0399999999999999245 0.0699999999999999234 0 0 0 0 0.0730143436789512656
0.0499999999999999056 0.0699999999999999234 0 0 0 0 0.0709274719506502171
0.0599999999999999145 0.0699999999999999234 0 0 0 0 0.0709852949976921138
0.0699999999999999234 0.0699999999999999234 0 0 0 0 0.0680773015916347479
0.0799999999999999045 0.0699999999999999234 0 0 0 0 0.0689602247327566198
0.0899999999999998856 0.0699999999999999234 0 0 0 0 0.0634657946005463547
0.0999999999999998945 0.0699999999999999234 0 0 0 0 0.0724622858464717828
-0.100000000000000006 0.0799999999999999045 0 0 0 0 0.0703819389045238497
-0.0900000000000000105 0.0799999999999999045 0 0 0 0 0.0721001800596714065
-0.0800000000000000155 0.0799999999999999045 0 0 0 0 0.0681457079052925074
-0.0700000000000000205 0.0799999999999999045 0 0 0 0 0.0700698444992303854
-0.0600000000000000255 0.0799999999999999045 0 0 0 0 0.0744740246087312735
-0.0500000000000000305 0.0799999999999999045 0 0 0 0 0.0665868357121944393
-0.0400000000000000355 0.0799999999999999045 0 0 0 0 0.0747315707802772566
-0.0300000000000000405 0.0799999999999999045 0 0 0 0 0.0697632948756218008
-0.0200000000000000455 0.0799999999999999045 0 0 0 0 0.0712052294164896016
-0.0100000000000000505 0.0799999999999999045 0 0 0 0 0.0782253753840923272
-5.5511151231257827e-17 0.0799999999999999045 0 0 0 0 0.0694425662234425534
0.00999999999999993949 0.0799999999999999045 0 0 0 0 0.0723406446129083586
0.0199999999999999345 0.0799999999999999045 0 0 0 0 0.0701504279971122691
0.0299999999999999434 0.0799999999999999045 0 0 0 0 0.0714050785228610013
0.0399999999999999245 0.0799999999999999045 0 0 0 0 0.0703733576089143748
0.0499999999999999056 0.0799999999999999045 0 0 0 0 0.0746252272427082031
0.0599999999999999145 0.0799999999999999045 0 0 0 0 0.075718477949500082
0.0699999999999999234 0.0799999999999999045 0 0 0 0 0.0695293208956718478
0.0799999999999999045 0.0799999999999999045 0 0 0 0 0.0691159031391143791
0.0899999999999998856 0.0799999999999999045 0 0 0 0 0.0686247050017118471
0.0999999999999998945 0.0799999999999999045 0 0 0 0 0.0709473704248666792
-0.100000000000000006 0.0899999999999998856 0 0 0 0 0.0755495814830064727
-0.0900000000000000105 0.0899999999999998856 0 0 0 0 0.0674176496565341982
-0.0800000000000000155 0.0899999999999998856 0 0 0 0 0.0647466054111719147
-0.0700000000000000205 0.0899999999999998856 0 0 0 0 0.067040010310709483
-0.0600000000000000255 0.0899999999999998856 0 0 0 0 0.0728853297233581499
-0.0500000000000000305 0.0899999999999998856 0 0 0 0 0.0713052961826324411
-0.0400000000000000355 0.0899999999999998856 0 0 0 0 0.0713257170617580399
-0.0300000000000000405 0.0899999999999998856 0 0 0 0 0.0685323604866862335
-0.0200000000000000455 0.0899999999999998856 0 0 0 0 0.0670721870958805033
-0.0100000000000000505 0.0899999999999998856 0 0 0 0 0.0705185361504554742
-5.5511151231257827e-17 0.0899999999999998856 0 0 0 0 0.0682718080133199734
0.00999999999999993949 0.0899999999999998856 0 0 0 0 0.0683836483806371659
0.0199999999999999345 0.0899999999999998856 0 0 0 0 0.0665141709148883847
0.0299999999999999434 0.0899999999999998856 0 0 0 0 0.0727454092502593935
0.0399999999999999245 0.0899999999999998856 0 0 0 0 0.0757199212759733231
0.0499999999999999056 0.0899999999999998856 0 0 0 0 0.0693973146826028786
0.0599999999999999145 0.0899999999999998856 0 0 0 0 0.0666025734841823591
0.0699999999999999234 0.0899999999999998856 0 0 0 0 0.072804802805185323
0.0799999999999999045 0.0899999999999998856 0 0 0 0 0.074539016112685208
0.0899999999999998856 0.0899999999999998856 0 0 0 0 0.0692341479808092075
0.0999999999999998945 0.0899999999999998856 0 0 0 0 0.0720245726555585886
-0.100000000000000006 0.0999999999999998945 0 0 0 0 0.0790068199038505559
-0.0900000000000000105 0.0999999999999998945 0 0 0 0 0.067145343929529186
-0.0800000000000000155 0.0999999999999998945 0 0 0 0 0.0729160648137330974
-0.0700000000000000205 0.0999999999999998945 0 0 0 0 0.0711577369496226297
-0.0600000000000000255 0.0999999999999998945 0 0 0 0 0.0714868974089622466
-0.0500000000000000305 0.0999999999999998945 0 0 0 0 0.0702256998419761719
-0.0400000000000000355 0.0999999999999998945 0 0 0 0 0.0713081900924444206
-0.0300000000000000405 0.0999999999999998945 0 0 0 0 0.070705615028738969
-0.0200000000000000455 0.0999999999999998945 0 0 0 0 0.0706402602344751301
-0.0100000000000000505 0.0999999999999998945 0 0 0 0 0.0787856671214103715
-5.5511151231257827e-17 0.0999999999999998945 0 0 0 0 0.0736043874621391259
0.00999999999999993949 0.0999999999999998945 0 0 0 0 0.0702519573718309448
0.0199999999999999345 0.0999999999999998945 0 0 0 0 0.073519880220294001
0.0299999999999999434 0.0999999999999998945 0 0 0 0 0.0736092740595340744
0.0399999999999999245 0.0999999999999998945 0 0 0 0 0.0657061799019575121
0.0499999999999999056 0.0999999999999998945 0 0 0 0 0.0715833075791597329
0.0599999999999999145 0.0999999999999998945 0 0 0 0 0.0679257357269525547
0.0699999999999999234 0.0999999999999998945 0 0 0 0 0.0704464099705219282
0.0799999999999999045 0.0999999999999998945 0 0 0 0 0.0719461867362260754
0.0899999999999998856 0.0999999999999998945 0 0 0 0 0.0714426270127296453
0.0999999999999998945 0.0999999999999998945 0 0 0 0 0.0711484801024198504
4 0 1 22 21
4 1 2 23 22
4 2 3 24 23
4 3 4 25 24
4 4 5 26 25
4 5 6 27 26
4 6 7 28 27
4 7 8 29 28
4 8 9 30 29
4 9 10 31 30
4 10 11 32 31
4 11 12 33 32
4 12 13 34 33
4 13 14 35 34
4 14 15 36 35
4 15 16 37 36
4 16 17 38 37
4 17 18 39 38
4 18 19 40 39
4 19 20 41 40
4 21 22 43 42
4 22 23 44 43
4 23 24 45 44
4 24 25 46 45
4 25 26 47 46
4 26 27 48 47
4 27 28 49 48
4 28 29 50 49
4 29 30 51 50
4 30 31 52 51
4 31 32 53 52
4 32 33 54 53
4 33 34 55 54
4 34 35 56 55
4 35 36 57 56
4 36 37 58 57
4 37 38 59 58
4 38 39 60 59
4 39 40 61 60
4 40 41 62 61
4 42 43 64 63
4 43 44 65 64
4 44 45 66 65
4 45 46 67 66
4 46 47 68 67
4 47 48 69 68
4 48 49 70 69
4 49 50 71 70
4 50 51 72 71
4 51 52 73 72
4 52 53 74 73
4 53 54 75 74
4 54 55 76 75
4 55 56 77 76
4 56 57 78 77
4 57 58 79 78
4 58 59 80 79
4 59 60 81 80
4 60 61 82 81
4 61 62 83 82
4 63 64 85 84
4 64 65 86 85
4 65 66 87 86
4 66 67 88 87
4 67 68 89 88
4 68 69 90 89
4 69 70 91 90
4 70 71 92 91
4 71 72 93 92
4 72 73 94 93
4 73 74 95 94
4 74 75 96 95
4 75 76 97 96
4 76 77 98 97
4 77 78 99 98
4 78 79 100 99
4 79 80 101 100
4 80 81 102 101
4 81 82 103 102
4 82 83 104 103
4 84 85 106 105
4 85 86 107 106
4 86 87 108 107
4 87 88 109 108
4 88 89 110 109
4 89 90 111 110
4 90 91 112 111
4 91 92 113 112
4 92 93 114 113
4 93 94 115 114
4 94 95 116 115
4 95 96 117 116
4 96 97 118 117
4 97 98 119 118
4 98 99 120 119
4 99 100 121 120
4 100 101 122 121
4 101 102 123 122
4 102 103 124 123
4 103 104 125 124
4 105 106 127 126
4 106 107 128 127
4 107 108 129 128
4 108 109 130 129
4 109 110 131 130
4 110 111 132 131
4 111 112 133 132
4 112 113 134 133
4 113 114 135 134
4 114 115 136 135
4 115 116 137 136
4 116 117 138 137
4 117 118 139 138
4 118 119 140 139
4 119 120 141 140
4 120 121 142 141
4 121 122 143 142
4 122 123 144 143
4 123 124 145 144
4 124 125 146 145
4 126 127 148 147
4 127 128 149 148
4 128 129 150 149
4 129 130 151 150
4 130 131 152 151
4 131 132 153 152
4 132 133 154 153
4 133 134 155 154
4 134 135 156 155
4 135 136 157 156
4 136 137 158 157
4 137 138 159 158
4 138 139 160 159
4 139 140 161 160
4 140 141 162 161
4 141 142 163 162
4 142 143 164 163
4 143 144 165 164
4 144 145 166 165
4 145 146 167 166
4 147 148 169 168
4 148 149 170 169
4 149 150 171 170
4 150 151 172 171
4 151 152 173 172
4 152 153 174 173
4 153 154 175 174
4 154 155 176 175
4 155 156 177 176
4 156 157 178 177
4 157 158 179 178
4 158 159 180 179
4 159 160 181 180
4 160 161 182 181
4 161 162 183 182
4 162 163 184 183
4 163 164 185 184
4 164 165 186 185
4 165 166 187 186
4 166 167 188 187
4 168 169 190 189
4 169 170 191 190
4 170 171 192 191
4 171 172 193 192
4 172 173 194 193
4 173 174 195 194
4 174 175 196 195
4 175 176 197 196
4 176 177 198 197
4 177 178 199 198
4 178 179 200 199
4 179 180 201 200
4 180 181 202 201
4 181 182 203 202
4 182 183 204 203
4 183 184 205 204
4 184 185 206 205
4 185 186 207 206
4 186 187 208 207
4 187 188 209 208
4 189 190 211 210
4 190 191 212 211
4 191 192 213 212
4 192 193 214 213
4 193 194 215 214
4 194 195 216 215
4 195 196 217 216
4 196 197 218 217
4 197 198 219 218
4 198 199 220 219
4 199 200 221 220
4 200 201 222 221
4 201 202 223 222
4 202 203 224 223
4 203 204 225 224
4 204 205 226 225
4 205 206 227 226
4 206 207 228 227
4 207 208 229 228
4 208 209 230 229
4 210 211 232 231
4 211 212 233 232
4 212 213 234 233
4 213 214 235 234
4 214 215 236 235
4 215 216 237 236
4 216 217 238 237
4 217 218 239 238
4 218 219 240 239
4 219 220 241 240
4 220 221 242 241
4 221 222 243 242
4 222 223 244 243
4 223 224 245 244
4 224 225 246 245
4 225 226 247 246
4 226 227 248 247
4 227 228 249 248
4 228 229 250 249
4 229 230 251 250
4 231 232 253 252
4 232 233 254 253
4 233 234 255 254
4 234 235 256 255
4 235 236 257 256
4 236 237 258 257
4 237 238 259 258
4 238 239 260 259
4 239 240 261 260
4 240 241 262 261
4 241 242 263 262
4 242 243 264 263
4 243 244 265 264
4 244 245 266 265
4 245 246 267 266
4 246 247 268 267
4 247 248 269 268
4 248 249 270 269
4 249 250 271 270
4 250 251 272 271
4 252 253 274 273
4 253 254 275 274
4 254 255 276 275
4 255 256 277 276
4 256 257 278 277
4 257 258 279 278
4 258 259 280 279
4 259 260 281 280
4 260 261 282 281
4 261 262 283 282
4 262 263 284 283
4 263 264 285 284
4 264 265 286 285
4 265 266 287 286
4 266 267 288 287
4 267 268 289 288
4 268 269 290 289
4 269 270 291 290
4 270 271 292 291
4 271 272 293 292
4 273 274 295 294
4 274 275 296 295
4 275 276 297 296
4 276 277 298 297
4 277 278 299 298
4 278 279 300 299
4 279 280 301 300
4 280 281 302 301
4 281 282 303 302
4 282 283 304 303
4 283 284 305 304
4 284 285 306 305
4 285 286 307 306
4 286 287 308 307
4 287 288 309 308
4 288 289 310 309
4 289 290 311 310
4 290 291 312 311
4 291 292 313 312
4 292 293 314 313
4 294 295 316 315
4 295 296 317 316
4 296 297 318 317
4 297 298 319 318
4 298 299 320 319
4 299 300 321 320
4 300 301 322 321
4 301 302 323 322
4 302 303 324 323
4 303 304 325 324
4 304 305 326 325
4 305 306 327 326
4 306 307 328 327
4 307 308 329 328
4 308 309 330 329
4 309 310 331 330
4 310 311 332 331
4 311 312 333 332
4 312 313 334 333
4 313 314 335 334
4 315 316 337 336
4 316 317 338 337
4 317 318 339 338
4 318 319 340 339
4 319 320 341 340
4 320 321 342 341
4 321 322 343 342
4 322 323 344 343
4 323 324 345 344
4 324 325 346 345
4 325 326 347 346
4 326 327 348 347
4 327 328 349 348
4 328 329 350 349
4 329 330 351 350
4 330 331 352 351
4 331 332 353 352
4 332 333 354 353
4 333 334 355 354
4 334 335 356 355
4 336 337 358 357
4 337 338 359 358
4 338 339 360 359
4 339 340 361 360
4 340 341 362 361
4 341 342 363 362
4 342 343 364 363
4 343 344 365 364
4 344 345 366 365
4 345 346 367 366
4 346 347 368 367
4 347 348 369 368
4 348 349 370 369
4 349 350 371 370
4 350 351 372 371
4 351 352 373 372
4 352 353 374 373
4 353 354 375 374
4 354 355 376 375
4 355 356 377 376
4 357 358 379 378
4 358 359 380 379
4 359 360 381 380
4 360 361 382 381
4 361 362 383 382
4 362 363 384 383
4 363 364 385 384
4 364 365 386 385
4 365 366 387 386
4 366 367 388 387
4 367 368 389 388
4 368 369 390 389
4 369 370 391 390
4 370 371 392 391
4 371 372 393 392
4 372 373 394 393
4 373 374 395 394
4 374 375 396 395
4 375 376 397 396
4 376 377 398 397
4 378 379 400 399
4 379 380 401 400
4 380 381 402 401
4 381 382 403 402
4 382 383 404 403
4 383 384 405 404
4 384 385 406 405
4 385 386 407 406
4 386 387 408 407
4 387 388 409 408
4 388 389 410 409
4 389 390 411 410
4 390 391 412 411
4 391 392 413 412
4 392 393 414 413
4 393 394 415 414
4 394 395 416 415
4 395 396 417 416
4 396 397 418 417
4 397 398 419 418
4 399 400 421 420
4 400 401 422 421
4 401 402 423 422
4 402 403 424 423
4 403 404 425 424
4 404 405 426 425
4 405 406 427 426
4 406 407 428 427
4 407 408 429 428
4 408 409 430 429
4 409 410 431 430
4 410 411 432 431
4 411 412 433 432
4 412 413 434 433
4 413 414 435 434
4 414 415 436 435
4 415 416 437 436
4 416 417 438 437
4 417 418 439 438
4 418 419 440 439
