ply
format ascii 1.0
element vertex 441
property double x
property double y
property double z
property double vx
property double vy
property double vz
property double s
element face 400
property list uchar int vertex_indices
end_header
-0.100000000000000006 -0.100000000000000006 0 0 0 0 1.25524384069442752
-0.0900000000000000105 -0.100000000000000006 0 0 0 0 1.09527293682098392
-0.0800000000000000155 -0.100000000000000006 0 0 0 0 1.35400063276290883
-0.0700000000000000205 -0.100000000000000006 0 0 0 0 2.27750618886947631
-0.0600000000000000255 -0.100000000000000006 0 0 0 0 3.21262637138366713
-0.0500000000000000305 -0.100000000000000006 0 0 0 0 3.65714715003967283
-0.0400000000000000355 -0.100000000000000006 0 0 0 0 3.78238641357421868
-0.0300000000000000405 -0.100000000000000006 0 0 0 0 3.88225196838378928
-0.0200000000000000455 -0.100000000000000006 0 0 0 0 3.51691785049438455
-0.0100000000000000505 -0.100000000000000006 0 0 0 0 2.05397149229049703
-5.5511151231257827e-17 -0.100000000000000006 0 0 0 0 1.20245284938812258
0.00999999999999993949 -0.100000000000000006 0 0 0 0 1.12955416440963741
0.0199999999999999345 -0.100000000000000006 0 0 0 0 1.40459201431274416
0.0299999999999999434 -0.100000000000000006 0 0 0 0 1.57967597293853768
0.0399999999999999245 -0.100000000000000006 0 0 0 0 1.61746485805511475
0.0499999999999999056 -0.100000000000000006 0 0 0 0 1.59294326400756825
0.0599999999999999145 -0.100000000000000006 0 0 0 0 1.66975866031646736
0.0699999999999999234 -0.100000000000000006 0 0 0 0 1.68127597618103031
0.0799999999999999045 -0.100000000000000006 0 0 0 0 1.72507502841949467
0.0899999999999998856 -0.100000000000000006 0 0 0 0 1.82734177303314205
0.0999999999999998945 -0.100000000000000006 0 0 0 0 1.97253074741363532
-0.100000000000000006 -0.0900000000000000105 0 0 0 0 1.08219783639907829
-0.0900000000000000105 -0.0900000000000000105 0 0 0 0 0.991417242527008025
-0.0800000000000000155 -0.0900000000000000105 0 0 0 0 1.11279974842071527
-0.0700000000000000205 -0.0900000000000000105 0 0 0 0 1.83056465053558348
-0.0600000000000000255 -0.0900000000000000105 0 0 0 0 2.71140256214141839
-0.0500000000000000305 -0.0900000000000000105 0 0 0 0 3.28764826583862302
-0.0400000000000000355 -0.0900000000000000105 0 0 0 0 3.54282493400573717
-0.0300000000000000405 -0.0900000000000000105 0 0 0 0 3.29421727752685545
-0.0200000000000000455 -0.0900000000000000105 0 0 0 0 3.13571777725219736
-0.0100000000000000505 -0.0900000000000000105 0 0 0 0 2.55038938426971429
-5.5511151231257827e-17 -0.0900000000000000105 0 0 0 0 1.13629965209960937
0.00999999999999993949 -0.0900000000000000105 0 0 0 0 1.16535264778137204
0.0199999999999999345 -0.0900000000000000105 0 0 0 0 1.4272864637374878
0.0299999999999999434 -0.0900000000000000105 0 0 0 0 1.48651595497131339
0.0399999999999999245 -0.0900000000000000105 0 0 0 0 1.45662479972839365
0.0499999999999999056 -0.0900000000000000105 0 0 0 0 1.50997958850860603
0.0599999999999999145 -0.0900000000000000105 0 0 0 0 1.63271362972259526
0.0699999999999999234 -0.0900000000000000105 0 0 0 0 1.71711250972747798
0.0799999999999999045 -0.0900000000000000105 0 0 0 0 1.70003363609313962
0.0899999999999998856 -0.0900000000000000105 0 0 0 0 1.78093911933898918
0.0999999999999998945 -0.0900000000000000105 0 0 0 0 1.88588180732727051
-0.100000000000000006 -0.0800000000000000155 0 0 0 0 0.817580400466918933
-0.0900000000000000105 -0.0800000000000000155 0 0 0 0 0.848019731521606479
-0.0800000000000000155 -0.0800000000000000155 0 0 0 0 0.971220757961273162
-0.0700000000000000205 -0.0800000000000000155 0 0 0 0 1.48258573293685902
-0.0600000000000000255 -0.0800000000000000155 0 0 0 0 2.19791308975219746
-0.0500000000000000305 -0.0800000000000000155 0 0 0 0 2.63958177471160882
-0.0400000000000000355 -0.0800000000000000155 0 0 0 0 2.71769286632537854
-0.0300000000000000405 -0.0800000000000000155 0 0 0 0 2.7074684801101685
-0.0200000000000000455 -0.0800000000000000155 0 0 0 0 2.38223688411712642
-0.0100000000000000505 -0.0800000000000000155 0 0 0 0 2.11099080562591546
-5.5511151231257827e-17 -0.0800000000000000155 0 0 0 0 1.3189305319786071
0.00999999999999993949 -0.0800000000000000155 0 0 0 0 1.29770063209533681
0.0199999999999999345 -0.0800000000000000155 0 0 0 0 1.35968346500396731
0.0299999999999999434 -0.0800000000000000155 0 0 0 0 1.24452143001556403
0.0399999999999999245 -0.0800000000000000155 0 0 0 0 1.21415401840209958
0.0499999999999999056 -0.0800000000000000155 0 0 0 0 1.29260526657104502
0.0599999999999999145 -0.0800000000000000155 0 0 0 0 1.45208803176879875
0.0699999999999999234 -0.0800000000000000155 0 0 0 0 1.53894698524475104
0.0799999999999999045 -0.0800000000000000155 0 0 0 0 1.57029526329040525
0.0899999999999998856 -0.0800000000000000155 0 0 0 0 1.66622201156616212
0.0999999999999998945 -0.0800000000000000155 0 0 0 0 1.84690146541595457
-0.100000000000000006 -0.0700000000000000205 0 0 0 0 0.659989618301391578
-0.0900000000000000105 -0.0700000000000000205 0 0 0 0 0.698999922990798939
-0.0800000000000000155 -0.0700000000000000205 0 0 0 0 0.789743631362915033
-0.0700000000000000205 -0.0700000000000000205 0 0 0 0 1.13039729166030889
-0.0600000000000000255 -0.0700000000000000205 0 0 0 0 1.50188942813873294
-0.0500000000000000305 -0.0700000000000000205 0 0 0 0 2.04893138647079454
-0.0400000000000000355 -0.0700000000000000205 0 0 0 0 2.17023611450195331
-0.0300000000000000405 -0.0700000000000000205 0 0 0 0 2.15284719753265374
-0.0200000000000000455 -0.0700000000000000205 0 0 0 0 1.71006577491760248
-0.0100000000000000505 -0.0700000000000000205 0 0 0 0 1.48716286325454705
-5.5511151231257827e-17 -0.0700000000000000205 0 0 0 0 1.27958750581741332
0.00999999999999993949 -0.0700000000000000205 0 0 0 0 1.29451977443695077
0.0199999999999999345 -0.0700000000000000205 0 0 0 0 1.10952333641052237
0.0299999999999999434 -0.0700000000000000205 0 0 0 0 1.00517417716979973
0.0399999999999999245 -0.0700000000000000205 0 0 0 0 1.01283505535125729
0.0499999999999999056 -0.0700000000000000205 0 0 0 0 1.11491458129882814
0.0599999999999999145 -0.0700000000000000205 0 0 0 0 1.24114750099182136
0.0699999999999999234 -0.0700000000000000205 0 0 0 0 1.35527998542785655
0.0799999999999999045 -0.0700000000000000205 0 0 0 0 1.42807817840576168
0.0899999999999998856 -0.0700000000000000205 0 0 0 0 1.60127376556396483
0.0999999999999998945 -0.0700000000000000205 0 0 0 0 1.78798781490325931
-0.100000000000000006 -0.0600000000000000255 0 0 0 0 0.566550925254821758
-0.0900000000000000105 -0.0600000000000000255 0 0 0 0 0.672750464439392126
-0.0800000000000000155 -0.0600000000000000255 0 0 0 0 0.678915775060653703
-0.0700000000000000205 -0.0600000000000000255 0 0 0 0 0.844852461576461766
-0.0600000000000000255 -0.0600000000000000255 0 0 0 0 1.16496450948715213
-0.0500000000000000305 -0.0600000000000000255 0 0 0 0 1.33643512773513784
-0.0400000000000000355 -0.0600000000000000255 0 0 0 0 1.43897447061538686
-0.0300000000000000405 -0.0600000000000000255 0 0 0 0 1.45080658626556391
-0.0200000000000000455 -0.0600000000000000255 0 0 0 0 1.21837073993682865
-0.0100000000000000505 -0.0600000000000000255 0 0 0 0 0.96228815126419065
-5.5511151231257827e-17 -0.0600000000000000255 0 0 0 0 1.07409934425354003
0.00999999999999993949 -0.0600000000000000255 0 0 0 0 1.11701264905929576
0.0199999999999999345 -0.0600000000000000255 0 0 0 0 0.877631874561309866
0.0299999999999999434 -0.0600000000000000255 0 0 0 0 0.779898990631103461
0.0399999999999999245 -0.0600000000000000255 0 0 0 0 0.813795442581176753
0.0499999999999999056 -0.0600000000000000255 0 0 0 0 0.941888534069061256
0.0599999999999999145 -0.0600000000000000255 0 0 0 0 1.08876834583282478
0.0699999999999999234 -0.0600000000000000255 0 0 0 0 1.17747640037536616
0.0799999999999999045 -0.0600000000000000255 0 0 0 0 1.30834787368774408
0.0899999999999998856 -0.0600000000000000255 0 0 0 0 1.51142300891876213
0.0999999999999998945 -0.0600000000000000255 0 0 0 0 1.69892199420928947
-0.100000000000000006 -0.0500000000000000305 0 0 0 0 0.567986977577209506
-0.0900000000000000105 -0.0500000000000000305 0 0 0 0 0.607074328660965001
-0.0800000000000000155 -0.0500000000000000305 0 0 0 0 0.641377598524093595
-0.0700000000000000205 -0.0500000000000000305 0 0 0 0 0.724147770643234212
-0.0600000000000000255 -0.0500000000000000305 0 0 0 0 0.768237999916076664
-0.0500000000000000305 -0.0500000000000000305 0 0 0 0 0.916423442840576197
-0.0400000000000000355 -0.0500000000000000305 0 0 0 0 0.828941989421844494
-0.0300000000000000405 -0.0500000000000000305 0 0 0 0 0.768929559707641652
-0.0200000000000000455 -0.0500000000000000305 0 0 0 0 0.709414610385894817
-0.0100000000000000505 -0.0500000000000000305 0 0 0 0 0.677593882083892818
-5.5511151231257827e-17 -0.0500000000000000305 0 0 0 0 0.892793325901031443
0.00999999999999993949 -0.0500000000000000305 0 0 0 0 0.86941725111007695
0.0199999999999999345 -0.0500000000000000305 0 0 0 0 0.638855911254882836
0.0299999999999999434 -0.0500000000000000305 0 0 0 0 0.606527480602264357
0.0399999999999999245 -0.0500000000000000305 0 0 0 0 0.672302232742309602
0.0499999999999999056 -0.0500000000000000305 0 0 0 0 0.78836267614364619
0.0599999999999999145 -0.0500000000000000305 0 0 0 0 0.916401632785797116
0.0699999999999999234 -0.0500000000000000305 0 0 0 0 1.04544734573364262
0.0799999999999999045 -0.0500000000000000305 0 0 0 0 1.21886726379394528
0.0899999999999998856 -0.0500000000000000305 0 0 0 0 1.47567398500442515
0.0999999999999998945 -0.0500000000000000305 0 0 0 0 1.74275111675262462
-0.100000000000000006 -0.0400000000000000355 0 0 0 0 0.590538890838623098
-0.0900000000000000105 -0.0400000000000000355 0 0 0 0 0.614147840023040792
-0.0800000000000000155 -0.0400000000000000355 0 0 0 0 0.637421182155609167
-0.0700000000000000205 -0.0400000000000000355 0 0 0 0 0.631909031629562357
-0.0600000000000000255 -0.0400000000000000355 0 0 0 0 0.640375966787338213
-0.0500000000000000305 -0.0400000000000000355 0 0 0 0 0.592420640230178819
-0.0400000000000000355 -0.0400000000000000355 0 0 0 0 0.525938775539398162
-0.0300000000000000405 -0.0400000000000000355 0 0 0 0 0.440846148729324316
-0.0200000000000000455 -0.0400000000000000355 0 0 0 0 0.408920180082321172
-0.0100000000000000505 -0.0400000000000000355 0 0 0 0 0.516170353174209562
-5.5511151231257827e-17 -0.0400000000000000355 0 0 0 0 0.721322097778320348
0.00999999999999993949 -0.0400000000000000355 0 0 0 0 0.603579536437988229
0.0199999999999999345 -0.0400000000000000355 0 0 0 0 0.509709616184234604
0.0299999999999999434 -0.0400000000000000355 0 0 0 0 0.530602762222290081
0.0399999999999999245 -0.0400000000000000355 0 0 0 0 0.574659559249877883
0.0499999999999999056 -0.0400000000000000355 0 0 0 0 0.67749488687515258
0.0599999999999999145 -0.0400000000000000355 0 0 0 0 0.796290295600891151
0.0699999999999999234 -0.0400000000000000355 0 0 0 0 0.947072145938873344
0.0799999999999999045 -0.0400000000000000355 0 0 0 0 1.09731002759933483
0.0899999999999998856 -0.0400000000000000355 0 0 0 0 1.38594439125061042
0.0999999999999998945 -0.0400000000000000355 0 0 0 0 1.69535524845123287
-0.100000000000000006 -0.0300000000000000405 0 0 0 0 0.677534002304077121
-0.0900000000000000105 -0.0300000000000000405 0 0 0 0 0.688056183099746699
-0.0800000000000000155 -0.0300000000000000405 0 0 0 0 0.691225686788559002
-0.0700000000000000205 -0.0300000000000000405 0 0 0 0 0.622211634159088089
-0.0600000000000000255 -0.0300000000000000405 0 0 0 0 0.565413187980651877
-0.0500000000000000305 -0.0300000000000000405 0 0 0 0 0.479617613792419406
-0.0400000000000000355 -0.0300000000000000405 0 0 0 0 0.425605427026748639
-0.0300000000000000405 -0.0300000000000000405 0 0 0 0 0.375261989593505874
-0.0200000000000000455 -0.0300000000000000405 0 0 0 0 0.365233828067779542
-0.0100000000000000505 -0.0300000000000000405 0 0 0 0 0.384787297964096053
-5.5511151231257827e-17 -0.0300000000000000405 0 0 0 0 0.437014921903610243
0.00999999999999993949 -0.0300000000000000405 0 0 0 0 0.426343552827835093
0.0199999999999999345 -0.0300000000000000405 0 0 0 0 0.408551419258117665
0.0299999999999999434 -0.0300000000000000405 0 0 0 0 0.449311574935913061
0.0399999999999999245 -0.0300000000000000405 0 0 0 0 0.483267947673797604
0.0499999999999999056 -0.0300000000000000405 0 0 0 0 0.589208876132965131
0.0599999999999999145 -0.0300000000000000405 0 0 0 0 0.693839643478393553
0.0699999999999999234 -0.0300000000000000405 0 0 0 0 0.814210599422454884
0.0799999999999999045 -0.0300000000000000405 0 0 0 0 1.02269563770294192
0.0899999999999998856 -0.0300000000000000405 0 0 0 0 1.22465178108215333
0.0999999999999998945 -0.0300000000000000405 0 0 0 0 1.58851168060302728
-0.100000000000000006 -0.0200000000000000455 0 0 0 0 0.856860779762268043
-0.0900000000000000105 -0.0200000000000000455 0 0 0 0 0.835096355199813845
-0.0800000000000000155 -0.0200000000000000455 0 0 0 0 0.770727583646774295
-0.0700000000000000205 -0.0200000000000000455 0 0 0 0 0.684957849979400679
-0.0600000000000000255 -0.0200000000000000455 0 0 0 0 0.549425719738006579
-0.0500000000000000305 -0.0200000000000000455 0 0 0 0 0.472164555311202994
-0.0400000000000000355 -0.0200000000000000455 0 0 0 0 0.447157289266586322
-0.0300000000000000405 -0.0200000000000000455 0 0 0 0 0.405829208612442038
-0.0200000000000000455 -0.0200000000000000455 0 0 0 0 0.35800171065330505
-0.0100000000000000505 -0.0200000000000000455 0 0 0 0 0.348240625858306896
-5.5511151231257827e-17 -0.0200000000000000455 0 0 0 0 0.32620304656028748
0.00999999999999993949 -0.0200000000000000455 0 0 0 0 0.28938084638118744
0.0199999999999999345 -0.0200000000000000455 0 0 0 0 0.295421444773673991
0.0299999999999999434 -0.0200000000000000455 0 0 0 0 0.340489079475402856
0.0399999999999999245 -0.0200000000000000455 0 0 0 0 0.41222605347633362
0.0499999999999999056 -0.0200000000000000455 0 0 0 0 0.501311900615692085
0.0599999999999999145 -0.0200000000000000455 0 0 0 0 0.592555846452712975
0.0699999999999999234 -0.0200000000000000455 0 0 0 0 0.742953365802764942
0.0799999999999999045 -0.0200000000000000455 0 0 0 0 0.944380587100982716
0.0899999999999998856 -0.0200000000000000455 0 0 0 0 1.20299317407608042
0.0999999999999998945 -0.0200000000000000455 0 0 0 0 1.50385418128967285
-0.100000000000000006 -0.0100000000000000505 0 0 0 0 1.04126983451843258
-0.0900000000000000105 -0.0100000000000000505 0 0 0 0 1.01794570064544687
-0.0800000000000000155 -0.0100000000000000505 0 0 0 0 0.914512085914611861
-0.0700000000000000205 -0.0100000000000000505 0 0 0 0 0.718370907545089699
-0.0600000000000000255 -0.0100000000000000505 0 0 0 0 0.546316972732543982
-0.0500000000000000305 -0.0100000000000000505 0 0 0 0 0.462964253902435285
-0.0400000000000000355 -0.0100000000000000505 0 0 0 0 0.452537127971649189
-0.0300000000000000405 -0.0100000000000000505 0 0 0 0 0.42890100741386411
-0.0200000000000000455 -0.0100000000000000505 0 0 0 0 0.379489915847778303
-0.0100000000000000505 -0.0100000000000000505 0 0 0 0 0.314078059315681446
-5.5511151231257827e-17 -0.0100000000000000505 0 0 0 0 0.149655176252126682
0.00999999999999993949 -0.0100000000000000505 0 0 0 0 0.119720088005065922
0.0199999999999999345 -0.0100000000000000505 0 0 0 0 0.217455039381980908
0.0299999999999999434 -0.0100000000000000505 0 0 0 0 0.3137592052221298
0.0399999999999999245 -0.0100000000000000505 0 0 0 0 0.389661852598190306
0.0499999999999999056 -0.0100000000000000505 0 0 0 0 0.502812586069107059
0.0599999999999999145 -0.0100000000000000505 0 0 0 0 0.625587017536163303
0.0699999999999999234 -0.0100000000000000505 0 0 0 0 0.795007322311401365
0.0799999999999999045 -0.0100000000000000505 0 0 0 0 0.969619490146636953
0.0899999999999998856 -0.0100000000000000505 0 0 0 0 1.21367052507400519
0.0999999999999998945 -0.0100000000000000505 0 0 0 0 1.57733352375030522
-0.100000000000000006 -5.5511151231257827e-17 0 0 0 0 1.08952778530120842
-0.0900000000000000105 -5.5511151231257827e-17 0 0 0 0 1.05259121084213247
-0.0800000000000000155 -5.5511151231257827e-17 0 0 0 0 0.831749126434326191
-0.0700000000000000205 -5.5511151231257827e-17 0 0 0 0 0.694063106298446697
-0.0600000000000000255 -5.5511151231257827e-17 0 0 0 0 0.527091170787811314
-0.0500000000000000305 -5.5511151231257827e-17 0 0 0 0 0.450809339046478297
-0.0400000000000000355 -5.5511151231257827e-17 0 0 0 0 0.456643309116363527
-0.0300000000000000405 -5.5511151231257827e-17 0 0 0 0 0.439319406509399435
-0.0200000000000000455 -5.5511151231257827e-17 0 0 0 0 0.379631309986114496
-0.0100000000000000505 -5.5511151231257827e-17 0 0 0 0 0.243488810181617749
-5.5511151231257827e-17 -5.5511151231257827e-17 0 0 0 0 0.0370107021313160686
0.00999999999999993949 -5.5511151231257827e-17 0 0 0 0 0.0639318562373518973
0.0199999999999999345 -5.5511151231257827e-17 0 0 0 0 0.199527721762657179
0.0299999999999999434 -5.5511151231257827e-17 0 0 0 0 0.336258048772811902
0.0399999999999999245 -5.5511151231257827e-17 0 0 0 0 0.431733597278594949
0.0499999999999999056 -5.5511151231257827e-17 0 0 0 0 0.586740402221679669
0.0599999999999999145 -5.5511151231257827e-17 0 0 0 0 0.74419275903701787
0.0699999999999999234 -5.5511151231257827e-17 0 0 0 0 0.870859041690826396
0.0799999999999999045 -5.5511151231257827e-17 0 0 0 0 1.10418384122848501
0.0899999999999998856 -5.5511151231257827e-17 0 0 0 0 1.40655326366424571
0.0999999999999998945 -5.5511151231257827e-17 0 0 0 0 1.87792028903961183
-0.100000000000000006 0.00999999999999993949 0 0 0 0 1.19621460342407238
-0.0900000000000000105 0.00999999999999993949 0 0 0 0 1.10008441901206977
-0.0800000000000000155 0.00999999999999993949 0 0 0 0 0.844306459426879874
-0.0700000000000000205 0.00999999999999993949 0 0 0 0 0.631178947210311869
-0.0600000000000000255 0.00999999999999993949 0 0 0 0 0.488855919361114499
-0.0500000000000000305 0.00999999999999993949 0 0 0 0 0.44143205976486205
-0.0400000000000000355 0.00999999999999993949 0 0 0 0 0.45938831377029421
-0.0300000000000000405 0.00999999999999993949 0 0 0 0 0.440753476142883294
-0.0200000000000000455 0.00999999999999993949 0 0 0 0 0.358329777956008899
-0.0100000000000000505 0.00999999999999993949 0 0 0 0 0.136158417403697968
-5.5511151231257827e-17 0.00999999999999993949 0 0 0 0 0.0486058853119611736
0.00999999999999993949 0.00999999999999993949 0 0 0 0 0.0918219366073608351
0.0199999999999999345 0.00999999999999993949 0 0 0 0 0.223419822812080393
0.0299999999999999434 0.00999999999999993949 0 0 0 0 0.360550472736358651
0.0399999999999999245 0.00999999999999993949 0 0 0 0 0.487864681005477918
0.0499999999999999056 0.00999999999999993949 0 0 0 0 0.667280514001846292
0.0599999999999999145 0.00999999999999993949 0 0 0 0 0.867302525043487593
0.0699999999999999234 0.00999999999999993949 0 0 0 0 1.09770936918258677
0.0799999999999999045 0.00999999999999993949 0 0 0 0 1.4366574959754943
0.0899999999999998856 0.00999999999999993949 0 0 0 0 1.7394070863723754
0.0999999999999998945 0.00999999999999993949 0 0 0 0 2.26000270843505868
-0.100000000000000006 0.0199999999999999345 0 0 0 0 1.27781068372726447
-0.0900000000000000105 0.0199999999999999345 0 0 0 0 1.07967521286010748
-0.0800000000000000155 0.0199999999999999345 0 0 0 0 0.810499903678894018
-0.0700000000000000205 0.0199999999999999345 0 0 0 0 0.615411472797393833
-0.0600000000000000255 0.0199999999999999345 0 0 0 0 0.470682723522186264
-0.0500000000000000305 0.0199999999999999345 0 0 0 0 0.452442919015884404
-0.0400000000000000355 0.0199999999999999345 0 0 0 0 0.456732367515563953
-0.0300000000000000405 0.0199999999999999345 0 0 0 0 0.418677448034286526
-0.0200000000000000455 0.0199999999999999345 0 0 0 0 0.331927071809768659
-0.0100000000000000505 0.0199999999999999345 0 0 0 0 0.11506196674704551
-5.5511151231257827e-17 0.0199999999999999345 0 0 0 0 0.109899753957986832
0.00999999999999993949 0.0199999999999999345 0 0 0 0 0.175347512066364286
0.0199999999999999345 0.0199999999999999345 0 0 0 0 0.267055104136466992
0.0299999999999999434 0.0199999999999999345 0 0 0 0 0.374650514364242571
0.0399999999999999245 0.0199999999999999345 0 0 0 0 0.541388082027435269
0.0499999999999999056 0.0199999999999999345 0 0 0 0 0.814592356204986601
0.0599999999999999145 0.0199999999999999345 0 0 0 0 1.08336568117141718
0.0699999999999999234 0.0199999999999999345 0 0 0 0 1.45965904045104988
0.0799999999999999045 0.0199999999999999345 0 0 0 0 1.75236862373352054
0.0899999999999998856 0.0199999999999999345 0 0 0 0 2.03491652488708485
0.0999999999999998945 0.0199999999999999345 0 0 0 0 2.50527754688262938
-0.100000000000000006 0.0299999999999999434 0 0 0 0 1.30266998052597049
-0.0900000000000000105 0.0299999999999999434 0 0 0 0 1.06619957971572865
-0.0800000000000000155 0.0299999999999999434 0 0 0 0 0.760935746431350757
-0.0700000000000000205 0.0299999999999999434 0 0 0 0 0.559666104316711377
-0.0600000000000000255 0.0299999999999999434 0 0 0 0 0.474324160814285301
-0.0500000000000000305 0.0299999999999999434 0 0 0 0 0.469553794860839868
-0.0400000000000000355 0.0299999999999999434 0 0 0 0 0.444693069219589232
-0.0300000000000000405 0.0299999999999999434 0 0 0 0 0.405255028724670396
-0.0200000000000000455 0.0299999999999999434 0 0 0 0 0.314739617705345143
-0.0100000000000000505 0.0299999999999999434 0 0 0 0 0.234567909002304065
-5.5511151231257827e-17 0.0299999999999999434 0 0 0 0 0.240002650499343884
0.00999999999999993949 0.0299999999999999434 0 0 0 0 0.287162847280502342
0.0199999999999999345 0.0299999999999999434 0 0 0 0 0.321045361757278436
0.0299999999999999434 0.0299999999999999434 0 0 0 0 0.409946859836578359
0.0399999999999999245 0.0299999999999999434 0 0 0 0 0.577286672592163042
0.0499999999999999056 0.0299999999999999434 0 0 0 0 0.910962132453918438
0.0599999999999999145 0.0299999999999999434 0 0 0 0 1.27488323116302493
0.0699999999999999234 0.0299999999999999434 0 0 0 0 1.64092225456237784
0.0799999999999999045 0.0299999999999999434 0 0 0 0 1.94319732856750482
0.0899999999999998856 0.0299999999999999434 0 0 0 0 2.32836874485015866
0.0999999999999998945 0.0299999999999999434 0 0 0 0 2.73451361083984379
-0.100000000000000006 0.0399999999999999245 0 0 0 0 1.34258628416061399
-0.0900000000000000105 0.0399999999999999245 0 0 0 0 1.00346794223785407
-0.0800000000000000155 0.0399999999999999245 0 0 0 0 0.731178923368454026
-0.0700000000000000205 0.0399999999999999245 0 0 0 0 0.557329190731048585
-0.0600000000000000255 0.0399999999999999245 0 0 0 0 0.497852540731430038
-0.0500000000000000305 0.0399999999999999245 0 0 0 0 0.467500531196594238
-0.0400000000000000355 0.0399999999999999245 0 0 0 0 0.428242946386337253
-0.0300000000000000405 0.0399999999999999245 0 0 0 0 0.389896173238754251
-0.0200000000000000455 0.0399999999999999245 0 0 0 0 0.345540317296981814
-0.0100000000000000505 0.0399999999999999245 0 0 0 0 0.339277890443801855
-5.5511151231257827e-17 0.0399999999999999245 0 0 0 0 0.32403312778472898
0.00999999999999993949 0.0399999999999999245 0 0 0 0 0.339340626120567312
0.0199999999999999345 0.0399999999999999245 0 0 0 0 0.364922821521759033
0.0299999999999999434 0.0399999999999999245 0 0 0 0 0.431395562171936031
0.0399999999999999245 0.0399999999999999245 0 0 0 0 0.612781761884689358
0.0499999999999999056 0.0399999999999999245 0 0 0 0 1.06846974468231193
0.0599999999999999145 0.0399999999999999245 0 0 0 0 1.48749812126159675
0.0699999999999999234 0.0399999999999999245 0 0 0 0 1.83128335618972771
0.0799999999999999045 0.0399999999999999245 0 0 0 0 2.16467073154449441
0.0899999999999998856 0.0399999999999999245 0 0 0 0 2.53066308975219734
0.0999999999999998945 0.0399999999999999245 0 0 0 0 3.02242527770996094
-0.100000000000000006 0.0499999999999999056 0 0 0 0 1.40375096511840813
-0.0900000000000000105 0.0499999999999999056 0 0 0 0 1.01735567522048953
-0.0800000000000000155 0.0499999999999999056 0 0 0 0 0.706008373260498034
-0.0700000000000000205 0.0499999999999999056 0 0 0 0 0.545120384216308596
-0.0600000000000000255 0.0499999999999999056 0 0 0 0 0.49539736390113831
-0.0500000000000000305 0.0499999999999999056 0 0 0 0 0.436486943960189833
-0.0400000000000000355 0.0499999999999999056 0 0 0 0 0.420567414999008182
-0.0300000000000000405 0.0499999999999999056 0 0 0 0 0.392624316930770878
-0.0200000000000000455 0.0499999999999999056 0 0 0 0 0.384355086803436274
-0.0100000000000000505 0.0499999999999999056 0 0 0 0 0.378673333406448376
-5.5511151231257827e-17 0.0499999999999999056 0 0 0 0 0.377099425554275502
0.00999999999999993949 0.0499999999999999056 0 0 0 0 0.386118571043014502
0.0199999999999999345 0.0499999999999999056 0 0 0 0 0.422710016965866076
0.0299999999999999434 0.0499999999999999056 0 0 0 0 0.496493491649627694
0.0399999999999999245 0.0499999999999999056 0 0 0 0 0.733395176649093594
0.0499999999999999056 0.0499999999999999056 0 0 0 0 1.0545046877861024
0.0599999999999999145 0.0499999999999999056 0 0 0 0 1.61974746990203866
0.0699999999999999234 0.0499999999999999056 0 0 0 0 2.12559669876098623
0.0799999999999999045 0.0499999999999999056 0 0 0 0 2.33229173374176035
0.0899999999999998856 0.0499999999999999056 0 0 0 0 2.84227182865142813
0.0999999999999998945 0.0499999999999999056 0 0 0 0 3.28332538318634048
-0.100000000000000006 0.0599999999999999145 0 0 0 0 1.41721851015090938
-0.0900000000000000105 0.0599999999999999145 0 0 0 0 0.98336629581451418
-0.0800000000000000155 0.0599999999999999145 0 0 0 0 0.690386180400848426
-0.0700000000000000205 0.0599999999999999145 0 0 0 0 0.54733076858520513
-0.0600000000000000255 0.0599999999999999145 0 0 0 0 0.492227054595947289
-0.0500000000000000305 0.0599999999999999145 0 0 0 0 0.425269394159317027
-0.0400000000000000355 0.0599999999999999145 0 0 0 0 0.396851885795593273
-0.0300000000000000405 0.0599999999999999145 0 0 0 0 0.397209131240844726
-0.0200000000000000455 0.0599999999999999145 0 0 0 0 0.411839955806732161
-0.0100000000000000505 0.0599999999999999145 0 0 0 0 0.404150401115417501
-5.5511151231257827e-17 0.0599999999999999145 0 0 0 0 0.401088723421096804
0.00999999999999993949 0.0599999999999999145 0 0 0 0 0.420819153547286995
0.0199999999999999345 0.0599999999999999145 0 0 0 0 0.49623918843269349
0.0299999999999999434 0.0599999999999999145 0 0 0 0 0.578737065553665109
0.0399999999999999245 0.0599999999999999145 0 0 0 0 0.840356785774231008
0.0499999999999999056 0.0599999999999999145 0 0 0 0 1.24216770696640011
0.0599999999999999145 0.0599999999999999145 0 0 0 0 1.71435890197753915
0.0699999999999999234 0.0599999999999999145 0 0 0 0 2.20005008602142338
0.0799999999999999045 0.0599999999999999145 0 0 0 0 2.61119944381713864
0.0899999999999998856 0.0599999999999999145 0 0 0 0 2.95358877754211413
0.0999999999999998945 0.0599999999999999145 0 0 0 0 3.3370285110473632
-0.100000000000000006 0.0699999999999999234 0 0 0 0 1.48789618682861335
-0.0900000000000000105 0.0699999999999999234 0 0 0 0 1.02595764780044552
-0.0800000000000000155 0.0699999999999999234 0 0 0 0 0.691148078680038469
-0.0700000000000000205 0.0699999999999999234 0 0 0 0 0.545543243408203149
-0.0600000000000000255 0.0699999999999999234 0 0 0 0 0.468089524745941177
-0.0500000000000000305 0.0699999999999999234 0 0 0 0 0.408282110452652003
-0.0400000000000000355 0.0699999999999999234 0 0 0 0 0.384550558567047118
-0.0300000000000000405 0.0699999999999999234 0 0 0 0 0.412732657909393286
-0.0200000000000000455 0.0699999999999999234 0 0 0 0 0.426991983413696263
-0.0100000000000000505 0.0699999999999999234 0 0 0 0 0.425157625675201434
-5.5511151231257827e-17 0.0699999999999999234 0 0 0 0 0.44248338294029238
0.00999999999999993949 0.0699999999999999234 0 0 0 0 0.483622917413711551
0.0199999999999999345 0.0699999999999999234 0 0 0 0 0.556791049003601102
0.0299999999999999434 0.0699999999999999234 0 0 0 0 0.700743718624114997
0.0399999999999999245 0.0699999999999999234 0 0 0 0 0.964236588478088352
0.0499999999999999056 0.0699999999999999234 0 0 0 0 1.39030371379852302
0.0599999999999999145 0.0699999999999999234 0 0 0 0 1.89172580051422123
0.0699999999999999234 0.0699999999999999234 0 0 0 0 2.29974302005767806
0.0799999999999999045 0.0699999999999999234 0 0 0 0 2.74944609069824208
0.0899999999999998856 0.0699999999999999234 0 0 0 0 3.26136051654815695
0.0999999999999998945 0.0699999999999999234 0 0 0 0 3.62837387275695811
-0.100000000000000006 0.0799999999999999045 0 0 0 0 1.54261896133422849
-0.0900000000000000105 0.0799999999999999045 0 0 0 0 1.00547639274597178
-0.0800000000000000155 0.0799999999999999045 0 0 0 0 0.660487975120544468
-0.0700000000000000205 0.0799999999999999045 0 0 0 0 0.543566816091537452
-0.0600000000000000255 0.0799999999999999045 0 0 0 0 0.422641705274581891
-0.0500000000000000305 0.0799999999999999045 0 0 0 0 0.379820870637893659
-0.0400000000000000355 0.0799999999999999045 0 0 0 0 0.388300004005432131
-0.0300000000000000405 0.0799999999999999045 0 0 0 0 0.421740439176559456
-0.0200000000000000455 0.0799999999999999045 0 0 0 0 0.442934242010116552
-0.0100000000000000505 0.0799999999999999045 0 0 0 0 0.454897269010543837
-5.5511151231257827e-17 0.0799999999999999045 0 0 0 0 0.477377568483352666
0.00999999999999993949 0.0799999999999999045 0 0 0 0 0.546781792640686048
0.0199999999999999345 0.0799999999999999045 0 0 0 0 0.634484317302703826
0.0299999999999999434 0.0799999999999999045 0 0 0 0 0.772821734189987231
0.0399999999999999245 0.0799999999999999045 0 0 0 0 1.04803828620910644
0.0499999999999999056 0.0799999999999999045 0 0 0 0 1.49485707473754892
0.0599999999999999145 0.0799999999999999045 0 0 0 0 2.02540768527984616
0.0699999999999999234 0.0799999999999999045 0 0 0 0 2.48085308551788319
0.0799999999999999045 0.0799999999999999045 0 0 0 0 3.06556760597228983
0.0899999999999998856 0.0799999999999999045 0 0 0 0 3.61203524971008294
0.0999999999999998945 0.0799999999999999045 0 0 0 0 3.87888392066955578
-0.100000000000000006 0.0899999999999998856 0 0 0 0 1.5460235586166382
-0.0900000000000000105 0.0899999999999998856 0 0 0 0 1.0075833549499511
-0.0800000000000000155 0.0899999999999998856 0 0 0 0 0.694533698081970186
-0.0700000000000000205 0.0899999999999998856 0 0 0 0 0.515540253400802562
-0.0600000000000000255 0.0899999999999998856 0 0 0 0 0.403154318571090686
-0.0500000000000000305 0.0899999999999998856 0 0 0 0 0.368593186378478987
-0.0400000000000000355 0.0899999999999998856 0 0 0 0 0.39159601426124574
-0.0300000000000000405 0.0899999999999998856 0 0 0 0 0.430063302278518689
-0.0200000000000000455 0.0899999999999998856 0 0 0 0 0.452661614894866948
-0.0100000000000000505 0.0899999999999998856 0 0 0 0 0.468883237600326519
-5.5511151231257827e-17 0.0899999999999998856 0 0 0 0 0.521020786285400384
0.00999999999999993949 0.0899999999999998856 0 0 0 0 0.617855019092559798
0.0199999999999999345 0.0899999999999998856 0 0 0 0 0.767158688545227063
0.0299999999999999434 0.0899999999999998856 0 0 0 0 0.96617555046081538
0.0399999999999999245 0.0899999999999998856 0 0 0 0 1.25829642868041991
0.0499999999999999056 0.0899999999999998856 0 0 0 0 1.6373756380081177
0.0599999999999999145 0.0899999999999998856 0 0 0 0 2.0652071990966796
0.0699999999999999234 0.0899999999999998856 0 0 0 0 2.61947425079345697
0.0799999999999999045 0.0899999999999998856 0 0 0 0 3.29519390678405744
0.0899999999999998856 0.0899999999999998856 0 0 0 0 3.88978061294555655
0.0999999999999998945 0.0899999999999998856 0 0 0 0 4.47473668670654323
-0.100000000000000006 0.0999999999999998945 0 0 0 0 1.51076454162597651
-0.0900000000000000105 0.0999999999999998945 0 0 0 0 1.0000306944847106
-0.0800000000000000155 0.0999999999999998945 0 0 0 0 0.666778685092926038
-0.0700000000000000205 0.0999999999999998945 0 0 0 0 0.471035437822341918
-0.0600000000000000255 0.0999999999999998945 0 0 0 0 0.383885263681411737
-0.0500000000000000305 0.0999999999999998945 0 0 0 0 0.363457734584808345
-0.0400000000000000355 0.0999999999999998945 0 0 0 0 0.403985430002212542
-0.0300000000000000405 0.0999999999999998945 0 0 0 0 0.435080785751342791
-0.0200000000000000455 0.0999999999999998945 0 0 0 0 0.44714293789863585
-0.0100000000000000505 0.0999999999999998945 0 0 0 0 0.498764740705490095
-5.5511151231257827e-17 0.0999999999999998945 0 0 0 0 0.592745076417922956
0.00999999999999993949 0.0999999999999998945 0 0 0 0 0.738891645908355765
0.0199999999999999345 0.0999999999999998945 0 0 0 0 0.930036297798156775
0.0299999999999999434 0.0999999999999998945 0 0 0 0 1.12357379627227782
0.0399999999999999245 0.0999999999999998945 0 0 0 0 1.41570271348953236
0.0499999999999999056 0.0999999999999998945 0 0 0 0 1.86619468879699713
0.0599999999999999145 0.0999999999999998945 0 0 0 0 2.320664203643799
0.0699999999999999234 0.0999999999999998945 0 0 0 0 2.92221704864501941
0.0799999999999999045 0.0999999999999998945 0 0 0 0 3.49225303268432619
0.0899999999999998856 0.0999999999999998945 0 0 0 0 4.27984480094909703
0.0999999999999998945 0.0999999999999998945 0 0 0 0 5.09739263534545906
4 0 1 22 21
4 1 2 23 22
4 2 3 24 23
4 3 4 25 24
4 4 5 26 25
4 5 6 27 26
4 6 7 28 27
4 7 8 29 28
4 8 9 30 29
4 9 10 31 30
4 10 11 32 31
4 11 12 33 32
4 12 13 34 33
4 13 14 35 34
4 14 15 36 35
4 15 16 37 36
4 16 17 38 37
4 17 18 39 38
4 18 19 40 39
4 19 20 41 40
4 21 22 43 42
4 22 23 44 43
4 23 24 45 44
4 24 25 46 45
4 25 26 47 46
4 26 27 48 47
4 27 28 49 48
4 28 29 50 49
4 29 30 51 50
4 30 31 52 51
4 31 32 53 52
4 32 33 54 53
4 33 34 55 54
4 34 35 56 55
4 35 36 57 56
4 36 37 58 57
4 37 38 59 58
4 38 39 60 59
4 39 40 61 60
4 40 41 62 61
4 42 43 64 63
4 43 44 65 64
4 44 45 66 65
4 45 46 67 66
4 46 47 68 67
4 47 48 69 68
4 48 49 70 69
4 49 50 71 70
4 50 51 72 71
4 51 52 73 72
4 52 53 74 73
4 53 54 75 74
4 54 55 76 75
4 55 56 77 76
4 56 57 78 77
4 57 58 79 78
4 58 59 80 79
4 59 60 81 80
4 60 61 82 81
4 61 62 83 82
4 63 64 85 84
4 64 65 86 85
4 65 66 87 86
4 66 67 88 87
4 67 68 89 88
4 68 69 90 89
4 69 70 91 90
4 70 71 92 91
4 71 72 93 92
4 72 73 94 93
4 73 74 95 94
4 74 75 96 95
4 75 76 97 96
4 76 77 98 97
4 77 78 99 98
4 78 79 100 99
4 79 80 101 100
4 80 81 102 101
4 81 82 103 102
4 82 83 104 103
4 84 85 106 105
4 85 86 107 106
4 86 87 108 107
4 87 88 109 108
4 88 89 110 109
4 89 90 111 110
4 90 91 112 111
4 91 92 113 112
4 92 93 114 113
4 93 94 115 114
4 94 95 116 115
4 95 96 117 116
4 96 97 118 117
4 97 98 119 118
4 98 99 120 119
4 99 100 121 120
4 100 101 122 121
4 101 102 123 122
4 102 103 124 123
4 103 104 125 124
4 105 106 127 126
4 106 107 128 127
4 107 108 129 128
4 108 109 130 129
4 109 110 131 130
4 110 111 132 131
4 111 112 133 132
4 112 113 134 133
4 113 114 135 134
4 114 115 136 135
4 115 116 137 136
4 116 117 138 137
4 117 118 139 138
4 118 119 140 139
4 119 120 141 140
4 120 121 142 141
4 121 122 143 142
4 122 123 144 143
4 123 124 145 144
4 124 125 146 145
4 126 127 148 147
4 127 128 149 148
4 128 129 150 149
4 129 130 151 150
4 130 131 152 151
4 131 132 153 152
4 132 133 154 153
4 133 134 155 154
4 134 135 156 155
4 135 136 157 156
4 136 137 158 157
4 137 138 159 158
4 138 139 160 159
4 139 140 161 160
4 140 141 162 161
4 141 142 163 162
4 142 143 164 163
4 143 144 165 164
4 144 145 166 165
4 145 146 167 166
4 147 148 169 168
4 148 149 170 169
4 149 150 171 170
4 150 151 172 171
4 151 152 173 172
4 152 153 174 173
4 153 154 175 174
4 154 155 176 175
4 155 156 177 176
4 156 157 178 177
4 157 158 179 178
4 158 159 180 179
4 159 160 181 180
4 160 161 182 181
4 161 162 183 182
4 162 163 184 183
4 163 164 185 184
4 164 165 186 185
4 165 166 187 186
4 166 167 188 187
4 168 169 190 189
4 169 170 191 190
4 170 171 192 191
4 171 172 193 192
4 172 173 194 193
4 173 174 195 194
4 174 175 196 195
4 175 176 197 196
4 176 177 198 197
4 177 178 199 198
4 178 179 200 199
4 179 180 201 200
4 180 181 202 201
4 181 182 203 202
4 182 183 204 203
4 183 184 205 204
4 184 185 206 205
4 185 186 207 206
4 186 187 208 207
4 187 188 209 208
4 189 190 211 210
4 190 191 212 211
4 191 192 213 212
4 192 193 214 213
4 193 194 215 214
4 194 195 216 215
4 195 196 217 216
4 196 197 218 217
4 197 198 219 218
4 198 199 220 219
4 199 200 221 220
4 200 201 222 221
4 201 202 223 222
4 202 203 224 223
4 203 204 225 224
4 204 205 226 225
4 205 206 227 226
4 206 207 228 227
4 207 208 229 228
4 208 209 230 229
4 210 211 232 231
4 211 212 233 232
4 212 213 234 233
4 213 214 235 234
4 214 215 236 235
4 215 216 237 236
4 216 217 238 237
4 217 218 239 238
4 218 219 240 239
4 219 220 241 240
4 220 221 242 241
4 221 222 243 242
4 222 223 244 243
4 223 224 245 244
4 224 225 246 245
4 225 226 247 246
4 226 227 248 247
4 227 228 249 248
4 228 229 250 249
4 229 230 251 250
4 231 232 253 252
4 232 233 254 253
4 233 234 255 254
4 234 235 256 255
4 235 236 257 256
4 236 237 258 257
4 237 238 259 258
4 238 239 260 259
4 239 240 261 260
4 240 241 262 261
4 241 242 263 262
4 242 243 264 263
4 243 244 265 264
4 244 245 266 265
4 245 246 267 266
4 246 247 268 267
4 247 248 269 268
4 248 249 270 269
4 249 250 271 270
4 250 251 272 271
4 252 253 274 273
4 253 254 275 274
4 254 255 276 275
4 255 256 277 276
4 256 257 278 277
4 257 258 279 278
4 258 259 280 279
4 259 260 281 280
4 260 261 282 281
4 261 262 283 282
4 262 263 284 283
4 263 264 285 284
4 264 265 286 285
4 265 266 287 286
4 266 267 288 287
4 267 268 289 288
4 268 269 290 289
4 269 270 291 290
4 270 271 292 291
4 271 272 293 292
4 273 274 295 294
4 274 275 296 295
4 275 276 297 296
4 276 277 298 297
4 277 278 299 298
4 278 279 300 299
4 279 280 301 300
4 280 281 302 301
4 281 282 303 302
4 282 283 304 303
4 283 284 305 304
4 284 285 306 305
4 285 286 307 306
4 286 287 308 307
4 287 288 309 308
4 288 289 310 309
4 289 290 311 310
4 290 291 312 311
4 291 292 313 312
4 292 293 314 313
4 294 295 316 315
4 295 296 317 316
4 296 297 318 317
4 297 298 319 318
4 298 299 320 319
4 299 300 321 320
4 300 301 322 321
4 301 302 323 322
4 302 303 324 323
4 303 304 325 324
4 304 305 326 325
4 305 306 327 326
4 306 307 328 327
4 307 308 329 328
4 308 309 330 329
4 309 310 331 330
4 310 311 332 331
4 311 312 333 332
4 312 313 334 333
4 313 314 335 334
4 315 316 337 336
4 316 317 338 337
4 317 318 339 338
4 318 319 340 339
4 319 320 341 340
4 320 321 342 341
4 321 322 343 342
4 322 323 344 343
4 323 324 345 344
4 324 325 346 345
4 325 326 347 346
4 326 327 348 347
4 327 328 349 348
4 328 329 350 349
4 329 330 351 350
4 330 331 352 351
4 331 332 353 352
4 332 333 354 353
4 333 334 355 354
4 334 335 356 355
4 336 337 358 357
4 337 338 359 358
4 338 339 360 359
4 339 340 361 360
4 340 341 362 361
4 341 342 363 362
4 342 343 364 363
4 343 344 365 364
4 344 345 366 365
4 345 346 367 366
4 346 347 368 367
4 347 348 369 368
4 348 349 370 369
4 349 350 371 370
4 350 351 372 371
4 351 352 373 372
4 352 353 374 373
4 353 354 375 374
4 354 355 376 375
4 355 356 377 376
4 357 358 379 378
4 358 359 380 379
4 359 360 381 380
4 360 361 382 381
4 361 362 383 382
4 362 363 384 383
4 363 364 385 384
4 364 365 386 385
4 365 366 387 386
4 366 367 388 387
4 367 368 389 388
4 368 369 390 389
4 369 370 391 390
4 370 371 392 391
4 371 372 393 392
4 372 373 394 393
4 373 374 395 394
4 374 375 396 395
4 375 376 397 396
4 376 377 398 397
4 378 379 400 399
4 379 380 401 400
4 380 381 402 401
4 381 382 403 402
4 382 383 404 403
4 383 384 405 404
4 384 385 406 405
4 385 386 407 406
4 386 387 408 407
4 387 388 409 408
4 388 389 410 409
4 389 390 411 410
4 390 391 412 411
4 391 392 413 412
4 392 393 414 413
4 393 394 415 414
4 394 395 416 415
4 395 396 417 416
4 396 397 418 417
4 397 398 419 418
4 399 400 421 420
4 400 401 422 421
4 401 402 423 422
4 402 403 424 423
4 403 404 425 424
4 404 405 426 425
4 405 406 427 426
4 406 407 428 427
4 407 408 429 428
4 408 409 430 429
4 409 410 431 430
4 410 411 432 431
4 411 412 433 432
4 412 413 434 433
4 413 414 435 434
4 414 415 436 435
4 415 416 437 436
4 416 417 438 437
4 417 418 439 438
4 418 419 440 439
