ply
format ascii 1.0
element vertex 441
property double x
property double y
property double z
property double vx
property double vy
property double vz
property double s
element face 400
property list uchar int vertex_indices
end_header
-0.100000000000000006 -0.100000000000000006 0 0 0 0 0.0410155723225325355
-0.0900000000000000105 -0.100000000000000006 0 0 0 0 0.0330584649629890939
-0.0800000000000000155 -0.100000000000000006 0 0 0 0 0.0415472426880151013
-0.0700000000000000205 -0.100000000000000006 0 0 0 0 0.0368404485844075688
-0.0600000000000000255 -0.100000000000000006 0 0 0 0 0.0372897478444501745
-0.0500000000000000305 -0.100000000000000006 0 0 0 0 0.0423094946369528754
-0.0400000000000000355 -0.100000000000000006 0 0 0 0 0.0432745632492005858
-0.0300000000000000405 -0.100000000000000006 0 0 0 0 0.0397061299262568349
-0.0200000000000000455 -0.100000000000000006 0 0 0 0 0.0379450438246130978
-0.0100000000000000505 -0.100000000000000006 0 0 0 0 0.037486599743366239
-5.5511151231257827e-17 -0.100000000000000006 0 0 0 0 0.0378090968467295202
0.00999999999999993949 -0.100000000000000006 0 0 0 0 0.0391058982796967033
0.0199999999999999345 -0.100000000000000006 0 0 0 0 0.0408207976967096334
0.0299999999999999434 -0.100000000000000006 0 0 0 0 0.0394589230194687876
0.0399999999999999245 -0.100000000000000006 0 0 0 0 0.041549229377880692
0.0499999999999999056 -0.100000000000000006 0 0 0 0 0.0469355749040842041
0.0599999999999999145 -0.100000000000000006 0 0 0 0 0.0354843394160270706
0.0699999999999999234 -0.100000000000000006 0 0 0 0 0.0424120915010571461
0.0799999999999999045 -0.100000000000000006 0 0 0 0 0.0381396946385502839
0.0899999999999998856 -0.100000000000000006 0 0 0 0 0.0353495675884187219
0.0999999999999998945 -0.100000000000000006 0 0 0 0 0.0379562310315668602
-0.100000000000000006 -0.0900000000000000105 0 0 0 0 0.0362711702361702901
-0.0900000000000000105 -0.0900000000000000105 0 0 0 0 0.036055919159203767
-0.0800000000000000155 -0.0900000000000000105 0 0 0 0 0.0386533019542694076
-0.0700000000000000205 -0.0900000000000000105 0 0 0 0 0.0432959763547405632
-0.0600000000000000255 -0.0900000000000000105 0 0 0 0 0.0365991537515074003
-0.0500000000000000305 -0.0900000000000000105 0 0 0 0 0.0361294667050242393
-0.0400000000000000355 -0.0900000000000000105 0 0 0 0 0.0370901978686451889
-0.0300000000000000405 -0.0900000000000000105 0 0 0 0 0.0347223501792177577
-0.0200000000000000455 -0.0900000000000000105 0 0 0 0 0.0395393567439168703
-0.0100000000000000505 -0.0900000000000000105 0 0 0 0 0.0407935954006388782
-5.5511151231257827e-17 -0.0900000000000000105 0 0 0 0 0.0395926907621324056
0.00999999999999993949 -0.0900000000000000105 0 0 0 0 0.037870310310274366
0.0199999999999999345 -0.0900000000000000105 0 0 0 0 0.039502592165954413
0.0299999999999999434 -0.0900000000000000105 0 0 0 0 0.0387119444254785811
0.0399999999999999245 -0.0900000000000000105 0 0 0 0 0.0394702345971018054
0.0499999999999999056 -0.0900000000000000105 0 0 0 0 0.0405053929425776005
0.0599999999999999145 -0.0900000000000000105 0 0 0 0 0.0350572904460132104
0.0699999999999999234 -0.0900000000000000105 0 0 0 0 0.0413355046529322867
0.0799999999999999045 -0.0900000000000000105 0 0 0 0 0.0337574748806655431
0.0899999999999998856 -0.0900000000000000105 0 0 0 0 0.0429353038147091831
0.0999999999999998945 -0.0900000000000000105 0 0 0 0 0.0368191108480095883
-0.100000000000000006 -0.0800000000000000155 0 0 0 0 0.0359473642185330414
-0.0900000000000000105 -0.0800000000000000155 0 0 0 0 0.0366131851617246887
-0.0800000000000000155 -0.0800000000000000155 0 0 0 0 0.0397747602704912398
-0.0700000000000000205 -0.0800000000000000155 0 0 0 0 0.0436153189726173895
-0.0600000000000000255 -0.0800000000000000155 0 0 0 0 0.0343898984221741588
-0.0500000000000000305 -0.0800000000000000155 0 0 0 0 0.0409387119393795698
-0.0400000000000000355 -0.0800000000000000155 0 0 0 0 0.0377564947567880158
-0.0300000000000000405 -0.0800000000000000155 0 0 0 0 0.0384336873069405574
-0.0200000000000000455 -0.0800000000000000155 0 0 0 0 0.0398838043622672528
-0.0100000000000000505 -0.0800000000000000155 0 0 0 0 0.0387160284798592352
-5.5511151231257827e-17 -0.0800000000000000155 0 0 0 0 0.0398533256519585863
0.00999999999999993949 -0.0800000000000000155 0 0 0 0 0.03428807270526886
0.0199999999999999345 -0.0800000000000000155 0 0 0 0 0.0363467927798628784
0.0299999999999999434 -0.0800000000000000155 0 0 0 0 0.0413228300772607304
0.0399999999999999245 -0.0800000000000000155 0 0 0 0 0.0359532921649515641
0.0499999999999999056 -0.0800000000000000155 0 0 0 0 0.0334668575227260595
0.0599999999999999145 -0.0800000000000000155 0 0 0 0 0.036652810990810393
0.0699999999999999234 -0.0800000000000000155 0 0 0 0 0.0421188782751560215
0.0799999999999999045 -0.0800000000000000155 0 0 0 0 0.0404461817387491498
0.0899999999999998856 -0.0800000000000000155 0 0 0 0 0.0373265542797744307
0.0999999999999998945 -0.0800000000000000155 0 0 0 0 0.0443139111697673782
-0.100000000000000006 -0.0700000000000000205 0 0 0 0 0.0373864601887762549
-0.0900000000000000105 -0.0700000000000000205 0 0 0 0 0.0395139578841626621
-0.0800000000000000155 -0.0700000000000000205 0 0 0 0 0.0364182103201746918
-0.0700000000000000205 -0.0700000000000000205 0 0 0 0 0.0372110792472958585
-0.0600000000000000255 -0.0700000000000000205 0 0 0 0 0.0363535586409270764
-0.0500000000000000305 -0.0700000000000000205 0 0 0 0 0.0353701948579400807
-0.0400000000000000355 -0.0700000000000000205 0 0 0 0 0.0384842196814715876
-0.0300000000000000405 -0.0700000000000000205 0 0 0 0 0.0351189081761986016
-0.0200000000000000455 -0.0700000000000000205 0 0 0 0 0.0426424650512635742
-0.0100000000000000505 -0.0700000000000000205 0 0 0 0 0.0366487998496741046
-5.5511151231257827e-17 -0.0700000000000000205 0 0 0 0 0.0360535656008869401
0.00999999999999993949 -0.0700000000000000205 0 0 0 0 0.0318749075829982756
0.0199999999999999345 -0.0700000000000000205 0 0 0 0 0.037985671643167733
0.0299999999999999434 -0.0700000000000000205 0 0 0 0 0.0358066100478172319
0.0399999999999999245 -0.0700000000000000205 0 0 0 0 0.037657190281897783
0.0499999999999999056 -0.0700000000000000205 0 0 0 0 0.0422939537875354279
0.0599999999999999145 -0.0700000000000000205 0 0 0 0 0.0419187893774360387
0.0699999999999999234 -0.0700000000000000205 0 0 0 0 0.0414740095660090444
0.0799999999999999045 -0.0700000000000000205 0 0 0 0 0.0390943235401064182
0.0899999999999998856 -0.0700000000000000205 0 0 0 0 0.0364311941703781492
0.0999999999999998945 -0.0700000000000000205 0 0 0 0 0.0389943058788776373
-0.100000000000000006 -0.0600000000000000255 0 0 0 0 0.0384224827531725183
-0.0900000000000000105 -0.0600000000000000255 0 0 0 0 0.0401161619313061268
-0.0800000000000000155 -0.0600000000000000255 0 0 0 0 0.0380565059781074536
-0.0700000000000000205 -0.0600000000000000255 0 0 0 0 0.0352000365648418648
-0.0600000000000000255 -0.0600000000000000255 0 0 0 0 0.037797001238912345
-0.0500000000000000305 -0.0600000000000000255 0 0 0 0 0.0349877593964338304
-0.0400000000000000355 -0.0600000000000000255 0 0 0 0 0.0404407386053353551
-0.0300000000000000405 -0.0600000000000000255 0 0 0 0 0.0389155023358762273
-0.0200000000000000455 -0.0600000000000000255 0 0 0 0 0.0371620487608015568
-0.0100000000000000505 -0.0600000000000000255 0 0 0 0 0.0364714067541062822
-5.5511151231257827e-17 -0.0600000000000000255 0 0 0 0 0.0391655317917466161
0.00999999999999993949 -0.0600000000000000255 0 0 0 0 0.0408153696656227138
0.0199999999999999345 -0.0600000000000000255 0 0 0 0 0.0386156555749475952
0.0299999999999999434 -0.0600000000000000255 0 0 0 0 0.0402041823230683826
0.0399999999999999245 -0.0600000000000000255 0 0 0 0 0.0338001043647527671
0.0499999999999999056 -0.0600000000000000255 0 0 0 0 0.0396877109520137328
0.0599999999999999145 -0.0600000000000000255 0 0 0 0 0.0409108284749090667
0.0699999999999999234 -0.0600000000000000255 0 0 0 0 0.0403975506648421301
0.0799999999999999045 -0.0600000000000000255 0 0 0 0 0.0372537456788122681
0.0899999999999998856 -0.0600000000000000255 0 0 0 0 0.0405606379508972187
0.0999999999999998945 -0.0600000000000000255 0 0 0 0 0.0401614317372441312
-0.100000000000000006 -0.0500000000000000305 0 0 0 0 0.0365408590212464301
-0.0900000000000000105 -0.0500000000000000305 0 0 0 0 0.0394223178457468737
-0.0800000000000000155 -0.0500000000000000305 0 0 0 0 0.038172700596973301
-0.0700000000000000205 -0.0500000000000000305 0 0 0 0 0.0391281204912811501
-0.0600000000000000255 -0.0500000000000000305 0 0 0 0 0.0319122509658336662
-0.0500000000000000305 -0.0500000000000000305 0 0 0 0 0.0422955933399498454
-0.0400000000000000355 -0.0500000000000000305 0 0 0 0 0.0330353772751986949
-0.0300000000000000405 -0.0500000000000000305 0 0 0 0 0.0387670733593404315
-0.0200000000000000455 -0.0500000000000000305 0 0 0 0 0.0418004817795008393
-0.0100000000000000505 -0.0500000000000000305 0 0 0 0 0.0384492321349680435
-5.5511151231257827e-17 -0.0500000000000000305 0 0 0 0 0.0370153644420206512
0.00999999999999993949 -0.0500000000000000305 0 0 0 0 0.0408260453939437856
0.0199999999999999345 -0.0500000000000000305 0 0 0 0 0.0356963118351995914
0.0299999999999999434 -0.0500000000000000305 0 0 0 0 0.0371682465672492982
0.0399999999999999245 -0.0500000000000000305 0 0 0 0 0.0364756306800991317
0.0499999999999999056 -0.0500000000000000305 0 0 0 0 0.0376901784911751747
0.0599999999999999145 -0.0500000000000000305 0 0 0 0 0.0372981346864253299
0.0699999999999999234 -0.0500000000000000305 0 0 0 0 0.0425115605629980547
0.0799999999999999045 -0.0500000000000000305 0 0 0 0 0.0452048396579921227
0.0899999999999998856 -0.0500000000000000305 0 0 0 0 0.0411216668151319006
0.0999999999999998945 -0.0500000000000000305 0 0 0 0 0.0401295245438814188
-0.100000000000000006 -0.0400000000000000355 0 0 0 0 0.0369799661003053157
-0.0900000000000000105 -0.0400000000000000355 0 0 0 0 0.0341954966299235844
-0.0800000000000000155 -0.0400000000000000355 0 0 0 0 0.0391609441861510282
-0.0700000000000000205 -0.0400000000000000355 0 0 0 0 0.0416512579638510932
-0.0600000000000000255 -0.0400000000000000355 0 0 0 0 0.0332107858732342692
-0.0500000000000000305 -0.0400000000000000355 0 0 0 0 0.042791060522198679
-0.0400000000000000355 -0.0400000000000000355 0 0 0 0 0.0405530404718592793
-0.0300000000000000405 -0.0400000000000000355 0 0 0 0 0.0365119658662006255
-0.0200000000000000455 -0.0400000000000000355 0 0 0 0 0.0396390403956174836
-0.0100000000000000505 -0.0400000000000000355 0 0 0 0 0.0401390101537108454
-5.5511151231257827e-17 -0.0400000000000000355 0 0 0 0 0.0403815417718142305
0.00999999999999993949 -0.0400000000000000355 0 0 0 0 0.0344541178941726658
0.0199999999999999345 -0.0400000000000000355 0 0 0 0 0.0428300722502171979
0.0299999999999999434 -0.0400000000000000355 0 0 0 0 0.0396418188214302039
0.0399999999999999245 -0.0400000000000000355 0 0 0 0 0.0367996183214709185
0.0499999999999999056 -0.0400000000000000355 0 0 0 0 0.0347722919583320633
0.0599999999999999145 -0.0400000000000000355 0 0 0 0 0.0372823153212666486
0.0699999999999999234 -0.0400000000000000355 0 0 0 0 0.0352711787857115239
0.0799999999999999045 -0.0400000000000000355 0 0 0 0 0.0403673414029181027
0.0899999999999998856 -0.0400000000000000355 0 0 0 0 0.0392800862714648216
0.0999999999999998945 -0.0400000000000000355 0 0 0 0 0.0420167266540229303
-0.100000000000000006 -0.0300000000000000405 0 0 0 0 0.0365986571274697775
-0.0900000000000000105 -0.0300000000000000405 0 0 0 0 0.0400679650567472012
-0.0800000000000000155 -0.0300000000000000405 0 0 0 0 0.0414999399296939395
-0.0700000000000000205 -0.0300000000000000405 0 0 0 0 0.0410943419672548799
-0.0600000000000000255 -0.0300000000000000405 0 0 0 0 0.0380482073407620164
-0.0500000000000000305 -0.0300000000000000405 0 0 0 0 0.0349374424945563047
-0.0400000000000000355 -0.0300000000000000405 0 0 0 0 0.0392280194461345696
-0.0300000000000000405 -0.0300000000000000405 0 0 0 0 0.0380113182552158854
-0.0200000000000000455 -0.0300000000000000405 0 0 0 0 0.0420036357864737517
-0.0100000000000000505 -0.0300000000000000405 0 0 0 0 0.0382350860405713325
-5.5511151231257827e-17 -0.0300000000000000405 0 0 0 0 0.0403848668374121172
0.00999999999999993949 -0.0300000000000000405 0 0 0 0 0.0396571995727717855
0.0199999999999999345 -0.0300000000000000405 0 0 0 0 0.0392905637361109228
0.0299999999999999434 -0.0300000000000000405 0 0 0 0 0.0408583846017718313
0.0399999999999999245 -0.0300000000000000405 0 0 0 0 0.0372294774763286124
0.0499999999999999056 -0.0300000000000000405 0 0 0 0 0.0385796824134886293
0.0599999999999999145 -0.0300000000000000405 0 0 0 0 0.0385354971364140486
0.0699999999999999234 -0.0300000000000000405 0 0 0 0 0.0403422797359526131
0.0799999999999999045 -0.0300000000000000405 0 0 0 0 0.0381104310527443854
0.0899999999999998856 -0.0300000000000000405 0 0 0 0 0.0425836276486515966
0.0999999999999998945 -0.0300000000000000405 0 0 0 0 0.0393380347769707456
-0.100000000000000006 -0.0200000000000000455 0 0 0 0 0.0409379511941224336
-0.0900000000000000105 -0.0200000000000000455 0 0 0 0 0.0403215205185115319
-0.0800000000000000155 -0.0200000000000000455 0 0 0 0 0.0368966201730072524
-0.0700000000000000205 -0.0200000000000000455 0 0 0 0 0.0394357400275766878
-0.0600000000000000255 -0.0200000000000000455 0 0 0 0 0.0356609485596418377
-0.0500000000000000305 -0.0200000000000000455 0 0 0 0 0.0391819604374468305
-0.0400000000000000355 -0.0200000000000000455 0 0 0 0 0.0334101145863533039
-0.0300000000000000405 -0.0200000000000000455 0 0 0 0 0.0405913148820400208
-0.0200000000000000455 -0.0200000000000000455 0 0 0 0 0.0422549421824514881
-0.0100000000000000505 -0.0200000000000000455 0 0 0 0 0.0403412647731602181
-5.5511151231257827e-17 -0.0200000000000000455 0 0 0 0 0.0407137371487915484
0.00999999999999993949 -0.0200000000000000455 0 0 0 0 0.0380903707053512341
0.0199999999999999345 -0.0200000000000000455 0 0 0 0 0.0394530215859413141
0.0299999999999999434 -0.0200000000000000455 0 0 0 0 0.03837620638683438
0.0399999999999999245 -0.0200000000000000455 0 0 0 0 0.0368166271820664429
0.0499999999999999056 -0.0200000000000000455 0 0 0 0 0.0423643216863274566
0.0599999999999999145 -0.0200000000000000455 0 0 0 0 0.0405978215001523493
0.0699999999999999234 -0.0200000000000000455 0 0 0 0 0.0360808876268565656
0.0799999999999999045 -0.0200000000000000455 0 0 0 0 0.0458633445389568795
0.0899999999999998856 -0.0200000000000000455 0 0 0 0 0.0401257720254361641
0.0999999999999998945 -0.0200000000000000455 0 0 0 0 0.0322994868047535438
-0.100000000000000006 -0.0100000000000000505 0 0 0 0 0.0392185474336147338
-0.0900000000000000105 -0.0100000000000000505 0 0 0 0 0.0362883197404444205
-0.0800000000000000155 -0.0100000000000000505 0 0 0 0 0.0369079178683459769
-0.0700000000000000205 -0.0100000000000000505 0 0 0 0 0.0392191857285797627
-0.0600000000000000255 -0.0100000000000000505 0 0 0 0 0.0369191981814801715
-0.0500000000000000305 -0.0100000000000000505 0 0 0 0 0.0351461866796016695
-0.0400000000000000355 -0.0100000000000000505 0 0 0 0 0.0343989240992814277
-0.0300000000000000405 -0.0100000000000000505 0 0 0 0 0.038569071473553776
-0.0200000000000000455 -0.0100000000000000505 0 0 0 0 0.03635528233088553
-0.0100000000000000505 -0.0100000000000000505 0 0 0 0 0.0387669473402202161
-5.5511151231257827e-17 -0.0100000000000000505 0 0 0 0 0.0390473422780633003
0.00999999999999993949 -0.0100000000000000505 0 0 0 0 0.0368220666665583854
0.0199999999999999345 -0.0100000000000000505 0 0 0 0 0.0392351846620440509
0.0299999999999999434 -0.0100000000000000505 0 0 0 0 0.0398609492015093575
0.0399999999999999245 -0.0100000000000000505 0 0 0 0 0.0420317839272320304
0.0499999999999999056 -0.0100000000000000505 0 0 0 0 0.0388619946725666521
0.0599999999999999145 -0.0100000000000000505 0 0 0 0 0.0364376440439373242
0.0699999999999999234 -0.0100000000000000505 0 0 0 0 0.0402352609205991057
0.0799999999999999045 -0.0100000000000000505 0 0 0 0 0.0419965626597404509
0.0899999999999998856 -0.0100000000000000505 0 0 0 0 0.0367922897310927477
0.0999999999999998945 -0.0100000000000000505 0 0 0 0 0.0361664634682238098
-0.100000000000000006 -5.5511151231257827e-17 0 0 0 0 0.0374698338247835619
-0.0900000000000000105 -5.5511151231257827e-17 0 0 0 0 0.0340816006325185272
-0.0800000000000000155 -5.5511151231257827e-17 0 0 0 0 0.0365278147505596271
-0.0700000000000000205 -5.5511151231257827e-17 0 0 0 0 0.036773592537268994
-0.0600000000000000255 -5.5511151231257827e-17 0 0 0 0 0.0388734839819371708
-0.0500000000000000305 -5.5511151231257827e-17 0 0 0 0 0.035757323360070585
-0.0400000000000000355 -5.5511151231257827e-17 0 0 0 0 0.0358590988460928198
-0.0300000000000000405 -5.5511151231257827e-17 0 0 0 0 0.0378565645106136786
-0.0200000000000000455 -5.5511151231257827e-17 0 0 0 0 0.0361956250555813333
-0.0100000000000000505 -5.5511151231257827e-17 0 0 0 0 0.0353527646437287318
-5.5511151231257827e-17 -5.5511151231257827e-17 0 0 0 0 0.0373199426848441346
0.00999999999999993949 -5.5511151231257827e-17 0 0 0 0 0.0420541742797940973
0.0199999999999999345 -5.5511151231257827e-17 0 0 0 0 0.0385514959692955031
0.0299999999999999434 -5.5511151231257827e-17 0 0 0 0 0.0383176640719175357
0.0399999999999999245 -5.5511151231257827e-17 0 0 0 0 0.0353857334237545756
0.0499999999999999056 -5.5511151231257827e-17 0 0 0 0 0.033993856377899645
0.0599999999999999145 -5.5511151231257827e-17 0 0 0 0 0.0395868042781949009
0.0699999999999999234 -5.5511151231257827e-17 0 0 0 0 0.0410101988799870046
0.0799999999999999045 -5.5511151231257827e-17 0 0 0 0 0.0434897490963339836
0.0899999999999998856 -5.5511151231257827e-17 0 0 0 0 0.0391190648209303604
0.0999999999999998945 -5.5511151231257827e-17 0 0 0 0 0.0378249722141772507
-0.100000000000000006 0.00999999999999993949 0 0 0 0 0.0369123033992946117
-0.0900000000000000105 0.00999999999999993949 0 0 0 0 0.0372822543792426589
-0.0800000000000000155 0.00999999999999993949 0 0 0 0 0.0428717566169798392
-0.0700000000000000205 0.00999999999999993949 0 0 0 0 0.0352359803915023792
-0.0600000000000000255 0.00999999999999993949 0 0 0 0 0.0392137492746114716
-0.0500000000000000305 0.00999999999999993949 0 0 0 0 0.0381714765504002559
-0.0400000000000000355 0.00999999999999993949 0 0 0 0 0.0350380732677876977
-0.0300000000000000405 0.00999999999999993949 0 0 0 0 0.0398857451025396575
-0.0200000000000000455 0.00999999999999993949 0 0 0 0 0.0362892237901687592
-0.0100000000000000505 0.00999999999999993949 0 0 0 0 0.0378357940129935774
-5.5511151231257827e-17 0.00999999999999993949 0 0 0 0 0.0368266155831515757
0.00999999999999993949 0.00999999999999993949 0 0 0 0 0.0341037140861153582
0.0199999999999999345 0.00999999999999993949 0 0 0 0 0.038704977406188848
0.0299999999999999434 0.00999999999999993949 0 0 0 0 0.0421396512873470769
0.0399999999999999245 0.00999999999999993949 0 0 0 0 0.0362430270239710792
0.0499999999999999056 0.00999999999999993949 0 0 0 0 0.0381626744586974348
0.0599999999999999145 0.00999999999999993949 0 0 0 0 0.0348800252219662044
0.0699999999999999234 0.00999999999999993949 0 0 0 0 0.0391352111361920815
0.0799999999999999045 0.00999999999999993949 0 0 0 0 0.0393062008246779435
0.0899999999999998856 0.00999999999999993949 0 0 0 0 0.0369361626487225286
0.0999999999999998945 0.00999999999999993949 0 0 0 0 0.0377239689044654367
-0.100000000000000006 0.0199999999999999345 0 0 0 0 0.0379139594789594386
-0.0900000000000000105 0.0199999999999999345 0 0 0 0 0.0417637874074280255
-0.0800000000000000155 0.0199999999999999345 0 0 0 0 0.0405807237476110486
-0.0700000000000000205 0.0199999999999999345 0 0 0 0 0.0379122897125780609
-0.0600000000000000255 0.0199999999999999345 0 0 0 0 0.0367237643785774739
-0.0500000000000000305 0.0199999999999999345 0 0 0 0 0.0403554240092635144
-0.0400000000000000355 0.0199999999999999345 0 0 0 0 0.0376974382922053361
-0.0300000000000000405 0.0199999999999999345 0 0 0 0 0.0359118603630922753
-0.0200000000000000455 0.0199999999999999345 0 0 0 0 0.0400570929264649767
-0.0100000000000000505 0.0199999999999999345 0 0 0 0 0.0378162293359637289
-5.5511151231257827e-17 0.0199999999999999345 0 0 0 0 0.0407086244802922007
0.00999999999999993949 0.0199999999999999345 0 0 0 0 0.0416106277084909368
0.0199999999999999345 0.0199999999999999345 0 0 0 0 0.0359014572948217411
0.0299999999999999434 0.0199999999999999345 0 0 0 0 0.0421781621314585228
0.0399999999999999245 0.0199999999999999345 0 0 0 0 0.0425485495589673496
0.0499999999999999056 0.0199999999999999345 0 0 0 0 0.0373391710873693244
0.0599999999999999145 0.0199999999999999345 0 0 0 0 0.0376402354240417472
0.0699999999999999234 0.0199999999999999345 0 0 0 0 0.0388870011037215565
0.0799999999999999045 0.0199999999999999345 0 0 0 0 0.0423950870372354974
0.0899999999999998856 0.0199999999999999345 0 0 0 0 0.037827506361529234
0.0999999999999998945 0.0199999999999999345 0 0 0 0 0.0430139827318489557
-0.100000000000000006 0.0299999999999999434 0 0 0 0 0.0372553912550210933
-0.0900000000000000105 0.0299999999999999434 0 0 0 0 0.0365875012148171655
-0.0800000000000000155 0.0299999999999999434 0 0 0 0 0.0369366232547909054
-0.0700000000000000205 0.0299999999999999434 0 0 0 0 0.0346096350364387059
-0.0600000000000000255 0.0299999999999999434 0 0 0 0 0.0350517011210322374
-0.0500000000000000305 0.0299999999999999434 0 0 0 0 0.0342021816093474595
-0.0400000000000000355 0.0299999999999999434 0 0 0 0 0.0390225073732435729
-0.0300000000000000405 0.0299999999999999434 0 0 0 0 0.0352022648043930561
-0.0200000000000000455 0.0299999999999999434 0 0 0 0 0.0406812257990241052
-0.0100000000000000505 0.0299999999999999434 0 0 0 0 0.0404511766023933905
-5.5511151231257827e-17 0.0299999999999999434 0 0 0 0 0.042158354539424181
0.00999999999999993949 0.0299999999999999434 0 0 0 0 0.0351952794305980185
0.0199999999999999345 0.0299999999999999434 0 0 0 0 0.0347263113409280802
0.0299999999999999434 0.0299999999999999434 0 0 0 0 0.0332886865623295281
0.0399999999999999245 0.0299999999999999434 0 0 0 0 0.0352719891052693107
0.0499999999999999056 0.0299999999999999434 0 0 0 0 0.0380220262724906208
0.0599999999999999145 0.0299999999999999434 0 0 0 0 0.0385218464508652672
0.0699999999999999234 0.0299999999999999434 0 0 0 0 0.0396090115942060936
0.0799999999999999045 0.0299999999999999434 0 0 0 0 0.0407574767097830803
0.0899999999999998856 0.0299999999999999434 0 0 0 0 0.0391996659506112372
0.0999999999999998945 0.0299999999999999434 0 0 0 0 0.0370453984756022661
-0.100000000000000006 0.0399999999999999245 0 0 0 0 0.0402721427306532848
-0.0900000000000000105 0.0399999999999999245 0 0 0 0 0.0375251417756080619
-0.0800000000000000155 0.0399999999999999245 0 0 0 0 0.0376258695721626291
-0.0700000000000000205 0.0399999999999999245 0 0 0 0 0.0395095590362325305
-0.0600000000000000255 0.0399999999999999245 0 0 0 0 0.034287483762949704
-0.0500000000000000305 0.0399999999999999245 0 0 0 0 0.0342438993863761407
-0.0400000000000000355 0.0399999999999999245 0 0 0 0 0.0358185841664671878
-0.0300000000000000405 0.0399999999999999245 0 0 0 0 0.039507489701732991
-0.0200000000000000455 0.0399999999999999245 0 0 0 0 0.0404928838014602666
-0.0100000000000000505 0.0399999999999999245 0 0 0 0 0.0400238522402942207
-5.5511151231257827e-17 0.0399999999999999245 0 0 0 0 0.036980710547417403
0.00999999999999993949 0.0399999999999999245 0 0 0 0 0.038810225440189243
0.0199999999999999345 0.0399999999999999245 0 0 0 0 0.0321269803307950505
0.0299999999999999434 0.0399999999999999245 0 0 0 0 0.0428028955459594726
0.0399999999999999245 0.0399999999999999245 0 0 0 0 0.0407730840388685484
0.0499999999999999056 0.0399999999999999245 0 0 0 0 0.0386166174523532371
0.0599999999999999145 0.0399999999999999245 0 0 0 0 0.0395064413305371981
0.0699999999999999234 0.0399999999999999245 0 0 0 0 0.0416428796853870187
0.0799999999999999045 0.0399999999999999245 0 0 0 0 0.0358191807977855173
0.0899999999999998856 0.0399999999999999245 0 0 0 0 0.036384039781987669
0.0999999999999998945 0.0399999999999999245 0 0 0 0 0.0440316469138488167
-0.100000000000000006 0.0499999999999999056 0 0 0 0 0.0364637391474097947
-0.0900000000000000105 0.0499999999999999056 0 0 0 0 0.0387191286571323887
-0.0800000000000000155 0.0499999999999999056 0 0 0 0 0.0394961576573550702
-0.0700000000000000205 0.0499999999999999056 0 0 0 0 0.0403576761372387433
-0.0600000000000000255 0.0499999999999999056 0 0 0 0 0.0400542310401797302
-0.0500000000000000305 0.0499999999999999056 0 0 0 0 0.0387447503563016632
-0.0400000000000000355 0.0499999999999999056 0 0 0 0 0.0427221462726593004
-0.0300000000000000405 0.0499999999999999056 0 0 0 0 0.03527443532273173
-0.0200000000000000455 0.0499999999999999056 0 0 0 0 0.0369984457008540601
-0.0100000000000000505 0.0499999999999999056 0 0 0 0 0.0359170022737234848
-5.5511151231257827e-17 0.0499999999999999056 0 0 0 0 0.0346815877370536332
0.00999999999999993949 0.0499999999999999056 0 0 0 0 0.0427218464519828547
0.0199999999999999345 0.0499999999999999056 0 0 0 0 0.0382774764131754638
0.0299999999999999434 0.0499999999999999056 0 0 0 0 0.0395211001411080384
0.0399999999999999245 0.0499999999999999056 0 0 0 0 0.0380718311034142984
0.0499999999999999056 0.0499999999999999056 0 0 0 0 0.0386594311036169563
0.0599999999999999145 0.0499999999999999056 0 0 0 0 0.0448876582141965602
0.0699999999999999234 0.0499999999999999056 0 0 0 0 0.0350881014578044437
0.0799999999999999045 0.0499999999999999056 0 0 0 0 0.0421916320435702791
0.0899999999999998856 0.0499999999999999056 0 0 0 0 0.0378906640633940722
0.0999999999999998945 0.0499999999999999056 0 0 0 0 0.0405128216007724432
-0.100000000000000006 0.0599999999999999145 0 0 0 0 0.0376907471120357523
-0.0900000000000000105 0.0599999999999999145 0 0 0 0 0.0431052815243601825
-0.0800000000000000155 0.0599999999999999145 0 0 0 0 0.0404931375719606856
-0.0700000000000000205 0.0599999999999999145 0 0 0 0 0.0433035463746637081
-0.0600000000000000255 0.0599999999999999145 0 0 0 0 0.0378248739521950469
-0.0500000000000000305 0.0599999999999999145 0 0 0 0 0.0396872595883905888
-0.0400000000000000355 0.0599999999999999145 0 0 0 0 0.0343076561726629731
-0.0300000000000000405 0.0599999999999999145 0 0 0 0 0.0424790611825883388
-0.0200000000000000455 0.0599999999999999145 0 0 0 0 0.0343128358665853728
-0.0100000000000000505 0.0599999999999999145 0 0 0 0 0.0404964274801313875
-5.5511151231257827e-17 0.0599999999999999145 0 0 0 0 0.0336009388603270079
0.00999999999999993949 0.0599999999999999145 0 0 0 0 0.0345178213454782959
0.0199999999999999345 0.0599999999999999145 0 0 0 0 0.0417443323805928232
0.0299999999999999434 0.0599999999999999145 0 0 0 0 0.0395310667119920245
0.0399999999999999245 0.0599999999999999145 0 0 0 0 0.0339560040496289725
0.0499999999999999056 0.0599999999999999145 0 0 0 0 0.0369621480554342269
0.0599999999999999145 0.0599999999999999145 0 0 0 0 0.0315983663909137277
0.0699999999999999234 0.0599999999999999145 0 0 0 0 0.0391262267418205772
0.0799999999999999045 0.0599999999999999145 0 0 0 0 0.0397371011152863468
0.0899999999999998856 0.0599999999999999145 0 0 0 0 0.0374167828820645837
0.0999999999999998945 0.0599999999999999145 0 0 0 0 0.038439635161310437
-0.100000000000000006 0.0699999999999999234 0 0 0 0 0.0365257770232856258
-0.0900000000000000105 0.0699999999999999234 0 0 0 0 0.03495073532499373
-0.0800000000000000155 0.0699999999999999234 0 0 0 0 0.0415551350899040703
-0.0700000000000000205 0.0699999999999999234 0 0 0 0 0.0391917699538171307
-0.0600000000000000255 0.0699999999999999234 0 0 0 0 0.0353505190331488833
-0.0500000000000000305 0.0699999999999999234 0 0 0 0 0.0408987760189920696
-0.0400000000000000355 0.0699999999999999234 0 0 0 0 0.0368656700477004023
-0.0300000000000000405 0.0699999999999999234 0 0 0 0 0.0333995615262538195
-0.0200000000000000455 0.0699999999999999234 0 0 0 0 0.0398000521082431044
-0.0100000000000000505 0.0699999999999999234 0 0 0 0 0.0360055628865957253
-5.5511151231257827e-17 0.0699999999999999234 0 0 0 0 0.042146131575107576
0.00999999999999993949 0.0699999999999999234 0 0 0 0 0.0415092326011508722
0.0199999999999999345 0.0699999999999999234 0 0 0 0 0.0387006656229495968
0.0299999999999999434 0.0699999999999999234 0 0 0 0 0.0376460037706419851
0.0399999999999999245 0.0699999999999999234 0 0 0 0 0.0352169174291193515
0.0499999999999999056 0.0699999999999999234 0 0 0 0 0.0400434524547308712
0.0599999999999999145 0.0699999999999999234 0 0 0 0 0.0355448702219873652
0.0699999999999999234 0.0699999999999999234 0 0 0 0 0.0427222538478672503
0.0799999999999999045 0.0699999999999999234 0 0 0 0 0.0343394799381494531
0.0899999999999998856 0.0699999999999999234 0 0 0 0 0.0366701810732483896
0.0999999999999998945 0.0699999999999999234 0 0 0 0 0.0395536979287862758
-0.100000000000000006 0.0799999999999999045 0 0 0 0 0.0364045437481254341
-0.0900000000000000105 0.0799999999999999045 0 0 0 0 0.0336276116613298676
-0.0800000000000000155 0.0799999999999999045 0 0 0 0 0.0359235594626516122
-0.0700000000000000205 0.0799999999999999045 0 0 0 0 0.035926448227837679
-0.0600000000000000255 0.0799999999999999045 0 0 0 0 0.0357546558342874063
-0.0500000000000000305 0.0799999999999999045 0 0 0 0 0.0381452705580741167
-0.0400000000000000355 0.0799999999999999045 0 0 0 0 0.033826109472662208
-0.0300000000000000405 0.0799999999999999045 0 0 0 0 0.0372315542120486495
-0.0200000000000000455 0.0799999999999999045 0 0 0 0 0.0343514550402760493
-0.0100000000000000505 0.0799999999999999045 0 0 0 0 0.0345507814697921245
-5.5511151231257827e-17 0.0799999999999999045 0 0 0 0 0.0422061990462243575
0.00999999999999993949 0.0799999999999999045 0 0 0 0 0.0422262655757367628
0.0199999999999999345 0.0799999999999999045 0 0 0 0 0.0404129420146346063
0.0299999999999999434 0.0799999999999999045 0 0 0 0 0.0348927103951573378
0.0399999999999999245 0.0799999999999999045 0 0 0 0 0.0365770273469388507
0.0499999999999999056 0.0799999999999999045 0 0 0 0 0.0374289494678378132
0.0599999999999999145 0.0799999999999999045 0 0 0 0 0.0315336831733584386
0.0699999999999999234 0.0799999999999999045 0 0 0 0 0.0378087175004184275
0.0799999999999999045 0.0799999999999999045 0 0 0 0 0.0413774961549788697
0.0899999999999998856 0.0799999999999999045 0 0 0 0 0.0365257050320506108
0.0999999999999998945 0.0799999999999999045 0 0 0 0 0.0396226000711321844
-0.100000000000000006 0.0899999999999998856 0 0 0 0 0.0378505622707307338
-0.0900000000000000105 0.0899999999999998856 0 0 0 0 0.0350889430791139628
-0.0800000000000000155 0.0899999999999998856 0 0 0 0 0.0359127315338701042
-0.0700000000000000205 0.0899999999999998856 0 0 0 0 0.0345025278273969893
-0.0600000000000000255 0.0899999999999998856 0 0 0 0 0.0384395531229674847
-0.0500000000000000305 0.0899999999999998856 0 0 0 0 0.0373360837027430503
-0.0400000000000000355 0.0899999999999998856 0 0 0 0 0.0416387080922722835
-0.0300000000000000405 0.0899999999999998856 0 0 0 0 0.0320286578908562658
-0.0200000000000000455 0.0899999999999998856 0 0 0 0 0.037597585393115876
-0.0100000000000000505 0.0899999999999998856 0 0 0 0 0.0403356265686452414
-5.5511151231257827e-17 0.0899999999999998856 0 0 0 0 0.0398460714090615523
0.00999999999999993949 0.0899999999999998856 0 0 0 0 0.0366995282620191585
0.0199999999999999345 0.0899999999999998856 0 0 0 0 0.0349472145438194243
0.0299999999999999434 0.0899999999999998856 0 0 0 0 0.0372181692868471178
0.0399999999999999245 0.0899999999999998856 0 0 0 0 0.0357003952283412238
0.0499999999999999056 0.0899999999999998856 0 0 0 0 0.0392152767311781669
0.0599999999999999145 0.0899999999999998856 0 0 0 0 0.0372332007475197346
0.0699999999999999234 0.0899999999999998856 0 0 0 0 0.0386458330890163751
0.0799999999999999045 0.0899999999999998856 0 0 0 0 0.0344591640979051567
0.0899999999999998856 0.0899999999999998856 0 0 0 0 0.0367755109444260625
0.0999999999999998945 0.0899999999999998856 0 0 0 0 0.0419339117370545883
-0.100000000000000006 0.0999999999999998945 0 0 0 0 0.0348888688553124632
-0.0900000000000000105 0.0999999999999998945 0 0 0 0 0.0362091220580041395
-0.0800000000000000155 0.0999999999999998945 0 0 0 0 0.0388175960294902325
-0.0700000000000000205 0.0999999999999998945 0 0 0 0 0.0397607807843014596
-0.0600000000000000255 0.0999999999999998945 0 0 0 0 0.0352551702186465268
-0.0500000000000000305 0.0999999999999998945 0 0 0 0 0.0381959360502660272
-0.0400000000000000355 0.0999999999999998945 0 0 0 0 0.0322041078256443125
-0.0300000000000000405 0.0999999999999998945 0 0 0 0 0.0382022177912294883
-0.0200000000000000455 0.0999999999999998945 0 0 0 0 0.0359907660819590094
-0.0100000000000000505 0.0999999999999998945 0 0 0 0 0.0388066872786730493
-5.5511151231257827e-17 0.0999999999999998945 0 0 0 0 0.0365033768396824596
0.00999999999999993949 0.0999999999999998945 0 0 0 0 0.0421132523361593472
0.0199999999999999345 0.0999999999999998945 0 0 0 0 0.0378462953828275217
0.0299999999999999434 0.0999999999999998945 0 0 0 0 0.0391782214790582645
0.0399999999999999245 0.0999999999999998945 0 0 0 0 0.0398935998268425476
0.0499999999999999056 0.0999999999999998945 0 0 0 0 0.0380913395285606415
0.0599999999999999145 0.0999999999999998945 0 0 0 0 0.0383457404710352417
0.0699999999999999234 0.0999999999999998945 0 0 0 0 0.0366351421400904625
0.0799999999999999045 0.0999999999999998945 0 0 0 0 0.0370627717450261115
0.0899999999999998856 0.0999999999999998945 0 0 0 0 0.0378197779227048142
0.0999999999999998945 0.0999999999999998945 0 0 0 0 0.0358387844506651149
4 0 1 22 21
4 1 2 23 22
4 2 3 24 23
4 3 4 25 24
4 4 5 26 25
4 5 6 27 26
4 6 7 28 27
4 7 8 29 28
4 8 9 30 29
4 9 10 31 30
4 10 11 32 31
4 11 12 33 32
4 12 13 34 33
4 13 14 35 34
4 14 15 36 35
4 15 16 37 36
4 16 17 38 37
4 17 18 39 38
4 18 19 40 39
4 19 20 41 40
4 21 22 43 42
4 22 23 44 43
4 23 24 45 44
4 24 25 46 45
4 25 26 47 46
4 26 27 48 47
4 27 28 49 48
4 28 29 50 49
4 29 30 51 50
4 30 31 52 51
4 31 32 53 52
4 32 33 54 53
4 33 34 55 54
4 34 35 56 55
4 35 36 57 56
4 36 37 58 57
4 37 38 59 58
4 38 39 60 59
4 39 40 61 60
4 40 41 62 61
4 42 43 64 63
4 43 44 65 64
4 44 45 66 65
4 45 46 67 66
4 46 47 68 67
4 47 48 69 68
4 48 49 70 69
4 49 50 71 70
4 50 51 72 71
4 51 52 73 72
4 52 53 74 73
4 53 54 75 74
4 54 55 76 75
4 55 56 77 76
4 56 57 78 77
4 57 58 79 78
4 58 59 80 79
4 59 60 81 80
4 60 61 82 81
4 61 62 83 82
4 63 64 85 84
4 64 65 86 85
4 65 66 87 86
4 66 67 88 87
4 67 68 89 88
4 68 69 90 89
4 69 70 91 90
4 70 71 92 91
4 71 72 93 92
4 72 73 94 93
4 73 74 95 94
4 74 75 96 95
4 75 76 97 96
4 76 77 98 97
4 77 78 99 98
4 78 79 100 99
4 79 80 101 100
4 80 81 102 101
4 81 82 103 102
4 82 83 104 103
4 84 85 106 105
4 85 86 107 106
4 86 87 108 107
4 87 88 109 108
4 88 89 110 109
4 89 90 111 110
4 90 91 112 111
4 91 92 113 112
4 92 93 114 113
4 93 94 115 114
4 94 95 116 115
4 95 96 117 116
4 96 97 118 117
4 97 98 119 118
4 98 99 120 119
4 99 100 121 120
4 100 101 122 121
4 101 102 123 122
4 102 103 124 123
4 103 104 125 124
4 105 106 127 126
4 106 107 128 127
4 107 108 129 128
4 108 109 130 129
4 109 110 131 130
4 110 111 132 131
4 111 112 133 132
4 112 113 134 133
4 113 114 135 134
4 114 115 136 135
4 115 116 137 136
4 116 117 138 137
4 117 118 139 138
4 118 119 140 139
4 119 120 141 140
4 120 121 142 141
4 121 122 143 142
4 122 123 144 143
4 123 124 145 144
4 124 125 146 145
4 126 127 148 147
4 127 128 149 148
4 128 129 150 149
4 129 130 151 150
4 130 131 152 151
4 131 132 153 152
4 132 133 154 153
4 133 134 155 154
4 134 135 156 155
4 135 136 157 156
4 136 137 158 157
4 137 138 159 158
4 138 139 160 159
4 139 140 161 160
4 140 141 162 161
4 141 142 163 162
4 142 143 164 163
4 143 144 165 164
4 144 145 166 165
4 145 146 167 166
4 147 148 169 168
4 148 149 170 169
4 149 150 171 170
4 150 151 172 171
4 151 152 173 172
4 152 153 174 173
4 153 154 175 174
4 154 155 176 175
4 155 156 177 176
4 156 157 178 177
4 157 158 179 178
4 158 159 180 179
4 159 160 181 180
4 160 161 182 181
4 161 162 183 182
4 162 163 184 183
4 163 164 185 184
4 164 165 186 185
4 165 166 187 186
4 166 167 188 187
4 168 169 190 189
4 169 170 191 190
4 170 171 192 191
4 171 172 193 192
4 172 173 194 193
4 173 174 195 194
4 174 175 196 195
4 175 176 197 196
4 176 177 198 197
4 177 178 199 198
4 178 179 200 199
4 179 180 201 200
4 180 181 202 201
4 181 182 203 202
4 182 183 204 203
4 183 184 205 204
4 184 185 206 205
4 185 186 207 206
4 186 187 208 207
4 187 188 209 208
4 189 190 211 210
4 190 191 212 211
4 191 192 213 212
4 192 193 214 213
4 193 194 215 214
4 194 195 216 215
4 195 196 217 216
4 196 197 218 217
4 197 198 219 218
4 198 199 220 219
4 199 200 221 220
4 200 201 222 221
4 201 202 223 222
4 202 203 224 223
4 203 204 225 224
4 204 205 226 225
4 205 206 227 226
4 206 207 228 227
4 207 208 229 228
4 208 209 230 229
4 210 211 232 231
4 211 212 233 232
4 212 213 234 233
4 213 214 235 234
4 214 215 236 235
4 215 216 237 236
4 216 217 238 237
4 217 218 239 238
4 218 219 240 239
4 219 220 241 240
4 220 221 242 241
4 221 222 243 242
4 222 223 244 243
4 223 224 245 244
4 224 225 246 245
4 225 226 247 246
4 226 227 248 247
4 227 228 249 248
4 228 229 250 249
4 229 230 251 250
4 231 232 253 252
4 232 233 254 253
4 233 234 255 254
4 234 235 256 255
4 235 236 257 256
4 236 237 258 257
4 237 238 259 258
4 238 239 260 259
4 239 240 261 260
4 240 241 262 261
4 241 242 263 262
4 242 243 264 263
4 243 244 265 264
4 244 245 266 265
4 245 246 267 266
4 246 247 268 267
4 247 248 269 268
4 248 249 270 269
4 249 250 271 270
4 250 251 272 271
4 252 253 274 273
4 253 254 275 274
4 254 255 276 275
4 255 256 277 276
4 256 257 278 277
4 257 258 279 278
4 258 259 280 279
4 259 260 281 280
4 260 261 282 281
4 261 262 283 282
4 262 263 284 283
4 263 264 285 284
4 264 265 286 285
4 265 266 287 286
4 266 267 288 287
4 267 268 289 288
4 268 269 290 289
4 269 270 291 290
4 270 271 292 291
4 271 272 293 292
4 273 274 295 294
4 274 275 296 295
4 275 276 297 296
4 276 277 298 297
4 277 278 299 298
4 278 279 300 299
4 279 280 301 300
4 280 281 302 301
4 281 282 303 302
4 282 283 304 303
4 283 284 305 304
4 284 285 306 305
4 285 286 307 306
4 286 287 308 307
4 287 288 309 308
4 288 289 310 309
4 289 290 311 310
4 290 291 312 311
4 291 292 313 312
4 292 293 314 313
4 294 295 316 315
4 295 296 317 316
4 296 297 318 317
4 297 298 319 318
4 298 299 320 319
4 299 300 321 320
4 300 301 322 321
4 301 302 323 322
4 302 303 324 323
4 303 304 325 324
4 304 305 326 325
4 305 306 327 326
4 306 307 328 327
4 307 308 329 328
4 308 309 330 329
4 309 310 331 330
4 310 311 332 331
4 311 312 333 332
4 312 313 334 333
4 313 314 335 334
4 315 316 337 336
4 316 317 338 337
4 317 318 339 338
4 318 319 340 339
4 319 320 341 340
4 320 321 342 341
4 321 322 343 342
4 322 323 344 343
4 323 324 345 344
4 324 325 346 345
4 325 326 347 346
4 326 327 348 347
4 327 328 349 348
4 328 329 350 349
4 329 330 351 350
4 330 331 352 351
4 331 332 353 352
4 332 333 354 353
4 333 334 355 354
4 334 335 356 355
4 336 337 358 357
4 337 338 359 358
4 338 339 360 359
4 339 340 361 360
4 340 341 362 361
4 341 342 363 362
4 342 343 364 363
4 343 344 365 364
4 344 345 366 365
4 345 346 367 366
4 346 347 368 367
4 347 348 369 368
4 348 349 370 369
4 349 350 371 370
4 350 351 372 371
4 351 352 373 372
4 352 353 374 373
4 353 354 375 374
4 354 355 376 375
4 355 356 377 376
4 357 358 379 378
4 358 359 380 379
4 359 360 381 380
4 360 361 382 381
4 361 362 383 382
4 362 363 384 383
4 363 364 385 384
4 364 365 386 385
4 365 366 387 386
4 366 367 388 387
4 367 368 389 388
4 368 369 390 389
4 369 370 391 390
4 370 371 392 391
4 371 372 393 392
4 372 373 394 393
4 373 374 395 394
4 374 375 396 395
4 375 376 397 396
4 376 377 398 397
4 378 379 400 399
4 379 380 401 400
4 380 381 402 401
4 381 382 403 402
4 382 383 404 403
4 383 384 405 404
4 384 385 406 405
4 385 386 407 406
4 386 387 408 407
4 387 388 409 408
4 388 389 410 409
4 389 390 411 410
4 390 391 412 411
4 391 392 413 412
4 392 393 414 413
4 393 394 415 414
4 394 395 416 415
4 395 396 417 416
4 396 397 418 417
4 397 398 419 418
4 399 400 421 420
4 400 401 422 421
4 401 402 423 422
4 402 403 424 423
4 403 404 425 424
4 404 405 426 425
4 405 406 427 426
4 406 407 428 427
4 407 408 429 428
4 408 409 430 429
4 409 410 431 430
4 410 411 432 431
4 411 412 433 432
4 412 413 434 433
4 413 414 435 434
4 414 415 436 435
4 415 416 437 436
4 416 417 438 437
4 417 418 439 438
4 418 419 440 439
