ply
format ascii 1.0
element vertex 441
property double x
property double y
property double z
property double vx
property double vy
property double vz
property double s
element face 400
property list uchar int vertex_indices
end_header
-0.100000000000000006 -0.100000000000000006 0 0 0 0 2.30462564182281504
-0.0900000000000000105 -0.100000000000000006 0 0 0 0 1.65813463401794436
-0.0800000000000000155 -0.100000000000000006 0 0 0 0 1.20660326528549189
-0.0700000000000000205 -0.100000000000000006 0 0 0 0 1.01380467414855957
-0.0600000000000000255 -0.100000000000000006 0 0 0 0 0.882496851921081515
-0.0500000000000000305 -0.100000000000000006 0 0 0 0 0.760244797706604025
-0.0400000000000000355 -0.100000000000000006 0 0 0 0 0.684513183593750019
-0.0300000000000000405 -0.100000000000000006 0 0 0 0 0.630974939346313435
-0.0200000000000000455 -0.100000000000000006 0 0 0 0 0.795316292762756394
-0.0100000000000000505 -0.100000000000000006 0 0 0 0 0.989077644348144491
-5.5511151231257827e-17 -0.100000000000000006 0 0 0 0 1.22117054748535159
0.00999999999999993949 -0.100000000000000006 0 0 0 0 1.16909584808349609
0.0199999999999999345 -0.100000000000000006 0 0 0 0 1.05509001493453969
0.0299999999999999434 -0.100000000000000006 0 0 0 0 0.876568625450134253
0.0399999999999999245 -0.100000000000000006 0 0 0 0 0.753001727104187002
0.0499999999999999056 -0.100000000000000006 0 0 0 0 0.835832865238189671
0.0599999999999999145 -0.100000000000000006 0 0 0 0 0.996166641712188716
0.0699999999999999234 -0.100000000000000006 0 0 0 0 1.11460986232757575
0.0799999999999999045 -0.100000000000000006 0 0 0 0 1.20657282829284673
0.0899999999999998856 -0.100000000000000006 0 0 0 0 1.25612910461425775
0.0999999999999998945 -0.100000000000000006 0 0 0 0 1.39579773998260492
-0.100000000000000006 -0.0900000000000000105 0 0 0 0 1.90323265552520748
-0.0900000000000000105 -0.0900000000000000105 0 0 0 0 1.45433766078948978
-0.0800000000000000155 -0.0900000000000000105 0 0 0 0 1.06474869728088373
-0.0700000000000000205 -0.0900000000000000105 0 0 0 0 0.902649646759033253
-0.0600000000000000255 -0.0900000000000000105 0 0 0 0 0.807154965877532993
-0.0500000000000000305 -0.0900000000000000105 0 0 0 0 0.719457351684570368
-0.0400000000000000355 -0.0900000000000000105 0 0 0 0 0.618086603879928642
-0.0300000000000000405 -0.0900000000000000105 0 0 0 0 0.596596019029617342
-0.0200000000000000455 -0.0900000000000000105 0 0 0 0 0.731296874523162832
-0.0100000000000000505 -0.0900000000000000105 0 0 0 0 0.928390810012817425
-5.5511151231257827e-17 -0.0900000000000000105 0 0 0 0 1.12749280929565421
0.00999999999999993949 -0.0900000000000000105 0 0 0 0 1.04119892024993899
0.0199999999999999345 -0.0900000000000000105 0 0 0 0 0.942562832832336439
0.0299999999999999434 -0.0900000000000000105 0 0 0 0 0.778142664909362791
0.0399999999999999245 -0.0900000000000000105 0 0 0 0 0.799624983787536658
0.0499999999999999056 -0.0900000000000000105 0 0 0 0 1.00667590188980105
0.0599999999999999145 -0.0900000000000000105 0 0 0 0 1.18256910133361814
0.0699999999999999234 -0.0900000000000000105 0 0 0 0 1.29363811969757081
0.0799999999999999045 -0.0900000000000000105 0 0 0 0 1.35424154472351077
0.0899999999999998856 -0.0900000000000000105 0 0 0 0 1.35373694896697994
0.0999999999999998945 -0.0900000000000000105 0 0 0 0 1.45539046192169197
-0.100000000000000006 -0.0800000000000000155 0 0 0 0 1.75970797252655031
-0.0900000000000000105 -0.0800000000000000155 0 0 0 0 1.32389886856079109
-0.0800000000000000155 -0.0800000000000000155 0 0 0 0 0.951407554149627632
-0.0700000000000000205 -0.0800000000000000155 0 0 0 0 0.82263953542709356
-0.0600000000000000255 -0.0800000000000000155 0 0 0 0 0.686684233188629145
-0.0500000000000000305 -0.0800000000000000155 0 0 0 0 0.652676907777786308
-0.0400000000000000355 -0.0800000000000000155 0 0 0 0 0.559976772308349635
-0.0300000000000000405 -0.0800000000000000155 0 0 0 0 0.528002756118774452
-0.0200000000000000455 -0.0800000000000000155 0 0 0 0 0.629052032470703071
-0.0100000000000000505 -0.0800000000000000155 0 0 0 0 0.813002634525299084
-5.5511151231257827e-17 -0.0800000000000000155 0 0 0 0 0.978213889598846476
0.00999999999999993949 -0.0800000000000000155 0 0 0 0 0.884349255084991404
0.0199999999999999345 -0.0800000000000000155 0 0 0 0 0.819462260723114011
0.0299999999999999434 -0.0800000000000000155 0 0 0 0 0.793961378574371324
0.0399999999999999245 -0.0800000000000000155 0 0 0 0 0.932104434490203859
0.0499999999999999056 -0.0800000000000000155 0 0 0 0 1.2320899658203126
0.0599999999999999145 -0.0800000000000000155 0 0 0 0 1.39503579139709477
0.0699999999999999234 -0.0800000000000000155 0 0 0 0 1.45274419593811044
0.0799999999999999045 -0.0800000000000000155 0 0 0 0 1.45537340450286856
0.0899999999999998856 -0.0800000000000000155 0 0 0 0 1.45143569755554203
0.0999999999999998945 -0.0800000000000000155 0 0 0 0 1.48709382915496824
-0.100000000000000006 -0.0700000000000000205 0 0 0 0 1.35947747516632078
-0.0900000000000000105 -0.0700000000000000205 0 0 0 0 1.04420193958282481
-0.0800000000000000155 -0.0700000000000000205 0 0 0 0 0.824474649429321249
-0.0700000000000000205 -0.0700000000000000205 0 0 0 0 0.766877114772796631
-0.0600000000000000255 -0.0700000000000000205 0 0 0 0 0.645048732995986973
-0.0500000000000000305 -0.0700000000000000205 0 0 0 0 0.547326243877410912
-0.0400000000000000355 -0.0700000000000000205 0 0 0 0 0.500072846174240082
-0.0300000000000000405 -0.0700000000000000205 0 0 0 0 0.473019103050231926
-0.0200000000000000455 -0.0700000000000000205 0 0 0 0 0.536062115192413313
-0.0100000000000000505 -0.0700000000000000205 0 0 0 0 0.673807253360748315
-5.5511151231257827e-17 -0.0700000000000000205 0 0 0 0 0.784979914188384975
0.00999999999999993949 -0.0700000000000000205 0 0 0 0 0.736169858455657966
0.0199999999999999345 -0.0700000000000000205 0 0 0 0 0.743107351303100572
0.0299999999999999434 -0.0700000000000000205 0 0 0 0 0.815030808925628625
0.0399999999999999245 -0.0700000000000000205 0 0 0 0 1.09711324977874747
0.0499999999999999056 -0.0700000000000000205 0 0 0 0 1.3736278276443481
0.0599999999999999145 -0.0700000000000000205 0 0 0 0 1.4993864660263061
0.0699999999999999234 -0.0700000000000000205 0 0 0 0 1.56028332138061532
0.0799999999999999045 -0.0700000000000000205 0 0 0 0 1.55764626789093019
0.0899999999999998856 -0.0700000000000000205 0 0 0 0 1.52763149070739757
0.0999999999999998945 -0.0700000000000000205 0 0 0 0 1.5571163530349732
-0.100000000000000006 -0.0600000000000000255 0 0 0 0 0.917078676700592066
-0.0900000000000000105 -0.0600000000000000255 0 0 0 0 0.744426395177841149
-0.0800000000000000155 -0.0600000000000000255 0 0 0 0 0.661673066139221167
-0.0700000000000000205 -0.0600000000000000255 0 0 0 0 0.588829689025878955
-0.0600000000000000255 -0.0600000000000000255 0 0 0 0 0.499400022983551017
-0.0500000000000000305 -0.0600000000000000255 0 0 0 0 0.44239583921432496
-0.0400000000000000355 -0.0600000000000000255 0 0 0 0 0.428295918941497822
-0.0300000000000000405 -0.0600000000000000255 0 0 0 0 0.421617978572845442
-0.0200000000000000455 -0.0600000000000000255 0 0 0 0 0.437535292863845848
-0.0100000000000000505 -0.0600000000000000255 0 0 0 0 0.509647204160690315
-5.5511151231257827e-17 -0.0600000000000000255 0 0 0 0 0.535318502664566043
0.00999999999999993949 -0.0600000000000000255 0 0 0 0 0.539337918281555195
0.0199999999999999345 -0.0600000000000000255 0 0 0 0 0.610153028011321985
0.0299999999999999434 -0.0600000000000000255 0 0 0 0 0.772900991439819385
0.0399999999999999245 -0.0600000000000000255 0 0 0 0 1.09124268054962159
0.0499999999999999056 -0.0600000000000000255 0 0 0 0 1.37553494167327872
0.0599999999999999145 -0.0600000000000000255 0 0 0 0 1.5136463871002197
0.0699999999999999234 -0.0600000000000000255 0 0 0 0 1.59311495113372792
0.0799999999999999045 -0.0600000000000000255 0 0 0 0 1.60471608066558846
0.0899999999999998856 -0.0600000000000000255 0 0 0 0 1.59024069786071776
0.0999999999999998945 -0.0600000000000000255 0 0 0 0 1.5810490427017212
-0.100000000000000006 -0.0500000000000000305 0 0 0 0 0.792526389122009234
-0.0900000000000000105 -0.0500000000000000305 0 0 0 0 0.589315620899200421
-0.0800000000000000155 -0.0500000000000000305 0 0 0 0 0.526166156768798854
-0.0700000000000000205 -0.0500000000000000305 0 0 0 0 0.450135674953460685
-0.0600000000000000255 -0.0500000000000000305 0 0 0 0 0.394868264913558975
-0.0500000000000000305 -0.0500000000000000305 0 0 0 0 0.385287812948226949
-0.0400000000000000355 -0.0500000000000000305 0 0 0 0 0.381346357345581033
-0.0300000000000000405 -0.0500000000000000305 0 0 0 0 0.386359831571578993
-0.0200000000000000455 -0.0500000000000000305 0 0 0 0 0.35732053184509277
-0.0100000000000000505 -0.0500000000000000305 0 0 0 0 0.36180477833747865
-5.5511151231257827e-17 -0.0500000000000000305 0 0 0 0 0.354999242067337017
0.00999999999999993949 -0.0500000000000000305 0 0 0 0 0.374587656021118154
0.0199999999999999345 -0.0500000000000000305 0 0 0 0 0.490566779851913437
0.0299999999999999434 -0.0500000000000000305 0 0 0 0 0.704042717933654805
0.0399999999999999245 -0.0500000000000000305 0 0 0 0 0.961246128559112512
0.0499999999999999056 -0.0500000000000000305 0 0 0 0 1.24705396747589115
0.0599999999999999145 -0.0500000000000000305 0 0 0 0 1.41664203643798836
0.0699999999999999234 -0.0500000000000000305 0 0 0 0 1.53625109672546389
0.0799999999999999045 -0.0500000000000000305 0 0 0 0 1.59023585319519034
0.0899999999999998856 -0.0500000000000000305 0 0 0 0 1.51499669933319092
0.0999999999999998945 -0.0500000000000000305 0 0 0 0 1.47080307102203367
-0.100000000000000006 -0.0400000000000000355 0 0 0 0 0.88933911156654355
-0.0900000000000000105 -0.0400000000000000355 0 0 0 0 0.683552341699600219
-0.0800000000000000155 -0.0400000000000000355 0 0 0 0 0.482465040683746349
-0.0700000000000000205 -0.0400000000000000355 0 0 0 0 0.418834488630294821
-0.0600000000000000255 -0.0400000000000000355 0 0 0 0 0.374855955839157096
-0.0500000000000000305 -0.0400000000000000355 0 0 0 0 0.336646423339843737
-0.0400000000000000355 -0.0400000000000000355 0 0 0 0 0.352651100873947132
-0.0300000000000000405 -0.0400000000000000355 0 0 0 0 0.355252986669540416
-0.0200000000000000455 -0.0400000000000000355 0 0 0 0 0.33618807601928713
-0.0100000000000000505 -0.0400000000000000355 0 0 0 0 0.331904944181442285
-5.5511151231257827e-17 -0.0400000000000000355 0 0 0 0 0.336764562845230098
0.00999999999999993949 -0.0400000000000000355 0 0 0 0 0.340079198837280272
0.0199999999999999345 -0.0400000000000000355 0 0 0 0 0.445423640966415402
0.0299999999999999434 -0.0400000000000000355 0 0 0 0 0.598422927379608116
0.0399999999999999245 -0.0400000000000000355 0 0 0 0 0.789494455814361618
0.0499999999999999056 -0.0400000000000000355 0 0 0 0 1.02616997432708734
0.0599999999999999145 -0.0400000000000000355 0 0 0 0 1.21849625778198245
0.0699999999999999234 -0.0400000000000000355 0 0 0 0 1.3754817428588868
0.0799999999999999045 -0.0400000000000000355 0 0 0 0 1.46931332588195795
0.0899999999999998856 -0.0400000000000000355 0 0 0 0 1.41310005283355711
0.0999999999999998945 -0.0400000000000000355 0 0 0 0 1.38448177719116217
-0.100000000000000006 -0.0300000000000000405 0 0 0 0 1.21902282667160033
-0.0900000000000000105 -0.0300000000000000405 0 0 0 0 1.01354633808135985
-0.0800000000000000155 -0.0300000000000000405 0 0 0 0 0.637165146827697759
-0.0700000000000000205 -0.0300000000000000405 0 0 0 0 0.420788909912109377
-0.0600000000000000255 -0.0300000000000000405 0 0 0 0 0.356798399686813372
-0.0500000000000000305 -0.0300000000000000405 0 0 0 0 0.337341358900070165
-0.0400000000000000355 -0.0300000000000000405 0 0 0 0 0.315714008808135993
-0.0300000000000000405 -0.0300000000000000405 0 0 0 0 0.309828763365745552
-0.0200000000000000455 -0.0300000000000000405 0 0 0 0 0.324174059987068164
-0.0100000000000000505 -0.0300000000000000405 0 0 0 0 0.376830277919769308
-5.5511151231257827e-17 -0.0300000000000000405 0 0 0 0 0.407920063972473157
0.00999999999999993949 -0.0300000000000000405 0 0 0 0 0.398730756998062152
0.0199999999999999345 -0.0300000000000000405 0 0 0 0 0.454118629693984976
0.0299999999999999434 -0.0300000000000000405 0 0 0 0 0.550580840587615916
0.0399999999999999245 -0.0300000000000000405 0 0 0 0 0.646928652048111008
0.0499999999999999056 -0.0300000000000000405 0 0 0 0 0.821383830070495646
0.0599999999999999145 -0.0300000000000000405 0 0 0 0 1.0282644634246827
0.0699999999999999234 -0.0300000000000000405 0 0 0 0 1.19984506130218516
0.0799999999999999045 -0.0300000000000000405 0 0 0 0 1.30848399353027345
0.0899999999999998856 -0.0300000000000000405 0 0 0 0 1.28381838703155515
0.0999999999999998945 -0.0300000000000000405 0 0 0 0 1.24089881944656377
-0.100000000000000006 -0.0200000000000000455 0 0 0 0 1.89705925369262696
-0.0900000000000000105 -0.0200000000000000455 0 0 0 0 1.53863825559616085
-0.0800000000000000155 -0.0200000000000000455 0 0 0 0 0.933324365139007517
-0.0700000000000000205 -0.0200000000000000455 0 0 0 0 0.540929702520370537
-0.0600000000000000255 -0.0200000000000000455 0 0 0 0 0.380895062685012831
-0.0500000000000000305 -0.0200000000000000455 0 0 0 0 0.343860196590423606
-0.0400000000000000355 -0.0200000000000000455 0 0 0 0 0.271333573818206775
-0.0300000000000000405 -0.0200000000000000455 0 0 0 0 0.231131333112716664
-0.0200000000000000455 -0.0200000000000000455 0 0 0 0 0.209766071796417236
-0.0100000000000000505 -0.0200000000000000455 0 0 0 0 0.259268062472343463
-5.5511151231257827e-17 -0.0200000000000000455 0 0 0 0 0.345399845123291027
0.00999999999999993949 -0.0200000000000000455 0 0 0 0 0.396344642639160138
0.0199999999999999345 -0.0200000000000000455 0 0 0 0 0.421975229501724225
0.0299999999999999434 -0.0200000000000000455 0 0 0 0 0.493082127332687359
0.0399999999999999245 -0.0200000000000000455 0 0 0 0 0.545718447208404567
0.0499999999999999056 -0.0200000000000000455 0 0 0 0 0.700308701515197751
0.0599999999999999145 -0.0200000000000000455 0 0 0 0 0.915840455055236813
0.0699999999999999234 -0.0200000000000000455 0 0 0 0 1.11902275848388677
0.0799999999999999045 -0.0200000000000000455 0 0 0 0 1.25635140514373789
0.0899999999999998856 -0.0200000000000000455 0 0 0 0 1.27105980491638193
0.0999999999999998945 -0.0200000000000000455 0 0 0 0 1.25189451789855966
-0.100000000000000006 -0.0100000000000000505 0 0 0 0 2.67976512145996093
-0.0900000000000000105 -0.0100000000000000505 0 0 0 0 1.9552823858261108
-0.0800000000000000155 -0.0100000000000000505 0 0 0 0 0.981991056919097938
-0.0700000000000000205 -0.0100000000000000505 0 0 0 0 0.627222683191299479
-0.0600000000000000255 -0.0100000000000000505 0 0 0 0 0.478005299329757716
-0.0500000000000000305 -0.0100000000000000505 0 0 0 0 0.375573369979858407
-0.0400000000000000355 -0.0100000000000000505 0 0 0 0 0.290693936586379986
-0.0300000000000000405 -0.0100000000000000505 0 0 0 0 0.244723887920379635
-0.0200000000000000455 -0.0100000000000000505 0 0 0 0 0.164063049674034123
-0.0100000000000000505 -0.0100000000000000505 0 0 0 0 0.0797128834947943704
-5.5511151231257827e-17 -0.0100000000000000505 0 0 0 0 0.12024379256367683
0.00999999999999993949 -0.0100000000000000505 0 0 0 0 0.222848374843597402
0.0199999999999999345 -0.0100000000000000505 0 0 0 0 0.309785702705383303
0.0299999999999999434 -0.0100000000000000505 0 0 0 0 0.401877929925918587
0.0399999999999999245 -0.0100000000000000505 0 0 0 0 0.478278759002685572
0.0499999999999999056 -0.0100000000000000505 0 0 0 0 0.643242117881774877
0.0599999999999999145 -0.0100000000000000505 0 0 0 0 0.904748842239379902
0.0699999999999999234 -0.0100000000000000505 0 0 0 0 1.1481317358016967
0.0799999999999999045 -0.0100000000000000505 0 0 0 0 1.28421533584594716
0.0899999999999998856 -0.0100000000000000505 0 0 0 0 1.30576444244384771
0.0999999999999998945 -0.0100000000000000505 0 0 0 0 1.30551067543029786
-0.100000000000000006 -5.5511151231257827e-17 0 0 0 0 2.56825026607513429
-0.0900000000000000105 -5.5511151231257827e-17 0 0 0 0 1.74968807363510126
-0.0800000000000000155 -5.5511151231257827e-17 0 0 0 0 1.35089367198944088
-0.0700000000000000205 -5.5511151231257827e-17 0 0 0 0 1.07566266489028939
-0.0600000000000000255 -5.5511151231257827e-17 0 0 0 0 0.652398724079132131
-0.0500000000000000305 -5.5511151231257827e-17 0 0 0 0 0.446677716732025165
-0.0400000000000000355 -5.5511151231257827e-17 0 0 0 0 0.341001144886016849
-0.0300000000000000405 -5.5511151231257827e-17 0 0 0 0 0.275322796702384964
-0.0200000000000000455 -5.5511151231257827e-17 0 0 0 0 0.244757912516593928
-0.0100000000000000505 -5.5511151231257827e-17 0 0 0 0 0.175624319195747364
-5.5511151231257827e-17 -5.5511151231257827e-17 0 0 0 0 0.0372736857756972295
0.00999999999999993949 -5.5511151231257827e-17 0 0 0 0 0.0666622454449534441
0.0199999999999999345 -5.5511151231257827e-17 0 0 0 0 0.20201153033971786
0.0299999999999999434 -5.5511151231257827e-17 0 0 0 0 0.309926261425018335
0.0399999999999999245 -5.5511151231257827e-17 0 0 0 0 0.451197055578231809
0.0499999999999999056 -5.5511151231257827e-17 0 0 0 0 0.673449284553527816
0.0599999999999999145 -5.5511151231257827e-17 0 0 0 0 0.953753931522369425
0.0699999999999999234 -5.5511151231257827e-17 0 0 0 0 1.17969439792633057
0.0799999999999999045 -5.5511151231257827e-17 0 0 0 0 1.30822803688049327
0.0899999999999998856 -5.5511151231257827e-17 0 0 0 0 1.38046619606018073
0.0999999999999998945 -5.5511151231257827e-17 0 0 0 0 1.40844438457489018
-0.100000000000000006 0.00999999999999993949 0 0 0 0 2.63219414329528822
-0.0900000000000000105 0.00999999999999993949 0 0 0 0 2.56007871246337881
-0.0800000000000000155 0.00999999999999993949 0 0 0 0 2.6635706663131713
-0.0700000000000000205 0.00999999999999993949 0 0 0 0 1.81905334186553946
-0.0600000000000000255 0.00999999999999993949 0 0 0 0 0.915980023384094233
-0.0500000000000000305 0.00999999999999993949 0 0 0 0 0.613208349466323854
-0.0400000000000000355 0.00999999999999993949 0 0 0 0 0.490150879383087157
-0.0300000000000000405 0.00999999999999993949 0 0 0 0 0.330810676336288467
-0.0200000000000000455 0.00999999999999993949 0 0 0 0 0.287154915690422063
-0.0100000000000000505 0.00999999999999993949 0 0 0 0 0.294325156211853012
-5.5511151231257827e-17 0.00999999999999993949 0 0 0 0 0.374903338193893432
0.00999999999999993949 0.00999999999999993949 0 0 0 0 0.250907590985298135
0.0199999999999999345 0.00999999999999993949 0 0 0 0 0.254022975325584432
0.0299999999999999434 0.00999999999999993949 0 0 0 0 0.349931049108505254
0.0399999999999999245 0.00999999999999993949 0 0 0 0 0.550725234985351531
0.0499999999999999056 0.00999999999999993949 0 0 0 0 0.791780433177947995
0.0599999999999999145 0.00999999999999993949 0 0 0 0 1.04611480998992912
0.0699999999999999234 0.00999999999999993949 0 0 0 0 1.26619159889221189
0.0799999999999999045 0.00999999999999993949 0 0 0 0 1.38635350513458255
0.0899999999999998856 0.00999999999999993949 0 0 0 0 1.42105470848083493
0.0999999999999998945 0.00999999999999993949 0 0 0 0 1.49966688346862798
-0.100000000000000006 0.0199999999999999345 0 0 0 0 3.75761618614196768
-0.0900000000000000105 0.0199999999999999345 0 0 0 0 3.85992077636718767
-0.0800000000000000155 0.0199999999999999345 0 0 0 0 3.3787893257141115
-0.0700000000000000205 0.0199999999999999345 0 0 0 0 1.76655355167388906
-0.0600000000000000255 0.0199999999999999345 0 0 0 0 1.09143903064727787
-0.0500000000000000305 0.0199999999999999345 0 0 0 0 0.970980057239532512
-0.0400000000000000355 0.0199999999999999345 0 0 0 0 0.757386502265930184
-0.0300000000000000405 0.0199999999999999345 0 0 0 0 0.520204375982284528
-0.0200000000000000455 0.0199999999999999345 0 0 0 0 0.37348662185668946
-0.0100000000000000505 0.0199999999999999345 0 0 0 0 0.389975177288055419
-5.5511151231257827e-17 0.0199999999999999345 0 0 0 0 0.496087882995605467
0.00999999999999993949 0.0199999999999999345 0 0 0 0 0.4447647223472595
0.0199999999999999345 0.0199999999999999345 0 0 0 0 0.404359963417053214
0.0299999999999999434 0.0199999999999999345 0 0 0 0 0.480625883579254176
0.0399999999999999245 0.0199999999999999345 0 0 0 0 0.648741723537445081
0.0499999999999999056 0.0199999999999999345 0 0 0 0 0.866022469997405953
0.0599999999999999145 0.0199999999999999345 0 0 0 0 1.09975857543945321
0.0699999999999999234 0.0199999999999999345 0 0 0 0 1.32891724300384517
0.0799999999999999045 0.0199999999999999345 0 0 0 0 1.45093826484680166
0.0899999999999998856 0.0199999999999999345 0 0 0 0 1.52475711536407466
0.0999999999999998945 0.0199999999999999345 0 0 0 0 1.5947099418640136
-0.100000000000000006 0.0299999999999999434 0 0 0 0 3.82865508270263666
-0.0900000000000000105 0.0299999999999999434 0 0 0 0 2.97548852729797364
-0.0800000000000000155 0.0299999999999999434 0 0 0 0 2.2923746395111082
-0.0700000000000000205 0.0299999999999999434 0 0 0 0 2.16778482341766354
-0.0600000000000000255 0.0299999999999999434 0 0 0 0 1.58717078495025632
-0.0500000000000000305 0.0299999999999999434 0 0 0 0 1.37423511552810673
-0.0400000000000000355 0.0299999999999999434 0 0 0 0 1.17819336748123171
-0.0300000000000000405 0.0299999999999999434 0 0 0 0 0.918983249664306667
-0.0200000000000000455 0.0299999999999999434 0 0 0 0 0.621518633365631068
-0.0100000000000000505 0.0299999999999999434 0 0 0 0 0.562485539436340387
-5.5511151231257827e-17 0.0299999999999999434 0 0 0 0 0.671790040969848623
0.00999999999999993949 0.0299999999999999434 0 0 0 0 0.67608787488937383
0.0199999999999999345 0.0299999999999999434 0 0 0 0 0.813670869827270549
0.0299999999999999434 0.0299999999999999434 0 0 0 0 0.770450471401214587
0.0399999999999999245 0.0299999999999999434 0 0 0 0 0.825546748161315902
0.0499999999999999056 0.0299999999999999434 0 0 0 0 0.969891588687896711
0.0599999999999999145 0.0299999999999999434 0 0 0 0 1.14936704826354985
0.0699999999999999234 0.0299999999999999434 0 0 0 0 1.32347078132629403
0.0799999999999999045 0.0299999999999999434 0 0 0 0 1.45741581821441657
0.0899999999999998856 0.0299999999999999434 0 0 0 0 1.58484147548675547
0.0999999999999998945 0.0299999999999999434 0 0 0 0 1.74817808246612549
-0.100000000000000006 0.0399999999999999245 0 0 0 0 2.29533970546722399
-0.0900000000000000105 0.0399999999999999245 0 0 0 0 2.27487924575805645
-0.0800000000000000155 0.0399999999999999245 0 0 0 0 2.79715526390075686
-0.0700000000000000205 0.0399999999999999245 0 0 0 0 2.7243507061004637
-0.0600000000000000255 0.0399999999999999245 0 0 0 0 1.85943146610260013
-0.0500000000000000305 0.0399999999999999245 0 0 0 0 1.75644097995758064
-0.0400000000000000355 0.0399999999999999245 0 0 0 0 1.47063305282592771
-0.0300000000000000405 0.0399999999999999245 0 0 0 0 1.30174684429168708
-0.0200000000000000455 0.0399999999999999245 0 0 0 0 0.999678017139434827
-0.0100000000000000505 0.0399999999999999245 0 0 0 0 0.903885745525360162
-5.5511151231257827e-17 0.0399999999999999245 0 0 0 0 0.900446821212768533
0.00999999999999993949 0.0399999999999999245 0 0 0 0 0.755229524612426761
0.0199999999999999345 0.0399999999999999245 0 0 0 0 0.920202782154083243
0.0299999999999999434 0.0399999999999999245 0 0 0 0 1.12879651546478277
0.0399999999999999245 0.0399999999999999245 0 0 0 0 1.13159171962738037
0.0499999999999999056 0.0399999999999999245 0 0 0 0 1.16901305389404286
0.0599999999999999145 0.0399999999999999245 0 0 0 0 1.26621628284454335
0.0699999999999999234 0.0399999999999999245 0 0 0 0 1.39194560337066653
0.0799999999999999045 0.0399999999999999245 0 0 0 0 1.51063110065460204
0.0899999999999998856 0.0399999999999999245 0 0 0 0 1.62227392292022699
0.0999999999999998945 0.0399999999999999245 0 0 0 0 1.75852054214477538
-0.100000000000000006 0.0499999999999999056 0 0 0 0 2.72548227977752688
-0.0900000000000000105 0.0499999999999999056 0 0 0 0 3.326987247467041
-0.0800000000000000155 0.0499999999999999056 0 0 0 0 3.1429795265197753
-0.0700000000000000205 0.0499999999999999056 0 0 0 0 2.12081424903869609
-0.0600000000000000255 0.0499999999999999056 0 0 0 0 1.54904698085784909
-0.0500000000000000305 0.0499999999999999056 0 0 0 0 1.79145478153228765
-0.0400000000000000355 0.0499999999999999056 0 0 0 0 1.70050234603881845
-0.0300000000000000405 0.0499999999999999056 0 0 0 0 1.49043418598175048
-0.0200000000000000455 0.0499999999999999056 0 0 0 0 1.362235520362854
-0.0100000000000000505 0.0499999999999999056 0 0 0 0 1.35727788162231455
-5.5511151231257827e-17 0.0499999999999999056 0 0 0 0 1.36172452735900884
0.00999999999999993949 0.0499999999999999056 0 0 0 0 0.966315839767456053
0.0199999999999999345 0.0499999999999999056 0 0 0 0 0.982112599849700896
0.0299999999999999434 0.0499999999999999056 0 0 0 0 1.15349358844757077
0.0399999999999999245 0.0499999999999999056 0 0 0 0 1.39135364818573004
0.0499999999999999056 0.0499999999999999056 0 0 0 0 1.42167294692993162
0.0599999999999999145 0.0499999999999999056 0 0 0 0 1.4532204904556274
0.0699999999999999234 0.0499999999999999056 0 0 0 0 1.51103312206268314
0.0799999999999999045 0.0499999999999999056 0 0 0 0 1.60920044136047369
0.0899999999999998856 0.0499999999999999056 0 0 0 0 1.73558920001983652
0.0999999999999998945 0.0499999999999999056 0 0 0 0 1.90748237419128408
-0.100000000000000006 0.0599999999999999145 0 0 0 0 2.87525641822814926
-0.0900000000000000105 0.0599999999999999145 0 0 0 0 2.59418462562561025
-0.0800000000000000155 0.0599999999999999145 0 0 0 0 1.83924714088439933
-0.0700000000000000205 0.0599999999999999145 0 0 0 0 1.30073628950119025
-0.0600000000000000255 0.0599999999999999145 0 0 0 0 1.54471834087371818
-0.0500000000000000305 0.0599999999999999145 0 0 0 0 1.74112438583374018
-0.0400000000000000355 0.0599999999999999145 0 0 0 0 1.83941582584381114
-0.0300000000000000405 0.0599999999999999145 0 0 0 0 1.73650114345550532
-0.0200000000000000455 0.0599999999999999145 0 0 0 0 1.74830284595489505
-0.0100000000000000505 0.0599999999999999145 0 0 0 0 1.83015033245086678
-5.5511151231257827e-17 0.0599999999999999145 0 0 0 0 1.89322549343109126
0.00999999999999993949 0.0599999999999999145 0 0 0 0 1.29824775123596181
0.0199999999999999345 0.0599999999999999145 0 0 0 0 1.14051896572113032
0.0299999999999999434 0.0599999999999999145 0 0 0 0 1.26858561706542972
0.0399999999999999245 0.0599999999999999145 0 0 0 0 1.43950875282287605
0.0499999999999999056 0.0599999999999999145 0 0 0 0 1.62660853958129881
0.0599999999999999145 0.0599999999999999145 0 0 0 0 1.61635741138458244
0.0699999999999999234 0.0599999999999999145 0 0 0 0 1.68025903320312509
0.0799999999999999045 0.0599999999999999145 0 0 0 0 1.69405510807037363
0.0899999999999998856 0.0599999999999999145 0 0 0 0 1.8248086547851563
0.0999999999999998945 0.0599999999999999145 0 0 0 0 1.98185757923126227
-0.100000000000000006 0.0699999999999999234 0 0 0 0 2.27928316211700421
-0.0900000000000000105 0.0699999999999999234 0 0 0 0 1.91911143493652347
-0.0800000000000000155 0.0699999999999999234 0 0 0 0 2.20795141506195058
-0.0700000000000000205 0.0699999999999999234 0 0 0 0 2.80757889747619638
-0.0600000000000000255 0.0699999999999999234 0 0 0 0 2.31394781303405761
-0.0500000000000000305 0.0699999999999999234 0 0 0 0 2.12905644512176506
-0.0400000000000000355 0.0699999999999999234 0 0 0 0 2.24778584671020498
-0.0300000000000000405 0.0699999999999999234 0 0 0 0 2.08684993934631358
-0.0200000000000000455 0.0699999999999999234 0 0 0 0 1.97509469985961905
-0.0100000000000000505 0.0699999999999999234 0 0 0 0 2.11634597206115727
-5.5511151231257827e-17 0.0699999999999999234 0 0 0 0 2.36537705802917486
0.00999999999999993949 0.0699999999999999234 0 0 0 0 1.58704910373687746
0.0199999999999999345 0.0699999999999999234 0 0 0 0 1.33268346261978143
0.0299999999999999434 0.0699999999999999234 0 0 0 0 1.46515318870544431
0.0399999999999999245 0.0699999999999999234 0 0 0 0 1.71791020107269277
0.0499999999999999056 0.0699999999999999234 0 0 0 0 1.83727385902404783
0.0599999999999999145 0.0699999999999999234 0 0 0 0 1.81173651695251459
0.0699999999999999234 0.0699999999999999234 0 0 0 0 1.72890275478363042
0.0799999999999999045 0.0699999999999999234 0 0 0 0 1.75167431640625004
0.0899999999999998856 0.0699999999999999234 0 0 0 0 1.81502861785888681
0.0999999999999998945 0.0699999999999999234 0 0 0 0 1.99223797225952159
-0.100000000000000006 0.0799999999999999045 0 0 0 0 3.23819276428222658
-0.0900000000000000105 0.0799999999999999045 0 0 0 0 3.59713555145263664
-0.0800000000000000155 0.0799999999999999045 0 0 0 0 3.58401692390441884
-0.0700000000000000205 0.0799999999999999045 0 0 0 0 3.13923665046691891
-0.0600000000000000255 0.0799999999999999045 0 0 0 0 3.07604574775695783
-0.0500000000000000305 0.0799999999999999045 0 0 0 0 3.31321084022521983
-0.0400000000000000355 0.0799999999999999045 0 0 0 0 3.39410607719421398
-0.0300000000000000405 0.0799999999999999045 0 0 0 0 3.0311117038726807
-0.0200000000000000455 0.0799999999999999045 0 0 0 0 2.65079468727111811
-0.0100000000000000505 0.0799999999999999045 0 0 0 0 2.5053966732025148
-5.5511151231257827e-17 0.0799999999999999045 0 0 0 0 2.72199230957031268
0.00999999999999993949 0.0799999999999999045 0 0 0 0 1.83470747470855722
0.0199999999999999345 0.0799999999999999045 0 0 0 0 1.53012348556518551
0.0299999999999999434 0.0799999999999999045 0 0 0 0 1.75726514625549313
0.0399999999999999245 0.0799999999999999045 0 0 0 0 2.03355922889709451
0.0499999999999999056 0.0799999999999999045 0 0 0 0 2.00534468173980729
0.0599999999999999145 0.0799999999999999045 0 0 0 0 1.97334813308715828
0.0699999999999999234 0.0799999999999999045 0 0 0 0 1.88293365097045906
0.0799999999999999045 0.0799999999999999045 0 0 0 0 1.78117876625061045
0.0899999999999998856 0.0799999999999999045 0 0 0 0 1.7773736457824707
0.0999999999999998945 0.0799999999999999045 0 0 0 0 1.94127228260040274
-0.100000000000000006 0.0899999999999998856 0 0 0 0 2.97350649738311779
-0.0900000000000000105 0.0899999999999998856 0 0 0 0 3.52680644798278831
-0.0800000000000000155 0.0899999999999998856 0 0 0 0 5.08498173141479448
-0.0700000000000000205 0.0899999999999998856 0 0 0 0 5.65480002975463858
-0.0600000000000000255 0.0899999999999998856 0 0 0 0 5.92742394638061487
-0.0500000000000000305 0.0899999999999998856 0 0 0 0 5.58673297119140599
-0.0400000000000000355 0.0899999999999998856 0 0 0 0 5.15861508750915565
-0.0300000000000000405 0.0899999999999998856 0 0 0 0 4.38909806823730442
-0.0200000000000000455 0.0899999999999998856 0 0 0 0 3.88101707458496081
-0.0100000000000000505 0.0899999999999998856 0 0 0 0 3.13319771385192869
-5.5511151231257827e-17 0.0899999999999998856 0 0 0 0 2.71430261421203634
0.00999999999999993949 0.0899999999999998856 0 0 0 0 2.13355954265594461
0.0199999999999999345 0.0899999999999998856 0 0 0 0 1.89227216053009029
0.0299999999999999434 0.0899999999999998856 0 0 0 0 1.96054853057861322
0.0399999999999999245 0.0899999999999998856 0 0 0 0 2.14750262737274156
0.0499999999999999056 0.0899999999999998856 0 0 0 0 2.30890574073791521
0.0599999999999999145 0.0899999999999998856 0 0 0 0 2.18750393390655518
0.0699999999999999234 0.0899999999999998856 0 0 0 0 2.04381796455383302
0.0799999999999999045 0.0899999999999998856 0 0 0 0 1.98181759738922114
0.0899999999999998856 0.0899999999999998856 0 0 0 0 1.90048519897460944
0.0999999999999998945 0.0899999999999998856 0 0 0 0 2.07133752822875961
-0.100000000000000006 0.0999999999999998945 0 0 0 0 3.2983239984512327
-0.0900000000000000105 0.0999999999999998945 0 0 0 0 5.04113912582397461
-0.0800000000000000155 0.0999999999999998945 0 0 0 0 8.67250310516357459
-0.0700000000000000205 0.0999999999999998945 0 0 0 0 10.0734208908081051
-0.0600000000000000255 0.0999999999999998945 0 0 0 0 9.8531317253112789
-0.0500000000000000305 0.0999999999999998945 0 0 0 0 8.86396034622192452
-0.0400000000000000355 0.0999999999999998945 0 0 0 0 7.5253094253540036
-0.0300000000000000405 0.0999999999999998945 0 0 0 0 6.3540398521423338
-0.0200000000000000455 0.0999999999999998945 0 0 0 0 4.9374458503723142
-0.0100000000000000505 0.0999999999999998945 0 0 0 0 3.83404500770568868
-5.5511151231257827e-17 0.0999999999999998945 0 0 0 0 3.07251809310913071
0.00999999999999993949 0.0999999999999998945 0 0 0 0 2.47154573440551761
0.0199999999999999345 0.0999999999999998945 0 0 0 0 2.25402836704254161
0.0299999999999999434 0.0999999999999998945 0 0 0 0 2.22716762351989761
0.0399999999999999245 0.0999999999999998945 0 0 0 0 2.4134806957244872
0.0499999999999999056 0.0999999999999998945 0 0 0 0 2.8100009975433351
0.0599999999999999145 0.0999999999999998945 0 0 0 0 2.44741029930114751
0.0699999999999999234 0.0999999999999998945 0 0 0 0 2.28957411861419668
0.0799999999999999045 0.0999999999999998945 0 0 0 0 2.04232875251770007
0.0899999999999998856 0.0999999999999998945 0 0 0 0 2.06453344440460196
0.0999999999999998945 0.0999999999999998945 0 0 0 0 2.15522365951538086
4 0 1 22 21
4 1 2 23 22
4 2 3 24 23
4 3 4 25 24
4 4 5 26 25
4 5 6 27 26
4 6 7 28 27
4 7 8 29 28
4 8 9 30 29
4 9 10 31 30
4 10 11 32 31
4 11 12 33 32
4 12 13 34 33
4 13 14 35 34
4 14 15 36 35
4 15 16 37 36
4 16 17 38 37
4 17 18 39 38
4 18 19 40 39
4 19 20 41 40
4 21 22 43 42
4 22 23 44 43
4 23 24 45 44
4 24 25 46 45
4 25 26 47 46
4 26 27 48 47
4 27 28 49 48
4 28 29 50 49
4 29 30 51 50
4 30 31 52 51
4 31 32 53 52
4 32 33 54 53
4 33 34 55 54
4 34 35 56 55
4 35 36 57 56
4 36 37 58 57
4 37 38 59 58
4 38 39 60 59
4 39 40 61 60
4 40 41 62 61
4 42 43 64 63
4 43 44 65 64
4 44 45 66 65
4 45 46 67 66
4 46 47 68 67
4 47 48 69 68
4 48 49 70 69
4 49 50 71 70
4 50 51 72 71
4 51 52 73 72
4 52 53 74 73
4 53 54 75 74
4 54 55 76 75
4 55 56 77 76
4 56 57 78 77
4 57 58 79 78
4 58 59 80 79
4 59 60 81 80
4 60 61 82 81
4 61 62 83 82
4 63 64 85 84
4 64 65 86 85
4 65 66 87 86
4 66 67 88 87
4 67 68 89 88
4 68 69 90 89
4 69 70 91 90
4 70 71 92 91
4 71 72 93 92
4 72 73 94 93
4 73 74 95 94
4 74 75 96 95
4 75 76 97 96
4 76 77 98 97
4 77 78 99 98
4 78 79 100 99
4 79 80 101 100
4 80 81 102 101
4 81 82 103 102
4 82 83 104 103
4 84 85 106 105
4 85 86 107 106
4 86 87 108 107
4 87 88 109 108
4 88 89 110 109
4 89 90 111 110
4 90 91 112 111
4 91 92 113 112
4 92 93 114 113
4 93 94 115 114
4 94 95 116 115
4 95 96 117 116
4 96 97 118 117
4 97 98 119 118
4 98 99 120 119
4 99 100 121 120
4 100 101 122 121
4 101 102 123 122
4 102 103 124 123
4 103 104 125 124
4 105 106 127 126
4 106 107 128 127
4 107 108 129 128
4 108 109 130 129
4 109 110 131 130
4 110 111 132 131
4 111 112 133 132
4 112 113 134 133
4 113 114 135 134
4 114 115 136 135
4 115 116 137 136
4 116 117 138 137
4 117 118 139 138
4 118 119 140 139
4 119 120 141 140
4 120 121 142 141
4 121 122 143 142
4 122 123 144 143
4 123 124 145 144
4 124 125 146 145
4 126 127 148 147
4 127 128 149 148
4 128 129 150 149
4 129 130 151 150
4 130 131 152 151
4 131 132 153 152
4 132 133 154 153
4 133 134 155 154
4 134 135 156 155
4 135 136 157 156
4 136 137 158 157
4 137 138 159 158
4 138 139 160 159
4 139 140 161 160
4 140 141 162 161
4 141 142 163 162
4 142 143 164 163
4 143 144 165 164
4 144 145 166 165
4 145 146 167 166
4 147 148 169 168
4 148 149 170 169
4 149 150 171 170
4 150 151 172 171
4 151 152 173 172
4 152 153 174 173
4 153 154 175 174
4 154 155 176 175
4 155 156 177 176
4 156 157 178 177
4 157 158 179 178
4 158 159 180 179
4 159 160 181 180
4 160 161 182 181
4 161 162 183 182
4 162 163 184 183
4 163 164 185 184
4 164 165 186 185
4 165 166 187 186
4 166 167 188 187
4 168 169 190 189
4 169 170 191 190
4 170 171 192 191
4 171 172 193 192
4 172 173 194 193
4 173 174 195 194
4 174 175 196 195
4 175 176 197 196
4 176 177 198 197
4 177 178 199 198
4 178 179 200 199
4 179 180 201 200
4 180 181 202 201
4 181 182 203 202
4 182 183 204 203
4 183 184 205 204
4 184 185 206 205
4 185 186 207 206
4 186 187 208 207
4 187 188 209 208
4 189 190 211 210
4 190 191 212 211
4 191 192 213 212
4 192 193 214 213
4 193 194 215 214
4 194 195 216 215
4 195 196 217 216
4 196 197 218 217
4 197 198 219 218
4 198 199 220 219
4 199 200 221 220
4 200 201 222 221
4 201 202 223 222
4 202 203 224 223
4 203 204 225 224
4 204 205 226 225
4 205 206 227 226
4 206 207 228 227
4 207 208 229 228
4 208 209 230 229
4 210 211 232 231
4 211 212 233 232
4 212 213 234 233
4 213 214 235 234
4 214 215 236 235
4 215 216 237 236
4 216 217 238 237
4 217 218 239 238
4 218 219 240 239
4 219 220 241 240
4 220 221 242 241
4 221 222 243 242
4 222 223 244 243
4 223 224 245 244
4 224 225 246 245
4 225 226 247 246
4 226 227 248 247
4 227 228 249 248
4 228 229 250 249
4 229 230 251 250
4 231 232 253 252
4 232 233 254 253
4 233 234 255 254
4 234 235 256 255
4 235 236 257 256
4 236 237 258 257
4 237 238 259 258
4 238 239 260 259
4 239 240 261 260
4 240 241 262 261
4 241 242 263 262
4 242 243 264 263
4 243 244 265 264
4 244 245 266 265
4 245 246 267 266
4 246 247 268 267
4 247 248 269 268
4 248 249 270 269
4 249 250 271 270
4 250 251 272 271
4 252 253 274 273
4 253 254 275 274
4 254 255 276 275
4 255 256 277 276
4 256 257 278 277
4 257 258 279 278
4 258 259 280 279
4 259 260 281 280
4 260 261 282 281
4 261 262 283 282
4 262 263 284 283
4 263 264 285 284
4 264 265 286 285
4 265 266 287 286
4 266 267 288 287
4 267 268 289 288
4 268 269 290 289
4 269 270 291 290
4 270 271 292 291
4 271 272 293 292
4 273 274 295 294
4 274 275 296 295
4 275 276 297 296
4 276 277 298 297
4 277 278 299 298
4 278 279 300 299
4 279 280 301 300
4 280 281 302 301
4 281 282 303 302
4 282 283 304 303
4 283 284 305 304
4 284 285 306 305
4 285 286 307 306
4 286 287 308 307
4 287 288 309 308
4 288 289 310 309
4 289 290 311 310
4 290 291 312 311
4 291 292 313 312
4 292 293 314 313
4 294 295 316 315
4 295 296 317 316
4 296 297 318 317
4 297 298 319 318
4 298 299 320 319
4 299 300 321 320
4 300 301 322 321
4 301 302 323 322
4 302 303 324 323
4 303 304 325 324
4 304 305 326 325
4 305 306 327 326
4 306 307 328 327
4 307 308 329 328
4 308 309 330 329
4 309 310 331 330
4 310 311 332 331
4 311 312 333 332
4 312 313 334 333
4 313 314 335 334
4 315 316 337 336
4 316 317 338 337
4 317 318 339 338
4 318 319 340 339
4 319 320 341 340
4 320 321 342 341
4 321 322 343 342
4 322 323 344 343
4 323 324 345 344
4 324 325 346 345
4 325 326 347 346
4 326 327 348 347
4 327 328 349 348
4 328 329 350 349
4 329 330 351 350
4 330 331 352 351
4 331 332 353 352
4 332 333 354 353
4 333 334 355 354
4 334 335 356 355
4 336 337 358 357
4 337 338 359 358
4 338 339 360 359
4 339 340 361 360
4 340 341 362 361
4 341 342 363 362
4 342 343 364 363
4 343 344 365 364
4 344 345 366 365
4 345 346 367 366
4 346 347 368 367
4 347 348 369 368
4 348 349 370 369
4 349 350 371 370
4 350 351 372 371
4 351 352 373 372
4 352 353 374 373
4 353 354 375 374
4 354 355 376 375
4 355 356 377 376
4 357 358 379 378
4 358 359 380 379
4 359 360 381 380
4 360 361 382 381
4 361 362 383 382
4 362 363 384 383
4 363 364 385 384
4 364 365 386 385
4 365 366 387 386
4 366 367 388 387
4 367 368 389 388
4 368 369 390 389
4 369 370 391 390
4 370 371 392 391
4 371 372 393 392
4 372 373 394 393
4 373 374 395 394
4 374 375 396 395
4 375 376 397 396
4 376 377 398 397
4 378 379 400 399
4 379 380 401 400
4 380 381 402 401
4 381 382 403 402
4 382 383 404 403
4 383 384 405 404
4 384 385 406 405
4 385 386 407 406
4 386 387 408 407
4 387 388 409 408
4 388 389 410 409
4 389 390 411 410
4 390 391 412 411
4 391 392 413 412
4 392 393 414 413
4 393 394 415 414
4 394 395 416 415
4 395 396 417 416
4 396 397 418 417
4 397 398 419 418
4 399 400 421 420
4 400 401 422 421
4 401 402 423 422
4 402 403 424 423
4 403 404 425 424
4 404 405 426 425
4 405 406 427 426
4 406 407 428 427
4 407 408 429 428
4 408 409 430 429
4 409 410 431 430
4 410 411 432 431
4 411 412 433 432
4 412 413 434 433
4 413 414 435 434
4 414 415 436 435
4 415 416 437 436
4 416 417 438 437
4 417 418 439 438
4 418 419 440 439
