ply
format ascii 1.0
element vertex 441
property double x
property double y
property double z
property double vx
property double vy
property double vz
property double s
element face 400
property list uchar int vertex_indices
end_header
-0.100000000000000006 -0.100000000000000006 0 0 0 0 0.0344808446355164069
-0.0900000000000000105 -0.100000000000000006 0 0 0 0 0.0298925011530518543
-0.0800000000000000155 -0.100000000000000006 0 0 0 0 0.029154374034143983
-0.0700000000000000205 -0.100000000000000006 0 0 0 0 0.0314711030479520593
-0.0600000000000000255 -0.100000000000000006 0 0 0 0 0.0335563365519046808
-0.0500000000000000305 -0.100000000000000006 0 0 0 0 0.0295028818771243088
-0.0400000000000000355 -0.100000000000000006 0 0 0 0 0.0357182705402374276
-0.0300000000000000405 -0.100000000000000006 0 0 0 0 0.0303909129356034098
-0.0200000000000000455 -0.100000000000000006 0 0 0 0 0.0313218118436634566
-0.0100000000000000505 -0.100000000000000006 0 0 0 0 0.0369462441410869369
-5.5511151231257827e-17 -0.100000000000000006 0 0 0 0 0.0320856521921232332
0.00999999999999993949 -0.100000000000000006 0 0 0 0 0.0304419665918685481
0.0199999999999999345 -0.100000000000000006 0 0 0 0 0.02822083093225956
0.0299999999999999434 -0.100000000000000006 0 0 0 0 0.0254515590816736213
0.0399999999999999245 -0.100000000000000006 0 0 0 0 0.0313037269264459586
0.0499999999999999056 -0.100000000000000006 0 0 0 0 0.0353012585891410713
0.0599999999999999145 -0.100000000000000006 0 0 0 0 0.036425234949216248
0.0699999999999999234 -0.100000000000000006 0 0 0 0 0.0306639408254995929
0.0799999999999999045 -0.100000000000000006 0 0 0 0 0.0333079716395586756
0.0899999999999998856 -0.100000000000000006 0 0 0 0 0.0349917518794536572
0.0999999999999998945 -0.100000000000000006 0 0 0 0 0.0316667002253234395
-0.100000000000000006 -0.0900000000000000105 0 0 0 0 0.0302025450225919499
-0.0900000000000000105 -0.0900000000000000105 0 0 0 0 0.0379681222215294822
-0.0800000000000000155 -0.0900000000000000105 0 0 0 0 0.0326944069182500269
-0.0700000000000000205 -0.0900000000000000105 0 0 0 0 0.0317421552706509819
-0.0600000000000000255 -0.0900000000000000105 0 0 0 0 0.0307115696314722297
-0.0500000000000000305 -0.0900000000000000105 0 0 0 0 0.03078761695884168
-0.0400000000000000355 -0.0900000000000000105 0 0 0 0 0.033257334586232902
-0.0300000000000000405 -0.0900000000000000105 0 0 0 0 0.0314617571420967579
-0.0200000000000000455 -0.0900000000000000105 0 0 0 0 0.0325594088602811083
-0.0100000000000000505 -0.0900000000000000105 0 0 0 0 0.0327992759970948122
-5.5511151231257827e-17 -0.0900000000000000105 0 0 0 0 0.0313811890408396688
0.00999999999999993949 -0.0900000000000000105 0 0 0 0 0.0378843266339972604
0.0199999999999999345 -0.0900000000000000105 0 0 0 0 0.0325343294348567694
0.0299999999999999434 -0.0900000000000000105 0 0 0 0 0.0336708009075373377
0.0399999999999999245 -0.0900000000000000105 0 0 0 0 0.0337274742424488044
0.0499999999999999056 -0.0900000000000000105 0 0 0 0 0.0320187241882085791
0.0599999999999999145 -0.0900000000000000105 0 0 0 0 0.0334980787150561815
0.0699999999999999234 -0.0900000000000000105 0 0 0 0 0.0345886521860957127
0.0799999999999999045 -0.0900000000000000105 0 0 0 0 0.0324380935970693812
0.0899999999999998856 -0.0900000000000000105 0 0 0 0 0.031456314907409251
0.0999999999999998945 -0.0900000000000000105 0 0 0 0 0.0309705774560570732
-0.100000000000000006 -0.0800000000000000155 0 0 0 0 0.0308763396758586182
-0.0900000000000000105 -0.0800000000000000155 0 0 0 0 0.0284191444478929037
-0.0800000000000000155 -0.0800000000000000155 0 0 0 0 0.0364062658958137012
-0.0700000000000000205 -0.0800000000000000155 0 0 0 0 0.0337081196308135975
-0.0600000000000000255 -0.0800000000000000155 0 0 0 0 0.0324507014174014313
-0.0500000000000000305 -0.0800000000000000155 0 0 0 0 0.0308463772749528291
-0.0400000000000000355 -0.0800000000000000155 0 0 0 0 0.0300453756917268035
-0.0300000000000000405 -0.0800000000000000155 0 0 0 0 0.0326961899120360583
-0.0200000000000000455 -0.0800000000000000155 0 0 0 0 0.0335662826709449275
-0.0100000000000000505 -0.0800000000000000155 0 0 0 0 0.0333263100963085909
-5.5511151231257827e-17 -0.0800000000000000155 0 0 0 0 0.0344033252345398097
0.00999999999999993949 -0.0800000000000000155 0 0 0 0 0.0316248637773096572
0.0199999999999999345 -0.0800000000000000155 0 0 0 0 0.0301808411860838531
0.0299999999999999434 -0.0800000000000000155 0 0 0 0 0.0294777920860797155
0.0399999999999999245 -0.0800000000000000155 0 0 0 0 0.0297333217551931754
0.0499999999999999056 -0.0800000000000000155 0 0 0 0 0.0329561800323426718
0.0599999999999999145 -0.0800000000000000155 0 0 0 0 0.0312664890820160482
0.0699999999999999234 -0.0800000000000000155 0 0 0 0 0.0320972392652183747
0.0799999999999999045 -0.0800000000000000155 0 0 0 0 0.0316396626159548763
0.0899999999999998856 -0.0800000000000000155 0 0 0 0 0.0320093206111341719
0.0999999999999998945 -0.0800000000000000155 0 0 0 0 0.0300569495283998546
-0.100000000000000006 -0.0700000000000000205 0 0 0 0 0.0323844906883314285
-0.0900000000000000105 -0.0700000000000000205 0 0 0 0 0.0292784570399671797
-0.0800000000000000155 -0.0700000000000000205 0 0 0 0 0.0301568400841206313
-0.0700000000000000205 -0.0700000000000000205 0 0 0 0 0.0306447737105190743
-0.0600000000000000255 -0.0700000000000000205 0 0 0 0 0.0281896631829440594
-0.0500000000000000305 -0.0700000000000000205 0 0 0 0 0.0347159980535507173
-0.0400000000000000355 -0.0700000000000000205 0 0 0 0 0.0322496759872883537
-0.0300000000000000405 -0.0700000000000000205 0 0 0 0 0.0308022368336096398
-0.0200000000000000455 -0.0700000000000000205 0 0 0 0 0.0334669494070112677
-0.0100000000000000505 -0.0700000000000000205 0 0 0 0 0.0350073892008513216
-5.5511151231257827e-17 -0.0700000000000000205 0 0 0 0 0.0362090099053457362
0.00999999999999993949 -0.0700000000000000205 0 0 0 0 0.0345403259405866261
0.0199999999999999345 -0.0700000000000000205 0 0 0 0 0.0301247347714379415
0.0299999999999999434 -0.0700000000000000205 0 0 0 0 0.0345709354039281588
0.0399999999999999245 -0.0700000000000000205 0 0 0 0 0.0271667392496019594
0.0499999999999999056 -0.0700000000000000205 0 0 0 0 0.029726395405828953
0.0599999999999999145 -0.0700000000000000205 0 0 0 0 0.0323743926510214816
0.0699999999999999234 -0.0700000000000000205 0 0 0 0 0.0330100114922970561
0.0799999999999999045 -0.0700000000000000205 0 0 0 0 0.0360038715675473214
0.0899999999999998856 -0.0700000000000000205 0 0 0 0 0.0307751448648050444
0.0999999999999998945 -0.0700000000000000205 0 0 0 0 0.0333245968492701661
-0.100000000000000006 -0.0600000000000000255 0 0 0 0 0.0309758058078587056
-0.0900000000000000105 -0.0600000000000000255 0 0 0 0 0.0334027225114405177
-0.0800000000000000155 -0.0600000000000000255 0 0 0 0 0.029093021695502104
-0.0700000000000000205 -0.0600000000000000255 0 0 0 0 0.0327152926921844486
-0.0600000000000000255 -0.0600000000000000255 0 0 0 0 0.0302297732280567277
-0.0500000000000000305 -0.0600000000000000255 0 0 0 0 0.0339090041629970043
-0.0400000000000000355 -0.0600000000000000255 0 0 0 0 0.0320124494335614143
-0.0300000000000000405 -0.0600000000000000255 0 0 0 0 0.0326822863109409792
-0.0200000000000000455 -0.0600000000000000255 0 0 0 0 0.033152212852612141
-0.0100000000000000505 -0.0600000000000000255 0 0 0 0 0.032858487997204068
-5.5511151231257827e-17 -0.0600000000000000255 0 0 0 0 0.0307176740020513525
0.00999999999999993949 -0.0600000000000000255 0 0 0 0 0.0361770738037303086
0.0199999999999999345 -0.0600000000000000255 0 0 0 0 0.0372884135711938139
0.0299999999999999434 -0.0600000000000000255 0 0 0 0 0.0331854929812252508
0.0399999999999999245 -0.0600000000000000255 0 0 0 0 0.0342193592134863167
0.0499999999999999056 -0.0600000000000000255 0 0 0 0 0.029982252839952709
0.0599999999999999145 -0.0600000000000000255 0 0 0 0 0.0326589945554733307
0.0699999999999999234 -0.0600000000000000255 0 0 0 0 0.0334661411121487604
0.0799999999999999045 -0.0600000000000000255 0 0 0 0 0.0322719060685485587
0.0899999999999998856 -0.0600000000000000255 0 0 0 0 0.0349010003078728884
0.0999999999999998945 -0.0600000000000000255 0 0 0 0 0.0302306158617138866
-0.100000000000000006 -0.0500000000000000305 0 0 0 0 0.0303755416013300403
-0.0900000000000000105 -0.0500000000000000305 0 0 0 0 0.0332188196200877417
-0.0800000000000000155 -0.0500000000000000305 0 0 0 0 0.0318146294932812462
-0.0700000000000000205 -0.0500000000000000305 0 0 0 0 0.0318199718948453669
-0.0600000000000000255 -0.0500000000000000305 0 0 0 0 0.0306574959494173536
-0.0500000000000000305 -0.0500000000000000305 0 0 0 0 0.029402167847380041
-0.0400000000000000355 -0.0500000000000000305 0 0 0 0 0.0317716350713744752
-0.0300000000000000405 -0.0500000000000000305 0 0 0 0 0.0315116796139627703
-0.0200000000000000455 -0.0500000000000000305 0 0 0 0 0.0324621330387890317
-0.0100000000000000505 -0.0500000000000000305 0 0 0 0 0.0310371843921020615
-5.5511151231257827e-17 -0.0500000000000000305 0 0 0 0 0.0330380063578486413
0.00999999999999993949 -0.0500000000000000305 0 0 0 0 0.030719213148579002
0.0199999999999999345 -0.0500000000000000305 0 0 0 0 0.0303498218748718511
0.0299999999999999434 -0.0500000000000000305 0 0 0 0 0.0285185671951621762
0.0399999999999999245 -0.0500000000000000305 0 0 0 0 0.0324636565488763129
0.0499999999999999056 -0.0500000000000000305 0 0 0 0 0.0297214016756042823
0.0599999999999999145 -0.0500000000000000305 0 0 0 0 0.0320714614707976603
0.0699999999999999234 -0.0500000000000000305 0 0 0 0 0.0315104787396267086
0.0799999999999999045 -0.0500000000000000305 0 0 0 0 0.0364418195420876112
0.0899999999999998856 -0.0500000000000000305 0 0 0 0 0.0313492536041885608
0.0999999999999998945 -0.0500000000000000305 0 0 0 0 0.0332451645848341262
-0.100000000000000006 -0.0400000000000000355 0 0 0 0 0.0295735539081506439
-0.0900000000000000105 -0.0400000000000000355 0 0 0 0 0.0279836494987830524
-0.0800000000000000155 -0.0400000000000000355 0 0 0 0 0.0338268929300829801
-0.0700000000000000205 -0.0400000000000000355 0 0 0 0 0.0256211190018802888
-0.0600000000000000255 -0.0400000000000000355 0 0 0 0 0.0300988255385309447
-0.0500000000000000305 -0.0400000000000000355 0 0 0 0 0.0316264191269874581
-0.0400000000000000355 -0.0400000000000000355 0 0 0 0 0.030664932157844306
-0.0300000000000000405 -0.0400000000000000355 0 0 0 0 0.0281078949142247424
-0.0200000000000000455 -0.0400000000000000355 0 0 0 0 0.0308304013293236485
-0.0100000000000000505 -0.0400000000000000355 0 0 0 0 0.0297754700314253572
-5.5511151231257827e-17 -0.0400000000000000355 0 0 0 0 0.0317296383250504702
0.00999999999999993949 -0.0400000000000000355 0 0 0 0 0.0343506642067804915
0.0199999999999999345 -0.0400000000000000355 0 0 0 0 0.0311776919476687911
0.0299999999999999434 -0.0400000000000000355 0 0 0 0 0.0311295031765475884
0.0399999999999999245 -0.0400000000000000355 0 0 0 0 0.0335661799870431432
0.0499999999999999056 -0.0400000000000000355 0 0 0 0 0.03346253238245845
0.0599999999999999145 -0.0400000000000000355 0 0 0 0 0.031212712228298186
0.0699999999999999234 -0.0400000000000000355 0 0 0 0 0.0343570730378851275
0.0799999999999999045 -0.0400000000000000355 0 0 0 0 0.03390859396569431
0.0899999999999998856 -0.0400000000000000355 0 0 0 0 0.0287893749680370077
0.0999999999999998945 -0.0400000000000000355 0 0 0 0 0.0350453097224235552
-0.100000000000000006 -0.0300000000000000405 0 0 0 0 0.0277383220158517359
-0.0900000000000000105 -0.0300000000000000405 0 0 0 0 0.0327304671406745892
-0.0800000000000000155 -0.0300000000000000405 0 0 0 0 0.0332873551454395053
-0.0700000000000000205 -0.0300000000000000405 0 0 0 0 0.0353104209378361719
-0.0600000000000000255 -0.0300000000000000405 0 0 0 0 0.034248002637177706
-0.0500000000000000305 -0.0300000000000000405 0 0 0 0 0.0310833554118871702
-0.0400000000000000355 -0.0300000000000000405 0 0 0 0 0.0313597486987709992
-0.0300000000000000405 -0.0300000000000000405 0 0 0 0 0.0309850357659161094
-0.0200000000000000455 -0.0300000000000000405 0 0 0 0 0.0307759924419224278
-0.0100000000000000505 -0.0300000000000000405 0 0 0 0 0.0346024979688227194
-5.5511151231257827e-17 -0.0300000000000000405 0 0 0 0 0.031964448055252434
0.00999999999999993949 -0.0300000000000000405 0 0 0 0 0.0345175953637808577
0.0199999999999999345 -0.0300000000000000405 0 0 0 0 0.031041558418422939
0.0299999999999999434 -0.0300000000000000405 0 0 0 0 0.0325013732491061108
0.0399999999999999245 -0.0300000000000000405 0 0 0 0 0.0304718296574428664
0.0499999999999999056 -0.0300000000000000405 0 0 0 0 0.0303059808947145938
0.0599999999999999145 -0.0300000000000000405 0 0 0 0 0.0312430018074810502
0.0699999999999999234 -0.0300000000000000405 0 0 0 0 0.0336630085147917243
0.0799999999999999045 -0.0300000000000000405 0 0 0 0 0.0316929892851039799
0.0899999999999998856 -0.0300000000000000405 0 0 0 0 0.0311086466088891025
0.0999999999999998945 -0.0300000000000000405 0 0 0 0 0.0278648132532835005
-0.100000000000000006 -0.0200000000000000455 0 0 0 0 0.0296223461357876666
-0.0900000000000000105 -0.0200000000000000455 0 0 0 0 0.0321357185728847958
-0.0800000000000000155 -0.0200000000000000455 0 0 0 0 0.0340684867100790115
-0.0700000000000000205 -0.0200000000000000455 0 0 0 0 0.0353474022466689353
-0.0600000000000000255 -0.0200000000000000455 0 0 0 0 0.0297368470877408982
-0.0500000000000000305 -0.0200000000000000455 0 0 0 0 0.032019895871169865
-0.0400000000000000355 -0.0200000000000000455 0 0 0 0 0.032881920218002049
-0.0300000000000000405 -0.0200000000000000455 0 0 0 0 0.0277000394687056534
-0.0200000000000000455 -0.0200000000000000455 0 0 0 0 0.0315141980992630147
-0.0100000000000000505 -0.0200000000000000455 0 0 0 0 0.0342452866006642612
-5.5511151231257827e-17 -0.0200000000000000455 0 0 0 0 0.0300280425613746044
0.00999999999999993949 -0.0200000000000000455 0 0 0 0 0.0304404148436151455
0.0199999999999999345 -0.0200000000000000455 0 0 0 0 0.0277733668666332971
0.0299999999999999434 -0.0200000000000000455 0 0 0 0 0.0312709062062203891
0.0399999999999999245 -0.0200000000000000455 0 0 0 0 0.0309548723734915272
0.0499999999999999056 -0.0200000000000000455 0 0 0 0 0.0300951104033738391
0.0599999999999999145 -0.0200000000000000455 0 0 0 0 0.0338193086562678241
0.0699999999999999234 -0.0200000000000000455 0 0 0 0 0.027212769234552979
0.0799999999999999045 -0.0200000000000000455 0 0 0 0 0.0349048073329031455
0.0899999999999998856 -0.0200000000000000455 0 0 0 0 0.0287561275921761998
0.0999999999999998945 -0.0200000000000000455 0 0 0 0 0.0297706730831414461
-0.100000000000000006 -0.0100000000000000505 0 0 0 0 0.0336396590583026428
-0.0900000000000000105 -0.0100000000000000505 0 0 0 0 0.0284678831268101937
-0.0800000000000000155 -0.0100000000000000505 0 0 0 0 0.0354305146895349046
-0.0700000000000000205 -0.0100000000000000505 0 0 0 0 0.0315495307827368399
-0.0600000000000000255 -0.0100000000000000505 0 0 0 0 0.0296950300522148616
-0.0500000000000000305 -0.0100000000000000505 0 0 0 0 0.025481548679992555
-0.0400000000000000355 -0.0100000000000000505 0 0 0 0 0.0299109583906829353
-0.0300000000000000405 -0.0100000000000000505 0 0 0 0 0.0316649133237078759
-0.0200000000000000455 -0.0100000000000000505 0 0 0 0 0.0368952745050191849
-0.0100000000000000505 -0.0100000000000000505 0 0 0 0 0.0367599318809807285
-5.5511151231257827e-17 -0.0100000000000000505 0 0 0 0 0.0331965404059737929
0.00999999999999993949 -0.0100000000000000505 0 0 0 0 0.0316920528998598447
0.0199999999999999345 -0.0100000000000000505 0 0 0 0 0.0367353418730199319
0.0299999999999999434 -0.0100000000000000505 0 0 0 0 0.0324367872271686813
0.0399999999999999245 -0.0100000000000000505 0 0 0 0 0.0304325546231120833
0.0499999999999999056 -0.0100000000000000505 0 0 0 0 0.0332149028275161989
0.0599999999999999145 -0.0100000000000000505 0 0 0 0 0.0338835618719458553
0.0699999999999999234 -0.0100000000000000505 0 0 0 0 0.0337208603015169486
0.0799999999999999045 -0.0100000000000000505 0 0 0 0 0.035908106206916271
0.0899999999999998856 -0.0100000000000000505 0 0 0 0 0.0353319854680448769
0.0999999999999998945 -0.0100000000000000505 0 0 0 0 0.0265544658116996304
-0.100000000000000006 -5.5511151231257827e-17 0 0 0 0 0.0397650525216013198
-0.0900000000000000105 -5.5511151231257827e-17 0 0 0 0 0.0296149833193048821
-0.0800000000000000155 -5.5511151231257827e-17 0 0 0 0 0.0292391309179365622
-0.0700000000000000205 -5.5511151231257827e-17 0 0 0 0 0.0340632945597171763
-0.0600000000000000255 -5.5511151231257827e-17 0 0 0 0 0.0341953284572809948
-0.0500000000000000305 -5.5511151231257827e-17 0 0 0 0 0.0325019800905138254
-0.0400000000000000355 -5.5511151231257827e-17 0 0 0 0 0.0304649947807192796
-0.0300000000000000405 -5.5511151231257827e-17 0 0 0 0 0.0284785615568980584
-0.0200000000000000455 -5.5511151231257827e-17 0 0 0 0 0.0290829716436564918
-0.0100000000000000505 -5.5511151231257827e-17 0 0 0 0 0.0282537941560149185
-5.5511151231257827e-17 -5.5511151231257827e-17 0 0 0 0 0.0303508406430482852
0.00999999999999993949 -5.5511151231257827e-17 0 0 0 0 0.031138073598966004
0.0199999999999999345 -5.5511151231257827e-17 0 0 0 0 0.0354328072369098634
0.0299999999999999434 -5.5511151231257827e-17 0 0 0 0 0.0301120372712612161
0.0399999999999999245 -5.5511151231257827e-17 0 0 0 0 0.0328114661388099194
0.0499999999999999056 -5.5511151231257827e-17 0 0 0 0 0.0321777912080287928
0.0599999999999999145 -5.5511151231257827e-17 0 0 0 0 0.0348817098597064626
0.0699999999999999234 -5.5511151231257827e-17 0 0 0 0 0.0335111250439658753
0.0799999999999999045 -5.5511151231257827e-17 0 0 0 0 0.0294747599279507992
0.0899999999999998856 -5.5511151231257827e-17 0 0 0 0 0.0352244842890650015
0.0999999999999998945 -5.5511151231257827e-17 0 0 0 0 0.0327290667034685623
-0.100000000000000006 0.00999999999999993949 0 0 0 0 0.0321322526941075909
-0.0900000000000000105 0.00999999999999993949 0 0 0 0 0.0327391536794602867
-0.0800000000000000155 0.00999999999999993949 0 0 0 0 0.032665425062179565
-0.0700000000000000205 0.00999999999999993949 0 0 0 0 0.0304319659173488619
-0.0600000000000000255 0.00999999999999993949 0 0 0 0 0.031346668744459745
-0.0500000000000000305 0.00999999999999993949 0 0 0 0 0.0313526684343814824
-0.0400000000000000355 0.00999999999999993949 0 0 0 0 0.0354210724495351292
-0.0300000000000000405 0.00999999999999993949 0 0 0 0 0.0334907166995108141
-0.0200000000000000455 0.00999999999999993949 0 0 0 0 0.0334872426073998183
-0.0100000000000000505 0.00999999999999993949 0 0 0 0 0.0318966719042509811
-5.5511151231257827e-17 0.00999999999999993949 0 0 0 0 0.0306119102835655209
0.00999999999999993949 0.00999999999999993949 0 0 0 0 0.0292448557075113066
0.0199999999999999345 0.00999999999999993949 0 0 0 0 0.0326037939973175539
0.0299999999999999434 0.00999999999999993949 0 0 0 0 0.0332017419971525687
0.0399999999999999245 0.00999999999999993949 0 0 0 0 0.0335638685226440428
0.0499999999999999056 0.00999999999999993949 0 0 0 0 0.0322840545400977161
0.0599999999999999145 0.00999999999999993949 0 0 0 0 0.0320184266446158286
0.0699999999999999234 0.00999999999999993949 0 0 0 0 0.0306258858749642975
0.0799999999999999045 0.00999999999999993949 0 0 0 0 0.0326649024132639187
0.0899999999999998856 0.00999999999999993949 0 0 0 0 0.0317849279418587691
0.0999999999999998945 0.00999999999999993949 0 0 0 0 0.0317681496068835251
-0.100000000000000006 0.0199999999999999345 0 0 0 0 0.0322876283200457664
-0.0900000000000000105 0.0199999999999999345 0 0 0 0 0.0348899598866701105
-0.0800000000000000155 0.0199999999999999345 0 0 0 0 0.0340179999507963654
-0.0700000000000000205 0.0199999999999999345 0 0 0 0 0.0295037350952625267
-0.0600000000000000255 0.0199999999999999345 0 0 0 0 0.0268347454331815255
-0.0500000000000000305 0.0199999999999999345 0 0 0 0 0.0324556392794474943
-0.0400000000000000355 0.0199999999999999345 0 0 0 0 0.030878257681615652
-0.0300000000000000405 0.0199999999999999345 0 0 0 0 0.0306969445832073681
-0.0200000000000000455 0.0199999999999999345 0 0 0 0 0.0366916769891977301
-0.0100000000000000505 0.0199999999999999345 0 0 0 0 0.0331679844101890955
-5.5511151231257827e-17 0.0199999999999999345 0 0 0 0 0.0345497981496155279
0.00999999999999993949 0.0199999999999999345 0 0 0 0 0.0310264093303121644
0.0199999999999999345 0.0199999999999999345 0 0 0 0 0.030851934383157642
0.0299999999999999434 0.0199999999999999345 0 0 0 0 0.0354514972791075689
0.0399999999999999245 0.0199999999999999345 0 0 0 0 0.0329429321326315389
0.0499999999999999056 0.0199999999999999345 0 0 0 0 0.0330634725373238347
0.0599999999999999145 0.0199999999999999345 0 0 0 0 0.0349018257539719309
0.0699999999999999234 0.0199999999999999345 0 0 0 0 0.0295932232234627016
0.0799999999999999045 0.0199999999999999345 0 0 0 0 0.0283822374874725947
0.0899999999999998856 0.0199999999999999345 0 0 0 0 0.0314446458742022525
0.0999999999999998945 0.0199999999999999345 0 0 0 0 0.0312184521388262498
-0.100000000000000006 0.0299999999999999434 0 0 0 0 0.0316187251443043327
-0.0900000000000000105 0.0299999999999999434 0 0 0 0 0.0332133167944848526
-0.0800000000000000155 0.0299999999999999434 0 0 0 0 0.0329843279942870146
-0.0700000000000000205 0.0299999999999999434 0 0 0 0 0.0306032455544918772
-0.0600000000000000255 0.0299999999999999434 0 0 0 0 0.0329384476356208294
-0.0500000000000000305 0.0299999999999999434 0 0 0 0 0.0311499340608716001
-0.0400000000000000355 0.0299999999999999434 0 0 0 0 0.0318891330007463683
-0.0300000000000000405 0.0299999999999999434 0 0 0 0 0.0326711731906980246
-0.0200000000000000455 0.0299999999999999434 0 0 0 0 0.0342105612289160463
-0.0100000000000000505 0.0299999999999999434 0 0 0 0 0.0318233871515840316
-5.5511151231257827e-17 0.0299999999999999434 0 0 0 0 0.0298392210453748696
0.00999999999999993949 0.0299999999999999434 0 0 0 0 0.0343484777696430668
0.0199999999999999345 0.0299999999999999434 0 0 0 0 0.0339668788108974662
0.0299999999999999434 0.0299999999999999434 0 0 0 0 0.0381885829623788628
0.0399999999999999245 0.0299999999999999434 0 0 0 0 0.0289691380783915521
0.0499999999999999056 0.0299999999999999434 0 0 0 0 0.030479261061176658
0.0599999999999999145 0.0299999999999999434 0 0 0 0 0.0327358297072350979
0.0699999999999999234 0.0299999999999999434 0 0 0 0 0.0336456060949712962
0.0799999999999999045 0.0299999999999999434 0 0 0 0 0.0272185492254793659
0.0899999999999998856 0.0299999999999999434 0 0 0 0 0.0339984167180955379
0.0999999999999998945 0.0299999999999999434 0 0 0 0 0.0333806693628430351
-0.100000000000000006 0.0399999999999999245 0 0 0 0 0.0314725623717531586
-0.0900000000000000105 0.0399999999999999245 0 0 0 0 0.0355003411099314714
-0.0800000000000000155 0.0399999999999999245 0 0 0 0 0.0332389204734936383
-0.0700000000000000205 0.0399999999999999245 0 0 0 0 0.0370304340599104734
-0.0600000000000000255 0.0399999999999999245 0 0 0 0 0.0308211021777242411
-0.0500000000000000305 0.0399999999999999245 0 0 0 0 0.0328848119582980866
-0.0400000000000000355 0.0399999999999999245 0 0 0 0 0.0332434259559959144
-0.0300000000000000405 0.0399999999999999245 0 0 0 0 0.0329072818094864467
-0.0200000000000000455 0.0399999999999999245 0 0 0 0 0.0315396606791764483
-0.0100000000000000505 0.0399999999999999245 0 0 0 0 0.0285747715663164856
-5.5511151231257827e-17 0.0399999999999999245 0 0 0 0 0.0353615097515284985
0.00999999999999993949 0.0399999999999999245 0 0 0 0 0.0305502482131123528
0.0199999999999999345 0.0399999999999999245 0 0 0 0 0.0317865785155445335
0.0299999999999999434 0.0399999999999999245 0 0 0 0 0.0344626016095280624
0.0399999999999999245 0.0399999999999999245 0 0 0 0 0.0323851904198527302
0.0499999999999999056 0.0399999999999999245 0 0 0 0 0.0333537138812243922
0.0599999999999999145 0.0399999999999999245 0 0 0 0 0.0292886473685502989
0.0699999999999999234 0.0399999999999999245 0 0 0 0 0.0326295256055891547
0.0799999999999999045 0.0399999999999999245 0 0 0 0 0.0303036578893661514
0.0899999999999998856 0.0399999999999999245 0 0 0 0 0.0325355856940150248
0.0999999999999998945 0.0399999999999999245 0 0 0 0 0.0315771988704800638
-0.100000000000000006 0.0499999999999999056 0 0 0 0 0.027189792968332769
-0.0900000000000000105 0.0499999999999999056 0 0 0 0 0.0365737293884158127
-0.0800000000000000155 0.0499999999999999056 0 0 0 0 0.0305208223033696414
-0.0700000000000000205 0.0499999999999999056 0 0 0 0 0.0284919811259023853
-0.0600000000000000255 0.0499999999999999056 0 0 0 0 0.0333761022612452524
-0.0500000000000000305 0.0499999999999999056 0 0 0 0 0.0332004287503659748
-0.0400000000000000355 0.0499999999999999056 0 0 0 0 0.0354778009941801448
-0.0300000000000000405 0.0499999999999999056 0 0 0 0 0.0305099626723676909
-0.0200000000000000455 0.0499999999999999056 0 0 0 0 0.0331714476309716705
-0.0100000000000000505 0.0499999999999999056 0 0 0 0 0.0277114729899913086
-5.5511151231257827e-17 0.0499999999999999056 0 0 0 0 0.031334963233210146
0.00999999999999993949 0.0499999999999999056 0 0 0 0 0.0274669365882873537
0.0199999999999999345 0.0499999999999999056 0 0 0 0 0.0335573080927133588
0.0299999999999999434 0.0499999999999999056 0 0 0 0 0.0338753655990585711
0.0399999999999999245 0.0499999999999999056 0 0 0 0 0.0299472685679793363
0.0499999999999999056 0.0499999999999999056 0 0 0 0 0.031501188827678564
0.0599999999999999145 0.0499999999999999056 0 0 0 0 0.0334781352374702718
0.0699999999999999234 0.0499999999999999056 0 0 0 0 0.0300685648396611209
0.0799999999999999045 0.0499999999999999056 0 0 0 0 0.0321278483839705573
0.0899999999999998856 0.0499999999999999056 0 0 0 0 0.0304046141002327214
0.0999999999999998945 0.0499999999999999056 0 0 0 0 0.0370253488644957524
-0.100000000000000006 0.0599999999999999145 0 0 0 0 0.0324487628713250181
-0.0900000000000000105 0.0599999999999999145 0 0 0 0 0.0318846075721085087
-0.0800000000000000155 0.0599999999999999145 0 0 0 0 0.0318302283268421873
-0.0700000000000000205 0.0599999999999999145 0 0 0 0 0.0333947416823357351
-0.0600000000000000255 0.0599999999999999145 0 0 0 0 0.0285442297896370302
-0.0500000000000000305 0.0599999999999999145 0 0 0 0 0.0333298629000782984
-0.0400000000000000355 0.0599999999999999145 0 0 0 0 0.0287308856658637507
-0.0300000000000000405 0.0599999999999999145 0 0 0 0 0.0297964084632694713
-0.0200000000000000455 0.0599999999999999145 0 0 0 0 0.029728801297489553
-0.0100000000000000505 0.0599999999999999145 0 0 0 0 0.036603487983345985
-5.5511151231257827e-17 0.0599999999999999145 0 0 0 0 0.0327939114384353178
0.00999999999999993949 0.0599999999999999145 0 0 0 0 0.0342283804602920988
0.0199999999999999345 0.0599999999999999145 0 0 0 0 0.0318632597532123307
0.0299999999999999434 0.0599999999999999145 0 0 0 0 0.0341567949987947941
0.0399999999999999245 0.0599999999999999145 0 0 0 0 0.0321692313160747284
0.0499999999999999056 0.0599999999999999145 0 0 0 0 0.0290130132250487789
0.0599999999999999145 0.0599999999999999145 0 0 0 0 0.0297722476548515254
0.0699999999999999234 0.0599999999999999145 0 0 0 0 0.0290391654223203649
0.0799999999999999045 0.0599999999999999145 0 0 0 0 0.028852977303788066
0.0899999999999998856 0.0599999999999999145 0 0 0 0 0.0303820614293217675
0.0999999999999998945 0.0599999999999999145 0 0 0 0 0.032926397066563369
-0.100000000000000006 0.0699999999999999234 0 0 0 0 0.0357707839338108902
-0.0900000000000000105 0.0699999999999999234 0 0 0 0 0.0313183657620102196
-0.0800000000000000155 0.0699999999999999234 0 0 0 0 0.0312117922911420466
-0.0700000000000000205 0.0699999999999999234 0 0 0 0 0.0324860110487788928
-0.0600000000000000255 0.0699999999999999234 0 0 0 0 0.0311816919371485715
-0.0500000000000000305 0.0699999999999999234 0 0 0 0 0.0278184662982821455
-0.0400000000000000355 0.0699999999999999234 0 0 0 0 0.0340504563730210097
-0.0300000000000000405 0.0699999999999999234 0 0 0 0 0.0292362918872386204
-0.0200000000000000455 0.0699999999999999234 0 0 0 0 0.0300520674102008334
-0.0100000000000000505 0.0699999999999999234 0 0 0 0 0.0326165142925456189
-5.5511151231257827e-17 0.0699999999999999234 0 0 0 0 0.0352773721423000064
0.00999999999999993949 0.0699999999999999234 0 0 0 0 0.0327507091546431206
0.0199999999999999345 0.0699999999999999234 0 0 0 0 0.0321794896386563764
0.0299999999999999434 0.0699999999999999234 0 0 0 0 0.0298514545317739265
0.0399999999999999245 0.0699999999999999234 0 0 0 0 0.0289704393781721609
0.0499999999999999056 0.0699999999999999234 0 0 0 0 0.0311170414937660088
0.0599999999999999145 0.0699999999999999234 0 0 0 0 0.0327236463120207169
0.0699999999999999234 0.0699999999999999234 0 0 0 0 0.0355601104050874695
0.0799999999999999045 0.0699999999999999234 0 0 0 0 0.0342033116016536923
0.0899999999999998856 0.0699999999999999234 0 0 0 0 0.0366987777147442101
0.0999999999999998945 0.0699999999999999234 0 0 0 0 0.0337813235223293276
-0.100000000000000006 0.0799999999999999045 0 0 0 0 0.0324405461456626631
-0.0900000000000000105 0.0799999999999999045 0 0 0 0 0.0287187340836972012
-0.0800000000000000155 0.0799999999999999045 0 0 0 0 0.03286203546822071
-0.0700000000000000205 0.0799999999999999045 0 0 0 0 0.028468363048508763
-0.0600000000000000255 0.0799999999999999045 0 0 0 0 0.0333500062571838521
-0.0500000000000000305 0.0799999999999999045 0 0 0 0 0.0347135734241455773
-0.0400000000000000355 0.0799999999999999045 0 0 0 0 0.0300598085802048429
-0.0300000000000000405 0.0799999999999999045 0 0 0 0 0.0310257327458821237
-0.0200000000000000455 0.0799999999999999045 0 0 0 0 0.0293866000203415745
-0.0100000000000000505 0.0799999999999999045 0 0 0 0 0.0320949633382260832
-5.5511151231257827e-17 0.0799999999999999045 0 0 0 0 0.0327247175220400088
0.00999999999999993949 0.0799999999999999045 0 0 0 0 0.0315190635100007083
0.0199999999999999345 0.0799999999999999045 0 0 0 0 0.034819372537080201
0.0299999999999999434 0.0799999999999999045 0 0 0 0 0.0309008672395721072
0.0399999999999999245 0.0799999999999999045 0 0 0 0 0.0299100790768861771
0.0499999999999999056 0.0799999999999999045 0 0 0 0 0.030621205246075988
0.0599999999999999145 0.0799999999999999045 0 0 0 0 0.0325129375988617506
0.0699999999999999234 0.0799999999999999045 0 0 0 0 0.0295956080202013257
0.0799999999999999045 0.0799999999999999045 0 0 0 0 0.0328458095295354746
0.0899999999999998856 0.0799999999999999045 0 0 0 0 0.0346389394663274286
0.0999999999999998945 0.0799999999999999045 0 0 0 0 0.0356275366172194505
-0.100000000000000006 0.0899999999999998856 0 0 0 0 0.0309676646180450932
-0.0900000000000000105 0.0899999999999998856 0 0 0 0 0.0282603174964897348
-0.0800000000000000155 0.0899999999999998856 0 0 0 0 0.0324138580188155154
-0.0700000000000000205 0.0899999999999998856 0 0 0 0 0.0310981831941753613
-0.0600000000000000255 0.0899999999999998856 0 0 0 0 0.0316842041490599524
-0.0500000000000000305 0.0899999999999998856 0 0 0 0 0.0289745707362890244
-0.0400000000000000355 0.0899999999999998856 0 0 0 0 0.0322778595825657239
-0.0300000000000000405 0.0899999999999998856 0 0 0 0 0.0294877969231456503
-0.0200000000000000455 0.0899999999999998856 0 0 0 0 0.0352433445975184473
-0.0100000000000000505 0.0899999999999998856 0 0 0 0 0.0348089607078582025
-5.5511151231257827e-17 0.0899999999999998856 0 0 0 0 0.0322576120477169742
0.00999999999999993949 0.0899999999999998856 0 0 0 0 0.0311986050587147491
0.0199999999999999345 0.0899999999999998856 0 0 0 0 0.0293230807110667242
0.0299999999999999434 0.0899999999999998856 0 0 0 0 0.0305446556871756918
0.0399999999999999245 0.0899999999999998856 0 0 0 0 0.0354306350257247715
0.0499999999999999056 0.0899999999999998856 0 0 0 0 0.0321662349514663243
0.0599999999999999145 0.0899999999999998856 0 0 0 0 0.0320132063627243044
0.0699999999999999234 0.0899999999999998856 0 0 0 0 0.0327766131116077331
0.0799999999999999045 0.0899999999999998856 0 0 0 0 0.0317850775308907013
0.0899999999999998856 0.0899999999999998856 0 0 0 0 0.0315650195982307216
0.0999999999999998945 0.0899999999999998856 0 0 0 0 0.0325853090360760655
-0.100000000000000006 0.0999999999999998945 0 0 0 0 0.0282381168082356457
-0.0900000000000000105 0.0999999999999998945 0 0 0 0 0.0337691812049597528
-0.0800000000000000155 0.0999999999999998945 0 0 0 0 0.0314254721198230988
-0.0700000000000000205 0.0999999999999998945 0 0 0 0 0.0301514508780091998
-0.0600000000000000255 0.0999999999999998945 0 0 0 0 0.0317942683901637768
-0.0500000000000000305 0.0999999999999998945 0 0 0 0 0.0330929033793508978
-0.0400000000000000355 0.0999999999999998945 0 0 0 0 0.0313619876559823735
-0.0300000000000000405 0.0999999999999998945 0 0 0 0 0.0293940747082233438
-0.0200000000000000455 0.0999999999999998945 0 0 0 0 0.0293071589432656772
-0.0100000000000000505 0.0999999999999998945 0 0 0 0 0.0342146211210638262
-5.5511151231257827e-17 0.0999999999999998945 0 0 0 0 0.0296186036895960576
0.00999999999999993949 0.0999999999999998945 0 0 0 0 0.0355274567510932698
0.0199999999999999345 0.0999999999999998945 0 0 0 0 0.0320342057310044753
0.0299999999999999434 0.0999999999999998945 0 0 0 0 0.0306664954619482143
0.0399999999999999245 0.0999999999999998945 0 0 0 0 0.036630328573286533
0.0499999999999999056 0.0999999999999998945 0 0 0 0 0.0298273292928934106
0.0599999999999999145 0.0999999999999998945 0 0 0 0 0.036059211548417805
0.0699999999999999234 0.0999999999999998945 0 0 0 0 0.0328740536458790311
0.0799999999999999045 0.0999999999999998945 0 0 0 0 0.0324498664475977444
0.0899999999999998856 0.0999999999999998945 0 0 0 0 0.0302806141860783098
0.0999999999999998945 0.0999999999999998945 0 0 0 0 0.036278203591704368
4 0 1 22 21
4 1 2 23 22
4 2 3 24 23
4 3 4 25 24
4 4 5 26 25
4 5 6 27 26
4 6 7 28 27
4 7 8 29 28
4 8 9 30 29
4 9 10 31 30
4 10 11 32 31
4 11 12 33 32
4 12 13 34 33
4 13 14 35 34
4 14 15 36 35
4 15 16 37 36
4 16 17 38 37
4 17 18 39 38
4 18 19 40 39
4 19 20 41 40
4 21 22 43 42
4 22 23 44 43
4 23 24 45 44
4 24 25 46 45
4 25 26 47 46
4 26 27 48 47
4 27 28 49 48
4 28 29 50 49
4 29 30 51 50
4 30 31 52 51
4 31 32 53 52
4 32 33 54 53
4 33 34 55 54
4 34 35 56 55
4 35 36 57 56
4 36 37 58 57
4 37 38 59 58
4 38 39 60 59
4 39 40 61 60
4 40 41 62 61
4 42 43 64 63
4 43 44 65 64
4 44 45 66 65
4 45 46 67 66
4 46 47 68 67
4 47 48 69 68
4 48 49 70 69
4 49 50 71 70
4 50 51 72 71
4 51 52 73 72
4 52 53 74 73
4 53 54 75 74
4 54 55 76 75
4 55 56 77 76
4 56 57 78 77
4 57 58 79 78
4 58 59 80 79
4 59 60 81 80
4 60 61 82 81
4 61 62 83 82
4 63 64 85 84
4 64 65 86 85
4 65 66 87 86
4 66 67 88 87
4 67 68 89 88
4 68 69 90 89
4 69 70 91 90
4 70 71 92 91
4 71 72 93 92
4 72 73 94 93
4 73 74 95 94
4 74 75 96 95
4 75 76 97 96
4 76 77 98 97
4 77 78 99 98
4 78 79 100 99
4 79 80 101 100
4 80 81 102 101
4 81 82 103 102
4 82 83 104 103
4 84 85 106 105
4 85 86 107 106
4 86 87 108 107
4 87 88 109 108
4 88 89 110 109
4 89 90 111 110
4 90 91 112 111
4 91 92 113 112
4 92 93 114 113
4 93 94 115 114
4 94 95 116 115
4 95 96 117 116
4 96 97 118 117
4 97 98 119 118
4 98 99 120 119
4 99 100 121 120
4 100 101 122 121
4 101 102 123 122
4 102 103 124 123
4 103 104 125 124
4 105 106 127 126
4 106 107 128 127
4 107 108 129 128
4 108 109 130 129
4 109 110 131 130
4 110 111 132 131
4 111 112 133 132
4 112 113 134 133
4 113 114 135 134
4 114 115 136 135
4 115 116 137 136
4 116 117 138 137
4 117 118 139 138
4 118 119 140 139
4 119 120 141 140
4 120 121 142 141
4 121 122 143 142
4 122 123 144 143
4 123 124 145 144
4 124 125 146 145
4 126 127 148 147
4 127 128 149 148
4 128 129 150 149
4 129 130 151 150
4 130 131 152 151
4 131 132 153 152
4 132 133 154 153
4 133 134 155 154
4 134 135 156 155
4 135 136 157 156
4 136 137 158 157
4 137 138 159 158
4 138 139 160 159
4 139 140 161 160
4 140 141 162 161
4 141 142 163 162
4 142 143 164 163
4 143 144 165 164
4 144 145 166 165
4 145 146 167 166
4 147 148 169 168
4 148 149 170 169
4 149 150 171 170
4 150 151 172 171
4 151 152 173 172
4 152 153 174 173
4 153 154 175 174
4 154 155 176 175
4 155 156 177 176
4 156 157 178 177
4 157 158 179 178
4 158 159 180 179
4 159 160 181 180
4 160 161 182 181
4 161 162 183 182
4 162 163 184 183
4 163 164 185 184
4 164 165 186 185
4 165 166 187 186
4 166 167 188 187
4 168 169 190 189
4 169 170 191 190
4 170 171 192 191
4 171 172 193 192
4 172 173 194 193
4 173 174 195 194
4 174 175 196 195
4 175 176 197 196
4 176 177 198 197
4 177 178 199 198
4 178 179 200 199
4 179 180 201 200
4 180 181 202 201
4 181 182 203 202
4 182 183 204 203
4 183 184 205 204
4 184 185 206 205
4 185 186 207 206
4 186 187 208 207
4 187 188 209 208
4 189 190 211 210
4 190 191 212 211
4 191 192 213 212
4 192 193 214 213
4 193 194 215 214
4 194 195 216 215
4 195 196 217 216
4 196 197 218 217
4 197 198 219 218
4 198 199 220 219
4 199 200 221 220
4 200 201 222 221
4 201 202 223 222
4 202 203 224 223
4 203 204 225 224
4 204 205 226 225
4 205 206 227 226
4 206 207 228 227
4 207 208 229 228
4 208 209 230 229
4 210 211 232 231
4 211 212 233 232
4 212 213 234 233
4 213 214 235 234
4 214 215 236 235
4 215 216 237 236
4 216 217 238 237
4 217 218 239 238
4 218 219 240 239
4 219 220 241 240
4 220 221 242 241
4 221 222 243 242
4 222 223 244 243
4 223 224 245 244
4 224 225 246 245
4 225 226 247 246
4 226 227 248 247
4 227 228 249 248
4 228 229 250 249
4 229 230 251 250
4 231 232 253 252
4 232 233 254 253
4 233 234 255 254
4 234 235 256 255
4 235 236 257 256
4 236 237 258 257
4 237 238 259 258
4 238 239 260 259
4 239 240 261 260
4 240 241 262 261
4 241 242 263 262
4 242 243 264 263
4 243 244 265 264
4 244 245 266 265
4 245 246 267 266
4 246 247 268 267
4 247 248 269 268
4 248 249 270 269
4 249 250 271 270
4 250 251 272 271
4 252 253 274 273
4 253 254 275 274
4 254 255 276 275
4 255 256 277 276
4 256 257 278 277
4 257 258 279 278
4 258 259 280 279
4 259 260 281 280
4 260 261 282 281
4 261 262 283 282
4 262 263 284 283
4 263 264 285 284
4 264 265 286 285
4 265 266 287 286
4 266 267 288 287
4 267 268 289 288
4 268 269 290 289
4 269 270 291 290
4 270 271 292 291
4 271 272 293 292
4 273 274 295 294
4 274 275 296 295
4 275 276 297 296
4 276 277 298 297
4 277 278 299 298
4 278 279 300 299
4 279 280 301 300
4 280 281 302 301
4 281 282 303 302
4 282 283 304 303
4 283 284 305 304
4 284 285 306 305
4 285 286 307 306
4 286 287 308 307
4 287 288 309 308
4 288 289 310 309
4 289 290 311 310
4 290 291 312 311
4 291 292 313 312
4 292 293 314 313
4 294 295 316 315
4 295 296 317 316
4 296 297 318 317
4 297 298 319 318
4 298 299 320 319
4 299 300 321 320
4 300 301 322 321
4 301 302 323 322
4 302 303 324 323
4 303 304 325 324
4 304 305 326 325
4 305 306 327 326
4 306 307 328 327
4 307 308 329 328
4 308 309 330 329
4 309 310 331 330
4 310 311 332 331
4 311 312 333 332
4 312 313 334 333
4 313 314 335 334
4 315 316 337 336
4 316 317 338 337
4 317 318 339 338
4 318 319 340 339
4 319 320 341 340
4 320 321 342 341
4 321 322 343 342
4 322 323 344 343
4 323 324 345 344
4 324 325 346 345
4 325 326 347 346
4 326 327 348 347
4 327 328 349 348
4 328 329 350 349
4 329 330 351 350
4 330 331 352 351
4 331 332 353 352
4 332 333 354 353
4 333 334 355 354
4 334 335 356 355
4 336 337 358 357
4 337 338 359 358
4 338 339 360 359
4 339 340 361 360
4 340 341 362 361
4 341 342 363 362
4 342 343 364 363
4 343 344 365 364
4 344 345 366 365
4 345 346 367 366
4 346 347 368 367
4 347 348 369 368
4 348 349 370 369
4 349 350 371 370
4 350 351 372 371
4 351 352 373 372
4 352 353 374 373
4 353 354 375 374
4 354 355 376 375
4 355 356 377 376
4 357 358 379 378
4 358 359 380 379
4 359 360 381 380
4 360 361 382 381
4 361 362 383 382
4 362 363 384 383
4 363 364 385 384
4 364 365 386 385
4 365 366 387 386
4 366 367 388 387
4 367 368 389 388
4 368 369 390 389
4 369 370 391 390
4 370 371 392 391
4 371 372 393 392
4 372 373 394 393
4 373 374 395 394
4 374 375 396 395
4 375 376 397 396
4 376 377 398 397
4 378 379 400 399
4 379 380 401 400
4 380 381 402 401
4 381 382 403 402
4 382 383 404 403
4 383 384 405 404
4 384 385 406 405
4 385 386 407 406
4 386 387 408 407
4 387 388 409 408
4 388 389 410 409
4 389 390 411 410
4 390 391 412 411
4 391 392 413 412
4 392 393 414 413
4 393 394 415 414
4 394 395 416 415
4 395 396 417 416
4 396 397 418 417
4 397 398 419 418
4 399 400 421 420
4 400 401 422 421
4 401 402 423 422
4 402 403 424 423
4 403 404 425 424
4 404 405 426 425
4 405 406 427 426
4 406 407 428 427
4 407 408 429 428
4 408 409 430 429
4 409 410 431 430
4 410 411 432 431
4 411 412 433 432
4 412 413 434 433
4 413 414 435 434
4 414 415 436 435
4 415 416 437 436
4 416 417 438 437
4 417 418 439 438
4 418 419 440 439
