ply
format ascii 1.0
element vertex 196
property double x
property double y
property double z
property double vx
property double vy
property double vz
property double s
element face 169
property list uchar int vertex_indices
end_header
-0.0500000000000000028 -0.0500000000000000028 0 0 0 0 0.0663379496932029744
-0.0425000000000000031 -0.0500000000000000028 0 0 0 0 0.0650789215266704552
-0.0350000000000000033 -0.0500000000000000028 0 0 0 0 0.0683375465720891945
-0.0275000000000000036 -0.0500000000000000028 0 0 0 0 0.0654358631372451843
-0.0200000000000000039 -0.0500000000000000028 0 0 0 0 0.0676254196017980619
-0.0125000000000000042 -0.0500000000000000028 0 0 0 0 0.0665007235556840937
-0.00500000000000000444 -0.0500000000000000028 0 0 0 0 0.0656790296286344499
0.00249999999999999528 -0.0500000000000000028 0 0 0 0 0.0689748101234436001
0.009999999999999995 -0.0500000000000000028 0 0 0 0 0.0678638820648193308
0.0175000000000000017 -0.0500000000000000028 0 0 0 0 0.0676352034211158692
0.0249999999999999944 -0.0500000000000000028 0 0 0 0 0.0720526134371757554
0.0324999999999999872 -0.0500000000000000028 0 0 0 0 0.0685909629166126245
0.0399999999999999939 -0.0500000000000000028 0 0 0 0 0.0726881832033395708
0.0475000000000000006 -0.0500000000000000028 0 0 0 0 0.0652897241562604841
-0.0500000000000000028 -0.0425000000000000031 0 0 0 0 0.0639086486846208585
-0.0425000000000000031 -0.0425000000000000031 0 0 0 0 0.0635623952597379749
-0.0350000000000000033 -0.0425000000000000031 0 0 0 0 0.0659038620740175218
-0.0275000000000000036 -0.0425000000000000031 0 0 0 0 0.0647405491769313807
-0.0200000000000000039 -0.0425000000000000031 0 0 0 0 0.071561561435461038
-0.0125000000000000042 -0.0425000000000000031 0 0 0 0 0.073147267729043966
-0.00500000000000000444 -0.0425000000000000031 0 0 0 0 0.0667390809804201124
0.00249999999999999528 -0.0425000000000000031 0 0 0 0 0.0694830043613910708
0.009999999999999995 -0.0425000000000000031 0 0 0 0 0.0634824739843607017
0.0175000000000000017 -0.0425000000000000031 0 0 0 0 0.0605619393885135637
0.0249999999999999944 -0.0425000000000000031 0 0 0 0 0.0671782310009002709
0.0324999999999999872 -0.0425000000000000031 0 0 0 0 0.0644761870354414041
0.0399999999999999939 -0.0425000000000000031 0 0 0 0 0.0670941188931465093
0.0475000000000000006 -0.0425000000000000031 0 0 0 0 0.0673264134526252722
-0.0500000000000000028 -0.0350000000000000033 0 0 0 0 0.0698776402473449687
-0.0425000000000000031 -0.0350000000000000033 0 0 0 0 0.0645472473353147502
-0.0350000000000000033 -0.0350000000000000033 0 0 0 0 0.0651911184340715349
-0.0275000000000000036 -0.0350000000000000033 0 0 0 0 0.0689472070187330255
-0.0200000000000000039 -0.0350000000000000033 0 0 0 0 0.0604926710352301569
-0.0125000000000000042 -0.0350000000000000033 0 0 0 0 0.0678917384296655602
-0.00500000000000000444 -0.0350000000000000033 0 0 0 0 0.0644032787531614304
0.00249999999999999528 -0.0350000000000000033 0 0 0 0 0.0627090716511011087
0.009999999999999995 -0.0350000000000000033 0 0 0 0 0.062897914543747907
0.0175000000000000017 -0.0350000000000000033 0 0 0 0 0.0629175868928432414
0.0249999999999999944 -0.0350000000000000033 0 0 0 0 0.069643692255020137
0.0324999999999999872 -0.0350000000000000033 0 0 0 0 0.0644767681956291139
0.0399999999999999939 -0.0350000000000000033 0 0 0 0 0.0661174441277980751
0.0475000000000000006 -0.0350000000000000033 0 0 0 0 0.0657409759461879684
-0.0500000000000000028 -0.0275000000000000036 0 0 0 0 0.0699782855212688487
-0.0425000000000000031 -0.0275000000000000036 0 0 0 0 0.0627877372205257467
-0.0350000000000000033 -0.0275000000000000036 0 0 0 0 0.0699429479986429237
-0.0275000000000000036 -0.0275000000000000036 0 0 0 0 0.0664510067477822319
-0.0200000000000000039 -0.0275000000000000036 0 0 0 0 0.0661269723474979393
-0.0125000000000000042 -0.0275000000000000036 0 0 0 0 0.0639589505046606055
-0.00500000000000000444 -0.0275000000000000036 0 0 0 0 0.067648558855056759
0.00249999999999999528 -0.0275000000000000036 0 0 0 0 0.0663628746718168266
0.009999999999999995 -0.0275000000000000036 0 0 0 0 0.0696289943158626551
0.0175000000000000017 -0.0275000000000000036 0 0 0 0 0.0688596123605966504
0.0249999999999999944 -0.0275000000000000036 0 0 0 0 0.0709788833260536212
0.0324999999999999872 -0.0275000000000000036 0 0 0 0 0.0657359423190355258
0.0399999999999999939 -0.0275000000000000036 0 0 0 0 0.0677332321405410831
0.0475000000000000006 -0.0275000000000000036 0 0 0 0 0.068843886584043501
-0.0500000000000000028 -0.0200000000000000039 0 0 0 0 0.0651809012442827185
-0.0425000000000000031 -0.0200000000000000039 0 0 0 0 0.0635235419422388037
-0.0350000000000000033 -0.0200000000000000039 0 0 0 0 0.0644664689600467633
-0.0275000000000000036 -0.0200000000000000039 0 0 0 0 0.0668945298194885268
-0.0200000000000000039 -0.0200000000000000039 0 0 0 0 0.0630103608071804072
-0.0125000000000000042 -0.0200000000000000039 0 0 0 0 0.0650117025524377806
-0.00500000000000000444 -0.0200000000000000039 0 0 0 0 0.0652114775031805011
0.00249999999999999528 -0.0200000000000000039 0 0 0 0 0.0648354510664939931
0.009999999999999995 -0.0200000000000000039 0 0 0 0 0.0685804643929004698
0.0175000000000000017 -0.0200000000000000039 0 0 0 0 0.0687435133159160633
0.0249999999999999944 -0.0200000000000000039 0 0 0 0 0.0638297090083360663
0.0324999999999999872 -0.0200000000000000039 0 0 0 0 0.0722770957499742489
0.0399999999999999939 -0.0200000000000000039 0 0 0 0 0.0627601180374622314
0.0475000000000000006 -0.0200000000000000039 0 0 0 0 0.0707559852004051165
-0.0500000000000000028 -0.0125000000000000042 0 0 0 0 0.06611428679525852
-0.0425000000000000031 -0.0125000000000000042 0 0 0 0 0.062980769485235219
-0.0350000000000000033 -0.0125000000000000042 0 0 0 0 0.0656442191302776396
-0.0275000000000000036 -0.0125000000000000042 0 0 0 0 0.0637174239158630334
-0.0200000000000000039 -0.0125000000000000042 0 0 0 0 0.0665126826018095085
-0.0125000000000000042 -0.0125000000000000042 0 0 0 0 0.0674862853437662169
-0.00500000000000000444 -0.0125000000000000042 0 0 0 0 0.0669347866624593751
0.00249999999999999528 -0.0125000000000000042 0 0 0 0 0.0698841803073882994
0.009999999999999995 -0.0125000000000000042 0 0 0 0 0.0657263498008251179
0.0175000000000000017 -0.0125000000000000042 0 0 0 0 0.0665822249352931994
0.0249999999999999944 -0.0125000000000000042 0 0 0 0 0.064620976686477663
0.0324999999999999872 -0.0125000000000000042 0 0 0 0 0.068294238016009326
0.0399999999999999939 -0.0125000000000000042 0 0 0 0 0.0696317780390381807
0.0475000000000000006 -0.0125000000000000042 0 0 0 0 0.0635652497708797393
-0.0500000000000000028 -0.00500000000000000444 0 0 0 0 0.0662669540718197891
-0.0425000000000000031 -0.00500000000000000444 0 0 0 0 0.0626071017608046537
-0.0350000000000000033 -0.00500000000000000444 0 0 0 0 0.0677609674334526124
-0.0275000000000000036 -0.00500000000000000444 0 0 0 0 0.070597875207662586
-0.0200000000000000039 -0.00500000000000000444 0 0 0 0 0.0602955130785703675
-0.0125000000000000042 -0.00500000000000000444 0 0 0 0 0.0645724428594112443
-0.00500000000000000444 -0.00500000000000000444 0 0 0 0 0.0621958695054054267
0.00249999999999999528 -0.00500000000000000444 0 0 0 0 0.0623124000579118736
0.009999999999999995 -0.00500000000000000444 0 0 0 0 0.0642392568886279991
0.0175000000000000017 -0.00500000000000000444 0 0 0 0 0.0658378127515315964
0.0249999999999999944 -0.00500000000000000444 0 0 0 0 0.0665880090296268462
0.0324999999999999872 -0.00500000000000000444 0 0 0 0 0.0671658321619033882
0.0399999999999999939 -0.00500000000000000444 0 0 0 0 0.0636109512299299212
0.0475000000000000006 -0.00500000000000000444 0 0 0 0 0.0620796005278825766
-0.0500000000000000028 0.00249999999999999528 0 0 0 0 0.0698628820776939358
-0.0425000000000000031 0.00249999999999999528 0 0 0 0 0.0669532580971717861
-0.0350000000000000033 0.00249999999999999528 0 0 0 0 0.0657895568609237619
-0.0275000000000000036 0.00249999999999999528 0 0 0 0 0.0656013639271259275
-0.0200000000000000039 0.00249999999999999528 0 0 0 0 0.0673279964029789013
-0.0125000000000000042 0.00249999999999999528 0 0 0 0 0.06385024961829186
-0.00500000000000000444 0.00249999999999999528 0 0 0 0 0.0649640185683965643
0.00249999999999999528 0.00249999999999999528 0 0 0 0 0.0616569299697875967
0.009999999999999995 0.00249999999999999528 0 0 0 0 0.0637164008021354616
0.0175000000000000017 0.00249999999999999528 0 0 0 0 0.0661837795972824161
0.0249999999999999944 0.00249999999999999528 0 0 0 0 0.0674290338903665576
0.0324999999999999872 0.00249999999999999528 0 0 0 0 0.0661004102230072083
0.0399999999999999939 0.00249999999999999528 0 0 0 0 0.0655995762795209825
0.0475000000000000006 0.00249999999999999528 0 0 0 0 0.0662896170467138224
-0.0500000000000000028 0.009999999999999995 0 0 0 0 0.0725896935462951726
-0.0425000000000000031 0.009999999999999995 0 0 0 0 0.0670051841139793353
-0.0350000000000000033 0.009999999999999995 0 0 0 0 0.0698658360689878438
-0.0275000000000000036 0.009999999999999995 0 0 0 0 0.0686341295242309524
-0.0200000000000000039 0.009999999999999995 0 0 0 0 0.0752496840655803717
-0.0125000000000000042 0.009999999999999995 0 0 0 0 0.0697432311624288509
-0.00500000000000000444 0.009999999999999995 0 0 0 0 0.0658219500631093968
0.00249999999999999528 0.009999999999999995 0 0 0 0 0.0705601207017898524
0.009999999999999995 0.009999999999999995 0 0 0 0 0.0644376560300588541
0.0175000000000000017 0.009999999999999995 0 0 0 0 0.068208507820963854
0.0249999999999999944 0.009999999999999995 0 0 0 0 0.0667411368042230557
0.0324999999999999872 0.009999999999999995 0 0 0 0 0.0597691791951656323
0.0399999999999999939 0.009999999999999995 0 0 0 0 0.0669530869126319927
0.0475000000000000006 0.009999999999999995 0 0 0 0 0.0653192494362592746
-0.0500000000000000028 0.0175000000000000017 0 0 0 0 0.0704961558282375389
-0.0425000000000000031 0.0175000000000000017 0 0 0 0 0.0673056015223264664
-0.0350000000000000033 0.0175000000000000017 0 0 0 0 0.0641003696173429449
-0.0275000000000000036 0.0175000000000000017 0 0 0 0 0.0698967441171407661
-0.0200000000000000039 0.0175000000000000017 0 0 0 0 0.0731415042430162421
-0.0125000000000000042 0.0175000000000000017 0 0 0 0 0.0658684936016798034
-0.00500000000000000444 0.0175000000000000017 0 0 0 0 0.0574297012239694607
0.00249999999999999528 0.0175000000000000017 0 0 0 0 0.062933534324169163
0.009999999999999995 0.0175000000000000017 0 0 0 0 0.0684663270264863899
0.0175000000000000017 0.0175000000000000017 0 0 0 0 0.0674553420320153224
0.0249999999999999944 0.0175000000000000017 0 0 0 0 0.0660260946899652451
0.0324999999999999872 0.0175000000000000017 0 0 0 0 0.0681083420813083651
0.0399999999999999939 0.0175000000000000017 0 0 0 0 0.0648309448659420001
0.0475000000000000006 0.0175000000000000017 0 0 0 0 0.0715035299807786906
-0.0500000000000000028 0.0249999999999999944 0 0 0 0 0.0692138187885284473
-0.0425000000000000031 0.0249999999999999944 0 0 0 0 0.0651655719876289424
-0.0350000000000000033 0.0249999999999999944 0 0 0 0 0.0661525256484746943
-0.0275000000000000036 0.0249999999999999944 0 0 0 0 0.0714039524644613233
-0.0200000000000000039 0.0249999999999999944 0 0 0 0 0.0722874968200921952
-0.0125000000000000042 0.0249999999999999944 0 0 0 0 0.0704734921455383301
-0.00500000000000000444 0.0249999999999999944 0 0 0 0 0.0688099654912948666
0.00249999999999999528 0.0249999999999999944 0 0 0 0 0.0664553733319044049
0.009999999999999995 0.0249999999999999944 0 0 0 0 0.066606052711606023
0.0175000000000000017 0.0249999999999999944 0 0 0 0 0.0642529775947332377
0.0249999999999999944 0.0249999999999999944 0 0 0 0 0.0648878705948591206
0.0324999999999999872 0.0249999999999999944 0 0 0 0 0.0667343015670776307
0.0399999999999999939 0.0249999999999999944 0 0 0 0 0.0685917258858680656
0.0475000000000000006 0.0249999999999999944 0 0 0 0 0.0661388203054666529
-0.0500000000000000028 0.0324999999999999872 0 0 0 0 0.0709005275741219493
-0.0425000000000000031 0.0324999999999999872 0 0 0 0 0.0654920345023274481
-0.0350000000000000033 0.0324999999999999872 0 0 0 0 0.0684777694940567061
-0.0275000000000000036 0.0324999999999999872 0 0 0 0 0.0666123827844858213
-0.0200000000000000039 0.0324999999999999872 0 0 0 0 0.0637678630948066705
-0.0125000000000000042 0.0324999999999999872 0 0 0 0 0.0759803156703710569
-0.00500000000000000444 0.0324999999999999872 0 0 0 0 0.0670978029817342753
0.00249999999999999528 0.0324999999999999872 0 0 0 0 0.0680424167662858903
0.009999999999999995 0.0324999999999999872 0 0 0 0 0.0706694997847080175
0.0175000000000000017 0.0324999999999999872 0 0 0 0 0.0673343080133199656
0.0249999999999999944 0.0324999999999999872 0 0 0 0 0.0679205391854047769
0.0324999999999999872 0.0324999999999999872 0 0 0 0 0.0686431346833705908
0.0399999999999999939 0.0324999999999999872 0 0 0 0 0.0642225869745016165
0.0475000000000000006 0.0324999999999999872 0 0 0 0 0.0667449608743190814
-0.0500000000000000028 0.0399999999999999939 0 0 0 0 0.0681153490841388681
-0.0425000000000000031 0.0399999999999999939 0 0 0 0 0.0675074914395809161
-0.0350000000000000033 0.0399999999999999939 0 0 0 0 0.0697501259371638288
-0.0275000000000000036 0.0399999999999999939 0 0 0 0 0.0708566006124019682
-0.0200000000000000039 0.0399999999999999939 0 0 0 0 0.0676384733468294169
-0.0125000000000000042 0.0399999999999999939 0 0 0 0 0.0643553579300642081
-0.00500000000000000444 0.0399999999999999939 0 0 0 0 0.0636969347149133613
0.00249999999999999528 0.0399999999999999939 0 0 0 0 0.0632114001214504201
0.009999999999999995 0.0399999999999999939 0 0 0 0 0.0641581129878759371
0.0175000000000000017 0.0399999999999999939 0 0 0 0 0.0672379024028778027
0.0249999999999999944 0.0399999999999999939 0 0 0 0 0.0683768574595451373
0.0324999999999999872 0.0399999999999999939 0 0 0 0 0.0630487762242555594
0.0399999999999999939 0.0399999999999999939 0 0 0 0 0.0656273725554347015
0.0475000000000000006 0.0399999999999999939 0 0 0 0 0.0658580745160579628
-0.0500000000000000028 0.0475000000000000006 0 0 0 0 0.072374059289693829
-0.0425000000000000031 0.0475000000000000006 0 0 0 0 0.0684944387227296864
-0.0350000000000000033 0.0475000000000000006 0 0 0 0 0.0683919315040111553
-0.0275000000000000036 0.0475000000000000006 0 0 0 0 0.0633643289208412203
-0.0200000000000000039 0.0475000000000000006 0 0 0 0 0.0685615904480218891
-0.0125000000000000042 0.0475000000000000006 0 0 0 0 0.0662186511904001296
-0.00500000000000000444 0.0475000000000000006 0 0 0 0 0.0675724269896745694
0.00249999999999999528 0.0475000000000000006 0 0 0 0 0.0604291600584983823
0.009999999999999995 0.0475000000000000006 0 0 0 0 0.0691207078993320428
0.0175000000000000017 0.0475000000000000006 0 0 0 0 0.0656475927829742456
0.0249999999999999944 0.0475000000000000006 0 0 0 0 0.06516430214047432
0.0324999999999999872 0.0475000000000000006 0 0 0 0 0.0688106870651245123
0.0399999999999999939 0.0475000000000000006 0 0 0 0 0.0638755062967538839
0.0475000000000000006 0.0475000000000000006 0 0 0 0 0.0657825565040111582
4 0 1 15 14
4 1 2 16 15
4 2 3 17 16
4 3 4 18 17
4 4 5 19 18
4 5 6 20 19
4 6 7 21 20
4 7 8 22 21
4 8 9 23 22
4 9 10 24 23
4 10 11 25 24
4 11 12 26 25
4 12 13 27 26
4 14 15 29 28
4 15 16 30 29
4 16 17 31 30
4 17 18 32 31
4 18 19 33 32
4 19 20 34 33
4 20 21 35 34
4 21 22 36 35
4 22 23 37 36
4 23 24 38 37
4 24 25 39 38
4 25 26 40 39
4 26 27 41 40
4 28 29 43 42
4 29 30 44 43
4 30 31 45 44
4 31 32 46 45
4 32 33 47 46
4 33 34 48 47
4 34 35 49 48
4 35 36 50 49
4 36 37 51 50
4 37 38 52 51
4 38 39 53 52
4 39 40 54 53
4 40 41 55 54
4 42 43 57 56
4 43 44 58 57
4 44 45 59 58
4 45 46 60 59
4 46 47 61 60
4 47 48 62 61
4 48 49 63 62
4 49 50 64 63
4 50 51 65 64
4 51 52 66 65
4 52 53 67 66
4 53 54 68 67
4 54 55 69 68
4 56 57 71 70
4 57 58 72 71
4 58 59 73 72
4 59 60 74 73
4 60 61 75 74
4 61 62 76 75
4 62 63 77 76
4 63 64 78 77
4 64 65 79 78
4 65 66 80 79
4 66 67 81 80
4 67 68 82 81
4 68 69 83 82
4 70 71 85 84
4 71 72 86 85
4 72 73 87 86
4 73 74 88 87
4 74 75 89 88
4 75 76 90 89
4 76 77 91 90
4 77 78 92 91
4 78 79 93 92
4 79 80 94 93
4 80 81 95 94
4 81 82 96 95
4 82 83 97 96
4 84 85 99 98
4 85 86 100 99
4 86 87 101 100
4 87 88 102 101
4 88 89 103 102
4 89 90 104 103
4 90 91 105 104
4 91 92 106 105
4 92 93 107 106
4 93 94 108 107
4 94 95 109 108
4 95 96 110 109
4 96 97 111 110
4 98 99 113 112
4 99 100 114 113
4 100 101 115 114
4 101 102 116 115
4 102 103 117 116
4 103 104 118 117
4 104 105 119 118
4 105 106 120 119
4 106 107 121 120
4 107 108 122 121
4 108 109 123 122
4 109 110 124 123
4 110 111 125 124
4 112 113 127 126
4 113 114 128 127
4 114 115 129 128
4 115 116 130 129
4 116 117 131 130
4 117 118 132 131
4 118 119 133 132
4 119 120 134 133
4 120 121 135 134
4 121 122 136 135
4 122 123 137 136
4 123 124 138 137
4 124 125 139 138
4 126 127 141 140
4 127 128 142 141
4 128 129 143 142
4 129 130 144 143
4 130 131 145 144
4 131 132 146 145
4 132 133 147 146
4 133 134 148 147
4 134 135 149 148
4 135 136 150 149
4 136 137 151 150
4 137 138 152 151
4 138 139 153 152
4 140 141 155 154
4 141 142 156 155
4 142 143 157 156
4 143 144 158 157
4 144 145 159 158
4 145 146 160 159
4 146 147 161 160
4 147 148 162 161
4 148 149 163 162
4 149 150 164 163
4 150 151 165 164
4 151 152 166 165
4 152 153 167 166
4 154 155 169 168
4 155 156 170 169
4 156 157 171 170
4 157 158 172 171
4 158 159 173 172
4 159 160 174 173
4 160 161 175 174
4 161 162 176 175
4 162 163 177 176
4 163 164 178 177
4 164 165 179 178
4 165 166 180 179
4 166 167 181 180
4 168 169 183 182
4 169 170 184 183
4 170 171 185 184
4 171 172 186 185
4 172 173 187 186
4 173 174 188 187
4 174 175 189 188
4 175 176 190 189
4 176 177 191 190
4 177 178 192 191
4 178 179 193 192
4 179 180 194 193
4 180 181 195 194
