ply
format ascii 1.0
element vertex 196
property double x
property double y
property double z
property double vx
property double vy
property double vz
property double s
element face 169
property list uchar int vertex_indices
end_header
-0.0500000000000000028 -0.0500000000000000028 0 0 0 0 1.7795529317855836
-0.0425000000000000031 -0.0500000000000000028 0 0 0 0 1.40661551761627202
-0.0350000000000000033 -0.0500000000000000028 0 0 0 0 0.824549630641937203
-0.0275000000000000036 -0.0500000000000000028 0 0 0 0 0.526652182579040562
-0.0200000000000000039 -0.0500000000000000028 0 0 0 0 0.391868425369262696
-0.0125000000000000042 -0.0500000000000000028 0 0 0 0 0.448143450975418078
-0.00500000000000000444 -0.0500000000000000028 0 0 0 0 0.46587220406532287
0.00249999999999999528 -0.0500000000000000028 0 0 0 0 0.45291551780700684
0.009999999999999995 -0.0500000000000000028 0 0 0 0 0.452066820621490506
0.0175000000000000017 -0.0500000000000000028 0 0 0 0 0.438535015106201187
0.0249999999999999944 -0.0500000000000000028 0 0 0 0 0.470256033897399894
0.0324999999999999872 -0.0500000000000000028 0 0 0 0 0.535905612945556609
0.0399999999999999939 -0.0500000000000000028 0 0 0 0 0.555548161029815635
0.0475000000000000006 -0.0500000000000000028 0 0 0 0 0.586734490871429482
-0.0500000000000000028 -0.0425000000000000031 0 0 0 0 1.58574353599548346
-0.0425000000000000031 -0.0425000000000000031 0 0 0 0 1.33509006500244132
-0.0350000000000000033 -0.0425000000000000031 0 0 0 0 0.825379532814025874
-0.0275000000000000036 -0.0425000000000000031 0 0 0 0 0.478821458339691142
-0.0200000000000000039 -0.0425000000000000031 0 0 0 0 0.397307617187500017
-0.0125000000000000042 -0.0425000000000000031 0 0 0 0 0.46340005421638486
-0.00500000000000000444 -0.0425000000000000031 0 0 0 0 0.462139530420303368
0.00249999999999999528 -0.0425000000000000031 0 0 0 0 0.463088664054870591
0.009999999999999995 -0.0425000000000000031 0 0 0 0 0.46752998089790343
0.0175000000000000017 -0.0425000000000000031 0 0 0 0 0.427298793554306056
0.0249999999999999944 -0.0425000000000000031 0 0 0 0 0.446586521148681637
0.0324999999999999872 -0.0425000000000000031 0 0 0 0 0.507718117713928274
0.0399999999999999939 -0.0425000000000000031 0 0 0 0 0.608394525527954144
0.0475000000000000006 -0.0425000000000000031 0 0 0 0 0.664646476745605508
-0.0500000000000000028 -0.0350000000000000033 0 0 0 0 1.46136556720733646
-0.0425000000000000031 -0.0350000000000000033 0 0 0 0 1.15419815731048581
-0.0350000000000000033 -0.0350000000000000033 0 0 0 0 0.782263270378112829
-0.0275000000000000036 -0.0350000000000000033 0 0 0 0 0.468965461730957045
-0.0200000000000000039 -0.0350000000000000033 0 0 0 0 0.399321989297866831
-0.0125000000000000042 -0.0350000000000000033 0 0 0 0 0.458868357896804802
-0.00500000000000000444 -0.0350000000000000033 0 0 0 0 0.476686921119689966
0.00249999999999999528 -0.0350000000000000033 0 0 0 0 0.474422450780868532
0.009999999999999995 -0.0350000000000000033 0 0 0 0 0.468741749763488758
0.0175000000000000017 -0.0350000000000000033 0 0 0 0 0.433919128656387321
0.0249999999999999944 -0.0350000000000000033 0 0 0 0 0.435150596141815171
0.0324999999999999872 -0.0350000000000000033 0 0 0 0 0.491980132579803442
0.0399999999999999939 -0.0350000000000000033 0 0 0 0 0.678220304965972853
0.0475000000000000006 -0.0350000000000000033 0 0 0 0 0.853094624519348144
-0.0500000000000000028 -0.0275000000000000036 0 0 0 0 1.60144452381134039
-0.0425000000000000031 -0.0275000000000000036 0 0 0 0 1.05403029966354378
-0.0350000000000000033 -0.0275000000000000036 0 0 0 0 0.681765140056610153
-0.0275000000000000036 -0.0275000000000000036 0 0 0 0 0.488792385101318339
-0.0200000000000000039 -0.0275000000000000036 0 0 0 0 0.393019366741180431
-0.0125000000000000042 -0.0275000000000000036 0 0 0 0 0.394275269746780399
-0.00500000000000000444 -0.0275000000000000036 0 0 0 0 0.457059073448181141
0.00249999999999999528 -0.0275000000000000036 0 0 0 0 0.419021430492401148
0.009999999999999995 -0.0275000000000000036 0 0 0 0 0.42834801650047305
0.0175000000000000017 -0.0275000000000000036 0 0 0 0 0.411374204635620133
0.0249999999999999944 -0.0275000000000000036 0 0 0 0 0.43371013736724856
0.0324999999999999872 -0.0275000000000000036 0 0 0 0 0.598287398815155025
0.0399999999999999939 -0.0275000000000000036 0 0 0 0 1.0304139823913574
0.0475000000000000006 -0.0275000000000000036 0 0 0 0 1.328902696609497
-0.0500000000000000028 -0.0200000000000000039 0 0 0 0 1.53855444335937497
-0.0425000000000000031 -0.0200000000000000039 0 0 0 0 1.05731890964508057
-0.0350000000000000033 -0.0200000000000000039 0 0 0 0 0.66050548934936526
-0.0275000000000000036 -0.0200000000000000039 0 0 0 0 0.510171380281448372
-0.0200000000000000039 -0.0200000000000000039 0 0 0 0 0.383323279619216917
-0.0125000000000000042 -0.0200000000000000039 0 0 0 0 0.334555428147315981
-0.00500000000000000444 -0.0200000000000000039 0 0 0 0 0.34946684241294862
0.00249999999999999528 -0.0200000000000000039 0 0 0 0 0.281497859001159645
0.009999999999999995 -0.0200000000000000039 0 0 0 0 0.2925814971923828
0.0175000000000000017 -0.0200000000000000039 0 0 0 0 0.399290926933288548
0.0249999999999999944 -0.0200000000000000039 0 0 0 0 0.514148503780365029
0.0324999999999999872 -0.0200000000000000039 0 0 0 0 0.73042902708053592
0.0399999999999999939 -0.0200000000000000039 0 0 0 0 1.09887716388702383
0.0475000000000000006 -0.0200000000000000039 0 0 0 0 1.43307563114166259
-0.0500000000000000028 -0.0125000000000000042 0 0 0 0 1.28038192653656013
-0.0425000000000000031 -0.0125000000000000042 0 0 0 0 0.974230978965759276
-0.0350000000000000033 -0.0125000000000000042 0 0 0 0 0.642430861949920606
-0.0275000000000000036 -0.0125000000000000042 0 0 0 0 0.450711555480957038
-0.0200000000000000039 -0.0125000000000000042 0 0 0 0 0.365656149625778193
-0.0125000000000000042 -0.0125000000000000042 0 0 0 0 0.242213838577270496
-0.00500000000000000444 -0.0125000000000000042 0 0 0 0 0.185797487914562215
0.00249999999999999528 -0.0125000000000000042 0 0 0 0 0.121531052559614175
0.009999999999999995 -0.0125000000000000042 0 0 0 0 0.176009010195732118
0.0175000000000000017 -0.0125000000000000042 0 0 0 0 0.494486237287521335
0.0249999999999999944 -0.0125000000000000042 0 0 0 0 0.547042057037353535
0.0324999999999999872 -0.0125000000000000042 0 0 0 0 0.672746191024780282
0.0399999999999999939 -0.0125000000000000042 0 0 0 0 1.00741551876068125
0.0475000000000000006 -0.0125000000000000042 0 0 0 0 1.35238421249389651
-0.0500000000000000028 -0.00500000000000000444 0 0 0 0 1.26288502883911136
-0.0425000000000000031 -0.00500000000000000444 0 0 0 0 0.950788840770721455
-0.0350000000000000033 -0.00500000000000000444 0 0 0 0 0.644406383991241505
-0.0275000000000000036 -0.00500000000000000444 0 0 0 0 0.455490310430526735
-0.0200000000000000039 -0.00500000000000000444 0 0 0 0 0.375980332374572734
-0.0125000000000000042 -0.00500000000000000444 0 0 0 0 0.188930625319480905
-0.00500000000000000444 -0.00500000000000000444 0 0 0 0 0.0678301886022090877
0.00249999999999999528 -0.00500000000000000444 0 0 0 0 0.0398591325171291852
0.009999999999999995 -0.00500000000000000444 0 0 0 0 0.177459471166133892
0.0175000000000000017 -0.00500000000000000444 0 0 0 0 0.539550942420959467
0.0249999999999999944 -0.00500000000000000444 0 0 0 0 0.56813797807693478
0.0324999999999999872 -0.00500000000000000444 0 0 0 0 0.733576833724975619
0.0399999999999999939 -0.00500000000000000444 0 0 0 0 1.10707675457000732
0.0475000000000000006 -0.00500000000000000444 0 0 0 0 1.5496590948104858
-0.0500000000000000028 0.00249999999999999528 0 0 0 0 1.84300397396087656
-0.0425000000000000031 0.00249999999999999528 0 0 0 0 1.53805819129943844
-0.0350000000000000033 0.00249999999999999528 0 0 0 0 1.25505301856994622
-0.0275000000000000036 0.00249999999999999528 0 0 0 0 0.96791518592834469
-0.0200000000000000039 0.00249999999999999528 0 0 0 0 0.605212265729904164
-0.0125000000000000042 0.00249999999999999528 0 0 0 0 0.30494930720329283
-0.00500000000000000444 0.00249999999999999528 0 0 0 0 0.139300384640693664
0.00249999999999999528 0.00249999999999999528 0 0 0 0 0.0569200651496648766
0.009999999999999995 0.00249999999999999528 0 0 0 0 0.320772691011428857
0.0175000000000000017 0.00249999999999999528 0 0 0 0 0.574832743644714372
0.0249999999999999944 0.00249999999999999528 0 0 0 0 0.627228764057159438
0.0324999999999999872 0.00249999999999999528 0 0 0 0 0.953689397811889661
0.0399999999999999939 0.00249999999999999528 0 0 0 0 1.43766092491149911
0.0475000000000000006 0.00249999999999999528 0 0 0 0 2.00592780303955065
-0.0500000000000000028 0.009999999999999995 0 0 0 0 2.3423750171661375
-0.0425000000000000031 0.009999999999999995 0 0 0 0 2.03747938728332523
-0.0350000000000000033 0.009999999999999995 0 0 0 0 1.78115079307556146
-0.0275000000000000036 0.009999999999999995 0 0 0 0 1.57859983348846433
-0.0200000000000000039 0.009999999999999995 0 0 0 0 1.31368346786499024
-0.0125000000000000042 0.009999999999999995 0 0 0 0 0.993394612312316849
-0.00500000000000000444 0.009999999999999995 0 0 0 0 0.781306825160980267
0.00249999999999999528 0.009999999999999995 0 0 0 0 0.586350687026977568
0.009999999999999995 0.009999999999999995 0 0 0 0 0.618586377143859889
0.0175000000000000017 0.009999999999999995 0 0 0 0 0.608666545867919906
0.0249999999999999944 0.009999999999999995 0 0 0 0 0.740045764923095706
0.0324999999999999872 0.009999999999999995 0 0 0 0 1.30980510330200195
0.0399999999999999939 0.009999999999999995 0 0 0 0 1.8869440593719482
0.0475000000000000006 0.009999999999999995 0 0 0 0 2.49123172187805197
-0.0500000000000000028 0.0175000000000000017 0 0 0 0 2.43216267395019514
-0.0425000000000000031 0.0175000000000000017 0 0 0 0 2.1093085231781008
-0.0350000000000000033 0.0175000000000000017 0 0 0 0 1.86192374706268304
-0.0275000000000000036 0.0175000000000000017 0 0 0 0 1.74804973888397219
-0.0200000000000000039 0.0175000000000000017 0 0 0 0 1.57155033302307134
-0.0125000000000000042 0.0175000000000000017 0 0 0 0 1.41637817096710195
-0.00500000000000000444 0.0175000000000000017 0 0 0 0 1.31214543437957754
0.00249999999999999528 0.0175000000000000017 0 0 0 0 1.30278787803649898
0.009999999999999995 0.0175000000000000017 0 0 0 0 1.29457689285278321
0.0175000000000000017 0.0175000000000000017 0 0 0 0 1.31256354522705077
0.0249999999999999944 0.0175000000000000017 0 0 0 0 1.36514450931549081
0.0324999999999999872 0.0175000000000000017 0 0 0 0 1.69807686996459961
0.0399999999999999939 0.0175000000000000017 0 0 0 0 2.21786633110046383
0.0475000000000000006 0.0175000000000000017 0 0 0 0 2.83530107307434065
-0.0500000000000000028 0.0249999999999999944 0 0 0 0 2.36856355476379399
-0.0425000000000000031 0.0249999999999999944 0 0 0 0 2.09015464973449694
-0.0350000000000000033 0.0249999999999999944 0 0 0 0 1.95863506126403819
-0.0275000000000000036 0.0249999999999999944 0 0 0 0 1.78779298019409172
-0.0200000000000000039 0.0249999999999999944 0 0 0 0 1.66790902900695803
-0.0125000000000000042 0.0249999999999999944 0 0 0 0 1.70260603237152108
-0.00500000000000000444 0.0249999999999999944 0 0 0 0 1.61665243911743173
0.00249999999999999528 0.0249999999999999944 0 0 0 0 1.63802713680267331
0.009999999999999995 0.0249999999999999944 0 0 0 0 1.90270037269592285
0.0175000000000000017 0.0249999999999999944 0 0 0 0 1.90266162872314459
0.0249999999999999944 0.0249999999999999944 0 0 0 0 2.0260383472442629
0.0324999999999999872 0.0249999999999999944 0 0 0 0 2.24948425292968768
0.0399999999999999939 0.0249999999999999944 0 0 0 0 2.59962892341613783
0.0475000000000000006 0.0249999999999999944 0 0 0 0 3.03617695236206053
-0.0500000000000000028 0.0324999999999999872 0 0 0 0 2.10269589233398424
-0.0425000000000000031 0.0324999999999999872 0 0 0 0 2.08042846679687488
-0.0350000000000000033 0.0324999999999999872 0 0 0 0 1.99193243408203124
-0.0275000000000000036 0.0324999999999999872 0 0 0 0 1.82340025138854989
-0.0200000000000000039 0.0324999999999999872 0 0 0 0 1.83731981563568114
-0.0125000000000000042 0.0324999999999999872 0 0 0 0 1.88842954254150386
-0.00500000000000000444 0.0324999999999999872 0 0 0 0 1.7168628196716309
0.00249999999999999528 0.0324999999999999872 0 0 0 0 1.66351484966278074
0.009999999999999995 0.0324999999999999872 0 0 0 0 2.00446826171874992
0.0175000000000000017 0.0324999999999999872 0 0 0 0 2.15464495658874533
0.0249999999999999944 0.0324999999999999872 0 0 0 0 2.19333037185668944
0.0324999999999999872 0.0324999999999999872 0 0 0 0 2.47544673156738293
0.0399999999999999939 0.0324999999999999872 0 0 0 0 2.71015932655334479
0.0475000000000000006 0.0324999999999999872 0 0 0 0 3.1720492649078369
-0.0500000000000000028 0.0399999999999999939 0 0 0 0 1.9838436632156371
-0.0425000000000000031 0.0399999999999999939 0 0 0 0 2.09230539131164539
-0.0350000000000000033 0.0399999999999999939 0 0 0 0 2.1192070732116699
-0.0275000000000000036 0.0399999999999999939 0 0 0 0 1.98395406913757322
-0.0200000000000000039 0.0399999999999999939 0 0 0 0 1.84242381095886221
-0.0125000000000000042 0.0399999999999999939 0 0 0 0 1.74226521968841563
-0.00500000000000000444 0.0399999999999999939 0 0 0 0 1.7292252712249756
0.00249999999999999528 0.0399999999999999939 0 0 0 0 1.67027682399749766
0.009999999999999995 0.0399999999999999939 0 0 0 0 1.8286235036849976
0.0175000000000000017 0.0399999999999999939 0 0 0 0 2.08172314548492432
0.0249999999999999944 0.0399999999999999939 0 0 0 0 2.27209646797180165
0.0324999999999999872 0.0399999999999999939 0 0 0 0 2.37487386322021488
0.0399999999999999939 0.0399999999999999939 0 0 0 0 2.49854772567749039
0.0475000000000000006 0.0399999999999999939 0 0 0 0 2.84785071754455554
-0.0500000000000000028 0.0475000000000000006 0 0 0 0 2.4642943181991579
-0.0425000000000000031 0.0475000000000000006 0 0 0 0 2.52795965003967282
-0.0350000000000000033 0.0475000000000000006 0 0 0 0 2.48437565231323232
-0.0275000000000000036 0.0475000000000000006 0 0 0 0 2.2105151615142824
-0.0200000000000000039 0.0475000000000000006 0 0 0 0 1.92500580787658682
-0.0125000000000000042 0.0475000000000000006 0 0 0 0 1.90046239471435552
-0.00500000000000000444 0.0475000000000000006 0 0 0 0 1.81091777229309092
0.00249999999999999528 0.0475000000000000006 0 0 0 0 1.70797482013702395
0.009999999999999995 0.0475000000000000006 0 0 0 0 1.61962853145599373
0.0175000000000000017 0.0475000000000000006 0 0 0 0 1.7145201263427734
0.0249999999999999944 0.0475000000000000006 0 0 0 0 2.10950820922851578
0.0324999999999999872 0.0475000000000000006 0 0 0 0 2.33117456436157244
0.0399999999999999939 0.0475000000000000006 0 0 0 0 2.44302502059936533
0.0475000000000000006 0.0475000000000000006 0 0 0 0 2.48596123886108389
4 0 1 15 14
4 1 2 16 15
4 2 3 17 16
4 3 4 18 17
4 4 5 19 18
4 5 6 20 19
4 6 7 21 20
4 7 8 22 21
4 8 9 23 22
4 9 10 24 23
4 10 11 25 24
4 11 12 26 25
4 12 13 27 26
4 14 15 29 28
4 15 16 30 29
4 16 17 31 30
4 17 18 32 31
4 18 19 33 32
4 19 20 34 33
4 20 21 35 34
4 21 22 36 35
4 22 23 37 36
4 23 24 38 37
4 24 25 39 38
4 25 26 40 39
4 26 27 41 40
4 28 29 43 42
4 29 30 44 43
4 30 31 45 44
4 31 32 46 45
4 32 33 47 46
4 33 34 48 47
4 34 35 49 48
4 35 36 50 49
4 36 37 51 50
4 37 38 52 51
4 38 39 53 52
4 39 40 54 53
4 40 41 55 54
4 42 43 57 56
4 43 44 58 57
4 44 45 59 58
4 45 46 60 59
4 46 47 61 60
4 47 48 62 61
4 48 49 63 62
4 49 50 64 63
4 50 51 65 64
4 51 52 66 65
4 52 53 67 66
4 53 54 68 67
4 54 55 69 68
4 56 57 71 70
4 57 58 72 71
4 58 59 73 72
4 59 60 74 73
4 60 61 75 74
4 61 62 76 75
4 62 63 77 76
4 63 64 78 77
4 64 65 79 78
4 65 66 80 79
4 66 67 81 80
4 67 68 82 81
4 68 69 83 82
4 70 71 85 84
4 71 72 86 85
4 72 73 87 86
4 73 74 88 87
4 74 75 89 88
4 75 76 90 89
4 76 77 91 90
4 77 78 92 91
4 78 79 93 92
4 79 80 94 93
4 80 81 95 94
4 81 82 96 95
4 82 83 97 96
4 84 85 99 98
4 85 86 100 99
4 86 87 101 100
4 87 88 102 101
4 88 89 103 102
4 89 90 104 103
4 90 91 105 104
4 91 92 106 105
4 92 93 107 106
4 93 94 108 107
4 94 95 109 108
4 95 96 110 109
4 96 97 111 110
4 98 99 113 112
4 99 100 114 113
4 100 101 115 114
4 101 102 116 115
4 102 103 117 116
4 103 104 118 117
4 104 105 119 118
4 105 106 120 119
4 106 107 121 120
4 107 108 122 121
4 108 109 123 122
4 109 110 124 123
4 110 111 125 124
4 112 113 127 126
4 113 114 128 127
4 114 115 129 128
4 115 116 130 129
4 116 117 131 130
4 117 118 132 131
4 118 119 133 132
4 119 120 134 133
4 120 121 135 134
4 121 122 136 135
4 122 123 137 136
4 123 124 138 137
4 124 125 139 138
4 126 127 141 140
4 127 128 142 141
4 128 129 143 142
4 129 130 144 143
4 130 131 145 144
4 131 132 146 145
4 132 133 147 146
4 133 134 148 147
4 134 135 149 148
4 135 136 150 149
4 136 137 151 150
4 137 138 152 151
4 138 139 153 152
4 140 141 155 154
4 141 142 156 155
4 142 143 157 156
4 143 144 158 157
4 144 145 159 158
4 145 146 160 159
4 146 147 161 160
4 147 148 162 161
4 148 149 163 162
4 149 150 164 163
4 150 151 165 164
4 151 152 166 165
4 152 153 167 166
4 154 155 169 168
4 155 156 170 169
4 156 157 171 170
4 157 158 172 171
4 158 159 173 172
4 159 160 174 173
4 160 161 175 174
4 161 162 176 175
4 162 163 177 176
4 163 164 178 177
4 164 165 179 178
4 165 166 180 179
4 166 167 181 180
4 168 169 183 182
4 169 170 184 183
4 170 171 185 184
4 171 172 186 185
4 172 173 187 186
4 173 174 188 187
4 174 175 189 188
4 175 176 190 189
4 176 177 191 190
4 177 178 192 191
4 178 179 193 192
4 179 180 194 193
4 180 181 195 194
