ply
format ascii 1.0
element vertex 676
property double x
property double y
property double z
property double vx
property double vy
property double vz
property double s
element face 625
property list uchar int vertex_indices
end_header
-9 -9 0 0 0 0 21.567323806762694
-8.25 -9 0 0 0 0 16.0541491699218746
-7.5 -9 0 0 0 0 11.2647914619445793
-6.75 -9 0 0 0 0 7.70692608642578136
-6 -9 0 0 0 0 5.65279051971435553
-5.25 -9 0 0 0 0 3.71028682518005359
-4.5 -9 0 0 0 0 2.49565526771545398
-3.75 -9 0 0 0 0 1.64241962432861333
-3 -9 0 0 0 0 1.18760830116271965
-2.25 -9 0 0 0 0 0.90790915632247926
-1.5 -9 0 0 0 0 0.734603682041168216
-0.75 -9 0 0 0 0 0.610684075593948328
0 -9 0 0 0 0 0.521699103832244826
0.75 -9 0 0 0 0 0.512237607479095414
1.5 -9 0 0 0 0 0.507123627185821491
2.25 -9 0 0 0 0 0.51239267802238464
3 -9 0 0 0 0 0.484651521444320665
3.75 -9 0 0 0 0 0.449663684368133532
4.5 -9 0 0 0 0 0.449930723905563379
5.25 -9 0 0 0 0 0.430579092502594019
6 -9 0 0 0 0 0.426854290962219218
6.75 -9 0 0 0 0 0.432535636186599737
7.5 -9 0 0 0 0 0.432223621606826758
8.25 -9 0 0 0 0 0.441544929265975938
9 -9 0 0 0 0 0.459470639467239372
9.75 -9 0 0 0 0 0.482331815719604484
-9 -8.25 0 0 0 0 19.1699129104614272
-8.25 -8.25 0 0 0 0 13.5506332168579107
-7.5 -8.25 0 0 0 0 9.97574005508422879
-6.75 -8.25 0 0 0 0 7.13536802291870131
-6 -8.25 0 0 0 0 4.86312321472167941
-5.25 -8.25 0 0 0 0 3.24411102294921871
-4.5 -8.25 0 0 0 0 2.02374987316131572
-3.75 -8.25 0 0 0 0 1.37123314619064329
-3 -8.25 0 0 0 0 0.969160381317138664
-2.25 -8.25 0 0 0 0 0.742509661197662374
-1.5 -8.25 0 0 0 0 0.665077759265899626
-0.75 -8.25 0 0 0 0 0.551806935071945226
0 -8.25 0 0 0 0 0.470020558357238771
0.75 -8.25 0 0 0 0 0.423662519931793213
1.5 -8.25 0 0 0 0 0.408827442884445169
2.25 -8.25 0 0 0 0 0.395681252479553214
3 -8.25 0 0 0 0 0.396833731651306143
3.75 -8.25 0 0 0 0 0.395613056421279918
4.5 -8.25 0 0 0 0 0.387860907077789308
5.25 -8.25 0 0 0 0 0.399046977758407584
6 -8.25 0 0 0 0 0.384918628215789815
6.75 -8.25 0 0 0 0 0.391989913463592521
7.5 -8.25 0 0 0 0 0.400345823049545302
8.25 -8.25 0 0 0 0 0.422669160842895519
9 -8.25 0 0 0 0 0.436513418674468967
9.75 -8.25 0 0 0 0 0.460433850765228248
-9 -7.5 0 0 0 0 16.0783527603149423
-8.25 -7.5 0 0 0 0 11.9441910629272456
-7.5 -7.5 0 0 0 0 8.84298484039306665
-6.75 -7.5 0 0 0 0 6.0878050041198728
-6 -7.5 0 0 0 0 4.14337048721313472
-5.25 -7.5 0 0 0 0 2.67428016948699954
-4.5 -7.5 0 0 0 0 1.67875287389755257
-3.75 -7.5 0 0 0 0 1.11006669044494632
-3 -7.5 0 0 0 0 0.82418879604339601
-2.25 -7.5 0 0 0 0 0.692448211669921876
-1.5 -7.5 0 0 0 0 0.547549172639846815
-0.75 -7.5 0 0 0 0 0.487982207298278792
0 -7.5 0 0 0 0 0.41358948683738711
0.75 -7.5 0 0 0 0 0.376301638126373295
1.5 -7.5 0 0 0 0 0.341491490483283977
2.25 -7.5 0 0 0 0 0.345815526127815243
3 -7.5 0 0 0 0 0.351500712275505056
3.75 -7.5 0 0 0 0 0.33833250987529756
4.5 -7.5 0 0 0 0 0.347015535831451394
5.25 -7.5 0 0 0 0 0.346031963348388649
6 -7.5 0 0 0 0 0.347143805265426653
6.75 -7.5 0 0 0 0 0.359442017316818241
7.5 -7.5 0 0 0 0 0.36982071089744567
8.25 -7.5 0 0 0 0 0.390580759763717644
9 -7.5 0 0 0 0 0.414518844842910794
9.75 -7.5 0 0 0 0 0.446325278282165505
-9 -6.75 0 0 0 0 13.9160369186401365
-8.25 -6.75 0 0 0 0 9.96468542098999066
-7.5 -6.75 0 0 0 0 7.27229223632812527
-6.75 -6.75 0 0 0 0 5.02070242118835441
-6 -6.75 0 0 0 0 3.38775543403625479
-5.25 -6.75 0 0 0 0 2.35568757057189959
-4.5 -6.75 0 0 0 0 1.44634693431854244
-3.75 -6.75 0 0 0 0 0.885834327697753943
-3 -6.75 0 0 0 0 0.727057856559753413
-2.25 -6.75 0 0 0 0 0.572587795972824054
-1.5 -6.75 0 0 0 0 0.491249621868133535
-0.75 -6.75 0 0 0 0 0.412514137268066405
0 -6.75 0 0 0 0 0.35227216005325318
0.75 -6.75 0 0 0 0 0.317889650225639364
1.5 -6.75 0 0 0 0 0.291424197077751135
2.25 -6.75 0 0 0 0 0.289379031658172581
3 -6.75 0 0 0 0 0.289334166884422317
3.75 -6.75 0 0 0 0 0.303699736237525941
4.5 -6.75 0 0 0 0 0.28659119296073915
5.25 -6.75 0 0 0 0 0.294343237400054913
6 -6.75 0 0 0 0 0.316805928349494947
6.75 -6.75 0 0 0 0 0.336962588906288163
7.5 -6.75 0 0 0 0 0.345889021754264836
8.25 -6.75 0 0 0 0 0.371990981340408311
9 -6.75 0 0 0 0 0.387048418760299662
9.75 -6.75 0 0 0 0 0.433145082235336321
-9 -6 0 0 0 0 11.9912392196655269
-8.25 -6 0 0 0 0 8.520503429412841
-7.5 -6 0 0 0 0 6.15025714492797881
-6.75 -6 0 0 0 0 4.33235806465148965
-6 -6 0 0 0 0 2.84008990287780749
-5.25 -6 0 0 0 0 1.86529476070404043
-4.5 -6 0 0 0 0 1.16581345081329335
-3.75 -6 0 0 0 0 0.768263002634048453
-3 -6 0 0 0 0 0.625896422624588
-2.25 -6 0 0 0 0 0.524092742681503299
-1.5 -6 0 0 0 0 0.439925677776336677
-0.75 -6 0 0 0 0 0.357082771658897402
0 -6 0 0 0 0 0.319115209817886325
0.75 -6 0 0 0 0 0.280019125699996929
1.5 -6 0 0 0 0 0.253494943797588357
2.25 -6 0 0 0 0 0.245018888056278222
3 -6 0 0 0 0 0.241666648626327502
3.75 -6 0 0 0 0 0.258720914006233205
4.5 -6 0 0 0 0 0.260286363720893865
5.25 -6 0 0 0 0 0.276242378473281869
6 -6 0 0 0 0 0.291678207874298101
6.75 -6 0 0 0 0 0.307638918280601525
7.5 -6 0 0 0 0 0.335686120033264146
8.25 -6 0 0 0 0 0.351470383167266864
9 -6 0 0 0 0 0.376062321662902821
9.75 -6 0 0 0 0 0.409779046297073346
-9 -5.25 0 0 0 0 10.5510855941772466
-8.25 -5.25 0 0 0 0 7.07243959045410175
-7.5 -5.25 0 0 0 0 5.14328659152984624
-6.75 -5.25 0 0 0 0 3.56906825637817393
-6 -5.25 0 0 0 0 2.20518164730072019
-5.25 -5.25 0 0 0 0 1.45409439945220953
-4.5 -5.25 0 0 0 0 0.925039099216461214
-3.75 -5.25 0 0 0 0 0.662622499465942427
-3 -5.25 0 0 0 0 0.483422325491905225
-2.25 -5.25 0 0 0 0 0.447205116033554062
-1.5 -5.25 0 0 0 0 0.383679521203041052
-0.75 -5.25 0 0 0 0 0.323492768526077279
0 -5.25 0 0 0 0 0.273646939992904681
0.75 -5.25 0 0 0 0 0.236563657939434041
1.5 -5.25 0 0 0 0 0.220833611369132987
2.25 -5.25 0 0 0 0 0.202017395436763753
3 -5.25 0 0 0 0 0.203061820745468136
3.75 -5.25 0 0 0 0 0.220549096584320065
4.5 -5.25 0 0 0 0 0.230224188923835754
5.25 -5.25 0 0 0 0 0.263773976087570194
6 -5.25 0 0 0 0 0.275622145175933864
6.75 -5.25 0 0 0 0 0.29519782900810243
7.5 -5.25 0 0 0 0 0.318971233129501319
8.25 -5.25 0 0 0 0 0.349962490797042836
9 -5.25 0 0 0 0 0.368761532783508317
9.75 -5.25 0 0 0 0 0.394609323978424076
-9 -4.5 0 0 0 0 8.62929552078247042
-8.25 -4.5 0 0 0 0 6.12222049331665019
-7.5 -4.5 0 0 0 0 4.31318399620056159
-6.75 -4.5 0 0 0 0 2.94384594345092765
-6 -4.5 0 0 0 0 1.90116808891296385
-5.25 -4.5 0 0 0 0 1.23461085224151601
-4.5 -4.5 0 0 0 0 0.749166647911071792
-3.75 -4.5 0 0 0 0 0.532483777284622151
-3 -4.5 0 0 0 0 0.424281809091567985
-2.25 -4.5 0 0 0 0 0.383141479611396774
-1.5 -4.5 0 0 0 0 0.334312571048736573
-0.75 -4.5 0 0 0 0 0.271906185984611526
0 -4.5 0 0 0 0 0.233264524579048144
0.75 -4.5 0 0 0 0 0.183173158586025231
1.5 -4.5 0 0 0 0 0.165189632892608629
2.25 -4.5 0 0 0 0 0.161843294799327853
3 -4.5 0 0 0 0 0.17518614649772643
3.75 -4.5 0 0 0 0 0.192947661876678472
4.5 -4.5 0 0 0 0 0.208391932249069212
5.25 -4.5 0 0 0 0 0.235460780024528499
6 -4.5 0 0 0 0 0.271230665922164937
6.75 -4.5 0 0 0 0 0.291074341773986833
7.5 -4.5 0 0 0 0 0.30348489022254943
8.25 -4.5 0 0 0 0 0.33270470905303956
9 -4.5 0 0 0 0 0.358624574661254858
9.75 -4.5 0 0 0 0 0.390770975589752212
-9 -3.75 0 0 0 0 7.3723353710174564
-8.25 -3.75 0 0 0 0 5.17470938873290986
-7.5 -3.75 0 0 0 0 3.80850695514678961
-6.75 -3.75 0 0 0 0 2.42728904342651353
-6 -3.75 0 0 0 0 1.50102291011810296
-5.25 -3.75 0 0 0 0 0.983564629554748548
-4.5 -3.75 0 0 0 0 0.631720593214035064
-3.75 -3.75 0 0 0 0 0.462302938342094405
-3 -3.75 0 0 0 0 0.348420384883880607
-2.25 -3.75 0 0 0 0 0.281540295481681802
-1.5 -3.75 0 0 0 0 0.242724299669265758
-0.75 -3.75 0 0 0 0 0.204021020948886883
0 -3.75 0 0 0 0 0.154706676110625274
0.75 -3.75 0 0 0 0 0.139275749981403352
1.5 -3.75 0 0 0 0 0.120496434658765791
2.25 -3.75 0 0 0 0 0.125967894554138177
3 -3.75 0 0 0 0 0.144186899900436399
3.75 -3.75 0 0 0 0 0.173366969585418695
4.5 -3.75 0 0 0 0 0.189794790267944324
5.25 -3.75 0 0 0 0 0.235472278952598563
6 -3.75 0 0 0 0 0.250761297702789321
6.75 -3.75 0 0 0 0 0.27620588123798373
7.5 -3.75 0 0 0 0 0.304023919820785526
8.25 -3.75 0 0 0 0 0.330625158786773676
9 -3.75 0 0 0 0 0.349755994796752956
9.75 -3.75 0 0 0 0 0.381746486425399767
-9 -3 0 0 0 0 5.70166066551208495
-8.25 -3 0 0 0 0 4.28237046623230011
-7.5 -3 0 0 0 0 3.28818114662170391
-6.75 -3 0 0 0 0 2.10979044818878192
-6 -3 0 0 0 0 1.32864662361145025
-5.25 -3 0 0 0 0 0.833137104511260995
-4.5 -3 0 0 0 0 0.539399681329727154
-3.75 -3 0 0 0 0 0.376088903665542595
-3 -3 0 0 0 0 0.283515623986721033
-2.25 -3 0 0 0 0 0.228112000226974476
-1.5 -3 0 0 0 0 0.161067464783787723
-0.75 -3 0 0 0 0 0.128639759115874774
0 -3 0 0 0 0 0.103125833854079252
0.75 -3 0 0 0 0 0.0896480527445673997
1.5 -3 0 0 0 0 0.0896319310441613254
2.25 -3 0 0 0 0 0.0961836508512496913
3 -3 0 0 0 0 0.122800908863544458
3.75 -3 0 0 0 0 0.148085513114929207
4.5 -3 0 0 0 0 0.184208280622959131
5.25 -3 0 0 0 0 0.219191397428512569
6 -3 0 0 0 0 0.249065227508544929
6.75 -3 0 0 0 0 0.271381111860275248
7.5 -3 0 0 0 0 0.296960830092430128
8.25 -3 0 0 0 0 0.336320120811462397
9 -3 0 0 0 0 0.353661112546920786
9.75 -3 0 0 0 0 0.376749024868011484
-9 -2.25 0 0 0 0 4.43380876922607392
-8.25 -2.25 0 0 0 0 3.30510396480560287
-7.5 -2.25 0 0 0 0 2.31063128185272237
-6.75 -2.25 0 0 0 0 1.59958722400665287
-6 -2.25 0 0 0 0 1.05257964372634882
-5.25 -2.25 0 0 0 0 0.652887005448341329
-4.5 -2.25 0 0 0 0 0.407927662491798404
-3.75 -2.25 0 0 0 0 0.290320999979972849
-3 -2.25 0 0 0 0 0.220766721546649947
-2.25 -2.25 0 0 0 0 0.155449816003441821
-1.5 -2.25 0 0 0 0 0.11639942547678947
-0.75 -2.25 0 0 0 0 0.0890849271491169908
0 -2.25 0 0 0 0 0.0660619735345244347
0.75 -2.25 0 0 0 0 0.0597154562473297124
1.5 -2.25 0 0 0 0 0.0615716241523623434
2.25 -2.25 0 0 0 0 0.0790746363773942029
3 -2.25 0 0 0 0 0.109939978480339054
3.75 -2.25 0 0 0 0 0.142706819653511036
4.5 -2.25 0 0 0 0 0.175335112035274493
5.25 -2.25 0 0 0 0 0.21651873350143433
6 -2.25 0 0 0 0 0.241893651247024527
6.75 -2.25 0 0 0 0 0.271872394800186157
7.5 -2.25 0 0 0 0 0.307245187044143664
8.25 -2.25 0 0 0 0 0.333454657077789318
9 -2.25 0 0 0 0 0.35150884032249452
9.75 -2.25 0 0 0 0 0.38298214864730834
-9 -1.5 0 0 0 0 3.52984754085540775
-8.25 -1.5 0 0 0 0 2.52794111537933341
-7.5 -1.5 0 0 0 0 1.67704296684265142
-6.75 -1.5 0 0 0 0 1.29911075401306153
-6 -1.5 0 0 0 0 0.807609296083450334
-5.25 -1.5 0 0 0 0 0.529440896511077841
-4.5 -1.5 0 0 0 0 0.34367540848255157
-3.75 -1.5 0 0 0 0 0.240152483344078072
-3 -1.5 0 0 0 0 0.167826638609170908
-2.25 -1.5 0 0 0 0 0.118988545887172226
-1.5 -1.5 0 0 0 0 0.0834980519805103572
-0.75 -1.5 0 0 0 0 0.0606288606040179742
0 -1.5 0 0 0 0 0.0442144867442548287
0.75 -1.5 0 0 0 0 0.0417763087605126232
1.5 -1.5 0 0 0 0 0.049833329584449533
2.25 -1.5 0 0 0 0 0.0659423119723796802
3 -1.5 0 0 0 0 0.0998504221141338355
3.75 -1.5 0 0 0 0 0.134077081501483925
4.5 -1.5 0 0 0 0 0.174061441659927374
5.25 -1.5 0 0 0 0 0.203759233593940742
6 -1.5 0 0 0 0 0.238233708024024965
6.75 -1.5 0 0 0 0 0.280680720806121831
7.5 -1.5 0 0 0 0 0.306531716346740701
8.25 -1.5 0 0 0 0 0.34252468705177308
9 -1.5 0 0 0 0 0.349650067329406733
9.75 -1.5 0 0 0 0 0.388242179632186879
-9 -0.75 0 0 0 0 2.66497068691253647
-8.25 -0.75 0 0 0 0 1.82713550233840949
-7.5 -0.75 0 0 0 0 1.37056949949264517
-6.75 -0.75 0 0 0 0 0.864591015696525522
-6 -0.75 0 0 0 0 0.592841552972793617
-5.25 -0.75 0 0 0 0 0.395948109984397889
-4.5 -0.75 0 0 0 0 0.281113143086433426
-3.75 -0.75 0 0 0 0 0.193260376453399663
-3 -0.75 0 0 0 0 0.141497065782547005
-2.25 -0.75 0 0 0 0 0.0885895187947899065
-1.5 -0.75 0 0 0 0 0.0523389210840687139
-0.75 -0.75 0 0 0 0 0.0345007891543209558
0 -0.75 0 0 0 0 0.0348337318068370205
0.75 -0.75 0 0 0 0 0.0374521601926535372
1.5 -0.75 0 0 0 0 0.0442647903561592115
2.25 -0.75 0 0 0 0 0.0651652920246124229
3 -0.75 0 0 0 0 0.103417619258165366
3.75 -0.75 0 0 0 0 0.14045196402072907
4.5 -0.75 0 0 0 0 0.185062101542949664
5.25 -0.75 0 0 0 0 0.221019577622413643
6 -0.75 0 0 0 0 0.254024376869201651
6.75 -0.75 0 0 0 0 0.282747994422912596
7.5 -0.75 0 0 0 0 0.324682600021362289
8.25 -0.75 0 0 0 0 0.350974807262420641
9 -0.75 0 0 0 0 0.393632738351821887
9.75 -0.75 0 0 0 0 0.411604684114456165
-9 0 0 0 0 0 2.18542525577545188
-8.25 0 0 0 0 0 1.50436087226867676
-7.5 0 0 0 0 0 1.07355752778053293
-6.75 0 0 0 0 0 0.70789605736732486
-6 0 0 0 0 0 0.482521243333816519
-5.25 0 0 0 0 0 0.337637439250946025
-4.5 0 0 0 0 0 0.256008406996727
-3.75 0 0 0 0 0 0.178653644740581513
-3 0 0 0 0 0 0.109344656191766268
-2.25 0 0 0 0 0 0.0701261009648442291
-1.5 0 0 0 0 0 0.0444808555622585103
-0.75 0 0 0 0 0 0.0375033334530889967
0 0 0 0 0 0 0.0334583324361592549
0.75 0 0 0 0 0 0.0287938329670578246
1.5 0 0 0 0 0 0.0506019284576177605
2.25 0 0 0 0 0 0.0709517169594764685
3 0 0 0 0 0 0.105426929086446769
3.75 0 0 0 0 0 0.152304500818252558
4.5 0 0 0 0 0 0.199755738496780383
5.25 0 0 0 0 0 0.227813883423805236
6 0 0 0 0 0 0.261081183433532704
6.75 0 0 0 0 0 0.306176280021667468
7.5 0 0 0 0 0 0.350463446140289292
8.25 0 0 0 0 0 0.382658404588699319
9 0 0 0 0 0 0.42029270505905153
9.75 0 0 0 0 0 0.452242996215820314
-9 0.75 0 0 0 0 1.67086348199844359
-8.25 0.75 0 0 0 0 1.19062045574188224
-7.5 0.75 0 0 0 0 0.889645244121551548
-6.75 0.75 0 0 0 0 0.607902070045471143
-6 0.75 0 0 0 0 0.415648372530937171
-5.25 0.75 0 0 0 0 0.3131031539440155
-4.5 0.75 0 0 0 0 0.232467667341232309
-3.75 0.75 0 0 0 0 0.165629682898521424
-3 0.75 0 0 0 0 0.113402681052684778
-2.25 0.75 0 0 0 0 0.0698638703599572114
-1.5 0.75 0 0 0 0 0.0496163596380502017
-0.75 0.75 0 0 0 0 0.0409327966216951611
0 0.75 0 0 0 0 0.0373433750793337807
0.75 0.75 0 0 0 0 0.0482207446470856657
1.5 0.75 0 0 0 0 0.0639536370486021022
2.25 0.75 0 0 0 0 0.0863153096437454248
3 0.75 0 0 0 0 0.129170621335506441
3.75 0.75 0 0 0 0 0.172214030504226678
4.5 0.75 0 0 0 0 0.21911208081245423
5.25 0.75 0 0 0 0 0.256787449717521654
6 0.75 0 0 0 0 0.29751848649978635
6.75 0.75 0 0 0 0 0.347038205146789569
7.5 0.75 0 0 0 0 0.398809537649154666
8.25 0.75 0 0 0 0 0.434828536272048927
9 0.75 0 0 0 0 0.473665435314178485
9.75 0.75 0 0 0 0 0.489916332960128764
-9 1.5 0 0 0 0 1.60391796398162834
-8.25 1.5 0 0 0 0 1.07208034324646007
-7.5 1.5 0 0 0 0 0.794812449693679812
-6.75 1.5 0 0 0 0 0.5544301044940948
-6 1.5 0 0 0 0 0.407703014135360697
-5.25 1.5 0 0 0 0 0.315296202242374424
-4.5 1.5 0 0 0 0 0.244667055189609517
-3.75 1.5 0 0 0 0 0.151324093043804175
-3 1.5 0 0 0 0 0.111039439320564273
-2.25 1.5 0 0 0 0 0.0767762119770050017
-1.5 1.5 0 0 0 0 0.0584080814644694357
-0.75 1.5 0 0 0 0 0.0517167978845536683
0 1.5 0 0 0 0 0.0534410693719983079
0.75 1.5 0 0 0 0 0.0684506648778915455
1.5 1.5 0 0 0 0 0.0802474873960018209
2.25 1.5 0 0 0 0 0.120424569547176355
3 1.5 0 0 0 0 0.16091027331352234
3.75 1.5 0 0 0 0 0.204807754158973704
4.5 1.5 0 0 0 0 0.245186897397041331
5.25 1.5 0 0 0 0 0.299121560096740735
6 1.5 0 0 0 0 0.347247197389602635
6.75 1.5 0 0 0 0 0.393029501914978041
7.5 1.5 0 0 0 0 0.432362162351608292
8.25 1.5 0 0 0 0 0.481978476047515869
9 1.5 0 0 0 0 0.503593992233276389
9.75 1.5 0 0 0 0 0.52037544012069703
-9 2.25 0 0 0 0 1.4351899864673614
-8.25 2.25 0 0 0 0 0.97044429469108584
-7.5 2.25 0 0 0 0 0.743995752811431932
-6.75 2.25 0 0 0 0 0.532470618724823042
-6 2.25 0 0 0 0 0.384744657397270207
-5.25 2.25 0 0 0 0 0.294822661936283092
-4.5 2.25 0 0 0 0 0.22063979476690293
-3.75 2.25 0 0 0 0 0.186187923014163981
-3 2.25 0 0 0 0 0.13340212213248015
-2.25 2.25 0 0 0 0 0.10065587896108627
-1.5 2.25 0 0 0 0 0.0816566697657108292
-0.75 2.25 0 0 0 0 0.0816388893425464696
0 2.25 0 0 0 0 0.0793750363439321566
0.75 2.25 0 0 0 0 0.105571452528238297
1.5 2.25 0 0 0 0 0.128489483475685118
2.25 2.25 0 0 0 0 0.16012382644414902
3 2.25 0 0 0 0 0.200461980104446408
3.75 2.25 0 0 0 0 0.245544956326484681
4.5 2.25 0 0 0 0 0.292274531126022363
5.25 2.25 0 0 0 0 0.335622682332992528
6 2.25 0 0 0 0 0.395218170881271369
6.75 2.25 0 0 0 0 0.438382456541061394
7.5 2.25 0 0 0 0 0.466695386171340931
8.25 2.25 0 0 0 0 0.49871033358573913
9 2.25 0 0 0 0 0.530638349056243852
9.75 2.25 0 0 0 0 0.540170078277587895
-9 3 0 0 0 0 1.42202734327316294
-8.25 3 0 0 0 0 0.981581089735031109
-7.5 3 0 0 0 0 0.6725089423656464
-6.75 3 0 0 0 0 0.483084841370582607
-6 3 0 0 0 0 0.401301276803016638
-5.25 3 0 0 0 0 0.323326154232025154
-4.5 3 0 0 0 0 0.271678816497325892
-3.75 3 0 0 0 0 0.205911868780851354
-3 3 0 0 0 0 0.177509413242340097
-2.25 3 0 0 0 0 0.138594329655170434
-1.5 3 0 0 0 0 0.13443644577264785
-0.75 3 0 0 0 0 0.112477398663759234
0 3 0 0 0 0 0.126897791534662241
0.75 3 0 0 0 0 0.147115898966789255
1.5 3 0 0 0 0 0.189258180737495424
2.25 3 0 0 0 0 0.220763751745224002
3 3 0 0 0 0 0.256080850839614849
3.75 3 0 0 0 0 0.29965632581710816
4.5 3 0 0 0 0 0.330591032266616847
5.25 3 0 0 0 0 0.371459877967834473
6 3 0 0 0 0 0.419832970857620225
6.75 3 0 0 0 0 0.470013784170150772
7.5 3 0 0 0 0 0.503810864448547391
8.25 3 0 0 0 0 0.525747947216033906
9 3 0 0 0 0 0.541170320510864222
9.75 3 0 0 0 0 0.553852738857269267
-9 3.75 0 0 0 0 1.32716209077835079
-8.25 3.75 0 0 0 0 0.85129504108428955
-7.5 3.75 0 0 0 0 0.691525069236755385
-6.75 3.75 0 0 0 0 0.532630442857742303
-6 3.75 0 0 0 0 0.42077304768562318
-5.25 3.75 0 0 0 0 0.373497077345848083
-4.5 3.75 0 0 0 0 0.314089676260948192
-3.75 3.75 0 0 0 0 0.266958547353744524
-3 3.75 0 0 0 0 0.224512065410614026
-2.25 3.75 0 0 0 0 0.181937618851661681
-1.5 3.75 0 0 0 0 0.163376064658164982
-0.75 3.75 0 0 0 0 0.170469609320163723
0 3.75 0 0 0 0 0.179525767505168909
0.75 3.75 0 0 0 0 0.189287119925022118
1.5 3.75 0 0 0 0 0.23740923655033111
2.25 3.75 0 0 0 0 0.276270918965339674
3 3.75 0 0 0 0 0.318738614320755009
3.75 3.75 0 0 0 0 0.357557161092758202
4.5 3.75 0 0 0 0 0.380726235866546636
5.25 3.75 0 0 0 0 0.42063541603088378
6 3.75 0 0 0 0 0.448637480735778804
6.75 3.75 0 0 0 0 0.489164458751678466
7.5 3.75 0 0 0 0 0.506929273843765293
8.25 3.75 0 0 0 0 0.533064203739166298
9 3.75 0 0 0 0 0.561899523258209244
9.75 3.75 0 0 0 0 0.554449186801910354
-9 4.5 0 0 0 0 1.27725017404556285
-8.25 4.5 0 0 0 0 0.887897772073745761
-7.5 4.5 0 0 0 0 0.651872777223587052
-6.75 4.5 0 0 0 0 0.510993684291839556
-6 4.5 0 0 0 0 0.462118182182311987
-5.25 4.5 0 0 0 0 0.399267424821853623
-4.5 4.5 0 0 0 0 0.367606406807899466
-3.75 4.5 0 0 0 0 0.331466852307319648
-3 4.5 0 0 0 0 0.282674265742301922
-2.25 4.5 0 0 0 0 0.233205150365829478
-1.5 4.5 0 0 0 0 0.215685375094413767
-0.75 4.5 0 0 0 0 0.216730067014694217
0 4.5 0 0 0 0 0.228158297181129455
0.75 4.5 0 0 0 0 0.259037491083145166
1.5 4.5 0 0 0 0 0.301261991858482348
2.25 4.5 0 0 0 0 0.333134471178054836
3 4.5 0 0 0 0 0.372995172500610372
3.75 4.5 0 0 0 0 0.402253676891326906
4.5 4.5 0 0 0 0 0.423389649152755732
5.25 4.5 0 0 0 0 0.452386521577835099
6 4.5 0 0 0 0 0.48719810199737551
6.75 4.5 0 0 0 0 0.501045226812362632
7.5 4.5 0 0 0 0 0.51647095441818236
8.25 4.5 0 0 0 0 0.536985117912292531
9 4.5 0 0 0 0 0.555229084491729696
9.75 4.5 0 0 0 0 0.570155133247375434
-9 5.25 0 0 0 0 1.33256775856018073
-8.25 5.25 0 0 0 0 0.832407755136489902
-7.5 5.25 0 0 0 0 0.665546869039535527
-6.75 5.25 0 0 0 0 0.528240534067153877
-6 5.25 0 0 0 0 0.49167826557159422
-5.25 5.25 0 0 0 0 0.460612891912460354
-4.5 5.25 0 0 0 0 0.418814855337142966
-3.75 5.25 0 0 0 0 0.380719203591346755
-3 5.25 0 0 0 0 0.325776079416275011
-2.25 5.25 0 0 0 0 0.286379289627075206
-1.5 5.25 0 0 0 0 0.276619727373123181
-0.75 5.25 0 0 0 0 0.263020312786102273
0 5.25 0 0 0 0 0.284453072547912578
0.75 5.25 0 0 0 0 0.319962064504623389
1.5 5.25 0 0 0 0 0.351088746309280386
2.25 5.25 0 0 0 0 0.387329925298690814
3 5.25 0 0 0 0 0.417427258968353254
3.75 5.25 0 0 0 0 0.43829569792747497
4.5 5.25 0 0 0 0 0.455161289215087916
5.25 5.25 0 0 0 0 0.477836249351501485
6 5.25 0 0 0 0 0.500131511688232444
6.75 5.25 0 0 0 0 0.523477297782897977
7.5 5.25 0 0 0 0 0.541563855171203645
8.25 5.25 0 0 0 0 0.547069830894470255
9 5.25 0 0 0 0 0.55950074720382692
9.75 5.25 0 0 0 0 0.575924486637115485
-9 6 0 0 0 0 1.20220234251022329
-8.25 6 0 0 0 0 0.846202550411224386
-7.5 6 0 0 0 0 0.633576752424240164
-6.75 6 0 0 0 0 0.534629693627357461
-6 6 0 0 0 0 0.52236025047302248
-5.25 6 0 0 0 0 0.499968425035476671
-4.5 6 0 0 0 0 0.480269252061843899
-3.75 6 0 0 0 0 0.424362979412078845
-3 6 0 0 0 0 0.367274272918701183
-2.25 6 0 0 0 0 0.330741974234581015
-1.5 6 0 0 0 0 0.309660238504409768
-0.75 6 0 0 0 0 0.30453086757659914
0 6 0 0 0 0 0.317618538618087753
0.75 6 0 0 0 0 0.356120237827301012
1.5 6 0 0 0 0 0.401008683919906628
2.25 6 0 0 0 0 0.433125982284545907
3 6 0 0 0 0 0.44926871371269228
3.75 6 0 0 0 0 0.467972683429718039
4.5 6 0 0 0 0 0.491964987754821781
5.25 6 0 0 0 0 0.508846606731414797
6 6 0 0 0 0 0.52095192956924441
6.75 6 0 0 0 0 0.53081669950485233
7.5 6 0 0 0 0 0.547692050457000756
8.25 6 0 0 0 0 0.560080724716186529
9 6 0 0 0 0 0.565144327640533461
9.75 6 0 0 0 0 0.581663899898529069
-9 6.75 0 0 0 0 1.25669321680068968
-8.25 6.75 0 0 0 0 0.799696965932846116
-7.5 6.75 0 0 0 0 0.658671606063842785
-6.75 6.75 0 0 0 0 0.594071408271789503
-6 6.75 0 0 0 0 0.542922775983810446
-5.25 6.75 0 0 0 0 0.523649198770523072
-4.5 6.75 0 0 0 0 0.499118543386459335
-3.75 6.75 0 0 0 0 0.463307710886001589
-3 6.75 0 0 0 0 0.407796124935150162
-2.25 6.75 0 0 0 0 0.366071194887161278
-1.5 6.75 0 0 0 0 0.348394370079040505
-0.75 6.75 0 0 0 0 0.344906005144119288
0 6.75 0 0 0 0 0.363706792831420878
0.75 6.75 0 0 0 0 0.40532723617553712
1.5 6.75 0 0 0 0 0.441547881841659551
2.25 6.75 0 0 0 0 0.469029855728149425
3 6.75 0 0 0 0 0.473153023481369006
3.75 6.75 0 0 0 0 0.50162256240844727
4.5 6.75 0 0 0 0 0.514473905086517358
5.25 6.75 0 0 0 0 0.513587955951690711
6 6.75 0 0 0 0 0.533381114006042489
6.75 6.75 0 0 0 0 0.540699259757995598
7.5 6.75 0 0 0 0 0.547897346973419186
8.25 6.75 0 0 0 0 0.558022660970687867
9 6.75 0 0 0 0 0.583782114028930654
9.75 6.75 0 0 0 0 0.602915200710296584
-9 7.5 0 0 0 0 1.26251615715026855
-8.25 7.5 0 0 0 0 0.81591774988174437
-7.5 7.5 0 0 0 0 0.694786613941192677
-6.75 7.5 0 0 0 0 0.574969975233078023
-6 7.5 0 0 0 0 0.580828092813491792
-5.25 7.5 0 0 0 0 0.536445964336395242
-4.5 7.5 0 0 0 0 0.52400086474418639
-3.75 7.5 0 0 0 0 0.49205853247642517
-3 7.5 0 0 0 0 0.435007356405258172
-2.25 7.5 0 0 0 0 0.386681689500808723
-1.5 7.5 0 0 0 0 0.378177538633346577
-0.75 7.5 0 0 0 0 0.391600390672683707
0 7.5 0 0 0 0 0.416235293149948116
0.75 7.5 0 0 0 0 0.449134311676025411
1.5 7.5 0 0 0 0 0.468561226844787571
2.25 7.5 0 0 0 0 0.484962184429168719
3 7.5 0 0 0 0 0.503663445472717242
3.75 7.5 0 0 0 0 0.514811024188995381
4.5 7.5 0 0 0 0 0.525457786083221468
5.25 7.5 0 0 0 0 0.544709682464599609
6 7.5 0 0 0 0 0.544833876609802203
6.75 7.5 0 0 0 0 0.543935708045959476
7.5 7.5 0 0 0 0 0.542204359531402558
8.25 7.5 0 0 0 0 0.546816493034362749
9 7.5 0 0 0 0 0.569735584259033256
9.75 7.5 0 0 0 0 0.666680710315704306
-9 8.25 0 0 0 0 1.36223343777656547
-8.25 8.25 0 0 0 0 0.935825543403625448
-7.5 8.25 0 0 0 0 0.673108885049819916
-6.75 8.25 0 0 0 0 0.579719158887863184
-6 8.25 0 0 0 0 0.542752925634384153
-5.25 8.25 0 0 0 0 0.529486706256866446
-4.5 8.25 0 0 0 0 0.516154739141464258
-3.75 8.25 0 0 0 0 0.48630169630050657
-3 8.25 0 0 0 0 0.439067224740982032
-2.25 8.25 0 0 0 0 0.417054869890213009
-1.5 8.25 0 0 0 0 0.408537193775176999
-0.75 8.25 0 0 0 0 0.420301242113113427
0 8.25 0 0 0 0 0.444777407407760617
0.75 8.25 0 0 0 0 0.47345594978332517
1.5 8.25 0 0 0 0 0.497156936645507808
2.25 8.25 0 0 0 0 0.508292222023010276
3 8.25 0 0 0 0 0.523210944175720227
3.75 8.25 0 0 0 0 0.530823954582214319
4.5 8.25 0 0 0 0 0.544031900882720909
5.25 8.25 0 0 0 0 0.546969968318939181
6 8.25 0 0 0 0 0.541846746444702099
6.75 8.25 0 0 0 0 0.539855607986450159
7.5 8.25 0 0 0 0 0.532214394569397009
8.25 8.25 0 0 0 0 0.561381588935852105
9 8.25 0 0 0 0 0.610701322078704867
9.75 8.25 0 0 0 0 0.68978017663955693
-9 9 0 0 0 0 1.42978705644607551
-8.25 9 0 0 0 0 0.953436883449554462
-7.5 9 0 0 0 0 0.706018777132034314
-6.75 9 0 0 0 0 0.584453616619110106
-6 9 0 0 0 0 0.542203557491302446
-5.25 9 0 0 0 0 0.517343610286712607
-4.5 9 0 0 0 0 0.512952769517898588
-3.75 9 0 0 0 0 0.50763983559608461
-3 9 0 0 0 0 0.452803276777267449
-2.25 9 0 0 0 0 0.436269131183624259
-1.5 9 0 0 0 0 0.424384853124618544
-0.75 9 0 0 0 0 0.444579149246215832
0 9 0 0 0 0 0.478262947797775284
0.75 9 0 0 0 0 0.488150917053222666
1.5 9 0 0 0 0 0.509626825809478712
2.25 9 0 0 0 0 0.517975898265838675
3 9 0 0 0 0 0.529607773780822799
3.75 9 0 0 0 0 0.540550467014312752
4.5 9 0 0 0 0 0.552036868572235107
5.25 9 0 0 0 0 0.5499039287567139
6 9 0 0 0 0 0.55008639717102048
6.75 9 0 0 0 0 0.555200001955032385
7.5 9 0 0 0 0 0.606996712684631401
8.25 9 0 0 0 0 0.676652300834655773
9 9 0 0 0 0 0.827760066509246828
9.75 9 0 0 0 0 0.951476647377014206
-9 9.75 0 0 0 0 1.70786387348175039
-8.25 9.75 0 0 0 0 1.0294132804870606
-7.5 9.75 0 0 0 0 0.74942968773841856
-6.75 9.75 0 0 0 0 0.577261161327362049
-6 9.75 0 0 0 0 0.551466061592102097
-5.25 9.75 0 0 0 0 0.523872730731964165
-4.5 9.75 0 0 0 0 0.500219774961471519
-3.75 9.75 0 0 0 0 0.485208848953247063
-3 9.75 0 0 0 0 0.473356131553649917
-2.25 9.75 0 0 0 0 0.458895555496215801
-1.5 9.75 0 0 0 0 0.455734027624130233
-0.75 9.75 0 0 0 0 0.469822683334350566
0 9.75 0 0 0 0 0.486314900875091549
0.75 9.75 0 0 0 0 0.50212797403335574
1.5 9.75 0 0 0 0 0.516035596847534195
2.25 9.75 0 0 0 0 0.535100890159606934
3 9.75 0 0 0 0 0.538771995067596432
3.75 9.75 0 0 0 0 0.556125059127807631
4.5 9.75 0 0 0 0 0.557683351993560783
5.25 9.75 0 0 0 0 0.562889671325683572
6 9.75 0 0 0 0 0.589775562763214078
6.75 9.75 0 0 0 0 0.658160211563110331
7.5 9.75 0 0 0 0 0.740704427242279029
8.25 9.75 0 0 0 0 0.889592684268951439
9 9.75 0 0 0 0 1.16729297351837169
9.75 9.75 0 0 0 0 1.16364060163497918
4 0 1 27 26
4 1 2 28 27
4 2 3 29 28
4 3 4 30 29
4 4 5 31 30
4 5 6 32 31
4 6 7 33 32
4 7 8 34 33
4 8 9 35 34
4 9 10 36 35
4 10 11 37 36
4 11 12 38 37
4 12 13 39 38
4 13 14 40 39
4 14 15 41 40
4 15 16 42 41
4 16 17 43 42
4 17 18 44 43
4 18 19 45 44
4 19 20 46 45
4 20 21 47 46
4 21 22 48 47
4 22 23 49 48
4 23 24 50 49
4 24 25 51 50
4 26 27 53 52
4 27 28 54 53
4 28 29 55 54
4 29 30 56 55
4 30 31 57 56
4 31 32 58 57
4 32 33 59 58
4 33 34 60 59
4 34 35 61 60
4 35 36 62 61
4 36 37 63 62
4 37 38 64 63
4 38 39 65 64
4 39 40 66 65
4 40 41 67 66
4 41 42 68 67
4 42 43 69 68
4 43 44 70 69
4 44 45 71 70
4 45 46 72 71
4 46 47 73 72
4 47 48 74 73
4 48 49 75 74
4 49 50 76 75
4 50 51 77 76
4 52 53 79 78
4 53 54 80 79
4 54 55 81 80
4 55 56 82 81
4 56 57 83 82
4 57 58 84 83
4 58 59 85 84
4 59 60 86 85
4 60 61 87 86
4 61 62 88 87
4 62 63 89 88
4 63 64 90 89
4 64 65 91 90
4 65 66 92 91
4 66 67 93 92
4 67 68 94 93
4 68 69 95 94
4 69 70 96 95
4 70 71 97 96
4 71 72 98 97
4 72 73 99 98
4 73 74 100 99
4 74 75 101 100
4 75 76 102 101
4 76 77 103 102
4 78 79 105 104
4 79 80 106 105
4 80 81 107 106
4 81 82 108 107
4 82 83 109 108
4 83 84 110 109
4 84 85 111 110
4 85 86 112 111
4 86 87 113 112
4 87 88 114 113
4 88 89 115 114
4 89 90 116 115
4 90 91 117 116
4 91 92 118 117
4 92 93 119 118
4 93 94 120 119
4 94 95 121 120
4 95 96 122 121
4 96 97 123 122
4 97 98 124 123
4 98 99 125 124
4 99 100 126 125
4 100 101 127 126
4 101 102 128 127
4 102 103 129 128
4 104 105 131 130
4 105 106 132 131
4 106 107 133 132
4 107 108 134 133
4 108 109 135 134
4 109 110 136 135
4 110 111 137 136
4 111 112 138 137
4 112 113 139 138
4 113 114 140 139
4 114 115 141 140
4 115 116 142 141
4 116 117 143 142
4 117 118 144 143
4 118 119 145 144
4 119 120 146 145
4 120 121 147 146
4 121 122 148 147
4 122 123 149 148
4 123 124 150 149
4 124 125 151 150
4 125 126 152 151
4 126 127 153 152
4 127 128 154 153
4 128 129 155 154
4 130 131 157 156
4 131 132 158 157
4 132 133 159 158
4 133 134 160 159
4 134 135 161 160
4 135 136 162 161
4 136 137 163 162
4 137 138 164 163
4 138 139 165 164
4 139 140 166 165
4 140 141 167 166
4 141 142 168 167
4 142 143 169 168
4 143 144 170 169
4 144 145 171 170
4 145 146 172 171
4 146 147 173 172
4 147 148 174 173
4 148 149 175 174
4 149 150 176 175
4 150 151 177 176
4 151 152 178 177
4 152 153 179 178
4 153 154 180 179
4 154 155 181 180
4 156 157 183 182
4 157 158 184 183
4 158 159 185 184
4 159 160 186 185
4 160 161 187 186
4 161 162 188 187
4 162 163 189 188
4 163 164 190 189
4 164 165 191 190
4 165 166 192 191
4 166 167 193 192
4 167 168 194 193
4 168 169 195 194
4 169 170 196 195
4 170 171 197 196
4 171 172 198 197
4 172 173 199 198
4 173 174 200 199
4 174 175 201 200
4 175 176 202 201
4 176 177 203 202
4 177 178 204 203
4 178 179 205 204
4 179 180 206 205
4 180 181 207 206
4 182 183 209 208
4 183 184 210 209
4 184 185 211 210
4 185 186 212 211
4 186 187 213 212
4 187 188 214 213
4 188 189 215 214
4 189 190 216 215
4 190 191 217 216
4 191 192 218 217
4 192 193 219 218
4 193 194 220 219
4 194 195 221 220
4 195 196 222 221
4 196 197 223 222
4 197 198 224 223
4 198 199 225 224
4 199 200 226 225
4 200 201 227 226
4 201 202 228 227
4 202 203 229 228
4 203 204 230 229
4 204 205 231 230
4 205 206 232 231
4 206 207 233 232
4 208 209 235 234
4 209 210 236 235
4 210 211 237 236
4 211 212 238 237
4 212 213 239 238
4 213 214 240 239
4 214 215 241 240
4 215 216 242 241
4 216 217 243 242
4 217 218 244 243
4 218 219 245 244
4 219 220 246 245
4 220 221 247 246
4 221 222 248 247
4 222 223 249 248
4 223 224 250 249
4 224 225 251 250
4 225 226 252 251
4 226 227 253 252
4 227 228 254 253
4 228 229 255 254
4 229 230 256 255
4 230 231 257 256
4 231 232 258 257
4 232 233 259 258
4 234 235 261 260
4 235 236 262 261
4 236 237 263 262
4 237 238 264 263
4 238 239 265 264
4 239 240 266 265
4 240 241 267 266
4 241 242 268 267
4 242 243 269 268
4 243 244 270 269
4 244 245 271 270
4 245 246 272 271
4 246 247 273 272
4 247 248 274 273
4 248 249 275 274
4 249 250 276 275
4 250 251 277 276
4 251 252 278 277
4 252 253 279 278
4 253 254 280 279
4 254 255 281 280
4 255 256 282 281
4 256 257 283 282
4 257 258 284 283
4 258 259 285 284
4 260 261 287 286
4 261 262 288 287
4 262 263 289 288
4 263 264 290 289
4 264 265 291 290
4 265 266 292 291
4 266 267 293 292
4 267 268 294 293
4 268 269 295 294
4 269 270 296 295
4 270 271 297 296
4 271 272 298 297
4 272 273 299 298
4 273 274 300 299
4 274 275 301 300
4 275 276 302 301
4 276 277 303 302
4 277 278 304 303
4 278 279 305 304
4 279 280 306 305
4 280 281 307 306
4 281 282 308 307
4 282 283 309 308
4 283 284 310 309
4 284 285 311 310
4 286 287 313 312
4 287 288 314 313
4 288 289 315 314
4 289 290 316 315
4 290 291 317 316
4 291 292 318 317
4 292 293 319 318
4 293 294 320 319
4 294 295 321 320
4 295 296 322 321
4 296 297 323 322
4 297 298 324 323
4 298 299 325 324
4 299 300 326 325
4 300 301 327 326
4 301 302 328 327
4 302 303 329 328
4 303 304 330 329
4 304 305 331 330
4 305 306 332 331
4 306 307 333 332
4 307 308 334 333
4 308 309 335 334
4 309 310 336 335
4 310 311 337 336
4 312 313 339 338
4 313 314 340 339
4 314 315 341 340
4 315 316 342 341
4 316 317 343 342
4 317 318 344 343
4 318 319 345 344
4 319 320 346 345
4 320 321 347 346
4 321 322 348 347
4 322 323 349 348
4 323 324 350 349
4 324 325 351 350
4 325 326 352 351
4 326 327 353 352
4 327 328 354 353
4 328 329 355 354
4 329 330 356 355
4 330 331 357 356
4 331 332 358 357
4 332 333 359 358
4 333 334 360 359
4 334 335 361 360
4 335 336 362 361
4 336 337 363 362
4 338 339 365 364
4 339 340 366 365
4 340 341 367 366
4 341 342 368 367
4 342 343 369 368
4 343 344 370 369
4 344 345 371 370
4 345 346 372 371
4 346 347 373 372
4 347 348 374 373
4 348 349 375 374
4 349 350 376 375
4 350 351 377 376
4 351 352 378 377
4 352 353 379 378
4 353 354 380 379
4 354 355 381 380
4 355 356 382 381
4 356 357 383 382
4 357 358 384 383
4 358 359 385 384
4 359 360 386 385
4 360 361 387 386
4 361 362 388 387
4 362 363 389 388
4 364 365 391 390
4 365 366 392 391
4 366 367 393 392
4 367 368 394 393
4 368 369 395 394
4 369 370 396 395
4 370 371 397 396
4 371 372 398 397
4 372 373 399 398
4 373 374 400 399
4 374 375 401 400
4 375 376 402 401
4 376 377 403 402
4 377 378 404 403
4 378 379 405 404
4 379 380 406 405
4 380 381 407 406
4 381 382 408 407
4 382 383 409 408
4 383 384 410 409
4 384 385 411 410
4 385 386 412 411
4 386 387 413 412
4 387 388 414 413
4 388 389 415 414
4 390 391 417 416
4 391 392 418 417
4 392 393 419 418
4 393 394 420 419
4 394 395 421 420
4 395 396 422 421
4 396 397 423 422
4 397 398 424 423
4 398 399 425 424
4 399 400 426 425
4 400 401 427 426
4 401 402 428 427
4 402 403 429 428
4 403 404 430 429
4 404 405 431 430
4 405 406 432 431
4 406 407 433 432
4 407 408 434 433
4 408 409 435 434
4 409 410 436 435
4 410 411 437 436
4 411 412 438 437
4 412 413 439 438
4 413 414 440 439
4 414 415 441 440
4 416 417 443 442
4 417 418 444 443
4 418 419 445 444
4 419 420 446 445
4 420 421 447 446
4 421 422 448 447
4 422 423 449 448
4 423 424 450 449
4 424 425 451 450
4 425 426 452 451
4 426 427 453 452
4 427 428 454 453
4 428 429 455 454
4 429 430 456 455
4 430 431 457 456
4 431 432 458 457
4 432 433 459 458
4 433 434 460 459
4 434 435 461 460
4 435 436 462 461
4 436 437 463 462
4 437 438 464 463
4 438 439 465 464
4 439 440 466 465
4 440 441 467 466
4 442 443 469 468
4 443 444 470 469
4 444 445 471 470
4 445 446 472 471
4 446 447 473 472
4 447 448 474 473
4 448 449 475 474
4 449 450 476 475
4 450 451 477 476
4 451 452 478 477
4 452 453 479 478
4 453 454 480 479
4 454 455 481 480
4 455 456 482 481
4 456 457 483 482
4 457 458 484 483
4 458 459 485 484
4 459 460 486 485
4 460 461 487 486
4 461 462 488 487
4 462 463 489 488
4 463 464 490 489
4 464 465 491 490
4 465 466 492 491
4 466 467 493 492
4 468 469 495 494
4 469 470 496 495
4 470 471 497 496
4 471 472 498 497
4 472 473 499 498
4 473 474 500 499
4 474 475 501 500
4 475 476 502 501
4 476 477 503 502
4 477 478 504 503
4 478 479 505 504
4 479 480 506 505
4 480 481 507 506
4 481 482 508 507
4 482 483 509 508
4 483 484 510 509
4 484 485 511 510
4 485 486 512 511
4 486 487 513 512
4 487 488 514 513
4 488 489 515 514
4 489 490 516 515
4 490 491 517 516
4 491 492 518 517
4 492 493 519 518
4 494 495 521 520
4 495 496 522 521
4 496 497 523 522
4 497 498 524 523
4 498 499 525 524
4 499 500 526 525
4 500 501 527 526
4 501 502 528 527
4 502 503 529 528
4 503 504 530 529
4 504 505 531 530
4 505 506 532 531
4 506 507 533 532
4 507 508 534 533
4 508 509 535 534
4 509 510 536 535
4 510 511 537 536
4 511 512 538 537
4 512 513 539 538
4 513 514 540 539
4 514 515 541 540
4 515 516 542 541
4 516 517 543 542
4 517 518 544 543
4 518 519 545 544
4 520 521 547 546
4 521 522 548 547
4 522 523 549 548
4 523 524 550 549
4 524 525 551 550
4 525 526 552 551
4 526 527 553 552
4 527 528 554 553
4 528 529 555 554
4 529 530 556 555
4 530 531 557 556
4 531 532 558 557
4 532 533 559 558
4 533 534 560 559
4 534 535 561 560
4 535 536 562 561
4 536 537 563 562
4 537 538 564 563
4 538 539 565 564
4 539 540 566 565
4 540 541 567 566
4 541 542 568 567
4 542 543 569 568
4 543 544 570 569
4 544 545 571 570
4 546 547 573 572
4 547 548 574 573
4 548 549 575 574
4 549 550 576 575
4 550 551 577 576
4 551 552 578 577
4 552 553 579 578
4 553 554 580 579
4 554 555 581 580
4 555 556 582 581
4 556 557 583 582
4 557 558 584 583
4 558 559 585 584
4 559 560 586 585
4 560 561 587 586
4 561 562 588 587
4 562 563 589 588
4 563 564 590 589
4 564 565 591 590
4 565 566 592 591
4 566 567 593 592
4 567 568 594 593
4 568 569 595 594
4 569 570 596 595
4 570 571 597 596
4 572 573 599 598
4 573 574 600 599
4 574 575 601 600
4 575 576 602 601
4 576 577 603 602
4 577 578 604 603
4 578 579 605 604
4 579 580 606 605
4 580 581 607 606
4 581 582 608 607
4 582 583 609 608
4 583 584 610 609
4 584 585 611 610
4 585 586 612 611
4 586 587 613 612
4 587 588 614 613
4 588 589 615 614
4 589 590 616 615
4 590 591 617 616
4 591 592 618 617
4 592 593 619 618
4 593 594 620 619
4 594 595 621 620
4 595 596 622 621
4 596 597 623 622
4 598 599 625 624
4 599 600 626 625
4 600 601 627 626
4 601 602 628 627
4 602 603 629 628
4 603 604 630 629
4 604 605 631 630
4 605 606 632 631
4 606 607 633 632
4 607 608 634 633
4 608 609 635 634
4 609 610 636 635
4 610 611 637 636
4 611 612 638 637
4 612 613 639 638
4 613 614 640 639
4 614 615 641 640
4 615 616 642 641
4 616 617 643 642
4 617 618 644 643
4 618 619 645 644
4 619 620 646 645
4 620 621 647 646
4 621 622 648 647
4 622 623 649 648
4 624 625 651 650
4 625 626 652 651
4 626 627 653 652
4 627 628 654 653
4 628 629 655 654
4 629 630 656 655
4 630 631 657 656
4 631 632 658 657
4 632 633 659 658
4 633 634 660 659
4 634 635 661 660
4 635 636 662 661
4 636 637 663 662
4 637 638 664 663
4 638 639 665 664
4 639 640 666 665
4 640 641 667 666
4 641 642 668 667
4 642 643 669 668
4 643 644 670 669
4 644 645 671 670
4 645 646 672 671
4 646 647 673 672
4 647 648 674 673
4 648 649 675 674
