ply
format ascii 1.0
element vertex 100
property double x
property double y
property double z
property double vx
property double vy
property double vz
property double s
element face 81
property list uchar int vertex_indices
end_header
-0.0500000000000000028 -0.0500000000000000028 0 0 0 0 0.0744706331640482
-0.0400000000000000008 -0.0500000000000000028 0 0 0 0 0.0775309880971908616
-0.0299999999999999989 -0.0500000000000000028 0 0 0 0 0.0737788826674222881
-0.0199999999999999969 -0.0500000000000000028 0 0 0 0 0.0733399900048971182
-0.009999999999999995 -0.0500000000000000028 0 0 0 0 0.0695520417988300388
6.93889390390722838e-18 -0.0500000000000000028 0 0 0 0 0.0692818467617034861
0.0100000000000000089 -0.0500000000000000028 0 0 0 0 0.0708910825997590976
0.0200000000000000039 -0.0500000000000000028 0 0 0 0 0.0711039111316204009
0.0300000000000000128 -0.0500000000000000028 0 0 0 0 0.0695744900852441756
0.0400000000000000216 -0.0500000000000000028 0 0 0 0 0.0702290848344564456
-0.0500000000000000028 -0.0400000000000000008 0 0 0 0 0.071143404960632331
-0.0400000000000000008 -0.0400000000000000008 0 0 0 0 0.0716330294907093074
-0.0299999999999999989 -0.0400000000000000008 0 0 0 0 0.0709711655676364961
-0.0199999999999999969 -0.0400000000000000008 0 0 0 0 0.0729908780083060316
-0.009999999999999995 -0.0400000000000000008 0 0 0 0 0.0717226278930902517
6.93889390390722838e-18 -0.0400000000000000008 0 0 0 0 0.0701201153844594888
0.0100000000000000089 -0.0400000000000000008 0 0 0 0 0.0700705419331788953
0.0200000000000000039 -0.0400000000000000008 0 0 0 0 0.0710807883888483066
0.0300000000000000128 -0.0400000000000000008 0 0 0 0 0.0706354490518569939
0.0400000000000000216 -0.0400000000000000008 0 0 0 0 0.0653848611488938303
-0.0500000000000000028 -0.0299999999999999989 0 0 0 0 0.0763735881149768814
-0.0400000000000000008 -0.0299999999999999989 0 0 0 0 0.0741420563906431129
-0.0299999999999999989 -0.0299999999999999989 0 0 0 0 0.0760974948555231123
-0.0199999999999999969 -0.0299999999999999989 0 0 0 0 0.0736372914612293261
-0.009999999999999995 -0.0299999999999999989 0 0 0 0 0.0728628673553466805
6.93889390390722838e-18 -0.0299999999999999989 0 0 0 0 0.071107061490416526
0.0100000000000000089 -0.0299999999999999989 0 0 0 0 0.0674077616035938243
0.0200000000000000039 -0.0299999999999999989 0 0 0 0 0.0696386198401451051
0.0300000000000000128 -0.0299999999999999989 0 0 0 0 0.0685882976204156836
0.0400000000000000216 -0.0299999999999999989 0 0 0 0 0.0714095423668622969
-0.0500000000000000028 -0.0199999999999999969 0 0 0 0 0.0771896572560071964
-0.0400000000000000008 -0.0199999999999999969 0 0 0 0 0.0739851219654083236
-0.0299999999999999989 -0.0199999999999999969 0 0 0 0 0.0743503939285874299
-0.0199999999999999969 -0.0199999999999999969 0 0 0 0 0.0738417153805494275
-0.009999999999999995 -0.0199999999999999969 0 0 0 0 0.0751453296691179246
6.93889390390722838e-18 -0.0199999999999999969 0 0 0 0 0.0708112801238894446
0.0100000000000000089 -0.0199999999999999969 0 0 0 0 0.0655278604105114931
0.0200000000000000039 -0.0199999999999999969 0 0 0 0 0.0743952288255095434
0.0300000000000000128 -0.0199999999999999969 0 0 0 0 0.063852772496640689
0.0400000000000000216 -0.0199999999999999969 0 0 0 0 0.0680735861510038398
-0.0500000000000000028 -0.009999999999999995 0 0 0 0 0.073866303086280824
-0.0400000000000000008 -0.009999999999999995 0 0 0 0 0.0751493015438318285
-0.0299999999999999989 -0.009999999999999995 0 0 0 0 0.066589863926172263
-0.0199999999999999969 -0.009999999999999995 0 0 0 0 0.0729351995885372112
-0.009999999999999995 -0.009999999999999995 0 0 0 0 0.0705978306904435221
6.93889390390722838e-18 -0.009999999999999995 0 0 0 0 0.0766630198210477842
0.0100000000000000089 -0.009999999999999995 0 0 0 0 0.0666477086469531022
0.0200000000000000039 -0.009999999999999995 0 0 0 0 0.0688523774445056885
0.0300000000000000128 -0.009999999999999995 0 0 0 0 0.067639018476009366
0.0400000000000000216 -0.009999999999999995 0 0 0 0 0.0682166877835989061
-0.0500000000000000028 6.93889390390722838e-18 0 0 0 0 0.0736867912560701388
-0.0400000000000000008 6.93889390390722838e-18 0 0 0 0 0.069431487411260609
-0.0299999999999999989 6.93889390390722838e-18 0 0 0 0 0.0725691698603332103
-0.0199999999999999969 6.93889390390722838e-18 0 0 0 0 0.0678477774783968896
-0.009999999999999995 6.93889390390722838e-18 0 0 0 0 0.0705357847660779969
6.93889390390722838e-18 6.93889390390722838e-18 0 0 0 0 0.0668486561775207544
0.0100000000000000089 6.93889390390722838e-18 0 0 0 0 0.0688819781765341727
0.0200000000000000039 6.93889390390722838e-18 0 0 0 0 0.0678158794417977329
0.0300000000000000128 6.93889390390722838e-18 0 0 0 0 0.0683554380387067784
0.0400000000000000216 6.93889390390722838e-18 0 0 0 0 0.0674054279327392647
-0.0500000000000000028 0.0100000000000000089 0 0 0 0 0.0677473604530096085
-0.0400000000000000008 0.0100000000000000089 0 0 0 0 0.0714907969683408751
-0.0299999999999999989 0.0100000000000000089 0 0 0 0 0.0737676727026700951
-0.0199999999999999969 0.0100000000000000089 0 0 0 0 0.0695194408632814898
-0.009999999999999995 0.0100000000000000089 0 0 0 0 0.0653910769149661092
6.93889390390722838e-18 0.0100000000000000089 0 0 0 0 0.065559783831238741
0.0100000000000000089 0.0100000000000000089 0 0 0 0 0.0666224062889814311
0.0200000000000000039 0.0100000000000000089 0 0 0 0 0.0705906942784786245
0.0300000000000000128 0.0100000000000000089 0 0 0 0 0.0754325098246335923
0.0400000000000000216 0.0100000000000000089 0 0 0 0 0.0665109975486993799
-0.0500000000000000028 0.0200000000000000039 0 0 0 0 0.0717290630638599408
-0.0400000000000000008 0.0200000000000000039 0 0 0 0 0.0714501356333494125
-0.0299999999999999989 0.0200000000000000039 0 0 0 0 0.0678587128967046704
-0.0199999999999999969 0.0200000000000000039 0 0 0 0 0.0693663300797343202
-0.009999999999999995 0.0200000000000000039 0 0 0 0 0.0693177197054028471
6.93889390390722838e-18 0.0200000000000000039 0 0 0 0 0.0666291831582784683
0.0100000000000000089 0.0200000000000000039 0 0 0 0 0.0683793329000473016
0.0200000000000000039 0.0200000000000000039 0 0 0 0 0.0673512546122074091
0.0300000000000000128 0.0200000000000000039 0 0 0 0 0.0750852117538452213
0.0400000000000000216 0.0200000000000000039 0 0 0 0 0.0742981614172458643
-0.0500000000000000028 0.0300000000000000128 0 0 0 0 0.0698509105443954476
-0.0400000000000000008 0.0300000000000000128 0 0 0 0 0.0698704083263874121
-0.0299999999999999989 0.0300000000000000128 0 0 0 0 0.0734559970945119906
-0.0199999999999999969 0.0300000000000000128 0 0 0 0 0.0694848836213350363
-0.009999999999999995 0.0300000000000000128 0 0 0 0 0.0702803628742694891
6.93889390390722838e-18 0.0300000000000000128 0 0 0 0 0.0716393769755959559
0.0100000000000000089 0.0300000000000000128 0 0 0 0 0.0670543095320463162
0.0200000000000000039 0.0300000000000000128 0 0 0 0 0.0683212410956621219
0.0300000000000000128 0.0300000000000000128 0 0 0 0 0.0710152723267674507
0.0400000000000000216 0.0300000000000000128 0 0 0 0 0.0758607246950268738
-0.0500000000000000028 0.0400000000000000216 0 0 0 0 0.0715105343461036741
-0.0400000000000000008 0.0400000000000000216 0 0 0 0 0.072966646820306777
-0.0299999999999999989 0.0400000000000000216 0 0 0 0 0.0733414243608713212
-0.0199999999999999969 0.0400000000000000216 0 0 0 0 0.0704113364964723543
-0.009999999999999995 0.0400000000000000216 0 0 0 0 0.0732422212660312627
6.93889390390722838e-18 0.0400000000000000216 0 0 0 0 0.0709253911077976223
0.0100000000000000089 0.0400000000000000216 0 0 0 0 0.063448922134935859
0.0200000000000000039 0.0400000000000000216 0 0 0 0 0.0729588744938373529
0.0300000000000000128 0.0400000000000000216 0 0 0 0 0.0709106688350439052
0.0400000000000000216 0.0400000000000000216 0 0 0 0 0.07195061447843909
4 0 1 11 10
4 1 2 12 11
4 2 3 13 12
4 3 4 14 13
4 4 5 15 14
4 5 6 16 15
4 6 7 17 16
4 7 8 18 17
4 8 9 19 18
4 10 11 21 20
4 11 12 22 21
4 12 13 23 22
4 13 14 24 23
4 14 15 25 24
4 15 16 26 25
4 16 17 27 26
4 17 18 28 27
4 18 19 29 28
4 20 21 31 30
4 21 22 32 31
4 22 23 33 32
4 23 24 34 33
4 24 25 35 34
4 25 26 36 35
4 26 27 37 36
4 27 28 38 37
4 28 29 39 38
4 30 31 41 40
4 31 32 42 41
4 32 33 43 42
4 33 34 44 43
4 34 35 45 44
4 35 36 46 45
4 36 37 47 46
4 37 38 48 47
4 38 39 49 48
4 40 41 51 50
4 41 42 52 51
4 42 43 53 52
4 43 44 54 53
4 44 45 55 54
4 45 46 56 55
4 46 47 57 56
4 47 48 58 57
4 48 49 59 58
4 50 51 61 60
4 51 52 62 61
4 52 53 63 62
4 53 54 64 63
4 54 55 65 64
4 55 56 66 65
4 56 57 67 66
4 57 58 68 67
4 58 59 69 68
4 60 61 71 70
4 61 62 72 71
4 62 63 73 72
4 63 64 74 73
4 64 65 75 74
4 65 66 76 75
4 66 67 77 76
4 67 68 78 77
4 68 69 79 78
4 70 71 81 80
4 71 72 82 81
4 72 73 83 82
4 73 74 84 83
4 74 75 85 84
4 75 76 86 85
4 76 77 87 86
4 77 78 88 87
4 78 79 89 88
4 80 81 91 90
4 81 82 92 91
4 82 83 93 92
4 83 84 94 93
4 84 85 95 94
4 85 86 96 95
4 86 87 97 96
4 87 88 98 97
4 88 89 99 98
