ply
format ascii 1.0
element vertex 100
property double x
property double y
property double z
property double vx
property double vy
property double vz
property double s
element face 81
property list uchar int vertex_indices
end_header
-0.0500000000000000028 -0.0500000000000000028 0 0 0 0 0.692558017730712905
-0.0400000000000000008 -0.0500000000000000028 0 0 0 0 0.62137981557846067
-0.0299999999999999989 -0.0500000000000000028 0 0 0 0 0.583312211990356433
-0.0199999999999999969 -0.0500000000000000028 0 0 0 0 0.537303543567657416
-0.009999999999999995 -0.0500000000000000028 0 0 0 0 0.435665012836456311
6.93889390390722838e-18 -0.0500000000000000028 0 0 0 0 0.423282888889312758
0.0100000000000000089 -0.0500000000000000028 0 0 0 0 0.438621160745620742
0.0200000000000000039 -0.0500000000000000028 0 0 0 0 0.425797327756881727
0.0300000000000000128 -0.0500000000000000028 0 0 0 0 0.418495194911956803
0.0400000000000000216 -0.0500000000000000028 0 0 0 0 0.414479041576385487
-0.0500000000000000028 -0.0400000000000000008 0 0 0 0 0.771819924831390392
-0.0400000000000000008 -0.0400000000000000008 0 0 0 0 0.66401025438308714
-0.0299999999999999989 -0.0400000000000000008 0 0 0 0 0.554138803005218561
-0.0199999999999999969 -0.0400000000000000008 0 0 0 0 0.535279450416564995
-0.009999999999999995 -0.0400000000000000008 0 0 0 0 0.460253243684768665
6.93889390390722838e-18 -0.0400000000000000008 0 0 0 0 0.444742410898208596
0.0100000000000000089 -0.0400000000000000008 0 0 0 0 0.497749649524688698
0.0200000000000000039 -0.0400000000000000008 0 0 0 0 0.479394540786743151
0.0300000000000000128 -0.0400000000000000008 0 0 0 0 0.467351870059967034
0.0400000000000000216 -0.0400000000000000008 0 0 0 0 0.471897756338119534
-0.0500000000000000028 -0.0299999999999999989 0 0 0 0 0.897209096908569315
-0.0400000000000000008 -0.0299999999999999989 0 0 0 0 0.800271080493927034
-0.0299999999999999989 -0.0299999999999999989 0 0 0 0 0.587890820026397698
-0.0199999999999999969 -0.0299999999999999989 0 0 0 0 0.517836033344268754
-0.009999999999999995 -0.0299999999999999989 0 0 0 0 0.410813102245330797
6.93889390390722838e-18 -0.0299999999999999989 0 0 0 0 0.44526031899452212
0.0100000000000000089 -0.0299999999999999989 0 0 0 0 0.54748950052261347
0.0200000000000000039 -0.0299999999999999989 0 0 0 0 0.549003048896789525
0.0300000000000000128 -0.0299999999999999989 0 0 0 0 0.542254915714263874
0.0400000000000000216 -0.0299999999999999989 0 0 0 0 0.565526556491851795
-0.0500000000000000028 -0.0199999999999999969 0 0 0 0 1.11181750392913825
-0.0400000000000000008 -0.0199999999999999969 0 0 0 0 0.976411318778991677
-0.0299999999999999989 -0.0199999999999999969 0 0 0 0 0.718562753200530979
-0.0199999999999999969 -0.0199999999999999969 0 0 0 0 0.495881565332412733
-0.009999999999999995 -0.0199999999999999969 0 0 0 0 0.278464915990829454
6.93889390390722838e-18 -0.0199999999999999969 0 0 0 0 0.304599613904952993
0.0100000000000000089 -0.0199999999999999969 0 0 0 0 0.532119240283966066
0.0200000000000000039 -0.0199999999999999969 0 0 0 0 0.581659752845764211
0.0300000000000000128 -0.0199999999999999969 0 0 0 0 0.590013430118560778
0.0400000000000000216 -0.0199999999999999969 0 0 0 0 0.611217092514038107
-0.0500000000000000028 -0.009999999999999995 0 0 0 0 1.24122758960723867
-0.0400000000000000008 -0.009999999999999995 0 0 0 0 1.16298455524444577
-0.0299999999999999989 -0.009999999999999995 0 0 0 0 0.908746056556701709
-0.0199999999999999969 -0.009999999999999995 0 0 0 0 0.541106394767761234
-0.009999999999999995 -0.009999999999999995 0 0 0 0 0.212195135354995734
6.93889390390722838e-18 -0.009999999999999995 0 0 0 0 0.088887319892644881
0.0100000000000000089 -0.009999999999999995 0 0 0 0 0.377106327891349791
0.0200000000000000039 -0.009999999999999995 0 0 0 0 0.573387124538421666
0.0300000000000000128 -0.009999999999999995 0 0 0 0 0.616648697853088401
0.0400000000000000216 -0.009999999999999995 0 0 0 0 0.645520211219787643
-0.0500000000000000028 6.93889390390722838e-18 0 0 0 0 1.29600801658630371
-0.0400000000000000008 6.93889390390722838e-18 0 0 0 0 1.36299508285522464
-0.0299999999999999989 6.93889390390722838e-18 0 0 0 0 1.14038618469238284
-0.0199999999999999969 6.93889390390722838e-18 0 0 0 0 0.732131330490112253
-0.009999999999999995 6.93889390390722838e-18 0 0 0 0 0.300945761203765871
6.93889390390722838e-18 6.93889390390722838e-18 0 0 0 0 0.033393557572737334
0.0100000000000000089 6.93889390390722838e-18 0 0 0 0 0.128843820542097087
0.0200000000000000039 6.93889390390722838e-18 0 0 0 0 0.540310396194457976
0.0300000000000000128 6.93889390390722838e-18 0 0 0 0 0.623514075279235858
0.0400000000000000216 6.93889390390722838e-18 0 0 0 0 0.651977891921997066
-0.0500000000000000028 0.0100000000000000089 0 0 0 0 1.30711943340301517
-0.0400000000000000008 0.0100000000000000089 0 0 0 0 1.43802524089813222
-0.0299999999999999989 0.0100000000000000089 0 0 0 0 1.3324532232284545
-0.0199999999999999969 0.0100000000000000089 0 0 0 0 0.988753225803375213
-0.009999999999999995 0.0100000000000000089 0 0 0 0 0.487254879236221294
6.93889390390722838e-18 0.0100000000000000089 0 0 0 0 0.122142318263649935
0.0100000000000000089 0.0100000000000000089 0 0 0 0 0.0660694530308246625
0.0200000000000000039 0.0100000000000000089 0 0 0 0 0.46520297837257385
0.0300000000000000128 0.0100000000000000089 0 0 0 0 0.611659314155578615
0.0400000000000000216 0.0100000000000000089 0 0 0 0 0.639069476127624547
-0.0500000000000000028 0.0200000000000000039 0 0 0 0 1.42472546672821054
-0.0400000000000000008 0.0200000000000000039 0 0 0 0 1.51349618244171147
-0.0299999999999999989 0.0200000000000000039 0 0 0 0 1.41160643768310545
-0.0199999999999999969 0.0200000000000000039 0 0 0 0 1.10716252136230464
-0.009999999999999995 0.0200000000000000039 0 0 0 0 0.711970274925231905
6.93889390390722838e-18 0.0200000000000000039 0 0 0 0 0.377904180049896232
0.0100000000000000089 0.0200000000000000039 0 0 0 0 0.113339876383543009
0.0200000000000000039 0.0200000000000000039 0 0 0 0 0.257497724533081063
0.0300000000000000128 0.0200000000000000039 0 0 0 0 0.56344655275344846
0.0400000000000000216 0.0200000000000000039 0 0 0 0 0.613648511409759512
-0.0500000000000000028 0.0300000000000000128 0 0 0 0 1.49246043682098395
-0.0400000000000000008 0.0300000000000000128 0 0 0 0 1.46130381011962895
-0.0299999999999999989 0.0300000000000000128 0 0 0 0 1.26747060966491709
-0.0199999999999999969 0.0300000000000000128 0 0 0 0 0.962284741878509542
-0.009999999999999995 0.0300000000000000128 0 0 0 0 0.693878209114074718
6.93889390390722838e-18 0.0300000000000000128 0 0 0 0 0.502785382032394423
0.0100000000000000089 0.0300000000000000128 0 0 0 0 0.300650608897209182
0.0200000000000000039 0.0300000000000000128 0 0 0 0 0.174301954090595235
0.0300000000000000128 0.0300000000000000128 0 0 0 0 0.427772274971008282
0.0400000000000000216 0.0300000000000000128 0 0 0 0 0.568596539974212667
-0.0500000000000000028 0.0400000000000000216 0 0 0 0 1.44417886543273921
-0.0400000000000000008 0.0400000000000000216 0 0 0 0 1.42433529376983636
-0.0299999999999999989 0.0400000000000000216 0 0 0 0 1.04732379055023195
-0.0199999999999999969 0.0400000000000000216 0 0 0 0 0.745961664676666247
-0.009999999999999995 0.0400000000000000216 0 0 0 0 0.651256063938140839
6.93889390390722838e-18 0.0400000000000000216 0 0 0 0 0.555145753383636475
0.0100000000000000089 0.0400000000000000216 0 0 0 0 0.415264977931976309
0.0200000000000000039 0.0400000000000000216 0 0 0 0 0.290522168278694148
0.0300000000000000128 0.0400000000000000216 0 0 0 0 0.27198115515708926
0.0400000000000000216 0.0400000000000000216 0 0 0 0 0.445545560359954851
4 0 1 11 10
4 1 2 12 11
4 2 3 13 12
4 3 4 14 13
4 4 5 15 14
4 5 6 16 15
4 6 7 17 16
4 7 8 18 17
4 8 9 19 18
4 10 11 21 20
4 11 12 22 21
4 12 13 23 22
4 13 14 24 23
4 14 15 25 24
4 15 16 26 25
4 16 17 27 26
4 17 18 28 27
4 18 19 29 28
4 20 21 31 30
4 21 22 32 31
4 22 23 33 32
4 23 24 34 33
4 24 25 35 34
4 25 26 36 35
4 26 27 37 36
4 27 28 38 37
4 28 29 39 38
4 30 31 41 40
4 31 32 42 41
4 32 33 43 42
4 33 34 44 43
4 34 35 45 44
4 35 36 46 45
4 36 37 47 46
4 37 38 48 47
4 38 39 49 48
4 40 41 51 50
4 41 42 52 51
4 42 43 53 52
4 43 44 54 53
4 44 45 55 54
4 45 46 56 55
4 46 47 57 56
4 47 48 58 57
4 48 49 59 58
4 50 51 61 60
4 51 52 62 61
4 52 53 63 62
4 53 54 64 63
4 54 55 65 64
4 55 56 66 65
4 56 57 67 66
4 57 58 68 67
4 58 59 69 68
4 60 61 71 70
4 61 62 72 71
4 62 63 73 72
4 63 64 74 73
4 64 65 75 74
4 65 66 76 75
4 66 67 77 76
4 67 68 78 77
4 68 69 79 78
4 70 71 81 80
4 71 72 82 81
4 72 73 83 82
4 73 74 84 83
4 74 75 85 84
4 75 76 86 85
4 76 77 87 86
4 77 78 88 87
4 78 79 89 88
4 80 81 91 90
4 81 82 92 91
4 82 83 93 92
4 83 84 94 93
4 84 85 95 94
4 85 86 96 95
4 86 87 97 96
4 87 88 98 97
4 88 89 99 98
