ply
format ascii 1.0
element vertex 121
property double x
property double y
property double z
property double vx
property double vy
property double vz
property double s
element face 100
property list uchar int vertex_indices
end_header
-20 -20 0 0 0 0 30550.9554843750011
-16 -20 0 0 0 0 5166.86979296874961
-12 -20 0 0 0 0 749.432799560546869
-8 -20 0 0 0 0 166.466473999023435
-4 -20 0 0 0 0 77.5512112426757767
0 -20 0 0 0 0 43.7822782058715845
4 -20 0 0 0 0 19.4358098087310793
8 -20 0 0 0 0 4.44412732124328613
12 -20 0 0 0 0 2.01978325366973888
16 -20 0 0 0 0 3.01252343273162859
20 -20 0 0 0 0 5.016735185623169
-20 -16 0 0 0 0 3395.70763476562479
-16 -16 0 0 0 0 658.243904052734365
-12 -16 0 0 0 0 102.167698699951174
-8 -16 0 0 0 0 24.9384777603149423
-4 -16 0 0 0 0 12.637979888916016
0 -16 0 0 0 0 8.8558419036865228
4 -16 0 0 0 0 2.21988152790069559
8 -16 0 0 0 0 0.964757548332214387
12 -16 0 0 0 0 0.85209989023208621
16 -16 0 0 0 0 1.16692245388031002
20 -16 0 0 0 0 1.70587426090240468
-20 -12 0 0 0 0 1284.43442285156243
-16 -12 0 0 0 0 140.288996765136716
-12 -12 0 0 0 0 26.681832641601563
-8 -12 0 0 0 0 6.33381631278991719
-4 -12 0 0 0 0 2.70910096740722661
0 -12 0 0 0 0 1.31495929956436153
4 -12 0 0 0 0 0.521730374336242697
8 -12 0 0 0 0 0.514518459320068344
12 -12 0 0 0 0 0.620194031715393113
16 -12 0 0 0 0 0.738757992267608632
20 -12 0 0 0 0 1.07761312055587766
-20 -8 0 0 0 0 753.733158203124958
-16 -8 0 0 0 0 57.7666172027587876
-12 -8 0 0 0 0 10.1600827331542973
-8 -8 0 0 0 0 2.39513147640228263
-4 -8 0 0 0 0 1.38162440299987788
0 -8 0 0 0 0 0.67859112834930424
4 -8 0 0 0 0 0.404618136644363413
8 -8 0 0 0 0 0.475561734914779655
12 -8 0 0 0 0 0.601237208366394049
16 -8 0 0 0 0 0.768623024463653604
20 -8 0 0 0 0 0.955940432071685775
-20 -4 0 0 0 0 321.254875610351576
-16 -4 0 0 0 0 33.4075187454223652
-12 -4 0 0 0 0 7.43067677879333477
-8 -4 0 0 0 0 2.46152062606811528
-4 -4 0 0 0 0 0.764991445779800383
0 -4 0 0 0 0 0.196637344539165509
4 -4 0 0 0 0 0.193578169763088226
8 -4 0 0 0 0 0.356543058395385748
12 -4 0 0 0 0 0.535172310829162612
16 -4 0 0 0 0 0.737539410591125488
20 -4 0 0 0 0 0.820612630844116175
-20 0 0 0 0 0 157.695524597167974
-16 0 0 0 0 0 25.7398922080993664
-12 0 0 0 0 0 5.30452100372314472
-8 0 0 0 0 0 1.39678091192245479
-4 0 0 0 0 0 0.191991304069757451
0 0 0 0 0 0 0.0275473944544792175
4 0 0 0 0 0 0.159510309457778943
8 0 0 0 0 0 0.373213164091110217
12 0 0 0 0 0 0.568040565967559807
16 0 0 0 0 0 0.630126894950866712
20 0 0 0 0 0 0.736364320755004909
-20 4 0 0 0 0 175.522731689453138
-16 4 0 0 0 0 15.5493850975036629
-12 4 0 0 0 0 2.69293672466278089
-8 4 0 0 0 0 0.667951247215270993
-4 4 0 0 0 0 0.23425975328683854
0 4 0 0 0 0 0.205360948562622075
4 4 0 0 0 0 0.428704448938369731
8 4 0 0 0 0 0.599114974498748731
12 4 0 0 0 0 0.642165341854095462
16 4 0 0 0 0 0.649221853733062737
20 4 0 0 0 0 0.845950407028198237
-20 8 0 0 0 0 447.98732666015627
-16 8 0 0 0 0 39.1510701141357416
-12 8 0 0 0 0 2.99349415016174314
-8 8 0 0 0 0 0.653891486644744835
-4 8 0 0 0 0 0.411378091812133806
0 8 0 0 0 0 0.471383803367614762
4 8 0 0 0 0 0.613880290985107435
8 8 0 0 0 0 0.682994631767272931
12 8 0 0 0 0 0.69571351003646853
16 8 0 0 0 0 0.702103841304779097
20 8 0 0 0 0 0.943594331264495878
-20 12 0 0 0 0 991.40818017578124
-16 12 0 0 0 0 115.286383056640631
-12 12 0 0 0 0 9.58810099411010697
-8 12 0 0 0 0 0.734479953289031928
-4 12 0 0 0 0 0.525450953483581507
0 12 0 0 0 0 0.541459433078765873
4 12 0 0 0 0 0.65786132574081424
8 12 0 0 0 0 0.741952102661132762
12 12 0 0 0 0 0.758648943901061967
16 12 0 0 0 0 0.749983013153076139
20 12 0 0 0 0 1.3540938720703124
-20 16 0 0 0 0 2214.3806035156249
-16 16 0 0 0 0 280.184379394531277
-12 16 0 0 0 0 26.8774957351684556
-8 16 0 0 0 0 1.9238600997924804
-4 16 0 0 0 0 0.594059936046600345
0 16 0 0 0 0 0.552069271087646474
4 16 0 0 0 0 0.654998307704925509
8 16 0 0 0 0 0.734429774284362846
12 16 0 0 0 0 0.78343500232696528
16 16 0 0 0 0 0.87720595550537106
20 16 0 0 0 0 1.49454724502563474
-20 20 0 0 0 0 4796.66477734374985
-16 20 0 0 0 0 633.768435180664028
-12 20 0 0 0 0 66.7331620635986269
-8 20 0 0 0 0 9.60667363357543991
-4 20 0 0 0 0 1.99598862552642831
0 20 0 0 0 0 1.13597651100158692
4 20 0 0 0 0 0.945219000339508009
8 20 0 0 0 0 0.883267018318176222
12 20 0 0 0 0 0.967162988185882533
16 20 0 0 0 0 1.31495202159881597
20 20 0 0 0 0 4.60493923187255838
4 0 1 12 11
4 1 2 13 12
4 2 3 14 13
4 3 4 15 14
4 4 5 16 15
4 5 6 17 16
4 6 7 18 17
4 7 8 19 18
4 8 9 20 19
4 9 10 21 20
4 11 12 23 22
4 12 13 24 23
4 13 14 25 24
4 14 15 26 25
4 15 16 27 26
4 16 17 28 27
4 17 18 29 28
4 18 19 30 29
4 19 20 31 30
4 20 21 32 31
4 22 23 34 33
4 23 24 35 34
4 24 25 36 35
4 25 26 37 36
4 26 27 38 37
4 27 28 39 38
4 28 29 40 39
4 29 30 41 40
4 30 31 42 41
4 31 32 43 42
4 33 34 45 44
4 34 35 46 45
4 35 36 47 46
4 36 37 48 47
4 37 38 49 48
4 38 39 50 49
4 39 40 51 50
4 40 41 52 51
4 41 42 53 52
4 42 43 54 53
4 44 45 56 55
4 45 46 57 56
4 46 47 58 57
4 47 48 59 58
4 48 49 60 59
4 49 50 61 60
4 50 51 62 61
4 51 52 63 62
4 52 53 64 63
4 53 54 65 64
4 55 56 67 66
4 56 57 68 67
4 57 58 69 68
4 58 59 70 69
4 59 60 71 70
4 60 61 72 71
4 61 62 73 72
4 62 63 74 73
4 63 64 75 74
4 64 65 76 75
4 66 67 78 77
4 67 68 79 78
4 68 69 80 79
4 69 70 81 80
4 70 71 82 81
4 71 72 83 82
4 72 73 84 83
4 73 74 85 84
4 74 75 86 85
4 75 76 87 86
4 77 78 89 88
4 78 79 90 89
4 79 80 91 90
4 80 81 92 91
4 81 82 93 92
4 82 83 94 93
4 83 84 95 94
4 84 85 96 95
4 85 86 97 96
4 86 87 98 97
4 88 89 100 99
4 89 90 101 100
4 90 91 102 101
4 91 92 103 102
4 92 93 104 103
4 93 94 105 104
4 94 95 106 105
4 95 96 107 106
4 96 97 108 107
4 97 98 109 108
4 99 100 111 110
4 100 101 112 111
4 101 102 113 112
4 102 103 114 113
4 103 104 115 114
4 104 105 116 115
4 105 106 117 116
4 106 107 118 117
4 107 108 119 118
4 108 109 120 119
