ply
format ascii 1.0
element vertex 121
property double x
property double y
property double z
property double vx
property double vy
property double vz
property double s
element face 100
property list uchar int vertex_indices
end_header
-20 -20 0 0 0 0 1650.04920996093756
-16 -20 0 0 0 0 776.979992187499988
-12 -20 0 0 0 0 368.842206054687495
-8 -20 0 0 0 0 175.316028259277346
-4 -20 0 0 0 0 93.6037717895507768
0 -20 0 0 0 0 65.0061238861083979
4 -20 0 0 0 0 84.8118733215331986
8 -20 0 0 0 0 137.784276184082017
12 -20 0 0 0 0 284.347173095703113
16 -20 0 0 0 0 502.569307617187519
20 -20 0 0 0 0 877.884874511718749
-20 -16 0 0 0 0 630.838979736328156
-16 -16 0 0 0 0 257.837209960937514
-12 -16 0 0 0 0 114.080529541015622
-8 -16 0 0 0 0 48.8123545227050784
-4 -16 0 0 0 0 25.2944923629760758
0 -16 0 0 0 0 17.9944789581298821
4 -16 0 0 0 0 25.8094994354248044
8 -16 0 0 0 0 48.8683760528564477
12 -16 0 0 0 0 94.516666015625006
16 -16 0 0 0 0 171.007120544433604
20 -16 0 0 0 0 335.034369506835958
-20 -12 0 0 0 0 268.962746215820289
-16 -12 0 0 0 0 105.870354125976561
-12 -12 0 0 0 0 39.3739049987792953
-8 -12 0 0 0 0 15.0987702026367181
-4 -12 0 0 0 0 6.667712306976318
0 -12 0 0 0 0 4.60916921520233114
4 -12 0 0 0 0 6.77539287948608404
8 -12 0 0 0 0 14.0247870101928704
12 -12 0 0 0 0 25.2014310913085922
16 -12 0 0 0 0 52.4851142272949218
20 -12 0 0 0 0 136.886686157226563
-20 -8 0 0 0 0 134.987810913085951
-16 -8 0 0 0 0 49.2780958709716828
-12 -8 0 0 0 0 17.2032239685058599
-8 -8 0 0 0 0 5.51012012290954623
-4 -8 0 0 0 0 1.82613051891326905
0 -8 0 0 0 0 0.893929214954376272
4 -8 0 0 0 0 1.40209860086441029
8 -8 0 0 0 0 2.81535740661621103
12 -8 0 0 0 0 5.68406153488159216
16 -8 0 0 0 0 17.2446374664306639
20 -8 0 0 0 0 67.3727644348144565
-20 -4 0 0 0 0 78.0226129150390619
-16 -4 0 0 0 0 27.6775135498046865
-12 -4 0 0 0 0 8.77803358078002915
-8 -4 0 0 0 0 2.21092699289321892
-4 -4 0 0 0 0 0.365522772550582908
0 -4 0 0 0 0 0.120575422450900083
4 -4 0 0 0 0 0.21721603399515152
8 -4 0 0 0 0 0.495180531740188612
12 -4 0 0 0 0 1.53420673465728763
16 -4 0 0 0 0 8.66485244369506802
20 -4 0 0 0 0 50.0052910156249979
-20 0 0 0 0 0 47.7135583801269547
-16 0 0 0 0 0 16.4318794517517084
-12 0 0 0 0 0 5.29659190177917516
-8 0 0 0 0 0 1.23690212225914009
-4 0 0 0 0 0 0.145842434840276841
0 0 0 0 0 0 0.064811318717896943
4 0 0 0 0 0 0.158494808316230779
8 0 0 0 0 0 0.256612639307975787
12 0 0 0 0 0 1.30629156684875491
16 0 0 0 0 0 12.6410892181396477
20 0 0 0 0 0 95.5843819580078105
-20 4 0 0 0 0 36.1214562377929695
-16 4 0 0 0 0 12.7347476387023928
-12 4 0 0 0 0 4.28165111541748011
-8 4 0 0 0 0 1.06524719905853282
-4 4 0 0 0 0 0.255727256506681433
0 4 0 0 0 0 0.189956607103347774
4 4 0 0 0 0 0.278860943794250471
8 4 0 0 0 0 0.627391244173049922
12 4 0 0 0 0 4.54879512977600076
16 4 0 0 0 0 39.2122376556396475
20 4 0 0 0 0 242.897613647460929
-20 8 0 0 0 0 36.2358523178100569
-16 8 0 0 0 0 13.5277246017456054
-12 8 0 0 0 0 4.68793404579162587
-8 8 0 0 0 0 1.52198875808715828
-4 8 0 0 0 0 0.455796724438667311
0 8 0 0 0 0 0.392146114587783812
4 8 0 0 0 0 0.879580627441406304
8 8 0 0 0 0 3.34573059463500977
12 8 0 0 0 0 18.4366240234374992
16 8 0 0 0 0 129.525616699218745
20 8 0 0 0 0 732.705452636718746
-20 12 0 0 0 0 46.3409934692382848
-16 12 0 0 0 0 17.4400215759277337
-12 12 0 0 0 0 6.23529133796691859
-8 12 0 0 0 0 2.26384493589401226
-4 12 0 0 0 0 0.735597704172134437
0 12 0 0 0 0 1.48805906772613517
4 12 0 0 0 0 4.71487627220153804
8 12 0 0 0 0 19.9785265731811528
12 12 0 0 0 0 103.032775726318363
16 12 0 0 0 0 510.416143066406278
20 12 0 0 0 0 2114.34252343749995
-20 16 0 0 0 0 63.1991591491699225
-16 16 0 0 0 0 26.4188591690063461
-12 16 0 0 0 0 12.1571206283569335
-8 16 0 0 0 0 4.92596194648742713
-4 16 0 0 0 0 2.72998256492614733
0 16 0 0 0 0 8.55807699584960879
4 16 0 0 0 0 29.3410474243164074
8 16 0 0 0 0 126.775474548339844
12 16 0 0 0 0 492.418439697265626
16 16 0 0 0 0 1879.46841503906239
20 16 0 0 0 0 6587.8885097656248
-20 20 0 0 0 0 128.085351196289054
-16 20 0 0 0 0 63.721030792236327
-12 20 0 0 0 0 29.8337321624755845
-8 20 0 0 0 0 12.7460667190551753
-4 20 0 0 0 0 15.4067360954284673
0 20 0 0 0 0 51.8616086120605502
4 20 0 0 0 0 165.565707397460926
8 20 0 0 0 0 588.2498852539062
12 20 0 0 0 0 2067.8820390625001
16 20 0 0 0 0 5992.03301562500019
20 20 0 0 0 0 18641.7708046875014
4 0 1 12 11
4 1 2 13 12
4 2 3 14 13
4 3 4 15 14
4 4 5 16 15
4 5 6 17 16
4 6 7 18 17
4 7 8 19 18
4 8 9 20 19
4 9 10 21 20
4 11 12 23 22
4 12 13 24 23
4 13 14 25 24
4 14 15 26 25
4 15 16 27 26
4 16 17 28 27
4 17 18 29 28
4 18 19 30 29
4 19 20 31 30
4 20 21 32 31
4 22 23 34 33
4 23 24 35 34
4 24 25 36 35
4 25 26 37 36
4 26 27 38 37
4 27 28 39 38
4 28 29 40 39
4 29 30 41 40
4 30 31 42 41
4 31 32 43 42
4 33 34 45 44
4 34 35 46 45
4 35 36 47 46
4 36 37 48 47
4 37 38 49 48
4 38 39 50 49
4 39 40 51 50
4 40 41 52 51
4 41 42 53 52
4 42 43 54 53
4 44 45 56 55
4 45 46 57 56
4 46 47 58 57
4 47 48 59 58
4 48 49 60 59
4 49 50 61 60
4 50 51 62 61
4 51 52 63 62
4 52 53 64 63
4 53 54 65 64
4 55 56 67 66
4 56 57 68 67
4 57 58 69 68
4 58 59 70 69
4 59 60 71 70
4 60 61 72 71
4 61 62 73 72
4 62 63 74 73
4 63 64 75 74
4 64 65 76 75
4 66 67 78 77
4 67 68 79 78
4 68 69 80 79
4 69 70 81 80
4 70 71 82 81
4 71 72 83 82
4 72 73 84 83
4 73 74 85 84
4 74 75 86 85
4 75 76 87 86
4 77 78 89 88
4 78 79 90 89
4 79 80 91 90
4 80 81 92 91
4 81 82 93 92
4 82 83 94 93
4 83 84 95 94
4 84 85 96 95
4 85 86 97 96
4 86 87 98 97
4 88 89 100 99
4 89 90 101 100
4 90 91 102 101
4 91 92 103 102
4 92 93 104 103
4 93 94 105 104
4 94 95 106 105
4 95 96 107 106
4 96 97 108 107
4 97 98 109 108
4 99 100 111 110
4 100 101 112 111
4 101 102 113 112
4 102 103 114 113
4 103 104 115 114
4 104 105 116 115
4 105 106 117 116
4 106 107 118 117
4 107 108 119 118
4 108 109 120 119
