ply
format ascii 1.0
element vertex 441
property double x
property double y
property double z
property double vx
property double vy
property double vz
property double s
element face 400
property list uchar int vertex_indices
end_header
-0.100000000000000006 -0.100000000000000006 0 0 0 0 0.0761449384391307826
-0.0900000000000000105 -0.100000000000000006 0 0 0 0 0.0706789222434163061
-0.0800000000000000155 -0.100000000000000006 0 0 0 0 0.0677776139453053483
-0.0700000000000000205 -0.100000000000000006 0 0 0 0 0.0725417555123567537
-0.0600000000000000255 -0.100000000000000006 0 0 0 0 0.0677522480189800269
-0.0500000000000000305 -0.100000000000000006 0 0 0 0 0.0681983115226030417
-0.0400000000000000355 -0.100000000000000006 0 0 0 0 0.0752988018393516562
-0.0300000000000000405 -0.100000000000000006 0 0 0 0 0.0698174034357070955
-0.0200000000000000455 -0.100000000000000006 0 0 0 0 0.0663656492680311239
-0.0100000000000000505 -0.100000000000000006 0 0 0 0 0.0712581310719251626
-5.5511151231257827e-17 -0.100000000000000006 0 0 0 0 0.0747244083285331789
0.00999999999999993949 -0.100000000000000006 0 0 0 0 0.0670869013369083389
0.0199999999999999345 -0.100000000000000006 0 0 0 0 0.0812604463845491426
0.0299999999999999434 -0.100000000000000006 0 0 0 0 0.0733853599280119007
0.0399999999999999245 -0.100000000000000006 0 0 0 0 0.073527319818735129
0.0499999999999999056 -0.100000000000000006 0 0 0 0 0.0722780254334211281
0.0599999999999999145 -0.100000000000000006 0 0 0 0 0.0751997993141412802
0.0699999999999999234 -0.100000000000000006 0 0 0 0 0.083514244779944416
0.0799999999999999045 -0.100000000000000006 0 0 0 0 0.086312692075967784
0.0899999999999998856 -0.100000000000000006 0 0 0 0 0.0819627585113048562
0.0999999999999998945 -0.100000000000000006 0 0 0 0 0.0864480986744165375
-0.100000000000000006 -0.0900000000000000105 0 0 0 0 0.0685201143100857696
-0.0900000000000000105 -0.0900000000000000105 0 0 0 0 0.0706006221473216983
-0.0800000000000000155 -0.0900000000000000105 0 0 0 0 0.0740507116466760651
-0.0700000000000000205 -0.0900000000000000105 0 0 0 0 0.0670126141011714999
-0.0600000000000000255 -0.0900000000000000105 0 0 0 0 0.0683340554088354146
-0.0500000000000000305 -0.0900000000000000105 0 0 0 0 0.0703324578925967198
-0.0400000000000000355 -0.0900000000000000105 0 0 0 0 0.0662486103624105455
-0.0300000000000000405 -0.0900000000000000105 0 0 0 0 0.0726654114425182296
-0.0200000000000000455 -0.0900000000000000105 0 0 0 0 0.0708998985588550623
-0.0100000000000000505 -0.0900000000000000105 0 0 0 0 0.072944870322942737
-5.5511151231257827e-17 -0.0900000000000000105 0 0 0 0 0.0718853402808308645
0.00999999999999993949 -0.0900000000000000105 0 0 0 0 0.064989823393523688
0.0199999999999999345 -0.0900000000000000105 0 0 0 0 0.0737731742560863435
0.0299999999999999434 -0.0900000000000000105 0 0 0 0 0.0759859060943126746
0.0399999999999999245 -0.0900000000000000105 0 0 0 0 0.0751909847185015662
0.0499999999999999056 -0.0900000000000000105 0 0 0 0 0.0778171029388904506
0.0599999999999999145 -0.0900000000000000105 0 0 0 0 0.0819016046375036222
0.0699999999999999234 -0.0900000000000000105 0 0 0 0 0.0812786191105842604
0.0799999999999999045 -0.0900000000000000105 0 0 0 0 0.0884347654730081589
0.0899999999999998856 -0.0900000000000000105 0 0 0 0 0.0857257493287324895
0.0999999999999998945 -0.0900000000000000105 0 0 0 0 0.0871894877851009387
-0.100000000000000006 -0.0800000000000000155 0 0 0 0 0.0723812426999211334
-0.0900000000000000105 -0.0800000000000000155 0 0 0 0 0.0692746549248695331
-0.0800000000000000155 -0.0800000000000000155 0 0 0 0 0.0660122062116861308
-0.0700000000000000205 -0.0800000000000000155 0 0 0 0 0.0733801698386669227
-0.0600000000000000255 -0.0800000000000000155 0 0 0 0 0.0712772277593612669
-0.0500000000000000305 -0.0800000000000000155 0 0 0 0 0.0653142933547496835
-0.0400000000000000355 -0.0800000000000000155 0 0 0 0 0.071717441231012341
-0.0300000000000000405 -0.0800000000000000155 0 0 0 0 0.0673242401406169005
-0.0200000000000000455 -0.0800000000000000155 0 0 0 0 0.0672861698269844044
-0.0100000000000000505 -0.0800000000000000155 0 0 0 0 0.0653451315239071823
-5.5511151231257827e-17 -0.0800000000000000155 0 0 0 0 0.0767059509307146115
0.00999999999999993949 -0.0800000000000000155 0 0 0 0 0.0727954517900943759
0.0199999999999999345 -0.0800000000000000155 0 0 0 0 0.07209451276063919
0.0299999999999999434 -0.0800000000000000155 0 0 0 0 0.0727844855263829194
0.0399999999999999245 -0.0800000000000000155 0 0 0 0 0.0699179418087005622
0.0499999999999999056 -0.0800000000000000155 0 0 0 0 0.0767490734159946425
0.0599999999999999145 -0.0800000000000000155 0 0 0 0 0.0818938416838645988
0.0699999999999999234 -0.0800000000000000155 0 0 0 0 0.0891171149462461482
0.0799999999999999045 -0.0800000000000000155 0 0 0 0 0.081105320006608958
0.0899999999999998856 -0.0800000000000000155 0 0 0 0 0.0837826032340526633
0.0999999999999998945 -0.0800000000000000155 0 0 0 0 0.084727601721882817
-0.100000000000000006 -0.0700000000000000205 0 0 0 0 0.0778361226171255111
-0.0900000000000000105 -0.0700000000000000205 0 0 0 0 0.0737465640604496042
-0.0800000000000000155 -0.0700000000000000205 0 0 0 0 0.0717997962385416022
-0.0700000000000000205 -0.0700000000000000205 0 0 0 0 0.0735984504967927972
-0.0600000000000000255 -0.0700000000000000205 0 0 0 0 0.072815513059496878
-0.0500000000000000305 -0.0700000000000000205 0 0 0 0 0.0718441668599844041
-0.0400000000000000355 -0.0700000000000000205 0 0 0 0 0.0682588832527399048
-0.0300000000000000405 -0.0700000000000000205 0 0 0 0 0.06798663581907749
-0.0200000000000000455 -0.0700000000000000205 0 0 0 0 0.0648461821824312251
-0.0100000000000000505 -0.0700000000000000205 0 0 0 0 0.0625907728746533387
-5.5511151231257827e-17 -0.0700000000000000205 0 0 0 0 0.0737810420542955453
0.00999999999999993949 -0.0700000000000000205 0 0 0 0 0.0746666978448629337
0.0199999999999999345 -0.0700000000000000205 0 0 0 0 0.0755033280253410294
0.0299999999999999434 -0.0700000000000000205 0 0 0 0 0.074599965736269952
0.0399999999999999245 -0.0700000000000000205 0 0 0 0 0.0766306043043732676
0.0499999999999999056 -0.0700000000000000205 0 0 0 0 0.0692474863231182097
0.0599999999999999145 -0.0700000000000000205 0 0 0 0 0.0792218172177672347
0.0699999999999999234 -0.0700000000000000205 0 0 0 0 0.0777789436876773765
0.0799999999999999045 -0.0700000000000000205 0 0 0 0 0.0824240593761205731
0.0899999999999998856 -0.0700000000000000205 0 0 0 0 0.0784389592558145526
0.0999999999999998945 -0.0700000000000000205 0 0 0 0 0.0853366456925868933
-0.100000000000000006 -0.0600000000000000255 0 0 0 0 0.0764951137155294447
-0.0900000000000000105 -0.0600000000000000255 0 0 0 0 0.0775207435414195095
-0.0800000000000000155 -0.0600000000000000255 0 0 0 0 0.0736037658452987631
-0.0700000000000000205 -0.0600000000000000255 0 0 0 0 0.0702970605343580246
-0.0600000000000000255 -0.0600000000000000255 0 0 0 0 0.0692319788485765419
-0.0500000000000000305 -0.0600000000000000255 0 0 0 0 0.0662270855009555875
-0.0400000000000000355 -0.0600000000000000255 0 0 0 0 0.0703799666911363586
-0.0300000000000000405 -0.0600000000000000255 0 0 0 0 0.0633451557010412253
-0.0200000000000000455 -0.0600000000000000255 0 0 0 0 0.0651597777605056744
-0.0100000000000000505 -0.0600000000000000255 0 0 0 0 0.0696576204970479063
-5.5511151231257827e-17 -0.0600000000000000255 0 0 0 0 0.0747028587162494595
0.00999999999999993949 -0.0600000000000000255 0 0 0 0 0.0695459266006946547
0.0199999999999999345 -0.0600000000000000255 0 0 0 0 0.0672760821133852049
0.0299999999999999434 -0.0600000000000000255 0 0 0 0 0.0738001074790954614
0.0399999999999999245 -0.0600000000000000255 0 0 0 0 0.0693297361284494346
0.0499999999999999056 -0.0600000000000000255 0 0 0 0 0.069271505475044251
0.0599999999999999145 -0.0600000000000000255 0 0 0 0 0.0727497932091355354
0.0699999999999999234 -0.0600000000000000255 0 0 0 0 0.0782134217023849471
0.0799999999999999045 -0.0600000000000000255 0 0 0 0 0.0806134162843227392
0.0899999999999998856 -0.0600000000000000255 0 0 0 0 0.0795073105543851882
0.0999999999999998945 -0.0600000000000000255 0 0 0 0 0.0851568648368120212
-0.100000000000000006 -0.0500000000000000305 0 0 0 0 0.0750713738501071898
-0.0900000000000000105 -0.0500000000000000305 0 0 0 0 0.070107966095209126
-0.0800000000000000155 -0.0500000000000000305 0 0 0 0 0.0708034109398722605
-0.0700000000000000205 -0.0500000000000000305 0 0 0 0 0.071107562720775605
-0.0600000000000000255 -0.0500000000000000305 0 0 0 0 0.0673722335398197203
-0.0500000000000000305 -0.0500000000000000305 0 0 0 0 0.0704523392319679198
-0.0400000000000000355 -0.0500000000000000305 0 0 0 0 0.0708187010586261712
-0.0300000000000000405 -0.0500000000000000305 0 0 0 0 0.0693965414464473712
-0.0200000000000000455 -0.0500000000000000305 0 0 0 0 0.063593077152967456
-0.0100000000000000505 -0.0500000000000000305 0 0 0 0 0.0684594333097338636
-5.5511151231257827e-17 -0.0500000000000000305 0 0 0 0 0.0670655650198459657
0.00999999999999993949 -0.0500000000000000305 0 0 0 0 0.0674517632573843062
0.0199999999999999345 -0.0500000000000000305 0 0 0 0 0.0719457551985979021
0.0299999999999999434 -0.0500000000000000305 0 0 0 0 0.0724447688758373259
0.0399999999999999245 -0.0500000000000000305 0 0 0 0 0.0718895824849605514
0.0499999999999999056 -0.0500000000000000305 0 0 0 0 0.0741693894714117036
0.0599999999999999145 -0.0500000000000000305 0 0 0 0 0.0788934143781662017
0.0699999999999999234 -0.0500000000000000305 0 0 0 0 0.0836506816744804343
0.0799999999999999045 -0.0500000000000000305 0 0 0 0 0.0784853255748748785
0.0899999999999998856 -0.0500000000000000305 0 0 0 0 0.0734688959419727283
0.0999999999999998945 -0.0500000000000000305 0 0 0 0 0.0777140206396579741
-0.100000000000000006 -0.0400000000000000355 0 0 0 0 0.0740967825204133929
-0.0900000000000000105 -0.0400000000000000355 0 0 0 0 0.0737382474392652559
-0.0800000000000000155 -0.0400000000000000355 0 0 0 0 0.0780013714432716415
-0.0700000000000000205 -0.0400000000000000355 0 0 0 0 0.070032759495079519
-0.0600000000000000255 -0.0400000000000000355 0 0 0 0 0.0759709960147738478
-0.0500000000000000305 -0.0400000000000000355 0 0 0 0 0.0733543519824743223
-0.0400000000000000355 -0.0400000000000000355 0 0 0 0 0.0681787993013858729
-0.0300000000000000405 -0.0400000000000000355 0 0 0 0 0.0684693617373704905
-0.0200000000000000455 -0.0400000000000000355 0 0 0 0 0.070094397187232968
-0.0100000000000000505 -0.0400000000000000355 0 0 0 0 0.065988914296031001
-5.5511151231257827e-17 -0.0400000000000000355 0 0 0 0 0.0664201037101447567
0.00999999999999993949 -0.0400000000000000355 0 0 0 0 0.0637524294555187193
0.0199999999999999345 -0.0400000000000000355 0 0 0 0 0.0710871569812297766
0.0299999999999999434 -0.0400000000000000355 0 0 0 0 0.0709956548810005139
0.0399999999999999245 -0.0400000000000000355 0 0 0 0 0.0729605720639228822
0.0499999999999999056 -0.0400000000000000355 0 0 0 0 0.0738425481915473969
0.0599999999999999145 -0.0400000000000000355 0 0 0 0 0.0688321486860513643
0.0699999999999999234 -0.0400000000000000355 0 0 0 0 0.0774280275106430105
0.0799999999999999045 -0.0400000000000000355 0 0 0 0 0.0815023237764835318
0.0899999999999998856 -0.0400000000000000355 0 0 0 0 0.0785838961899280597
0.0999999999999998945 -0.0400000000000000355 0 0 0 0 0.0811178890764713278
-0.100000000000000006 -0.0300000000000000405 0 0 0 0 0.0813433403819799478
-0.0900000000000000105 -0.0300000000000000405 0 0 0 0 0.0732483167201280622
-0.0800000000000000155 -0.0300000000000000405 0 0 0 0 0.0734470828175544793
-0.0700000000000000205 -0.0300000000000000405 0 0 0 0 0.06612057995051146
-0.0600000000000000255 -0.0300000000000000405 0 0 0 0 0.0717255704253911969
-0.0500000000000000305 -0.0300000000000000405 0 0 0 0 0.0685088279768824582
-0.0400000000000000355 -0.0300000000000000405 0 0 0 0 0.0710895564481616032
-0.0300000000000000405 -0.0300000000000000405 0 0 0 0 0.0653008927628397906
-0.0200000000000000455 -0.0300000000000000405 0 0 0 0 0.0661188649982213938
-0.0100000000000000505 -0.0300000000000000405 0 0 0 0 0.0642776179015636384
-5.5511151231257827e-17 -0.0300000000000000405 0 0 0 0 0.0682467798888683336
0.00999999999999993949 -0.0300000000000000405 0 0 0 0 0.0727651245594024693
0.0199999999999999345 -0.0300000000000000405 0 0 0 0 0.069417854085564612
0.0299999999999999434 -0.0300000000000000405 0 0 0 0 0.0733922503888606997
0.0399999999999999245 -0.0300000000000000405 0 0 0 0 0.0691393478885292956
0.0499999999999999056 -0.0300000000000000405 0 0 0 0 0.0750628461092710531
0.0599999999999999145 -0.0300000000000000405 0 0 0 0 0.070865330293774606
0.0699999999999999234 -0.0300000000000000405 0 0 0 0 0.0722788044959306736
0.0799999999999999045 -0.0300000000000000405 0 0 0 0 0.0716556015461683321
0.0899999999999998856 -0.0300000000000000405 0 0 0 0 0.0793443875759839989
0.0999999999999998945 -0.0300000000000000405 0 0 0 0 0.0757541867271065705
-0.100000000000000006 -0.0200000000000000455 0 0 0 0 0.071704813852906224
-0.0900000000000000105 -0.0200000000000000455 0 0 0 0 0.0722874410450458499
-0.0800000000000000155 -0.0200000000000000455 0 0 0 0 0.0713272380083799368
-0.0700000000000000205 -0.0200000000000000455 0 0 0 0 0.0763627182021737044
-0.0600000000000000255 -0.0200000000000000455 0 0 0 0 0.0708664945513010069
-0.0500000000000000305 -0.0200000000000000455 0 0 0 0 0.076136626623570916
-0.0400000000000000355 -0.0200000000000000455 0 0 0 0 0.0672139032706618317
-0.0300000000000000405 -0.0200000000000000455 0 0 0 0 0.0733007376492023494
-0.0200000000000000455 -0.0200000000000000455 0 0 0 0 0.0746928864941000942
-0.0100000000000000505 -0.0200000000000000455 0 0 0 0 0.0618286380320787407
-5.5511151231257827e-17 -0.0200000000000000455 0 0 0 0 0.0706205313652753797
0.00999999999999993949 -0.0200000000000000455 0 0 0 0 0.0750705768465995821
0.0199999999999999345 -0.0200000000000000455 0 0 0 0 0.0714403365999460166
0.0299999999999999434 -0.0200000000000000455 0 0 0 0 0.0714226448833942401
0.0399999999999999245 -0.0200000000000000455 0 0 0 0 0.072714723929762845
0.0499999999999999056 -0.0200000000000000455 0 0 0 0 0.0698138329908251781
0.0599999999999999145 -0.0200000000000000455 0 0 0 0 0.0698386290520429664
0.0699999999999999234 -0.0200000000000000455 0 0 0 0 0.0754564254581928245
0.0799999999999999045 -0.0200000000000000455 0 0 0 0 0.0686767903119325646
0.0899999999999998856 -0.0200000000000000455 0 0 0 0 0.0677492782324552595
0.0999999999999998945 -0.0200000000000000455 0 0 0 0 0.0800980913192033822
-0.100000000000000006 -0.0100000000000000505 0 0 0 0 0.0794012121558189399
-0.0900000000000000105 -0.0100000000000000505 0 0 0 0 0.0672387485057115569
-0.0800000000000000155 -0.0100000000000000505 0 0 0 0 0.0775717430412769249
-0.0700000000000000205 -0.0100000000000000505 0 0 0 0 0.0729794906973838808
-0.0600000000000000255 -0.0100000000000000505 0 0 0 0 0.0666033926606178217
-0.0500000000000000305 -0.0100000000000000505 0 0 0 0 0.0685600467473268527
-0.0400000000000000355 -0.0100000000000000505 0 0 0 0 0.067855660885572433
-0.0300000000000000405 -0.0100000000000000505 0 0 0 0 0.0678784414380788764
-0.0200000000000000455 -0.0100000000000000505 0 0 0 0 0.0694540157467126856
-0.0100000000000000505 -0.0100000000000000505 0 0 0 0 0.0687513553649187065
-5.5511151231257827e-17 -0.0100000000000000505 0 0 0 0 0.0752457170039415313
0.00999999999999993949 -0.0100000000000000505 0 0 0 0 0.0644995222836732829
0.0199999999999999345 -0.0100000000000000505 0 0 0 0 0.0671086334586143557
0.0299999999999999434 -0.0100000000000000505 0 0 0 0 0.0696545098498463633
0.0399999999999999245 -0.0100000000000000505 0 0 0 0 0.0669370662569999664
0.0499999999999999056 -0.0100000000000000505 0 0 0 0 0.0671174525171518294
0.0599999999999999145 -0.0100000000000000505 0 0 0 0 0.0743936865106225031
0.0699999999999999234 -0.0100000000000000505 0 0 0 0 0.0692063476890325546
0.0799999999999999045 -0.0100000000000000505 0 0 0 0 0.0764432181417942086
0.0899999999999998856 -0.0100000000000000505 0 0 0 0 0.0700540471524000175
0.0999999999999998945 -0.0100000000000000505 0 0 0 0 0.072908164635300643
-0.100000000000000006 -5.5511151231257827e-17 0 0 0 0 0.0741245142295956644
-0.0900000000000000105 -5.5511151231257827e-17 0 0 0 0 0.0717445002496242545
-0.0800000000000000155 -5.5511151231257827e-17 0 0 0 0 0.0707734542712569192
-0.0700000000000000205 -5.5511151231257827e-17 0 0 0 0 0.0717725491672754345
-0.0600000000000000255 -5.5511151231257827e-17 0 0 0 0 0.0734684015065431573
-0.0500000000000000305 -5.5511151231257827e-17 0 0 0 0 0.0710184509009122861
-0.0400000000000000355 -5.5511151231257827e-17 0 0 0 0 0.0669893718212842965
-0.0300000000000000405 -5.5511151231257827e-17 0 0 0 0 0.070370875351130957
-0.0200000000000000455 -5.5511151231257827e-17 0 0 0 0 0.0664334475100040456
-0.0100000000000000505 -5.5511151231257827e-17 0 0 0 0 0.0668109646886587139
-5.5511151231257827e-17 -5.5511151231257827e-17 0 0 0 0 0.0710256252586841524
0.00999999999999993949 -5.5511151231257827e-17 0 0 0 0 0.0686939114630222281
0.0199999999999999345 -5.5511151231257827e-17 0 0 0 0 0.0740596881806850488
0.0299999999999999434 -5.5511151231257827e-17 0 0 0 0 0.0677934558764100026
0.0399999999999999245 -5.5511151231257827e-17 0 0 0 0 0.0732620178461074884
0.0499999999999999056 -5.5511151231257827e-17 0 0 0 0 0.0693315864503383644
0.0599999999999999145 -5.5511151231257827e-17 0 0 0 0 0.0706509748548269229
0.0699999999999999234 -5.5511151231257827e-17 0 0 0 0 0.0728412822484970079
0.0799999999999999045 -5.5511151231257827e-17 0 0 0 0 0.0699054525792598691
0.0899999999999998856 -5.5511151231257827e-17 0 0 0 0 0.0732474802583455986
0.0999999999999998945 -5.5511151231257827e-17 0 0 0 0 0.078515692532062531
-0.100000000000000006 0.00999999999999993949 0 0 0 0 0.0771420438587665513
-0.0900000000000000105 0.00999999999999993949 0 0 0 0 0.0744618074893951404
-0.0800000000000000155 0.00999999999999993949 0 0 0 0 0.0767043093368411089
-0.0700000000000000205 0.00999999999999993949 0 0 0 0 0.0681273704171180688
-0.0600000000000000255 0.00999999999999993949 0 0 0 0 0.0739153386354446384
-0.0500000000000000305 0.00999999999999993949 0 0 0 0 0.0752283791527151996
-0.0400000000000000355 0.00999999999999993949 0 0 0 0 0.0740727541893720642
-0.0300000000000000405 0.00999999999999993949 0 0 0 0 0.0673583010435104407
-0.0200000000000000455 0.00999999999999993949 0 0 0 0 0.0688896586447954179
-0.0100000000000000505 0.00999999999999993949 0 0 0 0 0.074751041308045385
-5.5511151231257827e-17 0.00999999999999993949 0 0 0 0 0.0728017410486936634
0.00999999999999993949 0.00999999999999993949 0 0 0 0 0.0687517570480704332
0.0199999999999999345 0.00999999999999993949 0 0 0 0 0.0705698432624340122
0.0299999999999999434 0.00999999999999993949 0 0 0 0 0.0657793216332793196
0.0399999999999999245 0.00999999999999993949 0 0 0 0 0.0712656292766332689
0.0499999999999999056 0.00999999999999993949 0 0 0 0 0.0669728729426860847
0.0599999999999999145 0.00999999999999993949 0 0 0 0 0.0746915827393531823
0.0699999999999999234 0.00999999999999993949 0 0 0 0 0.0704234951138496407
0.0799999999999999045 0.00999999999999993949 0 0 0 0 0.072652702517807477
0.0899999999999998856 0.00999999999999993949 0 0 0 0 0.07682634197175503
0.0999999999999998945 0.00999999999999993949 0 0 0 0 0.0785040905997157062
-0.100000000000000006 0.0199999999999999345 0 0 0 0 0.0783033041059970902
-0.0900000000000000105 0.0199999999999999345 0 0 0 0 0.0792011667005717707
-0.0800000000000000155 0.0199999999999999345 0 0 0 0 0.0785179719775915136
-0.0700000000000000205 0.0199999999999999345 0 0 0 0 0.0767518510222434946
-0.0600000000000000255 0.0199999999999999345 0 0 0 0 0.0772902494519948913
-0.0500000000000000305 0.0199999999999999345 0 0 0 0 0.0713341396003961542
-0.0400000000000000355 0.0199999999999999345 0 0 0 0 0.0717269693464040736
-0.0300000000000000405 0.0199999999999999345 0 0 0 0 0.0711642170883715203
-0.0200000000000000455 0.0199999999999999345 0 0 0 0 0.0663397972211241665
-0.0100000000000000505 0.0199999999999999345 0 0 0 0 0.074109726816415783
-5.5511151231257827e-17 0.0199999999999999345 0 0 0 0 0.0702150792926549971
0.00999999999999993949 0.0199999999999999345 0 0 0 0 0.067317959774285549
0.0199999999999999345 0.0199999999999999345 0 0 0 0 0.0686768046915531144
0.0299999999999999434 0.0199999999999999345 0 0 0 0 0.0687397868856787636
0.0399999999999999245 0.0199999999999999345 0 0 0 0 0.0717750554308295291
0.0499999999999999056 0.0199999999999999345 0 0 0 0 0.0752759505808353463
0.0599999999999999145 0.0199999999999999345 0 0 0 0 0.0719314760714769297
0.0699999999999999234 0.0199999999999999345 0 0 0 0 0.0702074532099068171
0.0799999999999999045 0.0199999999999999345 0 0 0 0 0.071848551958799356
0.0899999999999998856 0.0199999999999999345 0 0 0 0 0.0688196055144071617
0.0999999999999998945 0.0199999999999999345 0 0 0 0 0.0739857030957937201
-0.100000000000000006 0.0299999999999999434 0 0 0 0 0.0745536056607961628
-0.0900000000000000105 0.0299999999999999434 0 0 0 0 0.0802770343869924491
-0.0800000000000000155 0.0299999999999999434 0 0 0 0 0.0810130788236856497
-0.0700000000000000205 0.0299999999999999434 0 0 0 0 0.0745954582393169446
-0.0600000000000000255 0.0299999999999999434 0 0 0 0 0.0734830796346068321
-0.0500000000000000305 0.0299999999999999434 0 0 0 0 0.0724816484004259104
-0.0400000000000000355 0.0299999999999999434 0 0 0 0 0.0723824681267142278
-0.0300000000000000405 0.0299999999999999434 0 0 0 0 0.0691743226945400191
-0.0200000000000000455 0.0299999999999999434 0 0 0 0 0.0739600396305322705
-0.0100000000000000505 0.0299999999999999434 0 0 0 0 0.0664465563446283297
-5.5511151231257827e-17 0.0299999999999999434 0 0 0 0 0.0693620280474424311
0.00999999999999993949 0.0299999999999999434 0 0 0 0 0.068954367384314541
0.0199999999999999345 0.0299999999999999434 0 0 0 0 0.0659714554399251918
0.0299999999999999434 0.0299999999999999434 0 0 0 0 0.0767366411089897144
0.0399999999999999245 0.0299999999999999434 0 0 0 0 0.0645265662819147073
0.0499999999999999056 0.0299999999999999434 0 0 0 0 0.07083193798363209
0.0599999999999999145 0.0299999999999999434 0 0 0 0 0.0714708137363195412
0.0699999999999999234 0.0299999999999999434 0 0 0 0 0.0746753530651330932
0.0799999999999999045 0.0299999999999999434 0 0 0 0 0.0663355138674378425
0.0899999999999998856 0.0299999999999999434 0 0 0 0 0.0710437023341655705
0.0999999999999998945 0.0299999999999999434 0 0 0 0 0.0744956350922584554
-0.100000000000000006 0.0399999999999999245 0 0 0 0 0.079471874356269831
-0.0900000000000000105 0.0399999999999999245 0 0 0 0 0.0829546188265085221
-0.0800000000000000155 0.0399999999999999245 0 0 0 0 0.0752698733508586904
-0.0700000000000000205 0.0399999999999999245 0 0 0 0 0.0746431163698434846
-0.0600000000000000255 0.0399999999999999245 0 0 0 0 0.079882101446390158
-0.0500000000000000305 0.0399999999999999245 0 0 0 0 0.0690304185599088654
-0.0400000000000000355 0.0399999999999999245 0 0 0 0 0.0697074751257896474
-0.0300000000000000405 0.0399999999999999245 0 0 0 0 0.0725659938156604789
-0.0200000000000000455 0.0399999999999999245 0 0 0 0 0.0737181226760148939
-0.0100000000000000505 0.0399999999999999245 0 0 0 0 0.0707030440121889092
-5.5511151231257827e-17 0.0399999999999999245 0 0 0 0 0.0696196807771921194
0.00999999999999993949 0.0399999999999999245 0 0 0 0 0.0760743658989667948
0.0199999999999999345 0.0399999999999999245 0 0 0 0 0.0677223517745733222
0.0299999999999999434 0.0399999999999999245 0 0 0 0 0.0691883065551519433
0.0399999999999999245 0.0399999999999999245 0 0 0 0 0.0746347361057996816
0.0499999999999999056 0.0399999999999999245 0 0 0 0 0.073591469980776314
0.0599999999999999145 0.0399999999999999245 0 0 0 0 0.0779227657914161737
0.0699999999999999234 0.0399999999999999245 0 0 0 0 0.075747796475887294
0.0799999999999999045 0.0399999999999999245 0 0 0 0 0.0776357031017541888
0.0899999999999998856 0.0399999999999999245 0 0 0 0 0.0696825853437185311
0.0999999999999998945 0.0399999999999999245 0 0 0 0 0.0759641181379556718
-0.100000000000000006 0.0499999999999999056 0 0 0 0 0.0784683580994606084
-0.0900000000000000105 0.0499999999999999056 0 0 0 0 0.0832131579667329813
-0.0800000000000000155 0.0499999999999999056 0 0 0 0 0.0861066389977931945
-0.0700000000000000205 0.0499999999999999056 0 0 0 0 0.0797715802788734468
-0.0600000000000000255 0.0499999999999999056 0 0 0 0 0.0687765665203332877
-0.0500000000000000305 0.0499999999999999056 0 0 0 0 0.069151244111359117
-0.0400000000000000355 0.0499999999999999056 0 0 0 0 0.0779365587830543466
-0.0300000000000000405 0.0499999999999999056 0 0 0 0 0.0738845027685165467
-0.0200000000000000455 0.0499999999999999056 0 0 0 0 0.0736170904636383044
-0.0100000000000000505 0.0499999999999999056 0 0 0 0 0.0743687350749969445
-5.5511151231257827e-17 0.0499999999999999056 0 0 0 0 0.0732461632192134837
0.00999999999999993949 0.0499999999999999056 0 0 0 0 0.0735332580804824859
0.0199999999999999345 0.0499999999999999056 0 0 0 0 0.074210387289524074
0.0299999999999999434 0.0499999999999999056 0 0 0 0 0.0756102569252252582
0.0399999999999999245 0.0499999999999999056 0 0 0 0 0.0759978016465902295
0.0499999999999999056 0.0499999999999999056 0 0 0 0 0.0724681534841656733
0.0599999999999999145 0.0499999999999999056 0 0 0 0 0.0682066503167152449
0.0699999999999999234 0.0499999999999999056 0 0 0 0 0.0766598405689001144
0.0799999999999999045 0.0499999999999999056 0 0 0 0 0.0777973963767290139
0.0899999999999998856 0.0499999999999999056 0 0 0 0 0.0744065013378858581
0.0999999999999998945 0.0499999999999999056 0 0 0 0 0.0747050938233733142
-0.100000000000000006 0.0599999999999999145 0 0 0 0 0.0833354357779026028
-0.0900000000000000105 0.0599999999999999145 0 0 0 0 0.0739858280047774319
-0.0800000000000000155 0.0599999999999999145 0 0 0 0 0.0812937835752964022
-0.0700000000000000205 0.0599999999999999145 0 0 0 0 0.0885869519412517542
-0.0600000000000000255 0.0599999999999999145 0 0 0 0 0.078011793807148927
-0.0500000000000000305 0.0599999999999999145 0 0 0 0 0.0753820296898484177
-0.0400000000000000355 0.0599999999999999145 0 0 0 0 0.0738341759890317889
-0.0300000000000000405 0.0599999999999999145 0 0 0 0 0.0729656268805265462
-0.0200000000000000455 0.0599999999999999145 0 0 0 0 0.075909860461950307
-0.0100000000000000505 0.0599999999999999145 0 0 0 0 0.0768601782321929883
-5.5511151231257827e-17 0.0599999999999999145 0 0 0 0 0.0752225021868944133
0.00999999999999993949 0.0599999999999999145 0 0 0 0 0.0730342321768403108
0.0199999999999999345 0.0599999999999999145 0 0 0 0 0.0711350137889385226
0.0299999999999999434 0.0599999999999999145 0 0 0 0 0.0801692363917827638
0.0399999999999999245 0.0599999999999999145 0 0 0 0 0.0760155050009489047
0.0499999999999999056 0.0599999999999999145 0 0 0 0 0.0690690295547246869
0.0599999999999999145 0.0599999999999999145 0 0 0 0 0.0748139629736542661
0.0699999999999999234 0.0599999999999999145 0 0 0 0 0.0754049538783729129
0.0799999999999999045 0.0599999999999999145 0 0 0 0 0.0742221597880124984
0.0899999999999998856 0.0599999999999999145 0 0 0 0 0.068925950810313219
0.0999999999999998945 0.0599999999999999145 0 0 0 0 0.0810248518139123908
-0.100000000000000006 0.0699999999999999234 0 0 0 0 0.085592697069048887
-0.0900000000000000105 0.0699999999999999234 0 0 0 0 0.0806180887818336439
-0.0800000000000000155 0.0699999999999999234 0 0 0 0 0.0796571606397628723
-0.0700000000000000205 0.0699999999999999234 0 0 0 0 0.0780527862310409493
-0.0600000000000000255 0.0699999999999999234 0 0 0 0 0.0793622707426547974
-0.0500000000000000305 0.0699999999999999234 0 0 0 0 0.084357092581689358
-0.0400000000000000355 0.0699999999999999234 0 0 0 0 0.0744074749946594255
-0.0300000000000000405 0.0699999999999999234 0 0 0 0 0.073828250616788868
-0.0200000000000000455 0.0699999999999999234 0 0 0 0 0.0779919781684875468
-0.0100000000000000505 0.0699999999999999234 0 0 0 0 0.0760467644929885833
-5.5511151231257827e-17 0.0699999999999999234 0 0 0 0 0.0747249390259385055
0.00999999999999993949 0.0699999999999999234 0 0 0 0 0.0800065076947212156
0.0199999999999999345 0.0699999999999999234 0 0 0 0 0.0788166162371635448
0.0299999999999999434 0.0699999999999999234 0 0 0 0 0.0781306650340557046
0.0399999999999999245 0.0699999999999999234 0 0 0 0 0.0795235217958688706
0.0499999999999999056 0.0699999999999999234 0 0 0 0 0.0779360831677913674
0.0599999999999999145 0.0699999999999999234 0 0 0 0 0.0809703547209501273
0.0699999999999999234 0.0699999999999999234 0 0 0 0 0.0774066057950258263
0.0799999999999999045 0.0699999999999999234 0 0 0 0 0.0748357844650745369
0.0899999999999998856 0.0699999999999999234 0 0 0 0 0.0727436101138591723
0.0999999999999998945 0.0699999999999999234 0 0 0 0 0.0811717693507671423
-0.100000000000000006 0.0799999999999999045 0 0 0 0 0.0850076256096363031
-0.0900000000000000105 0.0799999999999999045 0 0 0 0 0.0808724139928817809
-0.0800000000000000155 0.0799999999999999045 0 0 0 0 0.0833755058199167204
-0.0700000000000000205 0.0799999999999999045 0 0 0 0 0.0748110218197107352
-0.0600000000000000255 0.0799999999999999045 0 0 0 0 0.0783518019318580616
-0.0500000000000000305 0.0799999999999999045 0 0 0 0 0.0845172302126884489
-0.0400000000000000355 0.0799999999999999045 0 0 0 0 0.0780411059409379937
-0.0300000000000000405 0.0799999999999999045 0 0 0 0 0.0780326663404703191
-0.0200000000000000455 0.0799999999999999045 0 0 0 0 0.0742618823051452576
-0.0100000000000000505 0.0799999999999999045 0 0 0 0 0.0746780029535293599
-5.5511151231257827e-17 0.0799999999999999045 0 0 0 0 0.081567996740341181
0.00999999999999993949 0.0799999999999999045 0 0 0 0 0.0833321288675069743
0.0199999999999999345 0.0799999999999999045 0 0 0 0 0.0777499189227819493
0.0299999999999999434 0.0799999999999999045 0 0 0 0 0.0756400215923786201
0.0399999999999999245 0.0799999999999999045 0 0 0 0 0.0739382653087377606
0.0499999999999999056 0.0799999999999999045 0 0 0 0 0.0830559715181589109
0.0599999999999999145 0.0799999999999999045 0 0 0 0 0.0738205792754888512
0.0699999999999999234 0.0799999999999999045 0 0 0 0 0.0793815930187702218
0.0799999999999999045 0.0799999999999999045 0 0 0 0 0.0755405360236763995
0.0899999999999998856 0.0799999999999999045 0 0 0 0 0.0811647846400737755
0.0999999999999998945 0.0799999999999999045 0 0 0 0 0.0779151465594768583
-0.100000000000000006 0.0899999999999998856 0 0 0 0 0.0840670562982559211
-0.0900000000000000105 0.0899999999999998856 0 0 0 0 0.0822984480261802626
-0.0800000000000000155 0.0899999999999998856 0 0 0 0 0.0814759793877601612
-0.0700000000000000205 0.0899999999999998856 0 0 0 0 0.0754195755124092149
-0.0600000000000000255 0.0899999999999998856 0 0 0 0 0.0818384680747985815
-0.0500000000000000305 0.0899999999999998856 0 0 0 0 0.0756854301989078465
-0.0400000000000000355 0.0899999999999998856 0 0 0 0 0.0785785941481590283
-0.0300000000000000405 0.0899999999999998856 0 0 0 0 0.085873348489403728
-0.0200000000000000455 0.0899999999999998856 0 0 0 0 0.0863132641315460247
-0.0100000000000000505 0.0899999999999998856 0 0 0 0 0.080618777059018612
-5.5511151231257827e-17 0.0899999999999998856 0 0 0 0 0.0788957601636648131
0.00999999999999993949 0.0899999999999998856 0 0 0 0 0.0919188422560691804
0.0199999999999999345 0.0899999999999998856 0 0 0 0 0.0796785341352224397
0.0299999999999999434 0.0899999999999998856 0 0 0 0 0.0788432746306061694
0.0399999999999999245 0.0899999999999998856 0 0 0 0 0.0772211816608905782
0.0499999999999999056 0.0899999999999998856 0 0 0 0 0.0804800830185413429
0.0599999999999999145 0.0899999999999998856 0 0 0 0 0.0739917258620262086
0.0699999999999999234 0.0899999999999998856 0 0 0 0 0.0781793446689844074
0.0799999999999999045 0.0899999999999998856 0 0 0 0 0.0811394772231578826
0.0899999999999998856 0.0899999999999998856 0 0 0 0 0.0786722337454557469
0.0999999999999998945 0.0899999999999998856 0 0 0 0 0.0783277480900287648
-0.100000000000000006 0.0999999999999998945 0 0 0 0 0.0887025539427995641
-0.0900000000000000105 0.0999999999999998945 0 0 0 0 0.0820116057097911855
-0.0800000000000000155 0.0999999999999998945 0 0 0 0 0.0908176704794168427
-0.0700000000000000205 0.0999999999999998945 0 0 0 0 0.0871399170756339964
-0.0600000000000000255 0.0999999999999998945 0 0 0 0 0.0789687226265668868
-0.0500000000000000305 0.0999999999999998945 0 0 0 0 0.0826525676548481025
-0.0400000000000000355 0.0999999999999998945 0 0 0 0 0.0857908815965056359
-0.0300000000000000405 0.0999999999999998945 0 0 0 0 0.0857210322469472846
-0.0200000000000000455 0.0999999999999998945 0 0 0 0 0.0797749712467193672
-0.0100000000000000505 0.0999999999999998945 0 0 0 0 0.0793770638480782442
-5.5511151231257827e-17 0.0999999999999998945 0 0 0 0 0.0897921822071075376
0.00999999999999993949 0.0999999999999998945 0 0 0 0 0.0844359129220247223
0.0199999999999999345 0.0999999999999998945 0 0 0 0 0.0834802449718117651
0.0299999999999999434 0.0999999999999998945 0 0 0 0 0.0823534233868122162
0.0399999999999999245 0.0999999999999998945 0 0 0 0 0.0784953451156616272
0.0499999999999999056 0.0999999999999998945 0 0 0 0 0.0919698706865310633
0.0599999999999999145 0.0999999999999998945 0 0 0 0 0.081066797882318492
0.0699999999999999234 0.0999999999999998945 0 0 0 0 0.082715865060687066
0.0799999999999999045 0.0999999999999998945 0 0 0 0 0.0837449253946542793
0.0899999999999998856 0.0999999999999998945 0 0 0 0 0.0795993452221155223
0.0999999999999998945 0.0999999999999998945 0 0 0 0 0.0863854664415121126
4 0 1 22 21
4 1 2 23 22
4 2 3 24 23
4 3 4 25 24
4 4 5 26 25
4 5 6 27 26
4 6 7 28 27
4 7 8 29 28
4 8 9 30 29
4 9 10 31 30
4 10 11 32 31
4 11 12 33 32
4 12 13 34 33
4 13 14 35 34
4 14 15 36 35
4 15 16 37 36
4 16 17 38 37
4 17 18 39 38
4 18 19 40 39
4 19 20 41 40
4 21 22 43 42
4 22 23 44 43
4 23 24 45 44
4 24 25 46 45
4 25 26 47 46
4 26 27 48 47
4 27 28 49 48
4 28 29 50 49
4 29 30 51 50
4 30 31 52 51
4 31 32 53 52
4 32 33 54 53
4 33 34 55 54
4 34 35 56 55
4 35 36 57 56
4 36 37 58 57
4 37 38 59 58
4 38 39 60 59
4 39 40 61 60
4 40 41 62 61
4 42 43 64 63
4 43 44 65 64
4 44 45 66 65
4 45 46 67 66
4 46 47 68 67
4 47 48 69 68
4 48 49 70 69
4 49 50 71 70
4 50 51 72 71
4 51 52 73 72
4 52 53 74 73
4 53 54 75 74
4 54 55 76 75
4 55 56 77 76
4 56 57 78 77
4 57 58 79 78
4 58 59 80 79
4 59 60 81 80
4 60 61 82 81
4 61 62 83 82
4 63 64 85 84
4 64 65 86 85
4 65 66 87 86
4 66 67 88 87
4 67 68 89 88
4 68 69 90 89
4 69 70 91 90
4 70 71 92 91
4 71 72 93 92
4 72 73 94 93
4 73 74 95 94
4 74 75 96 95
4 75 76 97 96
4 76 77 98 97
4 77 78 99 98
4 78 79 100 99
4 79 80 101 100
4 80 81 102 101
4 81 82 103 102
4 82 83 104 103
4 84 85 106 105
4 85 86 107 106
4 86 87 108 107
4 87 88 109 108
4 88 89 110 109
4 89 90 111 110
4 90 91 112 111
4 91 92 113 112
4 92 93 114 113
4 93 94 115 114
4 94 95 116 115
4 95 96 117 116
4 96 97 118 117
4 97 98 119 118
4 98 99 120 119
4 99 100 121 120
4 100 101 122 121
4 101 102 123 122
4 102 103 124 123
4 103 104 125 124
4 105 106 127 126
4 106 107 128 127
4 107 108 129 128
4 108 109 130 129
4 109 110 131 130
4 110 111 132 131
4 111 112 133 132
4 112 113 134 133
4 113 114 135 134
4 114 115 136 135
4 115 116 137 136
4 116 117 138 137
4 117 118 139 138
4 118 119 140 139
4 119 120 141 140
4 120 121 142 141
4 121 122 143 142
4 122 123 144 143
4 123 124 145 144
4 124 125 146 145
4 126 127 148 147
4 127 128 149 148
4 128 129 150 149
4 129 130 151 150
4 130 131 152 151
4 131 132 153 152
4 132 133 154 153
4 133 134 155 154
4 134 135 156 155
4 135 136 157 156
4 136 137 158 157
4 137 138 159 158
4 138 139 160 159
4 139 140 161 160
4 140 141 162 161
4 141 142 163 162
4 142 143 164 163
4 143 144 165 164
4 144 145 166 165
4 145 146 167 166
4 147 148 169 168
4 148 149 170 169
4 149 150 171 170
4 150 151 172 171
4 151 152 173 172
4 152 153 174 173
4 153 154 175 174
4 154 155 176 175
4 155 156 177 176
4 156 157 178 177
4 157 158 179 178
4 158 159 180 179
4 159 160 181 180
4 160 161 182 181
4 161 162 183 182
4 162 163 184 183
4 163 164 185 184
4 164 165 186 185
4 165 166 187 186
4 166 167 188 187
4 168 169 190 189
4 169 170 191 190
4 170 171 192 191
4 171 172 193 192
4 172 173 194 193
4 173 174 195 194
4 174 175 196 195
4 175 176 197 196
4 176 177 198 197
4 177 178 199 198
4 178 179 200 199
4 179 180 201 200
4 180 181 202 201
4 181 182 203 202
4 182 183 204 203
4 183 184 205 204
4 184 185 206 205
4 185 186 207 206
4 186 187 208 207
4 187 188 209 208
4 189 190 211 210
4 190 191 212 211
4 191 192 213 212
4 192 193 214 213
4 193 194 215 214
4 194 195 216 215
4 195 196 217 216
4 196 197 218 217
4 197 198 219 218
4 198 199 220 219
4 199 200 221 220
4 200 201 222 221
4 201 202 223 222
4 202 203 224 223
4 203 204 225 224
4 204 205 226 225
4 205 206 227 226
4 206 207 228 227
4 207 208 229 228
4 208 209 230 229
4 210 211 232 231
4 211 212 233 232
4 212 213 234 233
4 213 214 235 234
4 214 215 236 235
4 215 216 237 236
4 216 217 238 237
4 217 218 239 238
4 218 219 240 239
4 219 220 241 240
4 220 221 242 241
4 221 222 243 242
4 222 223 244 243
4 223 224 245 244
4 224 225 246 245
4 225 226 247 246
4 226 227 248 247
4 227 228 249 248
4 228 229 250 249
4 229 230 251 250
4 231 232 253 252
4 232 233 254 253
4 233 234 255 254
4 234 235 256 255
4 235 236 257 256
4 236 237 258 257
4 237 238 259 258
4 238 239 260 259
4 239 240 261 260
4 240 241 262 261
4 241 242 263 262
4 242 243 264 263
4 243 244 265 264
4 244 245 266 265
4 245 246 267 266
4 246 247 268 267
4 247 248 269 268
4 248 249 270 269
4 249 250 271 270
4 250 251 272 271
4 252 253 274 273
4 253 254 275 274
4 254 255 276 275
4 255 256 277 276
4 256 257 278 277
4 257 258 279 278
4 258 259 280 279
4 259 260 281 280
4 260 261 282 281
4 261 262 283 282
4 262 263 284 283
4 263 264 285 284
4 264 265 286 285
4 265 266 287 286
4 266 267 288 287
4 267 268 289 288
4 268 269 290 289
4 269 270 291 290
4 270 271 292 291
4 271 272 293 292
4 273 274 295 294
4 274 275 296 295
4 275 276 297 296
4 276 277 298 297
4 277 278 299 298
4 278 279 300 299
4 279 280 301 300
4 280 281 302 301
4 281 282 303 302
4 282 283 304 303
4 283 284 305 304
4 284 285 306 305
4 285 286 307 306
4 286 287 308 307
4 287 288 309 308
4 288 289 310 309
4 289 290 311 310
4 290 291 312 311
4 291 292 313 312
4 292 293 314 313
4 294 295 316 315
4 295 296 317 316
4 296 297 318 317
4 297 298 319 318
4 298 299 320 319
4 299 300 321 320
4 300 301 322 321
4 301 302 323 322
4 302 303 324 323
4 303 304 325 324
4 304 305 326 325
4 305 306 327 326
4 306 307 328 327
4 307 308 329 328
4 308 309 330 329
4 309 310 331 330
4 310 311 332 331
4 311 312 333 332
4 312 313 334 333
4 313 314 335 334
4 315 316 337 336
4 316 317 338 337
4 317 318 339 338
4 318 319 340 339
4 319 320 341 340
4 320 321 342 341
4 321 322 343 342
4 322 323 344 343
4 323 324 345 344
4 324 325 346 345
4 325 326 347 346
4 326 327 348 347
4 327 328 349 348
4 328 329 350 349
4 329 330 351 350
4 330 331 352 351
4 331 332 353 352
4 332 333 354 353
4 333 334 355 354
4 334 335 356 355
4 336 337 358 357
4 337 338 359 358
4 338 339 360 359
4 339 340 361 360
4 340 341 362 361
4 341 342 363 362
4 342 343 364 363
4 343 344 365 364
4 344 345 366 365
4 345 346 367 366
4 346 347 368 367
4 347 348 369 368
4 348 349 370 369
4 349 350 371 370
4 350 351 372 371
4 351 352 373 372
4 352 353 374 373
4 353 354 375 374
4 354 355 376 375
4 355 356 377 376
4 357 358 379 378
4 358 359 380 379
4 359 360 381 380
4 360 361 382 381
4 361 362 383 382
4 362 363 384 383
4 363 364 385 384
4 364 365 386 385
4 365 366 387 386
4 366 367 388 387
4 367 368 389 388
4 368 369 390 389
4 369 370 391 390
4 370 371 392 391
4 371 372 393 392
4 372 373 394 393
4 373 374 395 394
4 374 375 396 395
4 375 376 397 396
4 376 377 398 397
4 378 379 400 399
4 379 380 401 400
4 380 381 402 401
4 381 382 403 402
4 382 383 404 403
4 383 384 405 404
4 384 385 406 405
4 385 386 407 406
4 386 387 408 407
4 387 388 409 408
4 388 389 410 409
4 389 390 411 410
4 390 391 412 411
4 391 392 413 412
4 392 393 414 413
4 393 394 415 414
4 394 395 416 415
4 395 396 417 416
4 396 397 418 417
4 397 398 419 418
4 399 400 421 420
4 400 401 422 421
4 401 402 423 422
4 402 403 424 423
4 403 404 425 424
4 404 405 426 425
4 405 406 427 426
4 406 407 428 427
4 407 408 429 428
4 408 409 430 429
4 409 410 431 430
4 410 411 432 431
4 411 412 433 432
4 412 413 434 433
4 413 414 435 434
4 414 415 436 435
4 415 416 437 436
4 416 417 438 437
4 417 418 439 438
4 418 419 440 439
