ply
format ascii 1.0
element vertex 441
property double x
property double y
property double z
property double vx
property double vy
property double vz
property double s
element face 400
property list uchar int vertex_indices
end_header
-0.100000000000000006 -0.100000000000000006 0 0 0 0 0.063338342294096947
-0.0900000000000000105 -0.100000000000000006 0 0 0 0 0.0687375178784132013
-0.0800000000000000155 -0.100000000000000006 0 0 0 0 0.071852863267064096
-0.0700000000000000205 -0.100000000000000006 0 0 0 0 0.0758456602767109828
-0.0600000000000000255 -0.100000000000000006 0 0 0 0 0.0718083401173353203
-0.0500000000000000305 -0.100000000000000006 0 0 0 0 0.0718971986472606711
-0.0400000000000000355 -0.100000000000000006 0 0 0 0 0.0733977592438459364
-0.0300000000000000405 -0.100000000000000006 0 0 0 0 0.0682197038978338277
-0.0200000000000000455 -0.100000000000000006 0 0 0 0 0.0742442440837621648
-0.0100000000000000505 -0.100000000000000006 0 0 0 0 0.0694747650399804156
-5.5511151231257827e-17 -0.100000000000000006 0 0 0 0 0.0710902273580431981
0.00999999999999993949 -0.100000000000000006 0 0 0 0 0.069917552337050437
0.0199999999999999345 -0.100000000000000006 0 0 0 0 0.0620185796245932563
0.0299999999999999434 -0.100000000000000006 0 0 0 0 0.069508013352751738
0.0399999999999999245 -0.100000000000000006 0 0 0 0 0.0660487280935048993
0.0499999999999999056 -0.100000000000000006 0 0 0 0 0.0685632623434066779
0.0599999999999999145 -0.100000000000000006 0 0 0 0 0.0678973317667841969
0.0699999999999999234 -0.100000000000000006 0 0 0 0 0.0720405581742525059
0.0799999999999999045 -0.100000000000000006 0 0 0 0 0.071939942851662636
0.0899999999999998856 -0.100000000000000006 0 0 0 0 0.0743500264137983286
0.0999999999999998945 -0.100000000000000006 0 0 0 0 0.0642615685164928396
-0.100000000000000006 -0.0900000000000000105 0 0 0 0 0.0732863506525754937
-0.0900000000000000105 -0.0900000000000000105 0 0 0 0 0.0749567607939243263
-0.0800000000000000155 -0.0900000000000000105 0 0 0 0 0.0714307865612208853
-0.0700000000000000205 -0.0900000000000000105 0 0 0 0 0.0712390436232090002
-0.0600000000000000255 -0.0900000000000000105 0 0 0 0 0.0699077881351113373
-0.0500000000000000305 -0.0900000000000000105 0 0 0 0 0.0675470098406076441
-0.0400000000000000355 -0.0900000000000000105 0 0 0 0 0.0618833379223942756
-0.0300000000000000405 -0.0900000000000000105 0 0 0 0 0.0684284510836005166
-0.0200000000000000455 -0.0900000000000000105 0 0 0 0 0.0693908491879701578
-0.0100000000000000505 -0.0900000000000000105 0 0 0 0 0.0736317764818668341
-5.5511151231257827e-17 -0.0900000000000000105 0 0 0 0 0.0736256330013275173
0.00999999999999993949 -0.0900000000000000105 0 0 0 0 0.0622043849676847463
0.0199999999999999345 -0.0900000000000000105 0 0 0 0 0.0738676566183567029
0.0299999999999999434 -0.0900000000000000105 0 0 0 0 0.0654985254630446462
0.0399999999999999245 -0.0900000000000000105 0 0 0 0 0.0640174289122223822
0.0499999999999999056 -0.0900000000000000105 0 0 0 0 0.0700959367603063571
0.0599999999999999145 -0.0900000000000000105 0 0 0 0 0.0658013815283775283
0.0699999999999999234 -0.0900000000000000105 0 0 0 0 0.0683637319207191507
0.0799999999999999045 -0.0900000000000000105 0 0 0 0 0.0710017536282539358
0.0899999999999998856 -0.0900000000000000105 0 0 0 0 0.0711284834891557638
0.0999999999999998945 -0.0900000000000000105 0 0 0 0 0.0686156949996948179
-0.100000000000000006 -0.0800000000000000155 0 0 0 0 0.064410868138074881
-0.0900000000000000105 -0.0800000000000000155 0 0 0 0 0.072049366146326066
-0.0800000000000000155 -0.0800000000000000155 0 0 0 0 0.0662660735845565785
-0.0700000000000000205 -0.0800000000000000155 0 0 0 0 0.0757378906011581393
-0.0600000000000000255 -0.0800000000000000155 0 0 0 0 0.0633100544512271851
-0.0500000000000000305 -0.0800000000000000155 0 0 0 0 0.0683868826180696471
-0.0400000000000000355 -0.0800000000000000155 0 0 0 0 0.0711207063794136035
-0.0300000000000000405 -0.0800000000000000155 0 0 0 0 0.0694309137649834207
-0.0200000000000000455 -0.0800000000000000155 0 0 0 0 0.0607664485052227948
-0.0100000000000000505 -0.0800000000000000155 0 0 0 0 0.0649606802016496621
-5.5511151231257827e-17 -0.0800000000000000155 0 0 0 0 0.0631786061525344833
0.00999999999999993949 -0.0800000000000000155 0 0 0 0 0.0650499671697616633
0.0199999999999999345 -0.0800000000000000155 0 0 0 0 0.0704367197826504671
0.0299999999999999434 -0.0800000000000000155 0 0 0 0 0.0746277975738048605
0.0399999999999999245 -0.0800000000000000155 0 0 0 0 0.0698265154659748061
0.0499999999999999056 -0.0800000000000000155 0 0 0 0 0.065035599499940866
0.0599999999999999145 -0.0800000000000000155 0 0 0 0 0.0621273800730705247
0.0699999999999999234 -0.0800000000000000155 0 0 0 0 0.0673686964660882986
0.0799999999999999045 -0.0800000000000000155 0 0 0 0 0.0678690102547407081
0.0899999999999998856 -0.0800000000000000155 0 0 0 0 0.0677501344680786072
0.0999999999999998945 -0.0800000000000000155 0 0 0 0 0.0655465193912386918
-0.100000000000000006 -0.0700000000000000205 0 0 0 0 0.0644217220954596964
-0.0900000000000000105 -0.0700000000000000205 0 0 0 0 0.0692599144130945227
-0.0800000000000000155 -0.0700000000000000205 0 0 0 0 0.0647250987365841912
-0.0700000000000000205 -0.0700000000000000205 0 0 0 0 0.063519967585802084
-0.0600000000000000255 -0.0700000000000000205 0 0 0 0 0.0690770760625600833
-0.0500000000000000305 -0.0700000000000000205 0 0 0 0 0.0652371087372303066
-0.0400000000000000355 -0.0700000000000000205 0 0 0 0 0.0628288110941648548
-0.0300000000000000405 -0.0700000000000000205 0 0 0 0 0.0698771887570619615
-0.0200000000000000455 -0.0700000000000000205 0 0 0 0 0.0713318446278572021
-0.0100000000000000505 -0.0700000000000000205 0 0 0 0 0.0689013346582651176
-5.5511151231257827e-17 -0.0700000000000000205 0 0 0 0 0.0731146028935909242
0.00999999999999993949 -0.0700000000000000205 0 0 0 0 0.0708089214861392924
0.0199999999999999345 -0.0700000000000000205 0 0 0 0 0.0746458918303251201
0.0299999999999999434 -0.0700000000000000205 0 0 0 0 0.0678510678932070788
0.0399999999999999245 -0.0700000000000000205 0 0 0 0 0.0702511141747236278
0.0499999999999999056 -0.0700000000000000205 0 0 0 0 0.0631641137152910287
0.0599999999999999145 -0.0700000000000000205 0 0 0 0 0.0739736063331365573
0.0699999999999999234 -0.0700000000000000205 0 0 0 0 0.070425042212009431
0.0799999999999999045 -0.0700000000000000205 0 0 0 0 0.0694767806977033553
0.0899999999999998856 -0.0700000000000000205 0 0 0 0 0.0635217120349407249
0.0999999999999998945 -0.0700000000000000205 0 0 0 0 0.0689977441877126646
-0.100000000000000006 -0.0600000000000000255 0 0 0 0 0.0712788354083895709
-0.0900000000000000105 -0.0600000000000000255 0 0 0 0 0.0715268882438540449
-0.0800000000000000155 -0.0600000000000000255 0 0 0 0 0.0672681294754147591
-0.0700000000000000205 -0.0600000000000000255 0 0 0 0 0.0666901236847042972
-0.0600000000000000255 -0.0600000000000000255 0 0 0 0 0.0623611188828945145
-0.0500000000000000305 -0.0600000000000000255 0 0 0 0 0.0651040901467204031
-0.0400000000000000355 -0.0600000000000000255 0 0 0 0 0.063339393362402921
-0.0300000000000000405 -0.0600000000000000255 0 0 0 0 0.0706754314228892344
-0.0200000000000000455 -0.0600000000000000255 0 0 0 0 0.0676583898067474321
-0.0100000000000000505 -0.0600000000000000255 0 0 0 0 0.0677529331818222946
-5.5511151231257827e-17 -0.0600000000000000255 0 0 0 0 0.0730500503852963418
0.00999999999999993949 -0.0600000000000000255 0 0 0 0 0.0681439520493149764
0.0199999999999999345 -0.0600000000000000255 0 0 0 0 0.066067593328654764
0.0299999999999999434 -0.0600000000000000255 0 0 0 0 0.0644240853488445286
0.0399999999999999245 -0.0600000000000000255 0 0 0 0 0.0679203898385167121
0.0499999999999999056 -0.0600000000000000255 0 0 0 0 0.0673536734804511122
0.0599999999999999145 -0.0600000000000000255 0 0 0 0 0.067891088910400868
0.0699999999999999234 -0.0600000000000000255 0 0 0 0 0.0706916826665401482
0.0799999999999999045 -0.0600000000000000255 0 0 0 0 0.073832406148314475
0.0899999999999998856 -0.0600000000000000255 0 0 0 0 0.0676009211242198926
0.0999999999999998945 -0.0600000000000000255 0 0 0 0 0.0641254826411604834
-0.100000000000000006 -0.0500000000000000305 0 0 0 0 0.0683812057450413763
-0.0900000000000000105 -0.0500000000000000305 0 0 0 0 0.0747740546464920053
-0.0800000000000000155 -0.0500000000000000305 0 0 0 0 0.0652945775017142321
-0.0700000000000000205 -0.0500000000000000305 0 0 0 0 0.0706123089194297809
-0.0600000000000000255 -0.0500000000000000305 0 0 0 0 0.0692277960628271127
-0.0500000000000000305 -0.0500000000000000305 0 0 0 0 0.071455065090209241
-0.0400000000000000355 -0.0500000000000000305 0 0 0 0 0.0630965362861752449
-0.0300000000000000405 -0.0500000000000000305 0 0 0 0 0.0661286795213818501
-0.0200000000000000455 -0.0500000000000000305 0 0 0 0 0.062935431987047194
-0.0100000000000000505 -0.0500000000000000305 0 0 0 0 0.0669696002230048132
-5.5511151231257827e-17 -0.0500000000000000305 0 0 0 0 0.0751492961719632119
0.00999999999999993949 -0.0500000000000000305 0 0 0 0 0.0692218615412712041
0.0199999999999999345 -0.0500000000000000305 0 0 0 0 0.0683553296327590876
0.0299999999999999434 -0.0500000000000000305 0 0 0 0 0.0699142405018210455
0.0399999999999999245 -0.0500000000000000305 0 0 0 0 0.0717445444911718327
0.0499999999999999056 -0.0500000000000000305 0 0 0 0 0.0681179591342806756
0.0599999999999999145 -0.0500000000000000305 0 0 0 0 0.0666320186555385552
0.0699999999999999234 -0.0500000000000000305 0 0 0 0 0.0697129283100366565
0.0799999999999999045 -0.0500000000000000305 0 0 0 0 0.0690017614513635663
0.0899999999999998856 -0.0500000000000000305 0 0 0 0 0.0682498031184077258
0.0999999999999998945 -0.0500000000000000305 0 0 0 0 0.0657244802862405747
-0.100000000000000006 -0.0400000000000000355 0 0 0 0 0.0717035039067268343
-0.0900000000000000105 -0.0400000000000000355 0 0 0 0 0.0701528424024581848
-0.0800000000000000155 -0.0400000000000000355 0 0 0 0 0.0690291151553392435
-0.0700000000000000205 -0.0400000000000000355 0 0 0 0 0.0702877185791730835
-0.0600000000000000255 -0.0400000000000000355 0 0 0 0 0.069061646953225142
-0.0500000000000000305 -0.0400000000000000355 0 0 0 0 0.0696806975901126807
-0.0400000000000000355 -0.0400000000000000355 0 0 0 0 0.0699661745056509993
-0.0300000000000000405 -0.0400000000000000355 0 0 0 0 0.0611584475040435824
-0.0200000000000000455 -0.0400000000000000355 0 0 0 0 0.0695869718790054353
-0.0100000000000000505 -0.0400000000000000355 0 0 0 0 0.0672347915321588468
-5.5511151231257827e-17 -0.0400000000000000355 0 0 0 0 0.0720812271982431418
0.00999999999999993949 -0.0400000000000000355 0 0 0 0 0.0681373207718133922
0.0199999999999999345 -0.0400000000000000355 0 0 0 0 0.0685031502395868352
0.0299999999999999434 -0.0400000000000000355 0 0 0 0 0.0672895637005567482
0.0399999999999999245 -0.0400000000000000355 0 0 0 0 0.0630239774882793424
0.0499999999999999056 -0.0400000000000000355 0 0 0 0 0.0695603944957256248
0.0599999999999999145 -0.0400000000000000355 0 0 0 0 0.062558166041970259
0.0699999999999999234 -0.0400000000000000355 0 0 0 0 0.0749724647104740155
0.0799999999999999045 -0.0400000000000000355 0 0 0 0 0.0672597860768437417
0.0899999999999998856 -0.0400000000000000355 0 0 0 0 0.0732157842218875837
0.0999999999999998945 -0.0400000000000000355 0 0 0 0 0.0674583162963390409
-0.100000000000000006 -0.0300000000000000405 0 0 0 0 0.0696646142676472652
-0.0900000000000000105 -0.0300000000000000405 0 0 0 0 0.0620277919694781285
-0.0800000000000000155 -0.0300000000000000405 0 0 0 0 0.0635274340137839261
-0.0700000000000000205 -0.0300000000000000405 0 0 0 0 0.0646546084433794049
-0.0600000000000000255 -0.0300000000000000405 0 0 0 0 0.0709711832180619229
-0.0500000000000000305 -0.0300000000000000405 0 0 0 0 0.0755074908509850568
-0.0400000000000000355 -0.0300000000000000405 0 0 0 0 0.0660557671636343019
-0.0300000000000000405 -0.0300000000000000405 0 0 0 0 0.066202685117721552
-0.0200000000000000455 -0.0300000000000000405 0 0 0 0 0.0680223772525787307
-0.0100000000000000505 -0.0300000000000000405 0 0 0 0 0.0680934621691703795
-5.5511151231257827e-17 -0.0300000000000000405 0 0 0 0 0.0729836585372686392
0.00999999999999993949 -0.0300000000000000405 0 0 0 0 0.0657192115634679802
0.0199999999999999345 -0.0300000000000000405 0 0 0 0 0.0700920534729957551
0.0299999999999999434 -0.0300000000000000405 0 0 0 0 0.0657974229902029001
0.0399999999999999245 -0.0300000000000000405 0 0 0 0 0.071597441300749784
0.0499999999999999056 -0.0300000000000000405 0 0 0 0 0.0692185228690505028
0.0599999999999999145 -0.0300000000000000405 0 0 0 0 0.065506132349371915
0.0699999999999999234 -0.0300000000000000405 0 0 0 0 0.0694535084068775149
0.0799999999999999045 -0.0300000000000000405 0 0 0 0 0.0676042971312999785
0.0899999999999998856 -0.0300000000000000405 0 0 0 0 0.0691845321394503054
0.0999999999999998945 -0.0300000000000000405 0 0 0 0 0.0713133664131164607
-0.100000000000000006 -0.0200000000000000455 0 0 0 0 0.0718150904327631012
-0.0900000000000000105 -0.0200000000000000455 0 0 0 0 0.0684147091582417433
-0.0800000000000000155 -0.0200000000000000455 0 0 0 0 0.0637781395390629724
-0.0700000000000000205 -0.0200000000000000455 0 0 0 0 0.0716157494038343473
-0.0600000000000000255 -0.0200000000000000455 0 0 0 0 0.0679946322590112701
-0.0500000000000000305 -0.0200000000000000455 0 0 0 0 0.0685759574323892562
-0.0400000000000000355 -0.0200000000000000455 0 0 0 0 0.0662458723038435032
-0.0300000000000000405 -0.0200000000000000455 0 0 0 0 0.0673557013571262353
-0.0200000000000000455 -0.0200000000000000455 0 0 0 0 0.0665311060920357744
-0.0100000000000000505 -0.0200000000000000455 0 0 0 0 0.0643178557157516456
-5.5511151231257827e-17 -0.0200000000000000455 0 0 0 0 0.0666516948044300062
0.00999999999999993949 -0.0200000000000000455 0 0 0 0 0.0674047629684209892
0.0199999999999999345 -0.0200000000000000455 0 0 0 0 0.0713007458895444923
0.0299999999999999434 -0.0200000000000000455 0 0 0 0 0.0686053200513124517
0.0399999999999999245 -0.0200000000000000455 0 0 0 0 0.0689178940355777703
0.0499999999999999056 -0.0200000000000000455 0 0 0 0 0.0627698419094085691
0.0599999999999999145 -0.0200000000000000455 0 0 0 0 0.0690060569345951058
0.0699999999999999234 -0.0200000000000000455 0 0 0 0 0.0724838166534900602
0.0799999999999999045 -0.0200000000000000455 0 0 0 0 0.0727279681339859929
0.0899999999999998856 -0.0200000000000000455 0 0 0 0 0.0664305305033922183
0.0999999999999998945 -0.0200000000000000455 0 0 0 0 0.0722149097621440916
-0.100000000000000006 -0.0100000000000000505 0 0 0 0 0.0683512436151504504
-0.0900000000000000105 -0.0100000000000000505 0 0 0 0 0.0697457623332738835
-0.0800000000000000155 -0.0100000000000000505 0 0 0 0 0.0667528135925531396
-0.0700000000000000205 -0.0100000000000000505 0 0 0 0 0.0629917928278446171
-0.0600000000000000255 -0.0100000000000000505 0 0 0 0 0.0699189280495047527
-0.0500000000000000305 -0.0100000000000000505 0 0 0 0 0.0681132719069719311
-0.0400000000000000355 -0.0100000000000000505 0 0 0 0 0.0703907178565859742
-0.0300000000000000405 -0.0100000000000000505 0 0 0 0 0.0712376503795385391
-0.0200000000000000455 -0.0100000000000000505 0 0 0 0 0.0662934939414262792
-0.0100000000000000505 -0.0100000000000000505 0 0 0 0 0.0719737645685672722
-5.5511151231257827e-17 -0.0100000000000000505 0 0 0 0 0.0620904985368251824
0.00999999999999993949 -0.0100000000000000505 0 0 0 0 0.0720258371978998169
0.0199999999999999345 -0.0100000000000000505 0 0 0 0 0.0711941185072064442
0.0299999999999999434 -0.0100000000000000505 0 0 0 0 0.0671777836978435516
0.0399999999999999245 -0.0100000000000000505 0 0 0 0 0.0703300389498472261
0.0499999999999999056 -0.0100000000000000505 0 0 0 0 0.0649290678948163946
0.0599999999999999145 -0.0100000000000000505 0 0 0 0 0.074450419247150415
0.0699999999999999234 -0.0100000000000000505 0 0 0 0 0.0738995566442608859
0.0799999999999999045 -0.0100000000000000505 0 0 0 0 0.070457580134272571
0.0899999999999998856 -0.0100000000000000505 0 0 0 0 0.06372142990678549
0.0999999999999998945 -0.0100000000000000505 0 0 0 0 0.0620265938863158242
-0.100000000000000006 -5.5511151231257827e-17 0 0 0 0 0.0770233002156019142
-0.0900000000000000105 -5.5511151231257827e-17 0 0 0 0 0.063122193887829775
-0.0800000000000000155 -5.5511151231257827e-17 0 0 0 0 0.0726576452553272245
-0.0700000000000000205 -5.5511151231257827e-17 0 0 0 0 0.0665731181353330648
-0.0600000000000000255 -5.5511151231257827e-17 0 0 0 0 0.0688418519422411973
-0.0500000000000000305 -5.5511151231257827e-17 0 0 0 0 0.0749561081081628749
-0.0400000000000000355 -5.5511151231257827e-17 0 0 0 0 0.0756574046760797453
-0.0300000000000000405 -5.5511151231257827e-17 0 0 0 0 0.0681429038494825307
-0.0200000000000000455 -5.5511151231257827e-17 0 0 0 0 0.064114747621119017
-0.0100000000000000505 -5.5511151231257827e-17 0 0 0 0 0.0689890799596905718
-5.5511151231257827e-17 -5.5511151231257827e-17 0 0 0 0 0.0677346502766013187
0.00999999999999993949 -5.5511151231257827e-17 0 0 0 0 0.0708197151795029595
0.0199999999999999345 -5.5511151231257827e-17 0 0 0 0 0.0683415340334177085
0.0299999999999999434 -5.5511151231257827e-17 0 0 0 0 0.0722504948526620921
0.0399999999999999245 -5.5511151231257827e-17 0 0 0 0 0.069517993904650216
0.0499999999999999056 -5.5511151231257827e-17 0 0 0 0 0.0681157881617546063
0.0599999999999999145 -5.5511151231257827e-17 0 0 0 0 0.0711149342507123999
0.0699999999999999234 -5.5511151231257827e-17 0 0 0 0 0.0664221684783697086
0.0799999999999999045 -5.5511151231257827e-17 0 0 0 0 0.064915405541658408
0.0899999999999998856 -5.5511151231257827e-17 0 0 0 0 0.0682320538163185136
0.0999999999999998945 -5.5511151231257827e-17 0 0 0 0 0.0756151293367147426
-0.100000000000000006 0.00999999999999993949 0 0 0 0 0.0793020190745592074
-0.0900000000000000105 0.00999999999999993949 0 0 0 0 0.0671460923925042141
-0.0800000000000000155 0.00999999999999993949 0 0 0 0 0.0703556574285030406
-0.0700000000000000205 0.00999999999999993949 0 0 0 0 0.0724502164795994691
-0.0600000000000000255 0.00999999999999993949 0 0 0 0 0.0719910851567983623
-0.0500000000000000305 0.00999999999999993949 0 0 0 0 0.0684040513187646887
-0.0400000000000000355 0.00999999999999993949 0 0 0 0 0.0717649527862668085
-0.0300000000000000405 0.00999999999999993949 0 0 0 0 0.0734682674035429945
-0.0200000000000000455 0.00999999999999993949 0 0 0 0 0.0712205448746681263
-0.0100000000000000505 0.00999999999999993949 0 0 0 0 0.0666443848386406856
-5.5511151231257827e-17 0.00999999999999993949 0 0 0 0 0.0683061257302761127
0.00999999999999993949 0.00999999999999993949 0 0 0 0 0.06981425962597132
0.0199999999999999345 0.00999999999999993949 0 0 0 0 0.0683071656376123409
0.0299999999999999434 0.00999999999999993949 0 0 0 0 0.0681319018155336353
0.0399999999999999245 0.00999999999999993949 0 0 0 0 0.062322532892227174
0.0499999999999999056 0.00999999999999993949 0 0 0 0 0.068911922864615921
0.0599999999999999145 0.00999999999999993949 0 0 0 0 0.0659886668026447298
0.0699999999999999234 0.00999999999999993949 0 0 0 0 0.0725898452848195985
0.0799999999999999045 0.00999999999999993949 0 0 0 0 0.0636726237833499936
0.0899999999999998856 0.00999999999999993949 0 0 0 0 0.0683942359313368803
0.0999999999999998945 0.00999999999999993949 0 0 0 0 0.0695085556209087407
-0.100000000000000006 0.0199999999999999345 0 0 0 0 0.0721636500209569959
-0.0900000000000000105 0.0199999999999999345 0 0 0 0 0.0702503600418567659
-0.0800000000000000155 0.0199999999999999345 0 0 0 0 0.0709841723889112486
-0.0700000000000000205 0.0199999999999999345 0 0 0 0 0.069262031815946104
-0.0600000000000000255 0.0199999999999999345 0 0 0 0 0.0664884527474641773
-0.0500000000000000305 0.0199999999999999345 0 0 0 0 0.0635410813838243466
-0.0400000000000000355 0.0199999999999999345 0 0 0 0 0.0635447189360856951
-0.0300000000000000405 0.0199999999999999345 0 0 0 0 0.0714282518774271014
-0.0200000000000000455 0.0199999999999999345 0 0 0 0 0.0676276360005140242
-0.0100000000000000505 0.0199999999999999345 0 0 0 0 0.0655574550628662128
-5.5511151231257827e-17 0.0199999999999999345 0 0 0 0 0.0723659861683845496
0.00999999999999993949 0.0199999999999999345 0 0 0 0 0.0676972890645265585
0.0199999999999999345 0.0199999999999999345 0 0 0 0 0.0686624346002936425
0.0299999999999999434 0.0199999999999999345 0 0 0 0 0.0600662804469466183
0.0399999999999999245 0.0199999999999999345 0 0 0 0 0.0655668838992714831
0.0499999999999999056 0.0199999999999999345 0 0 0 0 0.0725692253485322042
0.0599999999999999145 0.0199999999999999345 0 0 0 0 0.0706047175377607361
0.0699999999999999234 0.0199999999999999345 0 0 0 0 0.0741887788027525003
0.0799999999999999045 0.0199999999999999345 0 0 0 0 0.0693457206636667184
0.0899999999999998856 0.0199999999999999345 0 0 0 0 0.0655053705424070293
0.0999999999999998945 0.0199999999999999345 0 0 0 0 0.0645371503159403864
-0.100000000000000006 0.0299999999999999434 0 0 0 0 0.0707793799862265621
-0.0900000000000000105 0.0299999999999999434 0 0 0 0 0.0744249220341444001
-0.0800000000000000155 0.0299999999999999434 0 0 0 0 0.0649631581529974966
-0.0700000000000000205 0.0299999999999999434 0 0 0 0 0.0735789414569735511
-0.0600000000000000255 0.0299999999999999434 0 0 0 0 0.0678051708489656457
-0.0500000000000000305 0.0299999999999999434 0 0 0 0 0.0730165574699640219
-0.0400000000000000355 0.0299999999999999434 0 0 0 0 0.0683988317847251948
-0.0300000000000000405 0.0299999999999999434 0 0 0 0 0.0720177527219057062
-0.0200000000000000455 0.0299999999999999434 0 0 0 0 0.0620129745006561262
-0.0100000000000000505 0.0299999999999999434 0 0 0 0 0.0684966566935181626
-5.5511151231257827e-17 0.0299999999999999434 0 0 0 0 0.0703912663757801094
0.00999999999999993949 0.0299999999999999434 0 0 0 0 0.0689151176586747238
0.0199999999999999345 0.0299999999999999434 0 0 0 0 0.0749678112640976974
0.0299999999999999434 0.0299999999999999434 0 0 0 0 0.0648838480859994932
0.0399999999999999245 0.0299999999999999434 0 0 0 0 0.0682765558958053631
0.0499999999999999056 0.0299999999999999434 0 0 0 0 0.0668854680582881
0.0599999999999999145 0.0299999999999999434 0 0 0 0 0.06829659248143434
0.0699999999999999234 0.0299999999999999434 0 0 0 0 0.0696704984754323992
0.0799999999999999045 0.0299999999999999434 0 0 0 0 0.0699849061667919131
0.0899999999999998856 0.0299999999999999434 0 0 0 0 0.0648239865079522082
0.0999999999999998945 0.0299999999999999434 0 0 0 0 0.0691818368732929206
-0.100000000000000006 0.0399999999999999245 0 0 0 0 0.0644998744130134555
-0.0900000000000000105 0.0399999999999999245 0 0 0 0 0.0626025536358356532
-0.0800000000000000155 0.0399999999999999245 0 0 0 0 0.0689152145013213202
-0.0700000000000000205 0.0399999999999999245 0 0 0 0 0.0659773428402841144
-0.0600000000000000255 0.0399999999999999245 0 0 0 0 0.070067377857863905
-0.0500000000000000305 0.0399999999999999245 0 0 0 0 0.0770147863626480106
-0.0400000000000000355 0.0399999999999999245 0 0 0 0 0.069806078478693967
-0.0300000000000000405 0.0399999999999999245 0 0 0 0 0.0721752584874629927
-0.0200000000000000455 0.0399999999999999245 0 0 0 0 0.0669847484230995244
-0.0100000000000000505 0.0399999999999999245 0 0 0 0 0.0724582390487194111
-5.5511151231257827e-17 0.0399999999999999245 0 0 0 0 0.0658285000771284129
0.00999999999999993949 0.0399999999999999245 0 0 0 0 0.0696563437171280331
0.0199999999999999345 0.0399999999999999245 0 0 0 0 0.0724445381835103069
0.0299999999999999434 0.0399999999999999245 0 0 0 0 0.0702070324122905792
0.0399999999999999245 0.0399999999999999245 0 0 0 0 0.0696093241423368508
0.0499999999999999056 0.0399999999999999245 0 0 0 0 0.0667284277826547673
0.0599999999999999145 0.0399999999999999245 0 0 0 0 0.0749737945050001076
0.0699999999999999234 0.0399999999999999245 0 0 0 0 0.0643075814992189465
0.0799999999999999045 0.0399999999999999245 0 0 0 0 0.0597896000146865836
0.0899999999999998856 0.0399999999999999245 0 0 0 0 0.0696848886609077456
0.0999999999999998945 0.0399999999999999245 0 0 0 0 0.0674193469136953327
-0.100000000000000006 0.0499999999999999056 0 0 0 0 0.073904761016368864
-0.0900000000000000105 0.0499999999999999056 0 0 0 0 0.0756909440308809328
-0.0800000000000000155 0.0499999999999999056 0 0 0 0 0.075389006495475766
-0.0700000000000000205 0.0499999999999999056 0 0 0 0 0.0682600118219852392
-0.0600000000000000255 0.0499999999999999056 0 0 0 0 0.064147742915898559
-0.0500000000000000305 0.0499999999999999056 0 0 0 0 0.068752651080489155
-0.0400000000000000355 0.0499999999999999056 0 0 0 0 0.0704397022798657485
-0.0300000000000000405 0.0499999999999999056 0 0 0 0 0.0687611678540706595
-0.0200000000000000455 0.0499999999999999056 0 0 0 0 0.0793610581085085892
-0.0100000000000000505 0.0499999999999999056 0 0 0 0 0.0666553056836128172
-5.5511151231257827e-17 0.0499999999999999056 0 0 0 0 0.0710525669157505008
0.00999999999999993949 0.0499999999999999056 0 0 0 0 0.069000883124768736
0.0199999999999999345 0.0499999999999999056 0 0 0 0 0.0645527626872062638
0.0299999999999999434 0.0499999999999999056 0 0 0 0 0.0694113325998187009
0.0399999999999999245 0.0499999999999999056 0 0 0 0 0.0683838924765586831
0.0499999999999999056 0.0499999999999999056 0 0 0 0 0.0594128458425402656
0.0599999999999999145 0.0499999999999999056 0 0 0 0 0.0717685791105032028
0.0699999999999999234 0.0499999999999999056 0 0 0 0 0.0688395043313503319
0.0799999999999999045 0.0499999999999999056 0 0 0 0 0.0613388229012489308
0.0899999999999998856 0.0499999999999999056 0 0 0 0 0.062367986068129537
0.0999999999999998945 0.0499999999999999056 0 0 0 0 0.0700097794532775902
-0.100000000000000006 0.0599999999999999145 0 0 0 0 0.0690495698526501639
-0.0900000000000000105 0.0599999999999999145 0 0 0 0 0.0668437924832105679
-0.0800000000000000155 0.0599999999999999145 0 0 0 0 0.069710685655474669
-0.0700000000000000205 0.0599999999999999145 0 0 0 0 0.0714842732474207931
-0.0600000000000000255 0.0599999999999999145 0 0 0 0 0.071008884042501455
-0.0500000000000000305 0.0599999999999999145 0 0 0 0 0.0741378779858350712
-0.0400000000000000355 0.0599999999999999145 0 0 0 0 0.0681786737143993404
-0.0300000000000000405 0.0599999999999999145 0 0 0 0 0.0635692498013377127
-0.0200000000000000455 0.0599999999999999145 0 0 0 0 0.0676830295175313984
-0.0100000000000000505 0.0599999999999999145 0 0 0 0 0.0677955737411975873
-5.5511151231257827e-17 0.0599999999999999145 0 0 0 0 0.0699208781421184478
0.00999999999999993949 0.0599999999999999145 0 0 0 0 0.0703653494268655783
0.0199999999999999345 0.0599999999999999145 0 0 0 0 0.0667207943499088241
0.0299999999999999434 0.0599999999999999145 0 0 0 0 0.0684085097908973677
0.0399999999999999245 0.0599999999999999145 0 0 0 0 0.0620842224955558755
0.0499999999999999056 0.0599999999999999145 0 0 0 0 0.0655438286811113324
0.0599999999999999145 0.0599999999999999145 0 0 0 0 0.0730920838899910413
0.0699999999999999234 0.0599999999999999145 0 0 0 0 0.0684749626964330643
0.0799999999999999045 0.0599999999999999145 0 0 0 0 0.0677226179763674718
0.0899999999999998856 0.0599999999999999145 0 0 0 0 0.0694999379888176921
0.0999999999999998945 0.0599999999999999145 0 0 0 0 0.0623349329978227645
-0.100000000000000006 0.0699999999999999234 0 0 0 0 0.0651876818090677268
-0.0900000000000000105 0.0699999999999999234 0 0 0 0 0.0723281566277146348
-0.0800000000000000155 0.0699999999999999234 0 0 0 0 0.0667617356851697014
-0.0700000000000000205 0.0699999999999999234 0 0 0 0 0.069464049935340888
-0.0600000000000000255 0.0699999999999999234 0 0 0 0 0.0668943934589624339
-0.0500000000000000305 0.0699999999999999234 0 0 0 0 0.0646052596196532297
-0.0400000000000000355 0.0699999999999999234 0 0 0 0 0.0699583010151982321
-0.0300000000000000405 0.0699999999999999234 0 0 0 0 0.0688563324511051178
-0.0200000000000000455 0.0699999999999999234 0 0 0 0 0.0605009326040744783
-0.0100000000000000505 0.0699999999999999234 0 0 0 0 0.0666227998882532174
-5.5511151231257827e-17 0.0699999999999999234 0 0 0 0 0.0678048034310340941
0.00999999999999993949 0.0699999999999999234 0 0 0 0 0.0696195529997348794
0.0199999999999999345 0.0699999999999999234 0 0 0 0 0.0706674162447452486
0.0299999999999999434 0.0699999999999999234 0 0 0 0 0.0674299881607294121
0.0399999999999999245 0.0699999999999999234 0 0 0 0 0.0749708021804690317
0.0499999999999999056 0.0699999999999999234 0 0 0 0 0.0621359738633036618
0.0599999999999999145 0.0699999999999999234 0 0 0 0 0.0666887415349483453
0.0699999999999999234 0.0699999999999999234 0 0 0 0 0.0646626823097467412
0.0799999999999999045 0.0699999999999999234 0 0 0 0 0.0708697720468044329
0.0899999999999998856 0.0699999999999999234 0 0 0 0 0.0682647761106491141
0.0999999999999998945 0.0699999999999999234 0 0 0 0 0.0748603898137807783
-0.100000000000000006 0.0799999999999999045 0 0 0 0 0.0678772460520267462
-0.0900000000000000105 0.0799999999999999045 0 0 0 0 0.0693311178237199788
-0.0800000000000000155 0.0799999999999999045 0 0 0 0 0.0785234348624944678
-0.0700000000000000205 0.0799999999999999045 0 0 0 0 0.0715795965939760165
-0.0600000000000000255 0.0799999999999999045 0 0 0 0 0.0714700580760836562
-0.0500000000000000305 0.0799999999999999045 0 0 0 0 0.067757610261440282
-0.0400000000000000355 0.0799999999999999045 0 0 0 0 0.0700079549849033367
-0.0300000000000000405 0.0799999999999999045 0 0 0 0 0.0747180828899145083
-0.0200000000000000455 0.0799999999999999045 0 0 0 0 0.0703884853571653396
-0.0100000000000000505 0.0799999999999999045 0 0 0 0 0.0722201536297798208
-5.5511151231257827e-17 0.0799999999999999045 0 0 0 0 0.0682993064671754829
0.00999999999999993949 0.0799999999999999045 0 0 0 0 0.0643170249387621934
0.0199999999999999345 0.0799999999999999045 0 0 0 0 0.0702353560775518387
0.0299999999999999434 0.0799999999999999045 0 0 0 0 0.0668246264234185205
0.0399999999999999245 0.0799999999999999045 0 0 0 0 0.0675900026857852998
0.0499999999999999056 0.0799999999999999045 0 0 0 0 0.0703720783442258885
0.0599999999999999145 0.0799999999999999045 0 0 0 0 0.0710928262919187509
0.0699999999999999234 0.0799999999999999045 0 0 0 0 0.0645895722508430525
0.0799999999999999045 0.0799999999999999045 0 0 0 0 0.0713001327887177461
0.0899999999999998856 0.0799999999999999045 0 0 0 0 0.0633953411579132042
0.0999999999999998945 0.0799999999999999045 0 0 0 0 0.0693245779201388385
-0.100000000000000006 0.0899999999999998856 0 0 0 0 0.0662859098166227317
-0.0900000000000000105 0.0899999999999998856 0 0 0 0 0.0667281379997730212
-0.0800000000000000155 0.0899999999999998856 0 0 0 0 0.0662033115476369921
-0.0700000000000000205 0.0899999999999998856 0 0 0 0 0.0676890637129545225
-0.0600000000000000255 0.0899999999999998856 0 0 0 0 0.0683410038873553255
-0.0500000000000000305 0.0899999999999998856 0 0 0 0 0.0667573361247777997
-0.0400000000000000355 0.0899999999999998856 0 0 0 0 0.0669625697284936955
-0.0300000000000000405 0.0899999999999998856 0 0 0 0 0.0681924059987068232
-0.0200000000000000455 0.0899999999999998856 0 0 0 0 0.0703356953859329281
-0.0100000000000000505 0.0899999999999998856 0 0 0 0 0.0694193402081727945
-5.5511151231257827e-17 0.0899999999999998856 0 0 0 0 0.0656099489666521485
0.00999999999999993949 0.0899999999999998856 0 0 0 0 0.0675356456637382502
0.0199999999999999345 0.0899999999999998856 0 0 0 0 0.0681900486573576992
0.0299999999999999434 0.0899999999999998856 0 0 0 0 0.0686165338903665517
0.0399999999999999245 0.0899999999999998856 0 0 0 0 0.0668412358835339532
0.0499999999999999056 0.0899999999999998856 0 0 0 0 0.07110514932870865
0.0599999999999999145 0.0899999999999998856 0 0 0 0 0.0679976376146078088
0.0699999999999999234 0.0899999999999998856 0 0 0 0 0.0647669380307197562
0.0799999999999999045 0.0899999999999998856 0 0 0 0 0.0645100416690111145
0.0899999999999998856 0.0899999999999998856 0 0 0 0 0.0687018967717886037
0.0999999999999998945 0.0899999999999998856 0 0 0 0 0.0703847756534814878
-0.100000000000000006 0.0999999999999998945 0 0 0 0 0.0617611869946122147
-0.0900000000000000105 0.0999999999999998945 0 0 0 0 0.0666100732684135471
-0.0800000000000000155 0.0999999999999998945 0 0 0 0 0.0708277434706687942
-0.0700000000000000205 0.0999999999999998945 0 0 0 0 0.0723016451448202091
-0.0600000000000000255 0.0999999999999998945 0 0 0 0 0.0643622851222753478
-0.0500000000000000305 0.0999999999999998945 0 0 0 0 0.0747108221352100338
-0.0400000000000000355 0.0999999999999998945 0 0 0 0 0.0698489569723606124
-0.0300000000000000405 0.0999999999999998945 0 0 0 0 0.0707611659243702895
-0.0200000000000000455 0.0999999999999998945 0 0 0 0 0.0657069160714745526
-0.0100000000000000505 0.0999999999999998945 0 0 0 0 0.0644075881689786939
-5.5511151231257827e-17 0.0999999999999998945 0 0 0 0 0.066720312237739568
0.00999999999999993949 0.0999999999999998945 0 0 0 0 0.0707180427461862604
0.0199999999999999345 0.0999999999999998945 0 0 0 0 0.0685101528838276824
0.0299999999999999434 0.0999999999999998945 0 0 0 0 0.0585315417200326926
0.0399999999999999245 0.0999999999999998945 0 0 0 0 0.0657479571029543908
0.0499999999999999056 0.0999999999999998945 0 0 0 0 0.0684099564105272312
0.0599999999999999145 0.0999999999999998945 0 0 0 0 0.0674363215267658189
0.0699999999999999234 0.0999999999999998945 0 0 0 0 0.0688366825282573647
0.0799999999999999045 0.0999999999999998945 0 0 0 0 0.0739255786985158897
0.0899999999999998856 0.0999999999999998945 0 0 0 0 0.0657927969843149218
0.0999999999999998945 0.0999999999999998945 0 0 0 0 0.0659231861159205457
4 0 1 22 21
4 1 2 23 22
4 2 3 24 23
4 3 4 25 24
4 4 5 26 25
4 5 6 27 26
4 6 7 28 27
4 7 8 29 28
4 8 9 30 29
4 9 10 31 30
4 10 11 32 31
4 11 12 33 32
4 12 13 34 33
4 13 14 35 34
4 14 15 36 35
4 15 16 37 36
4 16 17 38 37
4 17 18 39 38
4 18 19 40 39
4 19 20 41 40
4 21 22 43 42
4 22 23 44 43
4 23 24 45 44
4 24 25 46 45
4 25 26 47 46
4 26 27 48 47
4 27 28 49 48
4 28 29 50 49
4 29 30 51 50
4 30 31 52 51
4 31 32 53 52
4 32 33 54 53
4 33 34 55 54
4 34 35 56 55
4 35 36 57 56
4 36 37 58 57
4 37 38 59 58
4 38 39 60 59
4 39 40 61 60
4 40 41 62 61
4 42 43 64 63
4 43 44 65 64
4 44 45 66 65
4 45 46 67 66
4 46 47 68 67
4 47 48 69 68
4 48 49 70 69
4 49 50 71 70
4 50 51 72 71
4 51 52 73 72
4 52 53 74 73
4 53 54 75 74
4 54 55 76 75
4 55 56 77 76
4 56 57 78 77
4 57 58 79 78
4 58 59 80 79
4 59 60 81 80
4 60 61 82 81
4 61 62 83 82
4 63 64 85 84
4 64 65 86 85
4 65 66 87 86
4 66 67 88 87
4 67 68 89 88
4 68 69 90 89
4 69 70 91 90
4 70 71 92 91
4 71 72 93 92
4 72 73 94 93
4 73 74 95 94
4 74 75 96 95
4 75 76 97 96
4 76 77 98 97
4 77 78 99 98
4 78 79 100 99
4 79 80 101 100
4 80 81 102 101
4 81 82 103 102
4 82 83 104 103
4 84 85 106 105
4 85 86 107 106
4 86 87 108 107
4 87 88 109 108
4 88 89 110 109
4 89 90 111 110
4 90 91 112 111
4 91 92 113 112
4 92 93 114 113
4 93 94 115 114
4 94 95 116 115
4 95 96 117 116
4 96 97 118 117
4 97 98 119 118
4 98 99 120 119
4 99 100 121 120
4 100 101 122 121
4 101 102 123 122
4 102 103 124 123
4 103 104 125 124
4 105 106 127 126
4 106 107 128 127
4 107 108 129 128
4 108 109 130 129
4 109 110 131 130
4 110 111 132 131
4 111 112 133 132
4 112 113 134 133
4 113 114 135 134
4 114 115 136 135
4 115 116 137 136
4 116 117 138 137
4 117 118 139 138
4 118 119 140 139
4 119 120 141 140
4 120 121 142 141
4 121 122 143 142
4 122 123 144 143
4 123 124 145 144
4 124 125 146 145
4 126 127 148 147
4 127 128 149 148
4 128 129 150 149
4 129 130 151 150
4 130 131 152 151
4 131 132 153 152
4 132 133 154 153
4 133 134 155 154
4 134 135 156 155
4 135 136 157 156
4 136 137 158 157
4 137 138 159 158
4 138 139 160 159
4 139 140 161 160
4 140 141 162 161
4 141 142 163 162
4 142 143 164 163
4 143 144 165 164
4 144 145 166 165
4 145 146 167 166
4 147 148 169 168
4 148 149 170 169
4 149 150 171 170
4 150 151 172 171
4 151 152 173 172
4 152 153 174 173
4 153 154 175 174
4 154 155 176 175
4 155 156 177 176
4 156 157 178 177
4 157 158 179 178
4 158 159 180 179
4 159 160 181 180
4 160 161 182 181
4 161 162 183 182
4 162 163 184 183
4 163 164 185 184
4 164 165 186 185
4 165 166 187 186
4 166 167 188 187
4 168 169 190 189
4 169 170 191 190
4 170 171 192 191
4 171 172 193 192
4 172 173 194 193
4 173 174 195 194
4 174 175 196 195
4 175 176 197 196
4 176 177 198 197
4 177 178 199 198
4 178 179 200 199
4 179 180 201 200
4 180 181 202 201
4 181 182 203 202
4 182 183 204 203
4 183 184 205 204
4 184 185 206 205
4 185 186 207 206
4 186 187 208 207
4 187 188 209 208
4 189 190 211 210
4 190 191 212 211
4 191 192 213 212
4 192 193 214 213
4 193 194 215 214
4 194 195 216 215
4 195 196 217 216
4 196 197 218 217
4 197 198 219 218
4 198 199 220 219
4 199 200 221 220
4 200 201 222 221
4 201 202 223 222
4 202 203 224 223
4 203 204 225 224
4 204 205 226 225
4 205 206 227 226
4 206 207 228 227
4 207 208 229 228
4 208 209 230 229
4 210 211 232 231
4 211 212 233 232
4 212 213 234 233
4 213 214 235 234
4 214 215 236 235
4 215 216 237 236
4 216 217 238 237
4 217 218 239 238
4 218 219 240 239
4 219 220 241 240
4 220 221 242 241
4 221 222 243 242
4 222 223 244 243
4 223 224 245 244
4 224 225 246 245
4 225 226 247 246
4 226 227 248 247
4 227 228 249 248
4 228 229 250 249
4 229 230 251 250
4 231 232 253 252
4 232 233 254 253
4 233 234 255 254
4 234 235 256 255
4 235 236 257 256
4 236 237 258 257
4 237 238 259 258
4 238 239 260 259
4 239 240 261 260
4 240 241 262 261
4 241 242 263 262
4 242 243 264 263
4 243 244 265 264
4 244 245 266 265
4 245 246 267 266
4 246 247 268 267
4 247 248 269 268
4 248 249 270 269
4 249 250 271 270
4 250 251 272 271
4 252 253 274 273
4 253 254 275 274
4 254 255 276 275
4 255 256 277 276
4 256 257 278 277
4 257 258 279 278
4 258 259 280 279
4 259 260 281 280
4 260 261 282 281
4 261 262 283 282
4 262 263 284 283
4 263 264 285 284
4 264 265 286 285
4 265 266 287 286
4 266 267 288 287
4 267 268 289 288
4 268 269 290 289
4 269 270 291 290
4 270 271 292 291
4 271 272 293 292
4 273 274 295 294
4 274 275 296 295
4 275 276 297 296
4 276 277 298 297
4 277 278 299 298
4 278 279 300 299
4 279 280 301 300
4 280 281 302 301
4 281 282 303 302
4 282 283 304 303
4 283 284 305 304
4 284 285 306 305
4 285 286 307 306
4 286 287 308 307
4 287 288 309 308
4 288 289 310 309
4 289 290 311 310
4 290 291 312 311
4 291 292 313 312
4 292 293 314 313
4 294 295 316 315
4 295 296 317 316
4 296 297 318 317
4 297 298 319 318
4 298 299 320 319
4 299 300 321 320
4 300 301 322 321
4 301 302 323 322
4 302 303 324 323
4 303 304 325 324
4 304 305 326 325
4 305 306 327 326
4 306 307 328 327
4 307 308 329 328
4 308 309 330 329
4 309 310 331 330
4 310 311 332 331
4 311 312 333 332
4 312 313 334 333
4 313 314 335 334
4 315 316 337 336
4 316 317 338 337
4 317 318 339 338
4 318 319 340 339
4 319 320 341 340
4 320 321 342 341
4 321 322 343 342
4 322 323 344 343
4 323 324 345 344
4 324 325 346 345
4 325 326 347 346
4 326 327 348 347
4 327 328 349 348
4 328 329 350 349
4 329 330 351 350
4 330 331 352 351
4 331 332 353 352
4 332 333 354 353
4 333 334 355 354
4 334 335 356 355
4 336 337 358 357
4 337 338 359 358
4 338 339 360 359
4 339 340 361 360
4 340 341 362 361
4 341 342 363 362
4 342 343 364 363
4 343 344 365 364
4 344 345 366 365
4 345 346 367 366
4 346 347 368 367
4 347 348 369 368
4 348 349 370 369
4 349 350 371 370
4 350 351 372 371
4 351 352 373 372
4 352 353 374 373
4 353 354 375 374
4 354 355 376 375
4 355 356 377 376
4 357 358 379 378
4 358 359 380 379
4 359 360 381 380
4 360 361 382 381
4 361 362 383 382
4 362 363 384 383
4 363 364 385 384
4 364 365 386 385
4 365 366 387 386
4 366 367 388 387
4 367 368 389 388
4 368 369 390 389
4 369 370 391 390
4 370 371 392 391
4 371 372 393 392
4 372 373 394 393
4 373 374 395 394
4 374 375 396 395
4 375 376 397 396
4 376 377 398 397
4 378 379 400 399
4 379 380 401 400
4 380 381 402 401
4 381 382 403 402
4 382 383 404 403
4 383 384 405 404
4 384 385 406 405
4 385 386 407 406
4 386 387 408 407
4 387 388 409 408
4 388 389 410 409
4 389 390 411 410
4 390 391 412 411
4 391 392 413 412
4 392 393 414 413
4 393 394 415 414
4 394 395 416 415
4 395 396 417 416
4 396 397 418 417
4 397 398 419 418
4 399 400 421 420
4 400 401 422 421
4 401 402 423 422
4 402 403 424 423
4 403 404 425 424
4 404 405 426 425
4 405 406 427 426
4 406 407 428 427
4 407 408 429 428
4 408 409 430 429
4 409 410 431 430
4 410 411 432 431
4 411 412 433 432
4 412 413 434 433
4 413 414 435 434
4 414 415 436 435
4 415 416 437 436
4 416 417 438 437
4 417 418 439 438
4 418 419 440 439
