ply
format ascii 1.0
element vertex 676
property double x
property double y
property double z
property double vx
property double vy
property double vz
property double s
element face 625
property list uchar int vertex_indices
end_header
-9 -9 0 0 0 0 847.207704223632845
-8.25 -9 0 0 0 0 832.42602404785157
-7.5 -9 0 0 0 0 768.784665893554688
-6.75 -9 0 0 0 0 664.409438842773397
-6 -9 0 0 0 0 530.323988616943325
-5.25 -9 0 0 0 0 521.238236755371076
-4.5 -9 0 0 0 0 430.582361267089823
-3.75 -9 0 0 0 0 330.00966748046875
-3 -9 0 0 0 0 278.226407409667956
-2.25 -9 0 0 0 0 208.153301239013672
-1.5 -9 0 0 0 0 152.81340155029298
-0.75 -9 0 0 0 0 132.728219085693354
0 -9 0 0 0 0 87.9254170227050764
0.75 -9 0 0 0 0 57.6115632324218723
1.5 -9 0 0 0 0 37.0017170257568324
2.25 -9 0 0 0 0 22.3555489349365217
3 -9 0 0 0 0 11.8701943511962895
3.75 -9 0 0 0 0 7.7501688537597655
4.5 -9 0 0 0 0 5.1781616401672359
5.25 -9 0 0 0 0 3.90352479553222675
6 -9 0 0 0 0 3.10650810813903799
6.75 -9 0 0 0 0 3.17806977081298836
7.5 -9 0 0 0 0 3.14701594924926775
8.25 -9 0 0 0 0 2.9125987615585327
9 -9 0 0 0 0 2.46895617389678934
9.75 -9 0 0 0 0 2.72716537761688249
-9 -8.25 0 0 0 0 345.650067016601554
-8.25 -8.25 0 0 0 0 355.364134643554678
-7.5 -8.25 0 0 0 0 408.783716796875012
-6.75 -8.25 0 0 0 0 343.616347488403335
-6 -8.25 0 0 0 0 352.603508544921851
-5.25 -8.25 0 0 0 0 308.697533569335917
-4.5 -8.25 0 0 0 0 275.874273681640602
-3.75 -8.25 0 0 0 0 221.673776489257818
-3 -8.25 0 0 0 0 174.821201820373545
-2.25 -8.25 0 0 0 0 136.378719543457038
-1.5 -8.25 0 0 0 0 121.109146362304685
-0.75 -8.25 0 0 0 0 84.324785209655758
0 -8.25 0 0 0 0 54.671573852539062
0.75 -8.25 0 0 0 0 40.2754075012207053
1.5 -8.25 0 0 0 0 26.7570906295776361
2.25 -8.25 0 0 0 0 15.5303427658081059
3 -8.25 0 0 0 0 8.89562939167022648
3.75 -8.25 0 0 0 0 5.31039591789245602
4.5 -8.25 0 0 0 0 3.42422596740722662
5.25 -8.25 0 0 0 0 2.50407304000854491
6 -8.25 0 0 0 0 2.09019095897674578
6.75 -8.25 0 0 0 0 1.98370808124542242
7.5 -8.25 0 0 0 0 1.9707847185134888
8.25 -8.25 0 0 0 0 2.09140753841400162
9 -8.25 0 0 0 0 1.8384483251571655
9.75 -8.25 0 0 0 0 1.99428473472595225
-9 -7.5 0 0 0 0 147.538866821289076
-8.25 -7.5 0 0 0 0 147.304171936035146
-7.5 -7.5 0 0 0 0 160.482963378906248
-6.75 -7.5 0 0 0 0 142.244082489013664
-6 -7.5 0 0 0 0 149.343899185180675
-5.25 -7.5 0 0 0 0 154.738300765991198
-4.5 -7.5 0 0 0 0 135.11799201583861
-3.75 -7.5 0 0 0 0 122.539652297973632
-3 -7.5 0 0 0 0 104.507890266418457
-2.25 -7.5 0 0 0 0 87.7270516929626467
-1.5 -7.5 0 0 0 0 72.0582894592285186
-0.75 -7.5 0 0 0 0 55.5100438995361358
0 -7.5 0 0 0 0 38.9801037445068346
0.75 -7.5 0 0 0 0 25.5720106506347662
1.5 -7.5 0 0 0 0 16.2848083038330067
2.25 -7.5 0 0 0 0 9.90579652595519988
3 -7.5 0 0 0 0 5.78252932357788119
3.75 -7.5 0 0 0 0 3.36387420749664301
4.5 -7.5 0 0 0 0 2.04169500207901011
5.25 -7.5 0 0 0 0 1.37600125741958612
6 -7.5 0 0 0 0 1.32181478595733637
6.75 -7.5 0 0 0 0 1.37234998703002931
7.5 -7.5 0 0 0 0 1.2688243594169617
8.25 -7.5 0 0 0 0 1.29663283109664906
9 -7.5 0 0 0 0 1.31363292932510367
9.75 -7.5 0 0 0 0 1.76224194478988649
-9 -6.75 0 0 0 0 105.228549743652337
-8.25 -6.75 0 0 0 0 77.2866141204833923
-7.5 -6.75 0 0 0 0 58.2538760375976565
-6.75 -6.75 0 0 0 0 51.3362294158935555
-6 -6.75 0 0 0 0 56.7400260925292983
-5.25 -6.75 0 0 0 0 62.6427177658081078
-4.5 -6.75 0 0 0 0 61.4379707717895513
-3.75 -6.75 0 0 0 0 57.0983898468017586
-3 -6.75 0 0 0 0 53.4818733482360855
-2.25 -6.75 0 0 0 0 49.3664439849853522
-1.5 -6.75 0 0 0 0 41.6420643882751449
-0.75 -6.75 0 0 0 0 29.3751186027526856
0 -6.75 0 0 0 0 21.9578726806640638
0.75 -6.75 0 0 0 0 14.6712747287750247
1.5 -6.75 0 0 0 0 9.48161617279052749
2.25 -6.75 0 0 0 0 5.67244499874114982
3 -6.75 0 0 0 0 3.18766523265838631
3.75 -6.75 0 0 0 0 1.84124972105026252
4.5 -6.75 0 0 0 0 1.05326780748367299
5.25 -6.75 0 0 0 0 0.916677448272705031
6 -6.75 0 0 0 0 0.773895279169082628
6.75 -6.75 0 0 0 0 0.814459000587463344
7.5 -6.75 0 0 0 0 0.839164628028869597
8.25 -6.75 0 0 0 0 0.734561303615570038
9 -6.75 0 0 0 0 1.08566339612007146
9.75 -6.75 0 0 0 0 2.21881107330322269
-9 -6 0 0 0 0 72.6894771728515678
-8.25 -6 0 0 0 0 52.1698107757568366
-7.5 -6 0 0 0 0 37.744537322998049
-6.75 -6 0 0 0 0 25.9794550399780277
-6 -6 0 0 0 0 20.6318492393493642
-5.25 -6 0 0 0 0 17.5724210433959946
-4.5 -6 0 0 0 0 19.3004710273742681
-3.75 -6 0 0 0 0 22.9535054874420155
-3 -6 0 0 0 0 24.0239106712341304
-2.25 -6 0 0 0 0 16.9517172966003429
-1.5 -6 0 0 0 0 18.1422546749114986
-0.75 -6 0 0 0 0 13.305278443336487
0 -6 0 0 0 0 9.78156473541259786
0.75 -6 0 0 0 0 7.20750336742401121
1.5 -6 0 0 0 0 5.081687741756439
2.25 -6 0 0 0 0 2.89600638198852556
3 -6 0 0 0 0 1.61368457984924318
3.75 -6 0 0 0 0 0.948430601835250853
4.5 -6 0 0 0 0 0.652618240356445334
5.25 -6 0 0 0 0 0.614633115291595478
6 -6 0 0 0 0 0.49967735958099363
6.75 -6 0 0 0 0 0.471144480466842652
7.5 -6 0 0 0 0 0.507366610765457193
8.25 -6 0 0 0 0 0.575394182443618729
9 -6 0 0 0 0 0.82504138064384458
9.75 -6 0 0 0 0 2.9302785482406617
-9 -5.25 0 0 0 0 54.2115610046386749
-8.25 -5.25 0 0 0 0 34.3061034393310536
-7.5 -5.25 0 0 0 0 21.3238189888000491
-6.75 -5.25 0 0 0 0 15.2024759654998771
-6 -5.25 0 0 0 0 9.06640490722656267
-5.25 -5.25 0 0 0 0 7.70210411167144748
-4.5 -5.25 0 0 0 0 4.76198698472976645
-3.75 -5.25 0 0 0 0 5.39930771350860628
-3 -5.25 0 0 0 0 5.93122332453727719
-2.25 -5.25 0 0 0 0 7.1346561975479128
-1.5 -5.25 0 0 0 0 5.81182766497135184
-0.75 -5.25 0 0 0 0 4.91222566056251519
0 -5.25 0 0 0 0 3.63682824516296366
0.75 -5.25 0 0 0 0 2.68387381362915045
1.5 -5.25 0 0 0 0 1.82815647649765012
2.25 -5.25 0 0 0 0 1.19677581000328059
3 -5.25 0 0 0 0 0.681786453247070323
3.75 -5.25 0 0 0 0 0.472741164088249233
4.5 -5.25 0 0 0 0 0.408374448537826562
5.25 -5.25 0 0 0 0 0.375200451970100379
6 -5.25 0 0 0 0 0.384892790198326118
6.75 -5.25 0 0 0 0 0.364149656057357773
7.5 -5.25 0 0 0 0 0.426238330602645876
8.25 -5.25 0 0 0 0 0.485575305700302107
9 -5.25 0 0 0 0 1.04201319551467897
9.75 -5.25 0 0 0 0 3.50693881893157977
-9 -4.5 0 0 0 0 43.4482631378173849
-8.25 -4.5 0 0 0 0 26.0414557266235356
-7.5 -4.5 0 0 0 0 12.2646900749206544
-6.75 -4.5 0 0 0 0 7.48017315387725823
-6 -4.5 0 0 0 0 5.02333245563507091
-5.25 -4.5 0 0 0 0 3.78006642627716083
-4.5 -4.5 0 0 0 0 2.36023984575271628
-3.75 -4.5 0 0 0 0 1.68981122016906737
-3 -4.5 0 0 0 0 1.26047911345958719
-2.25 -4.5 0 0 0 0 1.21502003335952757
-1.5 -4.5 0 0 0 0 1.04465317291021353
-0.75 -4.5 0 0 0 0 0.890093375086784322
0 -4.5 0 0 0 0 0.673332432985305762
0.75 -4.5 0 0 0 0 0.558763681054115335
1.5 -4.5 0 0 0 0 0.533030585885047925
2.25 -4.5 0 0 0 0 0.374326665997505192
3 -4.5 0 0 0 0 0.309004785835742923
3.75 -4.5 0 0 0 0 0.293178966403007502
4.5 -4.5 0 0 0 0 0.288882836103439344
5.25 -4.5 0 0 0 0 0.280916282176971455
6 -4.5 0 0 0 0 0.298910034179687478
6.75 -4.5 0 0 0 0 0.320448151111602797
7.5 -4.5 0 0 0 0 0.373710371732711766
8.25 -4.5 0 0 0 0 0.494982515096664411
9 -4.5 0 0 0 0 1.45545506715774531
9.75 -4.5 0 0 0 0 4.06026784610748326
-9 -3.75 0 0 0 0 39.0272572631835928
-8.25 -3.75 0 0 0 0 21.8228767852783214
-7.5 -3.75 0 0 0 0 9.33193664550781321
-6.75 -3.75 0 0 0 0 3.87384737205505392
-6 -3.75 0 0 0 0 2.32122214984893782
-5.25 -3.75 0 0 0 0 1.21702096223831169
-4.5 -3.75 0 0 0 0 0.812912782430648795
-3.75 -3.75 0 0 0 0 0.603498535752296394
-3 -3.75 0 0 0 0 0.414418063163757344
-2.25 -3.75 0 0 0 0 0.285629686117172266
-1.5 -3.75 0 0 0 0 0.236272401958703998
-0.75 -3.75 0 0 0 0 0.17036861164867878
0 -3.75 0 0 0 0 0.154689875170588492
0.75 -3.75 0 0 0 0 0.159377008050680169
1.5 -3.75 0 0 0 0 0.169281256549060344
2.25 -3.75 0 0 0 0 0.1868098240494728
3 -3.75 0 0 0 0 0.20066311115026475
3.75 -3.75 0 0 0 0 0.20644584119319917
4.5 -3.75 0 0 0 0 0.220580225229263294
5.25 -3.75 0 0 0 0 0.247132516026496885
6 -3.75 0 0 0 0 0.270874233484268201
6.75 -3.75 0 0 0 0 0.319472726583480859
7.5 -3.75 0 0 0 0 0.397146330118179347
8.25 -3.75 0 0 0 0 0.70362420606613163
9 -3.75 0 0 0 0 2.11578546285629265
9.75 -3.75 0 0 0 0 5.6415286264419553
-9 -3 0 0 0 0 34.4305800933837887
-8.25 -3 0 0 0 0 19.3989907226562508
-7.5 -3 0 0 0 0 9.17927355575561599
-6.75 -3 0 0 0 0 3.505586227416992
-6 -3 0 0 0 0 1.21502207875251766
-5.25 -3 0 0 0 0 0.710402478456497177
-4.5 -3 0 0 0 0 0.44168723002076149
-3.75 -3 0 0 0 0 0.271639989644289037
-3 -3 0 0 0 0 0.206841665536165231
-2.25 -3 0 0 0 0 0.142134537070989608
-1.5 -3 0 0 0 0 0.118164147332310676
-0.75 -3 0 0 0 0 0.107453190350905059
0 -3 0 0 0 0 0.103178123190999033
0.75 -3 0 0 0 0 0.0967353465110063621
1.5 -3 0 0 0 0 0.118980098396539682
2.25 -3 0 0 0 0 0.130421885296702372
3 -3 0 0 0 0 0.152082244813442236
3.75 -3 0 0 0 0 0.165064071178436272
4.5 -3 0 0 0 0 0.190575178861618039
5.25 -3 0 0 0 0 0.223485238552093513
6 -3 0 0 0 0 0.274512104868888829
6.75 -3 0 0 0 0 0.335087986230850232
7.5 -3 0 0 0 0 0.446702662706375098
8.25 -3 0 0 0 0 1.11401032781600962
9 -3 0 0 0 0 3.04961976671218871
9.75 -3 0 0 0 0 6.94031883621215862
-9 -2.25 0 0 0 0 31.5199956054687505
-8.25 -2.25 0 0 0 0 16.5640111007690436
-7.5 -2.25 0 0 0 0 7.67467580986022924
-6.75 -2.25 0 0 0 0 3.21901083135604837
-6 -2.25 0 0 0 0 1.19847770237922679
-5.25 -2.25 0 0 0 0 0.563577508926391579
-4.5 -2.25 0 0 0 0 0.350023329377174397
-3.75 -2.25 0 0 0 0 0.229284973382949842
-3 -2.25 0 0 0 0 0.153967652522027487
-2.25 -2.25 0 0 0 0 0.0970640543177723886
-1.5 -2.25 0 0 0 0 0.0769478840157389599
-0.75 -2.25 0 0 0 0 0.0574433528631925552
0 -2.25 0 0 0 0 0.0564227040857076673
0.75 -2.25 0 0 0 0 0.0631251470446586582
1.5 -2.25 0 0 0 0 0.0762546762153506336
2.25 -2.25 0 0 0 0 0.0946571712344884825
3 -2.25 0 0 0 0 0.122388573706150056
3.75 -2.25 0 0 0 0 0.139512563467025758
4.5 -2.25 0 0 0 0 0.182885490894317632
5.25 -2.25 0 0 0 0 0.232431598186492921
6 -2.25 0 0 0 0 0.288157353758811963
6.75 -2.25 0 0 0 0 0.369023873567581151
7.5 -2.25 0 0 0 0 0.529251911878585779
8.25 -2.25 0 0 0 0 1.56295842075347902
9 -2.25 0 0 0 0 3.83764906692504892
9.75 -2.25 0 0 0 0 7.57316733551025401
-9 -1.5 0 0 0 0 26.3377686614990232
-8.25 -1.5 0 0 0 0 15.8739296531677248
-7.5 -1.5 0 0 0 0 7.36146957015991177
-6.75 -1.5 0 0 0 0 3.57229160881042462
-6 -1.5 0 0 0 0 1.59480112504959104
-5.25 -1.5 0 0 0 0 0.641933007717132575
-4.5 -1.5 0 0 0 0 0.344393027484416969
-3.75 -1.5 0 0 0 0 0.188542243823409089
-3 -1.5 0 0 0 0 0.123325747657567264
-2.25 -1.5 0 0 0 0 0.0812794589865952766
-1.5 -1.5 0 0 0 0 0.050842015659436586
-0.75 -1.5 0 0 0 0 0.0381213160669431061
0 -1.5 0 0 0 0 0.0375290349822025721
0.75 -1.5 0 0 0 0 0.0475780049841851016
1.5 -1.5 0 0 0 0 0.0519683339595794699
2.25 -1.5 0 0 0 0 0.0688665363416075677
3 -1.5 0 0 0 0 0.103728753387928002
3.75 -1.5 0 0 0 0 0.131361002624034884
4.5 -1.5 0 0 0 0 0.178727464675903308
5.25 -1.5 0 0 0 0 0.25354401791095732
6 -1.5 0 0 0 0 0.320806663513183599
6.75 -1.5 0 0 0 0 0.417299794912338262
7.5 -1.5 0 0 0 0 0.691193366289138744
8.25 -1.5 0 0 0 0 1.7029108366966248
9 -1.5 0 0 0 0 4.3609939041137693
9.75 -1.5 0 0 0 0 8.19557833862304719
-9 -0.75 0 0 0 0 20.5814083175659164
-8.25 -0.75 0 0 0 0 13.9095966110229501
-7.5 -0.75 0 0 0 0 8.15845668220520004
-6.75 -0.75 0 0 0 0 4.8110693607330326
-6 -0.75 0 0 0 0 2.57547080802917483
-5.25 -0.75 0 0 0 0 0.941168856143951404
-4.5 -0.75 0 0 0 0 0.451043918788433085
-3.75 -0.75 0 0 0 0 0.178546357959508906
-3 -0.75 0 0 0 0 0.110099386662244794
-2.25 -0.75 0 0 0 0 0.0704274774193763692
-1.5 -0.75 0 0 0 0 0.0433277049986645554
-0.75 -0.75 0 0 0 0 0.0337068967192899402
0 -0.75 0 0 0 0 0.0311321351961232722
0.75 -0.75 0 0 0 0 0.0376012116698548199
1.5 -0.75 0 0 0 0 0.042927782170474528
2.25 -0.75 0 0 0 0 0.0629170486629009179
3 -0.75 0 0 0 0 0.0921559667885303441
3.75 -0.75 0 0 0 0 0.131505180984735487
4.5 -0.75 0 0 0 0 0.195613008975982661
5.25 -0.75 0 0 0 0 0.272326812863349921
6 -0.75 0 0 0 0 0.36187563228607178
6.75 -0.75 0 0 0 0 0.481542391538619996
7.5 -0.75 0 0 0 0 1.08239855194091805
8.25 -0.75 0 0 0 0 2.44225413417816162
9 -0.75 0 0 0 0 5.28349744606018046
9.75 -0.75 0 0 0 0 10.2309099464416509
-9 0 0 0 0 0 18.0309281959533685
-8.25 0 0 0 0 0 13.6365887088775644
-7.5 0 0 0 0 0 9.76670923995971663
-6.75 0 0 0 0 0 6.4306780757904054
-6 0 0 0 0 0 3.18699408721923838
-5.25 0 0 0 0 0 1.50100511479377752
-4.5 0 0 0 0 0 0.714789243936538643
-3.75 0 0 0 0 0 0.275231834441423406
-3 0 0 0 0 0 0.115693768698722124
-2.25 0 0 0 0 0 0.0609259145483374565
-1.5 0 0 0 0 0 0.0398130227252841001
-0.75 0 0 0 0 0 0.0293791693234816201
0 0 0 0 0 0 0.028622852753847839
0.75 0 0 0 0 0 0.0370977954342961297
1.5 0 0 0 0 0 0.0445916540250182181
2.25 0 0 0 0 0 0.0671325722485780763
3 0 0 0 0 0 0.10900111603736877
3.75 0 0 0 0 0 0.155390088081359873
4.5 0 0 0 0 0 0.236601867437362667
5.25 0 0 0 0 0 0.319808927536010756
6 0 0 0 0 0 0.414343464374542225
6.75 0 0 0 0 0 0.662266943454742463
7.5 0 0 0 0 0 1.27755471038818369
8.25 0 0 0 0 0 2.89966997051239028
9 0 0 0 0 0 7.04637824249267553
9.75 0 0 0 0 0 14.3212708587646489
-9 0.75 0 0 0 0 15.3639842605590822
-8.25 0.75 0 0 0 0 13.8573499984741204
-7.5 0.75 0 0 0 0 9.57301445007324148
-6.75 0.75 0 0 0 0 7.08103027534484841
-6 0.75 0 0 0 0 4.29786293029785149
-5.25 0.75 0 0 0 0 2.49941959691047666
-4.5 0.75 0 0 0 0 0.953052979230880726
-3.75 0.75 0 0 0 0 0.442477600693702677
-3 0.75 0 0 0 0 0.159248823702335368
-2.25 0.75 0 0 0 0 0.0748323371261358228
-1.5 0.75 0 0 0 0 0.0463779338598251309
-0.75 0.75 0 0 0 0 0.0385999458488076944
0 0.75 0 0 0 0 0.0349838350731879466
0.75 0.75 0 0 0 0 0.0407909786179661768
1.5 0.75 0 0 0 0 0.0529965839385986362
2.25 0.75 0 0 0 0 0.0892365628182888032
3 0.75 0 0 0 0 0.139638876378536225
3.75 0.75 0 0 0 0 0.206878785371780394
4.5 0.75 0 0 0 0 0.280796352267265292
5.25 0.75 0 0 0 0 0.371925655126571664
6 0.75 0 0 0 0 0.504342349290847758
6.75 0.75 0 0 0 0 0.924244010448455833
7.5 0.75 0 0 0 0 1.46670377779006955
8.25 0.75 0 0 0 0 3.28802025222778305
9 0.75 0 0 0 0 7.12330386734008769
9.75 0.75 0 0 0 0 15.1354558181762702
-9 1.5 0 0 0 0 12.5144650077819826
-8.25 1.5 0 0 0 0 10.6449603996276849
-7.5 1.5 0 0 0 0 8.62949423217773415
-6.75 1.5 0 0 0 0 5.79113621711730975
-6 1.5 0 0 0 0 4.09830390834808345
-5.25 1.5 0 0 0 0 2.47588863611221299
-4.5 1.5 0 0 0 0 1.33781985449790963
-3.75 1.5 0 0 0 0 0.571414318323135384
-3 1.5 0 0 0 0 0.257001128822565095
-2.25 1.5 0 0 0 0 0.110135662749409682
-1.5 1.5 0 0 0 0 0.0595486830994486835
-0.75 1.5 0 0 0 0 0.0469429701194167132
0 1.5 0 0 0 0 0.0520077179893851313
0.75 1.5 0 0 0 0 0.0658327022790908822
1.5 1.5 0 0 0 0 0.0946870803534984595
2.25 1.5 0 0 0 0 0.136281991243362433
3 1.5 0 0 0 0 0.205365565896034247
3.75 1.5 0 0 0 0 0.313374505877494824
4.5 1.5 0 0 0 0 0.395183499097824076
5.25 1.5 0 0 0 0 0.489998574018478406
6 1.5 0 0 0 0 0.619753750324249286
6.75 1.5 0 0 0 0 1.018782157421112
7.5 1.5 0 0 0 0 1.98560928678512583
8.25 1.5 0 0 0 0 3.47253106307983384
9 1.5 0 0 0 0 7.32034805488586393
9.75 1.5 0 0 0 0 14.7276793594360349
-9 2.25 0 0 0 0 9.91274063873290956
-8.25 2.25 0 0 0 0 8.49142518997192397
-7.5 2.25 0 0 0 0 6.93346311187744124
-6.75 2.25 0 0 0 0 4.96926389408111557
-6 2.25 0 0 0 0 3.54271157169342032
-5.25 2.25 0 0 0 0 2.16271278715133652
-4.5 2.25 0 0 0 0 1.3384250128269195
-3.75 2.25 0 0 0 0 0.641728175163269077
-3 2.25 0 0 0 0 0.302515238165855405
-2.25 2.25 0 0 0 0 0.153056594163179405
-1.5 2.25 0 0 0 0 0.0823237693607807158
-0.75 2.25 0 0 0 0 0.0783505166620016152
0 2.25 0 0 0 0 0.0760324284881353368
0.75 2.25 0 0 0 0 0.117046246349811547
1.5 2.25 0 0 0 0 0.154818502187728885
2.25 2.25 0 0 0 0 0.206997834444046014
3 2.25 0 0 0 0 0.27484451806545257
3.75 2.25 0 0 0 0 0.377704476118087773
4.5 2.25 0 0 0 0 0.465379591464996356
5.25 2.25 0 0 0 0 0.551236943244934108
6 2.25 0 0 0 0 0.675773256063461281
6.75 2.25 0 0 0 0 1.10425682878494258
7.5 2.25 0 0 0 0 2.22522420120239239
8.25 2.25 0 0 0 0 3.97372599029541007
9 2.25 0 0 0 0 7.82879902267456096
9.75 2.25 0 0 0 0 14.2888141708374015
-9 3 0 0 0 0 8.66753974914550795
-8.25 3 0 0 0 0 6.86088713455200239
-7.5 3 0 0 0 0 5.59886170196533239
-6.75 3 0 0 0 0 4.00186207771301294
-6 3 0 0 0 0 2.73132994174957267
-5.25 3 0 0 0 0 1.77433729362487802
-4.5 3 0 0 0 0 1.09042014908790597
-3.75 3 0 0 0 0 0.570660035014152522
-3 3 0 0 0 0 0.286213518381118748
-2.25 3 0 0 0 0 0.158551637560129161
-1.5 3 0 0 0 0 0.109172136664390559
-0.75 3 0 0 0 0 0.11139246839284897
0 3 0 0 0 0 0.133182115554809577
0.75 3 0 0 0 0 0.223092376887798316
1.5 3 0 0 0 0 0.237492782950401299
2.25 3 0 0 0 0 0.284980462074279794
3 3 0 0 0 0 0.347353516578674304
3.75 3 0 0 0 0 0.432071633338928229
4.5 3 0 0 0 0 0.48438038682937623
5.25 3 0 0 0 0 0.5773305327892303
6 3 0 0 0 0 0.84290172648429873
6.75 3 0 0 0 0 1.24713160848617544
7.5 3 0 0 0 0 2.45062297010421748
8.25 3 0 0 0 0 4.41269697380065917
9 3 0 0 0 0 8.1008389930725091
9.75 3 0 0 0 0 15.7539497756958013
-9 3.75 0 0 0 0 8.37258116531372032
-8.25 3.75 0 0 0 0 6.5762154140472413
-7.5 3.75 0 0 0 0 5.0521811599731441
-6.75 3.75 0 0 0 0 3.51587099552154525
-6 3.75 0 0 0 0 2.54117392063140857
-5.25 3.75 0 0 0 0 1.57619148159027089
-4.5 3.75 0 0 0 0 1.04055590510368345
-3.75 3.75 0 0 0 0 0.617622234582900997
-3 3.75 0 0 0 0 0.33002052366733553
-2.25 3.75 0 0 0 0 0.184632970094680798
-1.5 3.75 0 0 0 0 0.16714008378982545
-0.75 3.75 0 0 0 0 0.168711663246154775
0 3.75 0 0 0 0 0.210517827510833727
0.75 3.75 0 0 0 0 0.322567710876464853
1.5 3.75 0 0 0 0 0.375033082604408263
2.25 3.75 0 0 0 0 0.414815161943435651
3 3.75 0 0 0 0 0.448203193426132185
3.75 3.75 0 0 0 0 0.52842362070083615
4.5 3.75 0 0 0 0 0.60123152375221256
5.25 3.75 0 0 0 0 0.726206164360046369
6 3.75 0 0 0 0 0.956406098842620844
6.75 3.75 0 0 0 0 1.5758266491889954
7.5 3.75 0 0 0 0 3.09165015792846676
8.25 3.75 0 0 0 0 5.49156327819824241
9 3.75 0 0 0 0 9.37915898895263744
9.75 3.75 0 0 0 0 16.6153680801391594
-9 4.5 0 0 0 0 8.85346335220336833
-8.25 4.5 0 0 0 0 6.28913339805603044
-7.5 4.5 0 0 0 0 4.72163047599792485
-6.75 4.5 0 0 0 0 3.38492944335937507
-6 4.5 0 0 0 0 2.39060543847084039
-5.25 4.5 0 0 0 0 1.47951583909988393
-4.5 4.5 0 0 0 0 1.03271707010269176
-3.75 4.5 0 0 0 0 0.66137064361572262
-3 4.5 0 0 0 0 0.364966197013854965
-2.25 4.5 0 0 0 0 0.242508453816175473
-1.5 4.5 0 0 0 0 0.227123410344123838
-0.75 4.5 0 0 0 0 0.240613350510597235
0 4.5 0 0 0 0 0.315028085350990306
0.75 4.5 0 0 0 0 0.425196625471115086
1.5 4.5 0 0 0 0 0.488606441974639871
2.25 4.5 0 0 0 0 0.518224646329879746
3 4.5 0 0 0 0 0.522951288223266642
3.75 4.5 0 0 0 0 0.594335922718048137
4.5 4.5 0 0 0 0 0.669605627536773662
5.25 4.5 0 0 0 0 0.805516816139221214
6 4.5 0 0 0 0 1.24957768583297724
6.75 4.5 0 0 0 0 2.26599200487136843
7.5 4.5 0 0 0 0 3.75498064804077147
8.25 4.5 0 0 0 0 6.34195646286010728
9 4.5 0 0 0 0 10.2830649795532221
9.75 4.5 0 0 0 0 18.8222722396850592
-9 5.25 0 0 0 0 9.44942214965820249
-8.25 5.25 0 0 0 0 6.59654313659667935
-7.5 5.25 0 0 0 0 4.98350711059570273
-6.75 5.25 0 0 0 0 3.41426069021224965
-6 5.25 0 0 0 0 2.32184905624389648
-5.25 5.25 0 0 0 0 1.68418248319625863
-4.5 5.25 0 0 0 0 1.00405026865005498
-3.75 5.25 0 0 0 0 0.688795824170112647
-3 5.25 0 0 0 0 0.423841445803642247
-2.25 5.25 0 0 0 0 0.304617151141166664
-1.5 5.25 0 0 0 0 0.295965294241905208
-0.75 5.25 0 0 0 0 0.316889127492904654
0 5.25 0 0 0 0 0.360289254188537578
0.75 5.25 0 0 0 0 0.411927825689315796
1.5 5.25 0 0 0 0 0.486671078205108631
2.25 5.25 0 0 0 0 0.527049343585968
3 5.25 0 0 0 0 0.568794132709503186
3.75 5.25 0 0 0 0 0.593081865787506102
4.5 5.25 0 0 0 0 0.70528500080108647
5.25 5.25 0 0 0 0 0.86578428030014043
6 5.25 0 0 0 0 1.50741676568984984
6.75 5.25 0 0 0 0 3.33632185459136954
7.5 5.25 0 0 0 0 5.95935093545913652
8.25 5.25 0 0 0 0 8.47331398010253878
9 5.25 0 0 0 0 14.0225801658630367
9.75 5.25 0 0 0 0 21.4377152786254896
-9 6 0 0 0 0 10.4539762954711914
-8.25 6 0 0 0 0 7.95106322860717807
-7.5 6 0 0 0 0 5.22412215232849153
-6.75 6 0 0 0 0 4.00970363330841106
-6 6 0 0 0 0 2.53159558010101327
-5.25 6 0 0 0 0 1.73025245332717903
-4.5 6 0 0 0 0 1.02932668685913087
-3.75 6 0 0 0 0 0.6817276566028595
-3 6 0 0 0 0 0.438441618680953993
-2.25 6 0 0 0 0 0.3459607398509979
-1.5 6 0 0 0 0 0.350682159662246695
-0.75 6 0 0 0 0 0.383805105924606316
0 6 0 0 0 0 0.438112145185470592
0.75 6 0 0 0 0 0.483390050172805785
1.5 6 0 0 0 0 0.534140185356140162
2.25 6 0 0 0 0 0.563709186077117952
3 6 0 0 0 0 0.591559605121612542
3.75 6 0 0 0 0 0.612065931320190382
4.5 6 0 0 0 0 0.718976648330688528
5.25 6 0 0 0 0 0.946338550567626946
6 6 0 0 0 0 1.64736152505874633
6.75 6 0 0 0 0 4.21434028911590541
7.5 6 0 0 0 0 7.14240895652771002
8.25 6 0 0 0 0 12.2624555282592773
9 6 0 0 0 0 19.7800323791503914
9.75 6 0 0 0 0 30.0992265319824206
-9 6.75 0 0 0 0 11.1492216873168939
-8.25 6.75 0 0 0 0 8.43637801742553783
-7.5 6.75 0 0 0 0 5.24491309356689417
-6.75 6.75 0 0 0 0 3.80209186077117911
-6 6.75 0 0 0 0 2.63703175306320192
-5.25 6.75 0 0 0 0 1.8795620279312133
-4.5 6.75 0 0 0 0 1.02118628168106085
-3.75 6.75 0 0 0 0 0.696490636348724323
-3 6.75 0 0 0 0 0.451225044012069698
-2.25 6.75 0 0 0 0 0.395932196855545038
-1.5 6.75 0 0 0 0 0.415984058618545538
-0.75 6.75 0 0 0 0 0.460356576681137108
0 6.75 0 0 0 0 0.508407252788543707
0.75 6.75 0 0 0 0 0.539446523189544669
1.5 6.75 0 0 0 0 0.572454589843749972
2.25 6.75 0 0 0 0 0.602685196399688761
3 6.75 0 0 0 0 0.621180617332458551
3.75 6.75 0 0 0 0 0.635427086830139154
4.5 6.75 0 0 0 0 0.672192446231842045
5.25 6.75 0 0 0 0 1.06159136199951165
6 6.75 0 0 0 0 1.8002263503074647
6.75 6.75 0 0 0 0 4.8813893899917602
7.5 6.75 0 0 0 0 9.41768624687194844
8.25 6.75 0 0 0 0 17.2730346527099599
9 6.75 0 0 0 0 28.7965690002441406
9.75 6.75 0 0 0 0 47.7599777526855434
-9 7.5 0 0 0 0 11.9393091163635248
-8.25 7.5 0 0 0 0 8.55286224937438888
-7.5 7.5 0 0 0 0 6.60245973968505862
-6.75 7.5 0 0 0 0 4.37201654434204112
-6 7.5 0 0 0 0 3.0205817427635191
-5.25 7.5 0 0 0 0 1.711332971572876
-4.5 7.5 0 0 0 0 1.05773275542259215
-3.75 7.5 0 0 0 0 0.648963332653045621
-3 7.5 0 0 0 0 0.501141513824462925
-2.25 7.5 0 0 0 0 0.454843402385711693
-1.5 7.5 0 0 0 0 0.478453821659088119
-0.75 7.5 0 0 0 0 0.513057545661926295
0 7.5 0 0 0 0 0.550174215793609589
0.75 7.5 0 0 0 0 0.582562663555145299
1.5 7.5 0 0 0 0 0.611174546718597389
2.25 7.5 0 0 0 0 0.628974815845489532
3 7.5 0 0 0 0 0.642361591339111304
3.75 7.5 0 0 0 0 0.65096975421905523
4.5 7.5 0 0 0 0 0.672513158798217825
5.25 7.5 0 0 0 0 0.9328404679298401
6 7.5 0 0 0 0 1.87051037120819097
6.75 7.5 0 0 0 0 4.35531206703186058
7.5 7.5 0 0 0 0 11.6381628456115731
8.25 7.5 0 0 0 0 21.7195775222778309
9 7.5 0 0 0 0 37.7795139007568395
9.75 7.5 0 0 0 0 66.094217010498042
-9 8.25 0 0 0 0 13.1673659114837651
-8.25 8.25 0 0 0 0 9.10533454895019467
-7.5 8.25 0 0 0 0 6.61195128059387205
-6.75 8.25 0 0 0 0 3.87028569650650045
-6 8.25 0 0 0 0 2.71095817089080793
-5.25 8.25 0 0 0 0 1.76229992628097532
-4.5 8.25 0 0 0 0 1.03822326731681813
-3.75 8.25 0 0 0 0 0.670474956035614023
-3 8.25 0 0 0 0 0.496135732173919652
-2.25 8.25 0 0 0 0 0.496516926050186158
-1.5 8.25 0 0 0 0 0.531676777839660608
-0.75 8.25 0 0 0 0 0.556694147109985327
0 8.25 0 0 0 0 0.590434530735015839
0.75 8.25 0 0 0 0 0.618195056915283203
1.5 8.25 0 0 0 0 0.632329300880432155
2.25 8.25 0 0 0 0 0.642893738269805892
3 8.25 0 0 0 0 0.655239903450012262
3.75 8.25 0 0 0 0 0.663900176525116015
4.5 8.25 0 0 0 0 0.694350186347961418
5.25 8.25 0 0 0 0 0.874696460723876967
6 8.25 0 0 0 0 1.99376767349243167
6.75 8.25 0 0 0 0 3.94355829524993906
7.5 8.25 0 0 0 0 10.3594381961822517
8.25 8.25 0 0 0 0 25.0905717239379875
9 8.25 0 0 0 0 50.0817510223388638
9.75 8.25 0 0 0 0 88.2490214233398405
-9 9 0 0 0 0 12.7395675811767575
-8.25 9 0 0 0 0 8.82187422561645462
-7.5 9 0 0 0 0 6.31684493827819793
-6.75 9 0 0 0 0 4.06793722248077394
-6 9 0 0 0 0 2.59205054378509514
-5.25 9 0 0 0 0 1.59651127958297723
-4.5 9 0 0 0 0 0.877087746858596806
-3.75 9 0 0 0 0 0.607866757869720442
-3 9 0 0 0 0 0.530825548410415626
-2.25 9 0 0 0 0 0.543628745079040576
-1.5 9 0 0 0 0 0.570093549728393545
-0.75 9 0 0 0 0 0.597596978664398204
0 9 0 0 0 0 0.623045717716217085
0.75 9 0 0 0 0 0.638706600189208995
1.5 9 0 0 0 0 0.649386030673980708
2.25 9 0 0 0 0 0.661109771251678469
3 9 0 0 0 0 0.665140364170074494
3.75 9 0 0 0 0 0.67507668733596804
4.5 9 0 0 0 0 0.698232811927795405
5.25 9 0 0 0 0 0.908930860519409189
6 9 0 0 0 0 2.12457305049896261
6.75 9 0 0 0 0 3.52767431592941305
7.5 9 0 0 0 0 11.0688142318725582
8.25 9 0 0 0 0 27.1224792556762679
9 9 0 0 0 0 60.0658119354248043
9.75 9 0 0 0 0 102.680119384765618
-9 9.75 0 0 0 0 12.2769993400573725
-8.25 9.75 0 0 0 0 8.06187766075134249
-7.5 9.75 0 0 0 0 5.53300082874298127
-6.75 9.75 0 0 0 0 3.37106514072418229
-6 9.75 0 0 0 0 1.95824107980728157
-5.25 9.75 0 0 0 0 1.21468365430831904
-4.5 9.75 0 0 0 0 0.747719358444213889
-3.75 9.75 0 0 0 0 0.586638936758041352
-3 9.75 0 0 0 0 0.548155863285064715
-2.25 9.75 0 0 0 0 0.582801632404327363
-1.5 9.75 0 0 0 0 0.602838420867919944
-0.75 9.75 0 0 0 0 0.626794577598571823
0 9.75 0 0 0 0 0.63510589742660517
0.75 9.75 0 0 0 0 0.653482867240905763
1.5 9.75 0 0 0 0 0.664900691986084036
2.25 9.75 0 0 0 0 0.671301626682281549
3 9.75 0 0 0 0 0.674504410743713367
3.75 9.75 0 0 0 0 0.682768004417419472
4.5 9.75 0 0 0 0 0.71032253646850585
5.25 9.75 0 0 0 0 0.916970720767974812
6 9.75 0 0 0 0 1.67529294967651365
6.75 9.75 0 0 0 0 3.72311492633819574
7.5 9.75 0 0 0 0 10.4536110363006589
8.25 9.75 0 0 0 0 29.2043752441406248
9 9.75 0 0 0 0 70.4990725708007773
9.75 9.75 0 0 0 0 125.142472839355463
4 0 1 27 26
4 1 2 28 27
4 2 3 29 28
4 3 4 30 29
4 4 5 31 30
4 5 6 32 31
4 6 7 33 32
4 7 8 34 33
4 8 9 35 34
4 9 10 36 35
4 10 11 37 36
4 11 12 38 37
4 12 13 39 38
4 13 14 40 39
4 14 15 41 40
4 15 16 42 41
4 16 17 43 42
4 17 18 44 43
4 18 19 45 44
4 19 20 46 45
4 20 21 47 46
4 21 22 48 47
4 22 23 49 48
4 23 24 50 49
4 24 25 51 50
4 26 27 53 52
4 27 28 54 53
4 28 29 55 54
4 29 30 56 55
4 30 31 57 56
4 31 32 58 57
4 32 33 59 58
4 33 34 60 59
4 34 35 61 60
4 35 36 62 61
4 36 37 63 62
4 37 38 64 63
4 38 39 65 64
4 39 40 66 65
4 40 41 67 66
4 41 42 68 67
4 42 43 69 68
4 43 44 70 69
4 44 45 71 70
4 45 46 72 71
4 46 47 73 72
4 47 48 74 73
4 48 49 75 74
4 49 50 76 75
4 50 51 77 76
4 52 53 79 78
4 53 54 80 79
4 54 55 81 80
4 55 56 82 81
4 56 57 83 82
4 57 58 84 83
4 58 59 85 84
4 59 60 86 85
4 60 61 87 86
4 61 62 88 87
4 62 63 89 88
4 63 64 90 89
4 64 65 91 90
4 65 66 92 91
4 66 67 93 92
4 67 68 94 93
4 68 69 95 94
4 69 70 96 95
4 70 71 97 96
4 71 72 98 97
4 72 73 99 98
4 73 74 100 99
4 74 75 101 100
4 75 76 102 101
4 76 77 103 102
4 78 79 105 104
4 79 80 106 105
4 80 81 107 106
4 81 82 108 107
4 82 83 109 108
4 83 84 110 109
4 84 85 111 110
4 85 86 112 111
4 86 87 113 112
4 87 88 114 113
4 88 89 115 114
4 89 90 116 115
4 90 91 117 116
4 91 92 118 117
4 92 93 119 118
4 93 94 120 119
4 94 95 121 120
4 95 96 122 121
4 96 97 123 122
4 97 98 124 123
4 98 99 125 124
4 99 100 126 125
4 100 101 127 126
4 101 102 128 127
4 102 103 129 128
4 104 105 131 130
4 105 106 132 131
4 106 107 133 132
4 107 108 134 133
4 108 109 135 134
4 109 110 136 135
4 110 111 137 136
4 111 112 138 137
4 112 113 139 138
4 113 114 140 139
4 114 115 141 140
4 115 116 142 141
4 116 117 143 142
4 117 118 144 143
4 118 119 145 144
4 119 120 146 145
4 120 121 147 146
4 121 122 148 147
4 122 123 149 148
4 123 124 150 149
4 124 125 151 150
4 125 126 152 151
4 126 127 153 152
4 127 128 154 153
4 128 129 155 154
4 130 131 157 156
4 131 132 158 157
4 132 133 159 158
4 133 134 160 159
4 134 135 161 160
4 135 136 162 161
4 136 137 163 162
4 137 138 164 163
4 138 139 165 164
4 139 140 166 165
4 140 141 167 166
4 141 142 168 167
4 142 143 169 168
4 143 144 170 169
4 144 145 171 170
4 145 146 172 171
4 146 147 173 172
4 147 148 174 173
4 148 149 175 174
4 149 150 176 175
4 150 151 177 176
4 151 152 178 177
4 152 153 179 178
4 153 154 180 179
4 154 155 181 180
4 156 157 183 182
4 157 158 184 183
4 158 159 185 184
4 159 160 186 185
4 160 161 187 186
4 161 162 188 187
4 162 163 189 188
4 163 164 190 189
4 164 165 191 190
4 165 166 192 191
4 166 167 193 192
4 167 168 194 193
4 168 169 195 194
4 169 170 196 195
4 170 171 197 196
4 171 172 198 197
4 172 173 199 198
4 173 174 200 199
4 174 175 201 200
4 175 176 202 201
4 176 177 203 202
4 177 178 204 203
4 178 179 205 204
4 179 180 206 205
4 180 181 207 206
4 182 183 209 208
4 183 184 210 209
4 184 185 211 210
4 185 186 212 211
4 186 187 213 212
4 187 188 214 213
4 188 189 215 214
4 189 190 216 215
4 190 191 217 216
4 191 192 218 217
4 192 193 219 218
4 193 194 220 219
4 194 195 221 220
4 195 196 222 221
4 196 197 223 222
4 197 198 224 223
4 198 199 225 224
4 199 200 226 225
4 200 201 227 226
4 201 202 228 227
4 202 203 229 228
4 203 204 230 229
4 204 205 231 230
4 205 206 232 231
4 206 207 233 232
4 208 209 235 234
4 209 210 236 235
4 210 211 237 236
4 211 212 238 237
4 212 213 239 238
4 213 214 240 239
4 214 215 241 240
4 215 216 242 241
4 216 217 243 242
4 217 218 244 243
4 218 219 245 244
4 219 220 246 245
4 220 221 247 246
4 221 222 248 247
4 222 223 249 248
4 223 224 250 249
4 224 225 251 250
4 225 226 252 251
4 226 227 253 252
4 227 228 254 253
4 228 229 255 254
4 229 230 256 255
4 230 231 257 256
4 231 232 258 257
4 232 233 259 258
4 234 235 261 260
4 235 236 262 261
4 236 237 263 262
4 237 238 264 263
4 238 239 265 264
4 239 240 266 265
4 240 241 267 266
4 241 242 268 267
4 242 243 269 268
4 243 244 270 269
4 244 245 271 270
4 245 246 272 271
4 246 247 273 272
4 247 248 274 273
4 248 249 275 274
4 249 250 276 275
4 250 251 277 276
4 251 252 278 277
4 252 253 279 278
4 253 254 280 279
4 254 255 281 280
4 255 256 282 281
4 256 257 283 282
4 257 258 284 283
4 258 259 285 284
4 260 261 287 286
4 261 262 288 287
4 262 263 289 288
4 263 264 290 289
4 264 265 291 290
4 265 266 292 291
4 266 267 293 292
4 267 268 294 293
4 268 269 295 294
4 269 270 296 295
4 270 271 297 296
4 271 272 298 297
4 272 273 299 298
4 273 274 300 299
4 274 275 301 300
4 275 276 302 301
4 276 277 303 302
4 277 278 304 303
4 278 279 305 304
4 279 280 306 305
4 280 281 307 306
4 281 282 308 307
4 282 283 309 308
4 283 284 310 309
4 284 285 311 310
4 286 287 313 312
4 287 288 314 313
4 288 289 315 314
4 289 290 316 315
4 290 291 317 316
4 291 292 318 317
4 292 293 319 318
4 293 294 320 319
4 294 295 321 320
4 295 296 322 321
4 296 297 323 322
4 297 298 324 323
4 298 299 325 324
4 299 300 326 325
4 300 301 327 326
4 301 302 328 327
4 302 303 329 328
4 303 304 330 329
4 304 305 331 330
4 305 306 332 331
4 306 307 333 332
4 307 308 334 333
4 308 309 335 334
4 309 310 336 335
4 310 311 337 336
4 312 313 339 338
4 313 314 340 339
4 314 315 341 340
4 315 316 342 341
4 316 317 343 342
4 317 318 344 343
4 318 319 345 344
4 319 320 346 345
4 320 321 347 346
4 321 322 348 347
4 322 323 349 348
4 323 324 350 349
4 324 325 351 350
4 325 326 352 351
4 326 327 353 352
4 327 328 354 353
4 328 329 355 354
4 329 330 356 355
4 330 331 357 356
4 331 332 358 357
4 332 333 359 358
4 333 334 360 359
4 334 335 361 360
4 335 336 362 361
4 336 337 363 362
4 338 339 365 364
4 339 340 366 365
4 340 341 367 366
4 341 342 368 367
4 342 343 369 368
4 343 344 370 369
4 344 345 371 370
4 345 346 372 371
4 346 347 373 372
4 347 348 374 373
4 348 349 375 374
4 349 350 376 375
4 350 351 377 376
4 351 352 378 377
4 352 353 379 378
4 353 354 380 379
4 354 355 381 380
4 355 356 382 381
4 356 357 383 382
4 357 358 384 383
4 358 359 385 384
4 359 360 386 385
4 360 361 387 386
4 361 362 388 387
4 362 363 389 388
4 364 365 391 390
4 365 366 392 391
4 366 367 393 392
4 367 368 394 393
4 368 369 395 394
4 369 370 396 395
4 370 371 397 396
4 371 372 398 397
4 372 373 399 398
4 373 374 400 399
4 374 375 401 400
4 375 376 402 401
4 376 377 403 402
4 377 378 404 403
4 378 379 405 404
4 379 380 406 405
4 380 381 407 406
4 381 382 408 407
4 382 383 409 408
4 383 384 410 409
4 384 385 411 410
4 385 386 412 411
4 386 387 413 412
4 387 388 414 413
4 388 389 415 414
4 390 391 417 416
4 391 392 418 417
4 392 393 419 418
4 393 394 420 419
4 394 395 421 420
4 395 396 422 421
4 396 397 423 422
4 397 398 424 423
4 398 399 425 424
4 399 400 426 425
4 400 401 427 426
4 401 402 428 427
4 402 403 429 428
4 403 404 430 429
4 404 405 431 430
4 405 406 432 431
4 406 407 433 432
4 407 408 434 433
4 408 409 435 434
4 409 410 436 435
4 410 411 437 436
4 411 412 438 437
4 412 413 439 438
4 413 414 440 439
4 414 415 441 440
4 416 417 443 442
4 417 418 444 443
4 418 419 445 444
4 419 420 446 445
4 420 421 447 446
4 421 422 448 447
4 422 423 449 448
4 423 424 450 449
4 424 425 451 450
4 425 426 452 451
4 426 427 453 452
4 427 428 454 453
4 428 429 455 454
4 429 430 456 455
4 430 431 457 456
4 431 432 458 457
4 432 433 459 458
4 433 434 460 459
4 434 435 461 460
4 435 436 462 461
4 436 437 463 462
4 437 438 464 463
4 438 439 465 464
4 439 440 466 465
4 440 441 467 466
4 442 443 469 468
4 443 444 470 469
4 444 445 471 470
4 445 446 472 471
4 446 447 473 472
4 447 448 474 473
4 448 449 475 474
4 449 450 476 475
4 450 451 477 476
4 451 452 478 477
4 452 453 479 478
4 453 454 480 479
4 454 455 481 480
4 455 456 482 481
4 456 457 483 482
4 457 458 484 483
4 458 459 485 484
4 459 460 486 485
4 460 461 487 486
4 461 462 488 487
4 462 463 489 488
4 463 464 490 489
4 464 465 491 490
4 465 466 492 491
4 466 467 493 492
4 468 469 495 494
4 469 470 496 495
4 470 471 497 496
4 471 472 498 497
4 472 473 499 498
4 473 474 500 499
4 474 475 501 500
4 475 476 502 501
4 476 477 503 502
4 477 478 504 503
4 478 479 505 504
4 479 480 506 505
4 480 481 507 506
4 481 482 508 507
4 482 483 509 508
4 483 484 510 509
4 484 485 511 510
4 485 486 512 511
4 486 487 513 512
4 487 488 514 513
4 488 489 515 514
4 489 490 516 515
4 490 491 517 516
4 491 492 518 517
4 492 493 519 518
4 494 495 521 520
4 495 496 522 521
4 496 497 523 522
4 497 498 524 523
4 498 499 525 524
4 499 500 526 525
4 500 501 527 526
4 501 502 528 527
4 502 503 529 528
4 503 504 530 529
4 504 505 531 530
4 505 506 532 531
4 506 507 533 532
4 507 508 534 533
4 508 509 535 534
4 509 510 536 535
4 510 511 537 536
4 511 512 538 537
4 512 513 539 538
4 513 514 540 539
4 514 515 541 540
4 515 516 542 541
4 516 517 543 542
4 517 518 544 543
4 518 519 545 544
4 520 521 547 546
4 521 522 548 547
4 522 523 549 548
4 523 524 550 549
4 524 525 551 550
4 525 526 552 551
4 526 527 553 552
4 527 528 554 553
4 528 529 555 554
4 529 530 556 555
4 530 531 557 556
4 531 532 558 557
4 532 533 559 558
4 533 534 560 559
4 534 535 561 560
4 535 536 562 561
4 536 537 563 562
4 537 538 564 563
4 538 539 565 564
4 539 540 566 565
4 540 541 567 566
4 541 542 568 567
4 542 543 569 568
4 543 544 570 569
4 544 545 571 570
4 546 547 573 572
4 547 548 574 573
4 548 549 575 574
4 549 550 576 575
4 550 551 577 576
4 551 552 578 577
4 552 553 579 578
4 553 554 580 579
4 554 555 581 580
4 555 556 582 581
4 556 557 583 582
4 557 558 584 583
4 558 559 585 584
4 559 560 586 585
4 560 561 587 586
4 561 562 588 587
4 562 563 589 588
4 563 564 590 589
4 564 565 591 590
4 565 566 592 591
4 566 567 593 592
4 567 568 594 593
4 568 569 595 594
4 569 570 596 595
4 570 571 597 596
4 572 573 599 598
4 573 574 600 599
4 574 575 601 600
4 575 576 602 601
4 576 577 603 602
4 577 578 604 603
4 578 579 605 604
4 579 580 606 605
4 580 581 607 606
4 581 582 608 607
4 582 583 609 608
4 583 584 610 609
4 584 585 611 610
4 585 586 612 611
4 586 587 613 612
4 587 588 614 613
4 588 589 615 614
4 589 590 616 615
4 590 591 617 616
4 591 592 618 617
4 592 593 619 618
4 593 594 620 619
4 594 595 621 620
4 595 596 622 621
4 596 597 623 622
4 598 599 625 624
4 599 600 626 625
4 600 601 627 626
4 601 602 628 627
4 602 603 629 628
4 603 604 630 629
4 604 605 631 630
4 605 606 632 631
4 606 607 633 632
4 607 608 634 633
4 608 609 635 634
4 609 610 636 635
4 610 611 637 636
4 611 612 638 637
4 612 613 639 638
4 613 614 640 639
4 614 615 641 640
4 615 616 642 641
4 616 617 643 642
4 617 618 644 643
4 618 619 645 644
4 619 620 646 645
4 620 621 647 646
4 621 622 648 647
4 622 623 649 648
4 624 625 651 650
4 625 626 652 651
4 626 627 653 652
4 627 628 654 653
4 628 629 655 654
4 629 630 656 655
4 630 631 657 656
4 631 632 658 657
4 632 633 659 658
4 633 634 660 659
4 634 635 661 660
4 635 636 662 661
4 636 637 663 662
4 637 638 664 663
4 638 639 665 664
4 639 640 666 665
4 640 641 667 666
4 641 642 668 667
4 642 643 669 668
4 643 644 670 669
4 644 645 671 670
4 645 646 672 671
4 646 647 673 672
4 647 648 674 673
4 648 649 675 674
