ply
format ascii 1.0
element vertex 676
property double x
property double y
property double z
property double vx
property double vy
property double vz
property double s
element face 625
property list uchar int vertex_indices
end_header
-9 -9 0 0 0 0 4.12143276405334458
-8.25 -9 0 0 0 0 2.73001793909072887
-7.5 -9 0 0 0 0 1.95764741706848144
-6.75 -9 0 0 0 0 1.29691858720779418
-6 -9 0 0 0 0 0.967354194402694656
-5.25 -9 0 0 0 0 0.80580626296997071
-4.5 -9 0 0 0 0 0.659253201246261633
-3.75 -9 0 0 0 0 0.570093831419944741
-3 -9 0 0 0 0 0.472548653602600122
-2.25 -9 0 0 0 0 0.430628769159317026
-1.5 -9 0 0 0 0 0.409253114223480208
-0.75 -9 0 0 0 0 0.438158354043960585
0 -9 0 0 0 0 0.505720738649368284
0.75 -9 0 0 0 0 0.599230171203613327
1.5 -9 0 0 0 0 0.755343906879425098
2.25 -9 0 0 0 0 0.987840683460235569
3 -9 0 0 0 0 1.29372918510437018
3.75 -9 0 0 0 0 1.66327615070343016
4.5 -9 0 0 0 0 2.47261316013336163
5.25 -9 0 0 0 0 3.72538355636596696
6 -9 0 0 0 0 5.41545490646362282
6.75 -9 0 0 0 0 7.96067495727539054
7.5 -9 0 0 0 0 11.9360884323120118
8.25 -9 0 0 0 0 18.5027207031250001
9 -9 0 0 0 0 30.4415927429199229
9.75 -9 0 0 0 0 48.5338444213867177
-9 -8.25 0 0 0 0 4.41534383392334018
-8.25 -8.25 0 0 0 0 2.81199404573440548
-7.5 -8.25 0 0 0 0 1.84003545904159549
-6.75 -8.25 0 0 0 0 1.2679708476066589
-6 -8.25 0 0 0 0 0.92002564287185673
-5.25 -8.25 0 0 0 0 0.671010531663894683
-4.5 -8.25 0 0 0 0 0.568887499213218684
-3.75 -8.25 0 0 0 0 0.493428172111511243
-3 -8.25 0 0 0 0 0.429645384788513163
-2.25 -8.25 0 0 0 0 0.388224593639373783
-1.5 -8.25 0 0 0 0 0.379936210989952061
-0.75 -8.25 0 0 0 0 0.385273178339004541
0 -8.25 0 0 0 0 0.422871760845184352
0.75 -8.25 0 0 0 0 0.520720416069030745
1.5 -8.25 0 0 0 0 0.610264396667480447
2.25 -8.25 0 0 0 0 0.720758063077926669
3 -8.25 0 0 0 0 0.884464082717895561
3.75 -8.25 0 0 0 0 1.146357436656952
4.5 -8.25 0 0 0 0 1.52569366264343254
5.25 -8.25 0 0 0 0 2.20322570610046409
6 -8.25 0 0 0 0 3.30929076766967789
6.75 -8.25 0 0 0 0 4.80183633995056169
7.5 -8.25 0 0 0 0 7.43075815582275379
8.25 -8.25 0 0 0 0 11.2601596603393563
9 -8.25 0 0 0 0 18.5316499099731438
9.75 -8.25 0 0 0 0 31.1501721649169916
-9 -7.5 0 0 0 0 4.43603064632415744
-8.25 -7.5 0 0 0 0 3.07551960849761974
-7.5 -7.5 0 0 0 0 1.94769787168502817
-6.75 -7.5 0 0 0 0 1.25033025598526004
-6 -7.5 0 0 0 0 0.855830062866210883
-5.25 -7.5 0 0 0 0 0.625560869455337509
-4.5 -7.5 0 0 0 0 0.511734770655631999
-3.75 -7.5 0 0 0 0 0.437070899248123146
-3 -7.5 0 0 0 0 0.368293539285659777
-2.25 -7.5 0 0 0 0 0.338255631327629092
-1.5 -7.5 0 0 0 0 0.339949535369873046
-0.75 -7.5 0 0 0 0 0.347878644704818718
0 -7.5 0 0 0 0 0.370143177747726426
0.75 -7.5 0 0 0 0 0.419684084653854372
1.5 -7.5 0 0 0 0 0.480502794504165665
2.25 -7.5 0 0 0 0 0.548067790746688877
3 -7.5 0 0 0 0 0.664856367111206104
3.75 -7.5 0 0 0 0 0.771212321996688877
4.5 -7.5 0 0 0 0 0.9535952534675598
5.25 -7.5 0 0 0 0 1.36784808969497673
6 -7.5 0 0 0 0 1.93943557929992672
6.75 -7.5 0 0 0 0 2.89458631896972651
7.5 -7.5 0 0 0 0 4.43581267356872555
8.25 -7.5 0 0 0 0 6.92684023284912076
9 -7.5 0 0 0 0 11.8182429580688471
9.75 -7.5 0 0 0 0 19.8034220581054683
-9 -6.75 0 0 0 0 4.3868959693908689
-8.25 -6.75 0 0 0 0 3.02847341060638442
-7.5 -6.75 0 0 0 0 2.07036002969741828
-6.75 -6.75 0 0 0 0 1.3423959188461303
-6 -6.75 0 0 0 0 0.875476194858550993
-5.25 -6.75 0 0 0 0 0.593030034303665188
-4.5 -6.75 0 0 0 0 0.426967970103025452
-3.75 -6.75 0 0 0 0 0.362772301137447351
-3 -6.75 0 0 0 0 0.311915734648704535
-2.25 -6.75 0 0 0 0 0.299628420591354361
-1.5 -6.75 0 0 0 0 0.288604822158813501
-0.75 -6.75 0 0 0 0 0.30707237637043
0 -6.75 0 0 0 0 0.33261292314529417
0.75 -6.75 0 0 0 0 0.358462300539016732
1.5 -6.75 0 0 0 0 0.397847343444824197
2.25 -6.75 0 0 0 0 0.44229263710975647
3 -6.75 0 0 0 0 0.498551489830017069
3.75 -6.75 0 0 0 0 0.569248451471328742
4.5 -6.75 0 0 0 0 0.646425342082977306
5.25 -6.75 0 0 0 0 0.801582474708557147
6 -6.75 0 0 0 0 1.15105590057373042
6.75 -6.75 0 0 0 0 1.64597507953643807
7.5 -6.75 0 0 0 0 2.56032962322235091
8.25 -6.75 0 0 0 0 4.28911400032043488
9 -6.75 0 0 0 0 7.36538569641113305
9.75 -6.75 0 0 0 0 12.0807315139770513
-9 -6 0 0 0 0 4.52095181846618654
-8.25 -6 0 0 0 0 3.33226892471313496
-7.5 -6 0 0 0 0 2.13096860218048079
-6.75 -6 0 0 0 0 1.33952347660064697
-6 -6 0 0 0 0 0.872888630390167286
-5.25 -6 0 0 0 0 0.547906998753547647
-4.5 -6 0 0 0 0 0.372136167407035812
-3.75 -6 0 0 0 0 0.328534129619598381
-3 -6 0 0 0 0 0.251731324672698986
-2.25 -6 0 0 0 0 0.241615395367145547
-1.5 -6 0 0 0 0 0.253235109031200389
-0.75 -6 0 0 0 0 0.276613954186439526
0 -6 0 0 0 0 0.302188758850097661
0.75 -6 0 0 0 0 0.329858752012252787
1.5 -6 0 0 0 0 0.343833687067031879
2.25 -6 0 0 0 0 0.36165141558647157
3 -6 0 0 0 0 0.37927711009979248
3.75 -6 0 0 0 0 0.414749207973480249
4.5 -6 0 0 0 0 0.447212504625320417
5.25 -6 0 0 0 0 0.545607901573181175
6 -6 0 0 0 0 0.701570292472839308
6.75 -6 0 0 0 0 0.995903934955596926
7.5 -6 0 0 0 0 1.51366253185272215
8.25 -6 0 0 0 0 2.53971402549743663
9 -6 0 0 0 0 4.65720216560363731
9.75 -6 0 0 0 0 7.64018699264526369
-9 -5.25 0 0 0 0 4.45554991245269782
-8.25 -5.25 0 0 0 0 3.18057212162017811
-7.5 -5.25 0 0 0 0 2.15339328813552866
-6.75 -5.25 0 0 0 0 1.32001222968101506
-6 -5.25 0 0 0 0 0.947369290232658368
-5.25 -5.25 0 0 0 0 0.571148496687412299
-4.5 -5.25 0 0 0 0 0.33371102845668793
-3.75 -5.25 0 0 0 0 0.273629189491271962
-3 -5.25 0 0 0 0 0.217439612627029433
-2.25 -5.25 0 0 0 0 0.186428795337677006
-1.5 -5.25 0 0 0 0 0.198870084583759321
-0.75 -5.25 0 0 0 0 0.233397173404693598
0 -5.25 0 0 0 0 0.275813652157783529
0.75 -5.25 0 0 0 0 0.299931107640266426
1.5 -5.25 0 0 0 0 0.306919608116149878
2.25 -5.25 0 0 0 0 0.318076370716094958
3 -5.25 0 0 0 0 0.318123332500457767
3.75 -5.25 0 0 0 0 0.317509835600852941
4.5 -5.25 0 0 0 0 0.341360879659652727
5.25 -5.25 0 0 0 0 0.376339859008789079
6 -5.25 0 0 0 0 0.457967602729797363
6.75 -5.25 0 0 0 0 0.601542200565338137
7.5 -5.25 0 0 0 0 0.978649375438690239
8.25 -5.25 0 0 0 0 1.60857099103927603
9 -5.25 0 0 0 0 2.79762618827819809
9.75 -5.25 0 0 0 0 4.76856744766235341
-9 -4.5 0 0 0 0 4.36736455345153818
-8.25 -4.5 0 0 0 0 3.39103171730041497
-7.5 -4.5 0 0 0 0 2.15934279727935774
-6.75 -4.5 0 0 0 0 1.51591094017028816
-6 -4.5 0 0 0 0 0.957435843825340305
-5.25 -4.5 0 0 0 0 0.626702861189842197
-4.5 -4.5 0 0 0 0 0.388029122531414028
-3.75 -4.5 0 0 0 0 0.251613834381103518
-3 -4.5 0 0 0 0 0.198058390557765973
-2.25 -4.5 0 0 0 0 0.159595285266637799
-1.5 -4.5 0 0 0 0 0.158916246175765996
-0.75 -4.5 0 0 0 0 0.191231284618377684
0 -4.5 0 0 0 0 0.242958711981773379
0.75 -4.5 0 0 0 0 0.280640978336334224
1.5 -4.5 0 0 0 0 0.288125334262847921
2.25 -4.5 0 0 0 0 0.285731856703758225
3 -4.5 0 0 0 0 0.281402560472488406
3.75 -4.5 0 0 0 0 0.284555222868919377
4.5 -4.5 0 0 0 0 0.282798358678817752
5.25 -4.5 0 0 0 0 0.293239799737930296
6 -4.5 0 0 0 0 0.353103688478469846
6.75 -4.5 0 0 0 0 0.443431896686553972
7.5 -4.5 0 0 0 0 0.642624921083450262
8.25 -4.5 0 0 0 0 0.979806241035461434
9 -4.5 0 0 0 0 1.6503721752166749
9.75 -4.5 0 0 0 0 2.88318127441406258
-9 -3.75 0 0 0 0 4.67115932273864765
-8.25 -3.75 0 0 0 0 2.96220843601226802
-7.5 -3.75 0 0 0 0 2.09987022399902346
-6.75 -3.75 0 0 0 0 1.42715735244750985
-6 -3.75 0 0 0 0 0.94437246036529543
-5.25 -3.75 0 0 0 0 0.603561687290668503
-4.5 -3.75 0 0 0 0 0.365941059947013869
-3.75 -3.75 0 0 0 0 0.222459371864795696
-3 -3.75 0 0 0 0 0.166146589454263444
-2.25 -3.75 0 0 0 0 0.128459223732352246
-1.5 -3.75 0 0 0 0 0.128827761620283116
-0.75 -3.75 0 0 0 0 0.14703622400760652
0 -3.75 0 0 0 0 0.200260988473892204
0.75 -3.75 0 0 0 0 0.252171791911125209
1.5 -3.75 0 0 0 0 0.271741012096405055
2.25 -3.75 0 0 0 0 0.274867019653320332
3 -3.75 0 0 0 0 0.263219567775726304
3.75 -3.75 0 0 0 0 0.252448764920234658
4.5 -3.75 0 0 0 0 0.260558697700500497
5.25 -3.75 0 0 0 0 0.2648385113477707
6 -3.75 0 0 0 0 0.293706069231033318
6.75 -3.75 0 0 0 0 0.357888525247573863
7.5 -3.75 0 0 0 0 0.468500463485717777
8.25 -3.75 0 0 0 0 0.696261382102966286
9 -3.75 0 0 0 0 1.0660274877548217
9.75 -3.75 0 0 0 0 1.80012882041931155
-9 -3 0 0 0 0 4.34184678077697761
-8.25 -3 0 0 0 0 3.27055125045776363
-7.5 -3 0 0 0 0 2.23245714378356919
-6.75 -3 0 0 0 0 1.5089011669158936
-6 -3 0 0 0 0 0.986507560491561852
-5.25 -3 0 0 0 0 0.619060060679912594
-4.5 -3 0 0 0 0 0.425410028696060205
-3.75 -3 0 0 0 0 0.22162823396921158
-3 -3 0 0 0 0 0.152978980697691447
-2.25 -3 0 0 0 0 0.115775602530688054
-1.5 -3 0 0 0 0 0.0951427257210016308
-0.75 -3 0 0 0 0 0.107933024317026144
0 -3 0 0 0 0 0.158641955375671384
0.75 -3 0 0 0 0 0.216984802126884452
1.5 -3 0 0 0 0 0.246655948281288145
2.25 -3 0 0 0 0 0.253912685990333564
3 -3 0 0 0 0 0.253162034511566159
3.75 -3 0 0 0 0 0.245792143464088453
4.5 -3 0 0 0 0 0.24242713916301728
5.25 -3 0 0 0 0 0.252491479396820095
6 -3 0 0 0 0 0.267263327717781052
6.75 -3 0 0 0 0 0.316273004412651049
7.5 -3 0 0 0 0 0.401900527954101583
8.25 -3 0 0 0 0 0.52420288109779356
9 -3 0 0 0 0 0.773212793111801133
9.75 -3 0 0 0 0 1.22018972492218025
-9 -2.25 0 0 0 0 4.48258666229248082
-8.25 -2.25 0 0 0 0 3.30219959640502925
-7.5 -2.25 0 0 0 0 2.16723955821990977
-6.75 -2.25 0 0 0 0 1.45864953804016118
-6 -2.25 0 0 0 0 1.015738908290863
-5.25 -2.25 0 0 0 0 0.639290539503097555
-4.5 -2.25 0 0 0 0 0.38254846674203874
-3.75 -2.25 0 0 0 0 0.231473319053649901
-3 -2.25 0 0 0 0 0.153308017764240495
-2.25 -2.25 0 0 0 0 0.0975623710528016053
-1.5 -2.25 0 0 0 0 0.0780020692721009323
-0.75 -2.25 0 0 0 0 0.0842341252863407081
0 -2.25 0 0 0 0 0.110840566396713261
0.75 -2.25 0 0 0 0 0.157897405862808232
1.5 -2.25 0 0 0 0 0.210089865088462835
2.25 -2.25 0 0 0 0 0.235644348144531252
3 -2.25 0 0 0 0 0.240217833280563342
3.75 -2.25 0 0 0 0 0.234733918905258188
4.5 -2.25 0 0 0 0 0.234176809549331677
5.25 -2.25 0 0 0 0 0.243827394723892199
6 -2.25 0 0 0 0 0.257382503509521465
6.75 -2.25 0 0 0 0 0.295195503711700447
7.5 -2.25 0 0 0 0 0.343086314201354992
8.25 -2.25 0 0 0 0 0.445994332790374759
9 -2.25 0 0 0 0 0.616079115867614768
9.75 -2.25 0 0 0 0 0.918818316459655726
-9 -1.5 0 0 0 0 4.43796170234680165
-8.25 -1.5 0 0 0 0 3.42471880817413332
-7.5 -1.5 0 0 0 0 2.26768826484680197
-6.75 -1.5 0 0 0 0 1.53894350767135624
-6 -1.5 0 0 0 0 1.0813171775341035
-5.25 -1.5 0 0 0 0 0.667775353312492381
-4.5 -1.5 0 0 0 0 0.400243238210678087
-3.75 -1.5 0 0 0 0 0.235086733996868136
-3 -1.5 0 0 0 0 0.142564155042171486
-2.25 -1.5 0 0 0 0 0.103991090169176459
-1.5 -1.5 0 0 0 0 0.0781088296025991419
-0.75 -1.5 0 0 0 0 0.0665296997874975232
0 -1.5 0 0 0 0 0.0846872312128543886
0.75 -1.5 0 0 0 0 0.12107218492031098
1.5 -1.5 0 0 0 0 0.173001496434211727
2.25 -1.5 0 0 0 0 0.206999696016311657
3 -1.5 0 0 0 0 0.22199282515048982
3.75 -1.5 0 0 0 0 0.224735631346702575
4.5 -1.5 0 0 0 0 0.223941514253616331
5.25 -1.5 0 0 0 0 0.233860164761543282
6 -1.5 0 0 0 0 0.251979525566101092
6.75 -1.5 0 0 0 0 0.279849488854408246
7.5 -1.5 0 0 0 0 0.320603471755981473
8.25 -1.5 0 0 0 0 0.390204896450042749
9 -1.5 0 0 0 0 0.516667689800262453
9.75 -1.5 0 0 0 0 0.69802169466018682
-9 -0.75 0 0 0 0 4.58603808403015112
-8.25 -0.75 0 0 0 0 3.2444455490112305
-7.5 -0.75 0 0 0 0 2.42785699129104593
-6.75 -0.75 0 0 0 0 1.63769028043746956
-6 -0.75 0 0 0 0 1.13431666660308839
-5.25 -0.75 0 0 0 0 0.688007004499435415
-4.5 -0.75 0 0 0 0 0.384970092624425886
-3.75 -0.75 0 0 0 0 0.251443735837936388
-3 -0.75 0 0 0 0 0.148288416169583798
-2.25 -0.75 0 0 0 0 0.10715866703912616
-1.5 -0.75 0 0 0 0 0.0733785485699772894
-0.75 -0.75 0 0 0 0 0.0653966217301786001
0 -0.75 0 0 0 0 0.0731751378178596562
0.75 -0.75 0 0 0 0 0.0935049471855163572
1.5 -0.75 0 0 0 0 0.129808566689491284
2.25 -0.75 0 0 0 0 0.175577233552932727
3 -0.75 0 0 0 0 0.198476687550544734
3.75 -0.75 0 0 0 0 0.206543420076370249
4.5 -0.75 0 0 0 0 0.219494069099426259
5.25 -0.75 0 0 0 0 0.231969654560089111
6 -0.75 0 0 0 0 0.252895420670509352
6.75 -0.75 0 0 0 0 0.279934998035430926
7.5 -0.75 0 0 0 0 0.311112943649291984
8.25 -0.75 0 0 0 0 0.359492748260498041
9 -0.75 0 0 0 0 0.446854597330093362
9.75 -0.75 0 0 0 0 0.5886331026554108
-9 0 0 0 0 0 4.77596635246276868
-8.25 0 0 0 0 0 3.37253601264953629
-7.5 0 0 0 0 0 2.35980755662918096
-6.75 0 0 0 0 0 1.60002161598205572
-6 0 0 0 0 0 1.19136856365203858
-5.25 0 0 0 0 0 0.792178768396377575
-4.5 0 0 0 0 0 0.48464470744132998
-3.75 0 0 0 0 0 0.289766379475593583
-3 0 0 0 0 0 0.16433639090508223
-2.25 0 0 0 0 0 0.110174383062869308
-1.5 0 0 0 0 0 0.0844215950109064583
-0.75 0 0 0 0 0 0.06616085753589869
0 0 0 0 0 0 0.0675120570361614214
0.75 0 0 0 0 0 0.0753106648325920086
1.5 0 0 0 0 0 0.106401890754699704
2.25 0 0 0 0 0 0.136230952024459839
3 0 0 0 0 0 0.175491374731063854
3.75 0 0 0 0 0 0.189778602838516247
4.5 0 0 0 0 0 0.207341973066329954
5.25 0 0 0 0 0 0.222799782633781446
6 0 0 0 0 0 0.246334059476852413
6.75 0 0 0 0 0 0.281336828708648679
7.5 0 0 0 0 0 0.301344097137451195
8.25 0 0 0 0 0 0.350110968351364127
9 0 0 0 0 0 0.415108488559722877
9.75 0 0 0 0 0 0.523078161716461154
-9 0.75 0 0 0 0 4.99764064407348663
-8.25 0.75 0 0 0 0 3.66578486537933346
-7.5 0.75 0 0 0 0 2.53788510847091686
-6.75 0.75 0 0 0 0 1.79469389057159434
-6 0.75 0 0 0 0 1.20701729869842533
-5.25 0.75 0 0 0 0 0.865658653497695885
-4.5 0.75 0 0 0 0 0.546982855796813938
-3.75 0.75 0 0 0 0 0.300001624882221207
-3 0.75 0 0 0 0 0.181584817409515376
-2.25 0.75 0 0 0 0 0.12811609596014023
-1.5 0.75 0 0 0 0 0.0990705259144306211
-0.75 0.75 0 0 0 0 0.0757079306989908163
0 0.75 0 0 0 0 0.0760859626159071933
0.75 0.75 0 0 0 0 0.0780860266983509077
1.5 0.75 0 0 0 0 0.0932730112671852074
2.25 0.75 0 0 0 0 0.117002311706542975
3 0.75 0 0 0 0 0.145192483603954314
3.75 0.75 0 0 0 0 0.168154196977615356
4.5 0.75 0 0 0 0 0.196714118003845223
5.25 0.75 0 0 0 0 0.220804897189140314
6 0.75 0 0 0 0 0.248176908612251279
6.75 0.75 0 0 0 0 0.28521065115928651
7.5 0.75 0 0 0 0 0.314236392021179201
8.25 0.75 0 0 0 0 0.369499018430709814
9 0.75 0 0 0 0 0.417447944879531851
9.75 0.75 0 0 0 0 0.509414044380188002
-9 1.5 0 0 0 0 5.29227936172485336
-8.25 1.5 0 0 0 0 3.82084888648986798
-7.5 1.5 0 0 0 0 2.67405354213714608
-6.75 1.5 0 0 0 0 1.96773493862152105
-6 1.5 0 0 0 0 1.42719254064559942
-5.25 1.5 0 0 0 0 1.01181069946289059
-4.5 1.5 0 0 0 0 0.647506088018417358
-3.75 1.5 0 0 0 0 0.401730524241924292
-3 1.5 0 0 0 0 0.265561521828174607
-2.25 1.5 0 0 0 0 0.162987469300627713
-1.5 1.5 0 0 0 0 0.12862117825448513
-0.75 1.5 0 0 0 0 0.0882049001902341784
0 1.5 0 0 0 0 0.0914547512382268973
0.75 1.5 0 0 0 0 0.0936153925061225939
1.5 1.5 0 0 0 0 0.0969812533259391818
2.25 1.5 0 0 0 0 0.113990797787904746
3 1.5 0 0 0 0 0.136326532483100893
3.75 1.5 0 0 0 0 0.156758051395416265
4.5 1.5 0 0 0 0 0.184903520584106446
5.25 1.5 0 0 0 0 0.21615626192092896
6 1.5 0 0 0 0 0.248326438069343569
6.75 1.5 0 0 0 0 0.290904468059539789
7.5 1.5 0 0 0 0 0.328912140488624549
8.25 1.5 0 0 0 0 0.385184989929199195
9 1.5 0 0 0 0 0.453534317255020136
9.75 1.5 0 0 0 0 0.526644421100616489
-9 2.25 0 0 0 0 5.7270579586029049
-8.25 2.25 0 0 0 0 3.89404109764099138
-7.5 2.25 0 0 0 0 3.08466114425659166
-6.75 2.25 0 0 0 0 2.19438897466659544
-6 2.25 0 0 0 0 1.68592263555526722
-5.25 2.25 0 0 0 0 1.12470552825927728
-4.5 2.25 0 0 0 0 0.845273988127708487
-3.75 2.25 0 0 0 0 0.534269690275192222
-3 2.25 0 0 0 0 0.341482924044132219
-2.25 2.25 0 0 0 0 0.228438240692019456
-1.5 2.25 0 0 0 0 0.170622976958751671
-0.75 2.25 0 0 0 0 0.130843454718589769
0 2.25 0 0 0 0 0.112016045812517409
0.75 2.25 0 0 0 0 0.11494049674272537
1.5 2.25 0 0 0 0 0.120180530637502669
2.25 2.25 0 0 0 0 0.128617654025554667
3 2.25 0 0 0 0 0.146716026186943044
3.75 2.25 0 0 0 0 0.161081191122531886
4.5 2.25 0 0 0 0 0.185239979624748224
5.25 2.25 0 0 0 0 0.20905293309688569
6 2.25 0 0 0 0 0.250803932666778584
6.75 2.25 0 0 0 0 0.299652978301048256
7.5 2.25 0 0 0 0 0.368533456563949591
8.25 2.25 0 0 0 0 0.424514496326446555
9 2.25 0 0 0 0 0.512801353454589881
9.75 2.25 0 0 0 0 0.569847367286682172
-9 3 0 0 0 0 5.70352094268798826
-8.25 3 0 0 0 0 4.60247367286682163
-7.5 3 0 0 0 0 3.46677585792541487
-6.75 3 0 0 0 0 2.72586678028106677
-6 3 0 0 0 0 2.00688271427154552
-5.25 3 0 0 0 0 1.36871529531478875
-4.5 3 0 0 0 0 1.06279632377624522
-3.75 3 0 0 0 0 0.695093798637390181
-3 3 0 0 0 0 0.486551363706588746
-2.25 3 0 0 0 0 0.329678003251552609
-1.5 3 0 0 0 0 0.217131337851285938
-0.75 3 0 0 0 0 0.175158248364925384
0 3 0 0 0 0 0.162638123750686647
0.75 3 0 0 0 0 0.151149137169122705
1.5 3 0 0 0 0 0.153205450892448414
2.25 3 0 0 0 0 0.156468402385711663
3 3 0 0 0 0 0.166420917570590965
3.75 3 0 0 0 0 0.193651257276535038
4.5 3 0 0 0 0 0.200517494916915895
5.25 3 0 0 0 0 0.241267010211944577
6 3 0 0 0 0 0.273940422773361225
6.75 3 0 0 0 0 0.327400848150253276
7.5 3 0 0 0 0 0.381355799913406346
8.25 3 0 0 0 0 0.475067117691040042
9 3 0 0 0 0 0.550266520738601717
9.75 3 0 0 0 0 0.663533267974853569
-9 3.75 0 0 0 0 6.64875746917724619
-8.25 3.75 0 0 0 0 5.10356344223022429
-7.5 3.75 0 0 0 0 4.08356439399719218
-6.75 3.75 0 0 0 0 3.11308912277221683
-6 3.75 0 0 0 0 2.21103145694732683
-5.25 3.75 0 0 0 0 1.78181846523284904
-4.5 3.75 0 0 0 0 1.28858624315261849
-3.75 3.75 0 0 0 0 0.975133335113525401
-3 3.75 0 0 0 0 0.729723321557045002
-2.25 3.75 0 0 0 0 0.467424489498138418
-1.5 3.75 0 0 0 0 0.348782081976532932
-0.75 3.75 0 0 0 0 0.264754302203655256
0 3.75 0 0 0 0 0.214652965098619475
0.75 3.75 0 0 0 0 0.210491820037364968
1.5 3.75 0 0 0 0 0.190098464384675037
2.25 3.75 0 0 0 0 0.210109659135341631
3 3.75 0 0 0 0 0.216572947025299084
3.75 3.75 0 0 0 0 0.224286645472049712
4.5 3.75 0 0 0 0 0.253415321469306953
5.25 3.75 0 0 0 0 0.265246992230415368
6 3.75 0 0 0 0 0.304819939970970177
6.75 3.75 0 0 0 0 0.368944737672805778
7.5 3.75 0 0 0 0 0.440904684782028211
8.25 3.75 0 0 0 0 0.51966468071937566
9 3.75 0 0 0 0 0.6400209250450134
9.75 3.75 0 0 0 0 0.773680094242095939
-9 4.5 0 0 0 0 7.47783236312866251
-8.25 4.5 0 0 0 0 5.91775145721435525
-7.5 4.5 0 0 0 0 4.51437649917602535
-6.75 4.5 0 0 0 0 3.77545507812499981
-6 4.5 0 0 0 0 2.87185611915588357
-5.25 4.5 0 0 0 0 2.16895511531829843
-4.5 4.5 0 0 0 0 1.71230166578292842
-3.75 4.5 0 0 0 0 1.30615379095077522
-3 4.5 0 0 0 0 0.965457803964614891
-2.25 4.5 0 0 0 0 0.738685880184173582
-1.5 4.5 0 0 0 0 0.4735999084711075
-0.75 4.5 0 0 0 0 0.409917904853820791
0 4.5 0 0 0 0 0.317251822352409341
0.75 4.5 0 0 0 0 0.305148597896099105
1.5 4.5 0 0 0 0 0.267403747975826278
2.25 4.5 0 0 0 0 0.251547205090522752
3 4.5 0 0 0 0 0.266900356054306009
3.75 4.5 0 0 0 0 0.272690811038017289
4.5 4.5 0 0 0 0 0.308319192886352567
5.25 4.5 0 0 0 0 0.330747126221656806
6 4.5 0 0 0 0 0.351934938788413976
6.75 4.5 0 0 0 0 0.4166344327926636
7.5 4.5 0 0 0 0 0.47953551340103151
8.25 4.5 0 0 0 0 0.607558896064758325
9 4.5 0 0 0 0 0.723975747585296592
9.75 4.5 0 0 0 0 0.885423682212829632
-9 5.25 0 0 0 0 8.88644659423828109
-8.25 5.25 0 0 0 0 6.80996519851684567
-7.5 5.25 0 0 0 0 5.79426578140258819
-6.75 5.25 0 0 0 0 4.56859817886352548
-6 5.25 0 0 0 0 3.55155966949462876
-5.25 5.25 0 0 0 0 2.79426374912261943
-4.5 5.25 0 0 0 0 2.23491130352020262
-3.75 5.25 0 0 0 0 1.67467570304870605
-3 5.25 0 0 0 0 1.40948421287536618
-2.25 5.25 0 0 0 0 0.97281273627281184
-1.5 5.25 0 0 0 0 0.781769202470779412
-0.75 5.25 0 0 0 0 0.559156672716140779
0 5.25 0 0 0 0 0.469698141574859618
0.75 5.25 0 0 0 0 0.41857021570205688
1.5 5.25 0 0 0 0 0.406027657032012934
2.25 5.25 0 0 0 0 0.377735583186149582
3 5.25 0 0 0 0 0.374803581476211567
3.75 5.25 0 0 0 0 0.38059967684745788
4.5 5.25 0 0 0 0 0.391746193885803229
5.25 5.25 0 0 0 0 0.407815288662910447
6 5.25 0 0 0 0 0.463184077978134157
6.75 5.25 0 0 0 0 0.478397013902664203
7.5 5.25 0 0 0 0 0.577735760211944616
8.25 5.25 0 0 0 0 0.669449959516525306
9 5.25 0 0 0 0 0.781307678699493358
9.75 5.25 0 0 0 0 1.04653152322769172
-9 6 0 0 0 0 10.2371361846923836
-8.25 6 0 0 0 0 8.10055625534057633
-7.5 6 0 0 0 0 6.58073691940307626
-6.75 6 0 0 0 0 5.59603394317626979
-6 6 0 0 0 0 4.41978057289123516
-5.25 6 0 0 0 0 3.68627384567260741
-4.5 6 0 0 0 0 2.89593282794952378
-3.75 6 0 0 0 0 2.27979881572723375
-3 6 0 0 0 0 1.77548432636260989
-2.25 6 0 0 0 0 1.39333218717575069
-1.5 6 0 0 0 0 1.00972872495651256
-0.75 6 0 0 0 0 0.825986006975173992
0 6 0 0 0 0 0.701565787315368672
0.75 6 0 0 0 0 0.583629341602325491
1.5 6 0 0 0 0 0.542443231344223009
2.25 6 0 0 0 0 0.520185495972633416
3 6 0 0 0 0 0.472456691503524762
3.75 6 0 0 0 0 0.51534448647499087
4.5 6 0 0 0 0 0.543871064424514716
5.25 6 0 0 0 0 0.564801060199737526
6 6 0 0 0 0 0.595842779636383102
6.75 6 0 0 0 0 0.618266537189483656
7.5 6 0 0 0 0 0.701644627571105906
8.25 6 0 0 0 0 0.780919013023376518
9 6 0 0 0 0 0.913711515426635756
9.75 6 0 0 0 0 1.1678580708503723
-9 6.75 0 0 0 0 11.9464761161804205
-8.25 6.75 0 0 0 0 9.71213861465454187
-7.5 6.75 0 0 0 0 8.16415481948852495
-6.75 6.75 0 0 0 0 6.76681452560424823
-6 6.75 0 0 0 0 5.45912892341613798
-5.25 6.75 0 0 0 0 4.66178833961486827
-4.5 6.75 0 0 0 0 3.64152712821960467
-3.75 6.75 0 0 0 0 3.11803561782836924
-3 6.75 0 0 0 0 2.28986262035369892
-2.25 6.75 0 0 0 0 1.85693449401855459
-1.5 6.75 0 0 0 0 1.46780870532989494
-0.75 6.75 0 0 0 0 1.17091529083251955
0 6.75 0 0 0 0 0.981323350429534891
0.75 6.75 0 0 0 0 0.857146882534027155
1.5 6.75 0 0 0 0 0.776943166255950945
2.25 6.75 0 0 0 0 0.711939308166503859
3 6.75 0 0 0 0 0.700186783552169789
3.75 6.75 0 0 0 0 0.684523427248001082
4.5 6.75 0 0 0 0 0.740334569692611688
5.25 6.75 0 0 0 0 0.770272631883621162
6 6.75 0 0 0 0 0.817571448326110839
6.75 6.75 0 0 0 0 0.851404484033584597
7.5 6.75 0 0 0 0 0.935135476112365693
8.25 6.75 0 0 0 0 0.932788277626037554
9 6.75 0 0 0 0 1.06547395277023305
9.75 6.75 0 0 0 0 1.3009723973274232
-9 7.5 0 0 0 0 14.4500466995239254
-8.25 7.5 0 0 0 0 11.8002488059997557
-7.5 7.5 0 0 0 0 10.0762095413208002
-6.75 7.5 0 0 0 0 8.53225953292846739
-6 7.5 0 0 0 0 7.22107584381103518
-5.25 7.5 0 0 0 0 5.8945597991943357
-4.5 7.5 0 0 0 0 4.99261511611938502
-3.75 7.5 0 0 0 0 3.94350729560852065
-3 7.5 0 0 0 0 3.21387853145599367
-2.25 7.5 0 0 0 0 2.7049164295196535
-1.5 7.5 0 0 0 0 2.01847255659103375
-0.75 7.5 0 0 0 0 1.71888901662826532
0 7.5 0 0 0 0 1.38057588386535635
0.75 7.5 0 0 0 0 1.16712073612213141
1.5 7.5 0 0 0 0 1.05249119234085087
2.25 7.5 0 0 0 0 0.99552221298217769
3 7.5 0 0 0 0 1.00959288740158071
3.75 7.5 0 0 0 0 0.949970323801040628
4.5 7.5 0 0 0 0 0.990397093534469586
5.25 7.5 0 0 0 0 0.976462247133255024
6 7.5 0 0 0 0 1.07927731037139885
6.75 7.5 0 0 0 0 1.13660053253173832
7.5 7.5 0 0 0 0 1.12631388902664176
8.25 7.5 0 0 0 0 1.25258747529983516
9 7.5 0 0 0 0 1.41331979322433465
9.75 7.5 0 0 0 0 1.50999928760528568
-9 8.25 0 0 0 0 17.3381275939941411
-8.25 8.25 0 0 0 0 15.1922445220947271
-7.5 8.25 0 0 0 0 12.8857475662231451
-6.75 8.25 0 0 0 0 10.8130983352661136
-6 8.25 0 0 0 0 9.24383635330200271
-5.25 8.25 0 0 0 0 7.58216293716430645
-4.5 8.25 0 0 0 0 6.25993063354492207
-3.75 8.25 0 0 0 0 5.16121526336669945
-3 8.25 0 0 0 0 4.13344334793090784
-2.25 8.25 0 0 0 0 3.52472459602355936
-1.5 8.25 0 0 0 0 2.80298278617858898
-0.75 8.25 0 0 0 0 2.32299849796295188
0 8.25 0 0 0 0 1.99277545547485357
0.75 8.25 0 0 0 0 1.75089482975006105
1.5 8.25 0 0 0 0 1.52713574600219726
2.25 8.25 0 0 0 0 1.42968988466262825
3 8.25 0 0 0 0 1.37040188264846807
3.75 8.25 0 0 0 0 1.35702052450180055
4.5 8.25 0 0 0 0 1.3882879881858825
5.25 8.25 0 0 0 0 1.39690912914276133
6 8.25 0 0 0 0 1.47981587505340584
6.75 8.25 0 0 0 0 1.56231261587142933
7.5 8.25 0 0 0 0 1.61518997764587402
8.25 8.25 0 0 0 0 1.76147023868560781
9 8.25 0 0 0 0 1.78168339633941653
9.75 8.25 0 0 0 0 1.97469946098327642
-9 9 0 0 0 0 22.0478494720458968
-8.25 9 0 0 0 0 18.7296086807250965
-7.5 9 0 0 0 0 16.3516458358764645
-6.75 9 0 0 0 0 13.6024763488769533
-6 9 0 0 0 0 12.0021975784301755
-5.25 9 0 0 0 0 9.8782112388610841
-4.5 9 0 0 0 0 8.14780525588989235
-3.75 9 0 0 0 0 7.22211110687255875
-3 9 0 0 0 0 5.95864994049072294
-2.25 9 0 0 0 0 5.06196720123291044
-1.5 9 0 0 0 0 3.94949363517761221
-0.75 9 0 0 0 0 3.37149897670745835
0 9 0 0 0 0 2.72014375019073507
0.75 9 0 0 0 0 2.45563105964660666
1.5 9 0 0 0 0 2.22375691843032852
2.25 9 0 0 0 0 2.11020545959472638
3 9 0 0 0 0 2.08558882331848139
3.75 9 0 0 0 0 2.10656584072113029
4.5 9 0 0 0 0 1.9315794014930725
5.25 9 0 0 0 0 1.97215043210983287
6 9 0 0 0 0 2.01371378421783431
6.75 9 0 0 0 0 2.09964217662811281
7.5 9 0 0 0 0 2.27789116287231463
8.25 9 0 0 0 0 2.23864950752258318
9 9 0 0 0 0 2.51228178119659429
9.75 9 0 0 0 0 2.63043316650390624
-9 9.75 0 0 0 0 27.9170094299316389
-8.25 9.75 0 0 0 0 22.8167846527099627
-7.5 9.75 0 0 0 0 20.8878412475585939
-6.75 9.75 0 0 0 0 17.5049466934204112
-6 9.75 0 0 0 0 15.504259513854981
-5.25 9.75 0 0 0 0 12.9818148345947257
-4.5 9.75 0 0 0 0 11.228321846008301
-3.75 9.75 0 0 0 0 9.48949095153808564
-3 9.75 0 0 0 0 7.95875820159912095
-2.25 9.75 0 0 0 0 6.73701029777526816
-1.5 9.75 0 0 0 0 5.4599518756866452
-0.75 9.75 0 0 0 0 4.56182938957214379
0 9.75 0 0 0 0 3.99682085418701183
0.75 9.75 0 0 0 0 3.3881390342712403
1.5 9.75 0 0 0 0 3.10143011474609365
2.25 9.75 0 0 0 0 3.01239856719970689
3 9.75 0 0 0 0 2.86016944599151612
3.75 9.75 0 0 0 0 2.76466112804412845
4.5 9.75 0 0 0 0 2.81253831291198741
5.25 9.75 0 0 0 0 2.79229023075103777
6 9.75 0 0 0 0 3.01245513248443597
6.75 9.75 0 0 0 0 2.99421803855896007
7.5 9.75 0 0 0 0 3.10556793689727773
8.25 9.75 0 0 0 0 3.32466460800170882
9 9.75 0 0 0 0 3.4495209770202635
9.75 9.75 0 0 0 0 3.54954931449890143
4 0 1 27 26
4 1 2 28 27
4 2 3 29 28
4 3 4 30 29
4 4 5 31 30
4 5 6 32 31
4 6 7 33 32
4 7 8 34 33
4 8 9 35 34
4 9 10 36 35
4 10 11 37 36
4 11 12 38 37
4 12 13 39 38
4 13 14 40 39
4 14 15 41 40
4 15 16 42 41
4 16 17 43 42
4 17 18 44 43
4 18 19 45 44
4 19 20 46 45
4 20 21 47 46
4 21 22 48 47
4 22 23 49 48
4 23 24 50 49
4 24 25 51 50
4 26 27 53 52
4 27 28 54 53
4 28 29 55 54
4 29 30 56 55
4 30 31 57 56
4 31 32 58 57
4 32 33 59 58
4 33 34 60 59
4 34 35 61 60
4 35 36 62 61
4 36 37 63 62
4 37 38 64 63
4 38 39 65 64
4 39 40 66 65
4 40 41 67 66
4 41 42 68 67
4 42 43 69 68
4 43 44 70 69
4 44 45 71 70
4 45 46 72 71
4 46 47 73 72
4 47 48 74 73
4 48 49 75 74
4 49 50 76 75
4 50 51 77 76
4 52 53 79 78
4 53 54 80 79
4 54 55 81 80
4 55 56 82 81
4 56 57 83 82
4 57 58 84 83
4 58 59 85 84
4 59 60 86 85
4 60 61 87 86
4 61 62 88 87
4 62 63 89 88
4 63 64 90 89
4 64 65 91 90
4 65 66 92 91
4 66 67 93 92
4 67 68 94 93
4 68 69 95 94
4 69 70 96 95
4 70 71 97 96
4 71 72 98 97
4 72 73 99 98
4 73 74 100 99
4 74 75 101 100
4 75 76 102 101
4 76 77 103 102
4 78 79 105 104
4 79 80 106 105
4 80 81 107 106
4 81 82 108 107
4 82 83 109 108
4 83 84 110 109
4 84 85 111 110
4 85 86 112 111
4 86 87 113 112
4 87 88 114 113
4 88 89 115 114
4 89 90 116 115
4 90 91 117 116
4 91 92 118 117
4 92 93 119 118
4 93 94 120 119
4 94 95 121 120
4 95 96 122 121
4 96 97 123 122
4 97 98 124 123
4 98 99 125 124
4 99 100 126 125
4 100 101 127 126
4 101 102 128 127
4 102 103 129 128
4 104 105 131 130
4 105 106 132 131
4 106 107 133 132
4 107 108 134 133
4 108 109 135 134
4 109 110 136 135
4 110 111 137 136
4 111 112 138 137
4 112 113 139 138
4 113 114 140 139
4 114 115 141 140
4 115 116 142 141
4 116 117 143 142
4 117 118 144 143
4 118 119 145 144
4 119 120 146 145
4 120 121 147 146
4 121 122 148 147
4 122 123 149 148
4 123 124 150 149
4 124 125 151 150
4 125 126 152 151
4 126 127 153 152
4 127 128 154 153
4 128 129 155 154
4 130 131 157 156
4 131 132 158 157
4 132 133 159 158
4 133 134 160 159
4 134 135 161 160
4 135 136 162 161
4 136 137 163 162
4 137 138 164 163
4 138 139 165 164
4 139 140 166 165
4 140 141 167 166
4 141 142 168 167
4 142 143 169 168
4 143 144 170 169
4 144 145 171 170
4 145 146 172 171
4 146 147 173 172
4 147 148 174 173
4 148 149 175 174
4 149 150 176 175
4 150 151 177 176
4 151 152 178 177
4 152 153 179 178
4 153 154 180 179
4 154 155 181 180
4 156 157 183 182
4 157 158 184 183
4 158 159 185 184
4 159 160 186 185
4 160 161 187 186
4 161 162 188 187
4 162 163 189 188
4 163 164 190 189
4 164 165 191 190
4 165 166 192 191
4 166 167 193 192
4 167 168 194 193
4 168 169 195 194
4 169 170 196 195
4 170 171 197 196
4 171 172 198 197
4 172 173 199 198
4 173 174 200 199
4 174 175 201 200
4 175 176 202 201
4 176 177 203 202
4 177 178 204 203
4 178 179 205 204
4 179 180 206 205
4 180 181 207 206
4 182 183 209 208
4 183 184 210 209
4 184 185 211 210
4 185 186 212 211
4 186 187 213 212
4 187 188 214 213
4 188 189 215 214
4 189 190 216 215
4 190 191 217 216
4 191 192 218 217
4 192 193 219 218
4 193 194 220 219
4 194 195 221 220
4 195 196 222 221
4 196 197 223 222
4 197 198 224 223
4 198 199 225 224
4 199 200 226 225
4 200 201 227 226
4 201 202 228 227
4 202 203 229 228
4 203 204 230 229
4 204 205 231 230
4 205 206 232 231
4 206 207 233 232
4 208 209 235 234
4 209 210 236 235
4 210 211 237 236
4 211 212 238 237
4 212 213 239 238
4 213 214 240 239
4 214 215 241 240
4 215 216 242 241
4 216 217 243 242
4 217 218 244 243
4 218 219 245 244
4 219 220 246 245
4 220 221 247 246
4 221 222 248 247
4 222 223 249 248
4 223 224 250 249
4 224 225 251 250
4 225 226 252 251
4 226 227 253 252
4 227 228 254 253
4 228 229 255 254
4 229 230 256 255
4 230 231 257 256
4 231 232 258 257
4 232 233 259 258
4 234 235 261 260
4 235 236 262 261
4 236 237 263 262
4 237 238 264 263
4 238 239 265 264
4 239 240 266 265
4 240 241 267 266
4 241 242 268 267
4 242 243 269 268
4 243 244 270 269
4 244 245 271 270
4 245 246 272 271
4 246 247 273 272
4 247 248 274 273
4 248 249 275 274
4 249 250 276 275
4 250 251 277 276
4 251 252 278 277
4 252 253 279 278
4 253 254 280 279
4 254 255 281 280
4 255 256 282 281
4 256 257 283 282
4 257 258 284 283
4 258 259 285 284
4 260 261 287 286
4 261 262 288 287
4 262 263 289 288
4 263 264 290 289
4 264 265 291 290
4 265 266 292 291
4 266 267 293 292
4 267 268 294 293
4 268 269 295 294
4 269 270 296 295
4 270 271 297 296
4 271 272 298 297
4 272 273 299 298
4 273 274 300 299
4 274 275 301 300
4 275 276 302 301
4 276 277 303 302
4 277 278 304 303
4 278 279 305 304
4 279 280 306 305
4 280 281 307 306
4 281 282 308 307
4 282 283 309 308
4 283 284 310 309
4 284 285 311 310
4 286 287 313 312
4 287 288 314 313
4 288 289 315 314
4 289 290 316 315
4 290 291 317 316
4 291 292 318 317
4 292 293 319 318
4 293 294 320 319
4 294 295 321 320
4 295 296 322 321
4 296 297 323 322
4 297 298 324 323
4 298 299 325 324
4 299 300 326 325
4 300 301 327 326
4 301 302 328 327
4 302 303 329 328
4 303 304 330 329
4 304 305 331 330
4 305 306 332 331
4 306 307 333 332
4 307 308 334 333
4 308 309 335 334
4 309 310 336 335
4 310 311 337 336
4 312 313 339 338
4 313 314 340 339
4 314 315 341 340
4 315 316 342 341
4 316 317 343 342
4 317 318 344 343
4 318 319 345 344
4 319 320 346 345
4 320 321 347 346
4 321 322 348 347
4 322 323 349 348
4 323 324 350 349
4 324 325 351 350
4 325 326 352 351
4 326 327 353 352
4 327 328 354 353
4 328 329 355 354
4 329 330 356 355
4 330 331 357 356
4 331 332 358 357
4 332 333 359 358
4 333 334 360 359
4 334 335 361 360
4 335 336 362 361
4 336 337 363 362
4 338 339 365 364
4 339 340 366 365
4 340 341 367 366
4 341 342 368 367
4 342 343 369 368
4 343 344 370 369
4 344 345 371 370
4 345 346 372 371
4 346 347 373 372
4 347 348 374 373
4 348 349 375 374
4 349 350 376 375
4 350 351 377 376
4 351 352 378 377
4 352 353 379 378
4 353 354 380 379
4 354 355 381 380
4 355 356 382 381
4 356 357 383 382
4 357 358 384 383
4 358 359 385 384
4 359 360 386 385
4 360 361 387 386
4 361 362 388 387
4 362 363 389 388
4 364 365 391 390
4 365 366 392 391
4 366 367 393 392
4 367 368 394 393
4 368 369 395 394
4 369 370 396 395
4 370 371 397 396
4 371 372 398 397
4 372 373 399 398
4 373 374 400 399
4 374 375 401 400
4 375 376 402 401
4 376 377 403 402
4 377 378 404 403
4 378 379 405 404
4 379 380 406 405
4 380 381 407 406
4 381 382 408 407
4 382 383 409 408
4 383 384 410 409
4 384 385 411 410
4 385 386 412 411
4 386 387 413 412
4 387 388 414 413
4 388 389 415 414
4 390 391 417 416
4 391 392 418 417
4 392 393 419 418
4 393 394 420 419
4 394 395 421 420
4 395 396 422 421
4 396 397 423 422
4 397 398 424 423
4 398 399 425 424
4 399 400 426 425
4 400 401 427 426
4 401 402 428 427
4 402 403 429 428
4 403 404 430 429
4 404 405 431 430
4 405 406 432 431
4 406 407 433 432
4 407 408 434 433
4 408 409 435 434
4 409 410 436 435
4 410 411 437 436
4 411 412 438 437
4 412 413 439 438
4 413 414 440 439
4 414 415 441 440
4 416 417 443 442
4 417 418 444 443
4 418 419 445 444
4 419 420 446 445
4 420 421 447 446
4 421 422 448 447
4 422 423 449 448
4 423 424 450 449
4 424 425 451 450
4 425 426 452 451
4 426 427 453 452
4 427 428 454 453
4 428 429 455 454
4 429 430 456 455
4 430 431 457 456
4 431 432 458 457
4 432 433 459 458
4 433 434 460 459
4 434 435 461 460
4 435 436 462 461
4 436 437 463 462
4 437 438 464 463
4 438 439 465 464
4 439 440 466 465
4 440 441 467 466
4 442 443 469 468
4 443 444 470 469
4 444 445 471 470
4 445 446 472 471
4 446 447 473 472
4 447 448 474 473
4 448 449 475 474
4 449 450 476 475
4 450 451 477 476
4 451 452 478 477
4 452 453 479 478
4 453 454 480 479
4 454 455 481 480
4 455 456 482 481
4 456 457 483 482
4 457 458 484 483
4 458 459 485 484
4 459 460 486 485
4 460 461 487 486
4 461 462 488 487
4 462 463 489 488
4 463 464 490 489
4 464 465 491 490
4 465 466 492 491
4 466 467 493 492
4 468 469 495 494
4 469 470 496 495
4 470 471 497 496
4 471 472 498 497
4 472 473 499 498
4 473 474 500 499
4 474 475 501 500
4 475 476 502 501
4 476 477 503 502
4 477 478 504 503
4 478 479 505 504
4 479 480 506 505
4 480 481 507 506
4 481 482 508 507
4 482 483 509 508
4 483 484 510 509
4 484 485 511 510
4 485 486 512 511
4 486 487 513 512
4 487 488 514 513
4 488 489 515 514
4 489 490 516 515
4 490 491 517 516
4 491 492 518 517
4 492 493 519 518
4 494 495 521 520
4 495 496 522 521
4 496 497 523 522
4 497 498 524 523
4 498 499 525 524
4 499 500 526 525
4 500 501 527 526
4 501 502 528 527
4 502 503 529 528
4 503 504 530 529
4 504 505 531 530
4 505 506 532 531
4 506 507 533 532
4 507 508 534 533
4 508 509 535 534
4 509 510 536 535
4 510 511 537 536
4 511 512 538 537
4 512 513 539 538
4 513 514 540 539
4 514 515 541 540
4 515 516 542 541
4 516 517 543 542
4 517 518 544 543
4 518 519 545 544
4 520 521 547 546
4 521 522 548 547
4 522 523 549 548
4 523 524 550 549
4 524 525 551 550
4 525 526 552 551
4 526 527 553 552
4 527 528 554 553
4 528 529 555 554
4 529 530 556 555
4 530 531 557 556
4 531 532 558 557
4 532 533 559 558
4 533 534 560 559
4 534 535 561 560
4 535 536 562 561
4 536 537 563 562
4 537 538 564 563
4 538 539 565 564
4 539 540 566 565
4 540 541 567 566
4 541 542 568 567
4 542 543 569 568
4 543 544 570 569
4 544 545 571 570
4 546 547 573 572
4 547 548 574 573
4 548 549 575 574
4 549 550 576 575
4 550 551 577 576
4 551 552 578 577
4 552 553 579 578
4 553 554 580 579
4 554 555 581 580
4 555 556 582 581
4 556 557 583 582
4 557 558 584 583
4 558 559 585 584
4 559 560 586 585
4 560 561 587 586
4 561 562 588 587
4 562 563 589 588
4 563 564 590 589
4 564 565 591 590
4 565 566 592 591
4 566 567 593 592
4 567 568 594 593
4 568 569 595 594
4 569 570 596 595
4 570 571 597 596
4 572 573 599 598
4 573 574 600 599
4 574 575 601 600
4 575 576 602 601
4 576 577 603 602
4 577 578 604 603
4 578 579 605 604
4 579 580 606 605
4 580 581 607 606
4 581 582 608 607
4 582 583 609 608
4 583 584 610 609
4 584 585 611 610
4 585 586 612 611
4 586 587 613 612
4 587 588 614 613
4 588 589 615 614
4 589 590 616 615
4 590 591 617 616
4 591 592 618 617
4 592 593 619 618
4 593 594 620 619
4 594 595 621 620
4 595 596 622 621
4 596 597 623 622
4 598 599 625 624
4 599 600 626 625
4 600 601 627 626
4 601 602 628 627
4 602 603 629 628
4 603 604 630 629
4 604 605 631 630
4 605 606 632 631
4 606 607 633 632
4 607 608 634 633
4 608 609 635 634
4 609 610 636 635
4 610 611 637 636
4 611 612 638 637
4 612 613 639 638
4 613 614 640 639
4 614 615 641 640
4 615 616 642 641
4 616 617 643 642
4 617 618 644 643
4 618 619 645 644
4 619 620 646 645
4 620 621 647 646
4 621 622 648 647
4 622 623 649 648
4 624 625 651 650
4 625 626 652 651
4 626 627 653 652
4 627 628 654 653
4 628 629 655 654
4 629 630 656 655
4 630 631 657 656
4 631 632 658 657
4 632 633 659 658
4 633 634 660 659
4 634 635 661 660
4 635 636 662 661
4 636 637 663 662
4 637 638 664 663
4 638 639 665 664
4 639 640 666 665
4 640 641 667 666
4 641 642 668 667
4 642 643 669 668
4 643 644 670 669
4 644 645 671 670
4 645 646 672 671
4 646 647 673 672
4 647 648 674 673
4 648 649 675 674
