ply
format ascii 1.0
element vertex 81
property double x
property double y
property double z
property double vx
property double vy
property double vz
property double s
element face 64
property list uchar int vertex_indices
end_header
-0.400000000000000022 -0.400000000000000022 0 0 0 0 0.252547206282615677
-0.300000000000000044 -0.400000000000000022 0 0 0 0 0.248835673689842218
-0.200000000000000067 -0.400000000000000022 0 0 0 0 0.236208481788635266
-0.100000000000000089 -0.400000000000000022 0 0 0 0 0.218686497926712048
-1.11022302462515654e-16 -0.400000000000000022 0 0 0 0 0.200475273728370679
0.0999999999999998668 -0.400000000000000022 0 0 0 0 0.204902808904647821
0.199999999999999845 -0.400000000000000022 0 0 0 0 0.199045089125633234
0.299999999999999822 -0.400000000000000022 0 0 0 0 0.225140763878822314
0.3999999999999998 -0.400000000000000022 0 0 0 0 0.251720161199569692
-0.400000000000000022 -0.300000000000000044 0 0 0 0 0.271228036522865312
-0.300000000000000044 -0.300000000000000044 0 0 0 0 0.257682495594024674
-0.200000000000000067 -0.300000000000000044 0 0 0 0 0.223804107308387762
-0.100000000000000089 -0.300000000000000044 0 0 0 0 0.19192554628849029
-1.11022302462515654e-16 -0.300000000000000044 0 0 0 0 0.164080787718296039
0.0999999999999998668 -0.300000000000000044 0 0 0 0 0.154474543094635014
0.199999999999999845 -0.300000000000000044 0 0 0 0 0.180619643926620471
0.299999999999999822 -0.300000000000000044 0 0 0 0 0.210451617121696466
0.3999999999999998 -0.300000000000000044 0 0 0 0 0.242224103093147292
-0.400000000000000022 -0.200000000000000067 0 0 0 0 0.274100322008132946
-0.300000000000000044 -0.200000000000000067 0 0 0 0 0.233632481396198272
-0.200000000000000067 -0.200000000000000067 0 0 0 0 0.204969838738441462
-0.100000000000000089 -0.200000000000000067 0 0 0 0 0.15210321533679963
-1.11022302462515654e-16 -0.200000000000000067 0 0 0 0 0.116128682151436805
0.0999999999999998668 -0.200000000000000067 0 0 0 0 0.120968793004751204
0.199999999999999845 -0.200000000000000067 0 0 0 0 0.151891199260950099
0.299999999999999822 -0.200000000000000067 0 0 0 0 0.195038168907165521
0.3999999999999998 -0.200000000000000067 0 0 0 0 0.228641371846199037
-0.400000000000000022 -0.100000000000000089 0 0 0 0 0.266570178151130655
-0.300000000000000044 -0.100000000000000089 0 0 0 0 0.228137847065925603
-0.200000000000000067 -0.100000000000000089 0 0 0 0 0.163464762926101681
-0.100000000000000089 -0.100000000000000089 0 0 0 0 0.102996252536773678
-1.11022302462515654e-16 -0.100000000000000089 0 0 0 0 0.079861545741558071
0.0999999999999998668 -0.100000000000000089 0 0 0 0 0.0928099071085453087
0.199999999999999845 -0.100000000000000089 0 0 0 0 0.125565979957580565
0.299999999999999822 -0.100000000000000089 0 0 0 0 0.165786498904228197
0.3999999999999998 -0.100000000000000089 0 0 0 0 0.215692136168479931
-0.400000000000000022 -1.11022302462515654e-16 0 0 0 0 0.249078550338745125
-0.300000000000000044 -1.11022302462515654e-16 0 0 0 0 0.201322089374065399
-0.200000000000000067 -1.11022302462515654e-16 0 0 0 0 0.153751069903373727
-0.100000000000000089 -1.11022302462515654e-16 0 0 0 0 0.0906145817041397045
-1.11022302462515654e-16 -1.11022302462515654e-16 0 0 0 0 0.0697471437007188833
0.0999999999999998668 -1.11022302462515654e-16 0 0 0 0 0.0761104031801223824
0.199999999999999845 -1.11022302462515654e-16 0 0 0 0 0.107309354811906815
0.299999999999999822 -1.11022302462515654e-16 0 0 0 0 0.14822515743970871
0.3999999999999998 -1.11022302462515654e-16 0 0 0 0 0.205071058273315426
-0.400000000000000022 0.0999999999999998668 0 0 0 0 0.243475068926811228
-0.300000000000000044 0.0999999999999998668 0 0 0 0 0.194094545125961304
-0.200000000000000067 0.0999999999999998668 0 0 0 0 0.127896303445100779
-0.100000000000000089 0.0999999999999998668 0 0 0 0 0.0804699029996991111
-1.11022302462515654e-16 0.0999999999999998668 0 0 0 0 0.0686217723339796054
0.0999999999999998668 0.0999999999999998668 0 0 0 0 0.0679642911702394437
0.199999999999999845 0.0999999999999998668 0 0 0 0 0.0883698471486568382
0.299999999999999822 0.0999999999999998668 0 0 0 0 0.137543698072433468
0.3999999999999998 0.0999999999999998668 0 0 0 0 0.186098805963993086
-0.400000000000000022 0.199999999999999845 0 0 0 0 0.245553780436515795
-0.300000000000000044 0.199999999999999845 0 0 0 0 0.197321875631809224
-0.200000000000000067 0.199999999999999845 0 0 0 0 0.142232773125171658
-0.100000000000000089 0.199999999999999845 0 0 0 0 0.107650581181049351
-1.11022302462515654e-16 0.199999999999999845 0 0 0 0 0.0820687828361988114
0.0999999999999998668 0.199999999999999845 0 0 0 0 0.0851404339969158153
0.199999999999999845 0.199999999999999845 0 0 0 0 0.0969708928465843195
0.299999999999999822 0.199999999999999845 0 0 0 0 0.135458988726139068
0.3999999999999998 0.199999999999999845 0 0 0 0 0.178253279983997343
-0.400000000000000022 0.299999999999999822 0 0 0 0 0.235466774225234987
-0.300000000000000044 0.299999999999999822 0 0 0 0 0.203787891030311585
-0.200000000000000067 0.299999999999999822 0 0 0 0 0.166516780614852894
-0.100000000000000089 0.299999999999999822 0 0 0 0 0.131051349520683286
-1.11022302462515654e-16 0.299999999999999822 0 0 0 0 0.111181685924530024
0.0999999999999998668 0.299999999999999822 0 0 0 0 0.109842485815286633
0.199999999999999845 0.299999999999999822 0 0 0 0 0.130587019979953756
0.299999999999999822 0.299999999999999822 0 0 0 0 0.15310047549009323
0.3999999999999998 0.299999999999999822 0 0 0 0 0.188350492715835566
-0.400000000000000022 0.3999999999999998 0 0 0 0 0.24665504789352416
-0.300000000000000044 0.3999999999999998 0 0 0 0 0.219157009601593011
-0.200000000000000067 0.3999999999999998 0 0 0 0 0.194462111592292791
-0.100000000000000089 0.3999999999999998 0 0 0 0 0.171020126998424532
-1.11022302462515654e-16 0.3999999999999998 0 0 0 0 0.144631943285465248
0.0999999999999998668 0.3999999999999998 0 0 0 0 0.141417881309986115
0.199999999999999845 0.3999999999999998 0 0 0 0 0.164953910887241373
0.299999999999999822 0.3999999999999998 0 0 0 0 0.190829642295837404
0.3999999999999998 0.3999999999999998 0 0 0 0 0.212799123406410218
4 0 1 10 9
4 1 2 11 10
4 2 3 12 11
4 3 4 13 12
4 4 5 14 13
4 5 6 15 14
4 6 7 16 15
4 7 8 17 16
4 9 10 19 18
4 10 11 20 19
4 11 12 21 20
4 12 13 22 21
4 13 14 23 22
4 14 15 24 23
4 15 16 25 24
4 16 17 26 25
4 18 19 28 27
4 19 20 29 28
4 20 21 30 29
4 21 22 31 30
4 22 23 32 31
4 23 24 33 32
4 24 25 34 33
4 25 26 35 34
4 27 28 37 36
4 28 29 38 37
4 29 30 39 38
4 30 31 40 39
4 31 32 41 40
4 32 33 42 41
4 33 34 43 42
4 34 35 44 43
4 36 37 46 45
4 37 38 47 46
4 38 39 48 47
4 39 40 49 48
4 40 41 50 49
4 41 42 51 50
4 42 43 52 51
4 43 44 53 52
4 45 46 55 54
4 46 47 56 55
4 47 48 57 56
4 48 49 58 57
4 49 50 59 58
4 50 51 60 59
4 51 52 61 60
4 52 53 62 61
4 54 55 64 63
4 55 56 65 64
4 56 57 66 65
4 57 58 67 66
4 58 59 68 67
4 59 60 69 68
4 60 61 70 69
4 61 62 71 70
4 63 64 73 72
4 64 65 74 73
4 65 66 75 74
4 66 67 76 75
4 67 68 77 76
4 68 69 78 77
4 69 70 79 78
4 70 71 80 79
