ply
format ascii 1.0
element vertex 81
property double x
property double y
property double z
property double vx
property double vy
property double vz
property double s
element face 64
property list uchar int vertex_indices
end_header
-0.100000000000000006 -0.100000000000000006 0 0 0 0 2.46886179924011229
-0.0750000000000000111 -0.100000000000000006 0 0 0 0 1.87928047180175772
-0.0500000000000000167 -0.100000000000000006 0 0 0 0 1.05927234649658208
-0.0250000000000000222 -0.100000000000000006 0 0 0 0 0.879164190292358372
-2.77555756156289135e-17 -0.100000000000000006 0 0 0 0 1.08212946891784667
0.0249999999999999667 -0.100000000000000006 0 0 0 0 0.910629520416259775
0.0499999999999999611 -0.100000000000000006 0 0 0 0 1.39554306030273434
0.0749999999999999556 -0.100000000000000006 0 0 0 0 2.13782163619995114
0.09999999999999995 -0.100000000000000006 0 0 0 0 2.76336681365966808
-0.100000000000000006 -0.0750000000000000111 0 0 0 0 1.61686860084533701
-0.0750000000000000111 -0.0750000000000000111 0 0 0 0 1.22273080825805658
-0.0500000000000000167 -0.0750000000000000111 0 0 0 0 0.680659852027893031
-0.0250000000000000222 -0.0750000000000000111 0 0 0 0 1.09512361526489266
-2.77555756156289135e-17 -0.0750000000000000111 0 0 0 0 0.730032162666320761
0.0249999999999999667 -0.0750000000000000111 0 0 0 0 0.715400781631469695
0.0499999999999999611 -0.0750000000000000111 0 0 0 0 1.30942371368408206
0.0749999999999999556 -0.0750000000000000111 0 0 0 0 1.54876957893371592
0.09999999999999995 -0.0750000000000000111 0 0 0 0 1.8619758892059326
-0.100000000000000006 -0.0500000000000000167 0 0 0 0 1.23491648674011234
-0.0750000000000000111 -0.0500000000000000167 0 0 0 0 0.948723297119140607
-0.0500000000000000167 -0.0500000000000000167 0 0 0 0 0.503223023414611781
-0.0250000000000000222 -0.0500000000000000167 0 0 0 0 0.863714923858642569
-2.77555756156289135e-17 -0.0500000000000000167 0 0 0 0 0.583083271980285645
0.0249999999999999667 -0.0500000000000000167 0 0 0 0 0.550384359359741171
0.0499999999999999611 -0.0500000000000000167 0 0 0 0 1.25098941802978514
0.0749999999999999556 -0.0500000000000000167 0 0 0 0 1.97673597335815421
0.09999999999999995 -0.0500000000000000167 0 0 0 0 2.13971703529357926
-0.100000000000000006 -0.0250000000000000222 0 0 0 0 1.0240685367584228
-0.0750000000000000111 -0.0250000000000000222 0 0 0 0 0.653693518638610804
-0.0500000000000000167 -0.0250000000000000222 0 0 0 0 0.670331544876098584
-0.0250000000000000222 -0.0250000000000000222 0 0 0 0 0.757070488929748486
-2.77555756156289135e-17 -0.0250000000000000222 0 0 0 0 0.499659247398376472
0.0249999999999999667 -0.0250000000000000222 0 0 0 0 0.493270919322967516
0.0499999999999999611 -0.0250000000000000222 0 0 0 0 1.30212647438049323
0.0749999999999999556 -0.0250000000000000222 0 0 0 0 2.50547843933105474
0.09999999999999995 -0.0250000000000000222 0 0 0 0 3.13093687057495096
-0.100000000000000006 -2.77555756156289135e-17 0 0 0 0 1.35390283584594728
-0.0750000000000000111 -2.77555756156289135e-17 0 0 0 0 1.26615489959716787
-0.0500000000000000167 -2.77555756156289135e-17 0 0 0 0 1.1077165699005127
-0.0250000000000000222 -2.77555756156289135e-17 0 0 0 0 0.612459387779235809
-2.77555756156289135e-17 -2.77555756156289135e-17 0 0 0 0 0.165684133768081665
0.0249999999999999667 -2.77555756156289135e-17 0 0 0 0 0.775925621986389147
0.0499999999999999611 -2.77555756156289135e-17 0 0 0 0 1.92247032165527343
0.0749999999999999556 -2.77555756156289135e-17 0 0 0 0 2.90127399444580059
0.09999999999999995 -2.77555756156289135e-17 0 0 0 0 3.5512016296386717
-0.100000000000000006 0.0249999999999999667 0 0 0 0 1.57752588272094729
-0.0750000000000000111 0.0249999999999999667 0 0 0 0 1.32448426246643058
-0.0500000000000000167 0.0249999999999999667 0 0 0 0 0.742524628639221196
-0.0250000000000000222 0.0249999999999999667 0 0 0 0 0.487312417030334455
-2.77555756156289135e-17 0.0249999999999999667 0 0 0 0 0.438515620231628434
0.0249999999999999667 0.0249999999999999667 0 0 0 0 1.04792170524597172
0.0499999999999999611 0.0249999999999999667 0 0 0 0 2.08918659210205071
0.0749999999999999556 0.0249999999999999667 0 0 0 0 2.91864067077636724
0.09999999999999995 0.0249999999999999667 0 0 0 0 2.33351279258728006
-0.100000000000000006 0.0499999999999999611 0 0 0 0 1.12466754913330069
-0.0750000000000000111 0.0499999999999999611 0 0 0 0 0.930443906784057639
-0.0500000000000000167 0.0499999999999999611 0 0 0 0 0.647177953720092791
-0.0250000000000000222 0.0499999999999999611 0 0 0 0 0.603296103477477974
-2.77555756156289135e-17 0.0499999999999999611 0 0 0 0 0.735167403221130389
0.0249999999999999667 0.0499999999999999611 0 0 0 0 1.22168024063110359
0.0499999999999999611 0.0499999999999999611 0 0 0 0 3.70143753051757818
0.0749999999999999556 0.0499999999999999611 0 0 0 0 5.30146076202392535
0.09999999999999995 0.0499999999999999611 0 0 0 0 2.49604917526245096
-0.100000000000000006 0.0749999999999999556 0 0 0 0 0.62335744857788089
-0.0750000000000000111 0.0749999999999999556 0 0 0 0 0.882477960586547816
-0.0500000000000000167 0.0749999999999999556 0 0 0 0 0.851117262840271005
-0.0250000000000000222 0.0749999999999999556 0 0 0 0 0.855235543251037567
-2.77555756156289135e-17 0.0749999999999999556 0 0 0 0 1.19795825958251956
0.0249999999999999667 0.0749999999999999556 0 0 0 0 1.39292958259582522
0.0499999999999999611 0.0749999999999999556 0 0 0 0 3.12124662399291974
0.0749999999999999556 0.0749999999999999556 0 0 0 0 5.82315246582031243
0.09999999999999995 0.0749999999999999556 0 0 0 0 3.27552896499633794
-0.100000000000000006 0.09999999999999995 0 0 0 0 0.635839977264404332
-0.0750000000000000111 0.09999999999999995 0 0 0 0 0.755584950447082515
-0.0500000000000000167 0.09999999999999995 0 0 0 0 0.805109381675720215
-0.0250000000000000222 0.09999999999999995 0 0 0 0 1.03878002166748051
-2.77555756156289135e-17 0.09999999999999995 0 0 0 0 1.34898397445678708
0.0249999999999999667 0.09999999999999995 0 0 0 0 1.54075778007507314
0.0499999999999999611 0.09999999999999995 0 0 0 0 2.01708295822143535
0.0749999999999999556 0.09999999999999995 0 0 0 0 3.99422050476074197
0.09999999999999995 0.09999999999999995 0 0 0 0 6.00335304260253899
4 0 1 10 9
4 1 2 11 10
4 2 3 12 11
4 3 4 13 12
4 4 5 14 13
4 5 6 15 14
4 6 7 16 15
4 7 8 17 16
4 9 10 19 18
4 10 11 20 19
4 11 12 21 20
4 12 13 22 21
4 13 14 23 22
4 14 15 24 23
4 15 16 25 24
4 16 17 26 25
4 18 19 28 27
4 19 20 29 28
4 20 21 30 29
4 21 22 31 30
4 22 23 32 31
4 23 24 33 32
4 24 25 34 33
4 25 26 35 34
4 27 28 37 36
4 28 29 38 37
4 29 30 39 38
4 30 31 40 39
4 31 32 41 40
4 32 33 42 41
4 33 34 43 42
4 34 35 44 43
4 36 37 46 45
4 37 38 47 46
4 38 39 48 47
4 39 40 49 48
4 40 41 50 49
4 41 42 51 50
4 42 43 52 51
4 43 44 53 52
4 45 46 55 54
4 46 47 56 55
4 47 48 57 56
4 48 49 58 57
4 49 50 59 58
4 50 51 60 59
4 51 52 61 60
4 52 53 62 61
4 54 55 64 63
4 55 56 65 64
4 56 57 66 65
4 57 58 67 66
4 58 59 68 67
4 59 60 69 68
4 60 61 70 69
4 61 62 71 70
4 63 64 73 72
4 64 65 74 73
4 65 66 75 74
4 66 67 76 75
4 67 68 77 76
4 68 69 78 77
4 69 70 79 78
4 70 71 80 79
