ply
format ascii 1.0
element vertex 49
property double x
property double y
property double z
property double vx
property double vy
property double vz
property double s
element face 36
property list uchar int vertex_indices
end_header
-0.299999999999999989 -0.299999999999999989 0 0 0 0 0.0233722451506182538
-0.199999999999999983 -0.299999999999999989 0 0 0 0 0.0228666223865002377
-0.0999999999999999778 -0.299999999999999989 0 0 0 0 0.025655286894645541
5.5511151231257827e-17 -0.299999999999999989 0 0 0 0 0.0289735054755583393
0.100000000000000033 -0.299999999999999989 0 0 0 0 0.0276965109445154664
0.200000000000000011 -0.299999999999999989 0 0 0 0 0.0264937895881012068
0.3000000000000001 -0.299999999999999989 0 0 0 0 0.0248946850760839895
-0.299999999999999989 -0.199999999999999983 0 0 0 0 0.0259527110131457447
-0.199999999999999983 -0.199999999999999983 0 0 0 0 0.0283229562612250449
-0.0999999999999999778 -0.199999999999999983 0 0 0 0 0.0327177225612103953
5.5511151231257827e-17 -0.199999999999999983 0 0 0 0 0.0308621242679655537
0.100000000000000033 -0.199999999999999983 0 0 0 0 0.0238633960941806444
0.200000000000000011 -0.199999999999999983 0 0 0 0 0.0259330604346469061
0.3000000000000001 -0.199999999999999983 0 0 0 0 0.0266933846669271599
-0.299999999999999989 -0.0999999999999999778 0 0 0 0 0.0233883307892829191
-0.199999999999999983 -0.0999999999999999778 0 0 0 0 0.0261416997481137524
-0.0999999999999999778 -0.0999999999999999778 0 0 0 0 0.0263818809278309335
5.5511151231257827e-17 -0.0999999999999999778 0 0 0 0 0.0244272984983399527
0.100000000000000033 -0.0999999999999999778 0 0 0 0 0.0247634899774566292
0.200000000000000011 -0.0999999999999999778 0 0 0 0 0.0240651429016143087
0.3000000000000001 -0.0999999999999999778 0 0 0 0 0.0249951479379087703
-0.299999999999999989 5.5511151231257827e-17 0 0 0 0 0.0273533550286665546
-0.199999999999999983 5.5511151231257827e-17 0 0 0 0 0.0285735880918800839
-0.0999999999999999778 5.5511151231257827e-17 0 0 0 0 0.0254230985194444647
5.5511151231257827e-17 5.5511151231257827e-17 0 0 0 0 0.0245623962106183182
0.100000000000000033 5.5511151231257827e-17 0 0 0 0 0.0276440551122650521
0.200000000000000011 5.5511151231257827e-17 0 0 0 0 0.0258870174773037434
0.3000000000000001 5.5511151231257827e-17 0 0 0 0 0.0286577278133481744
-0.299999999999999989 0.100000000000000033 0 0 0 0 0.0237826506220735617
-0.199999999999999983 0.100000000000000033 0 0 0 0 0.0259647137932479365
-0.0999999999999999778 0.100000000000000033 0 0 0 0 0.0254979048306122405
5.5511151231257827e-17 0.100000000000000033 0 0 0 0 0.0254180793520063161
0.100000000000000033 0.100000000000000033 0 0 0 0 0.0289517737589776517
0.200000000000000011 0.100000000000000033 0 0 0 0 0.0274715880509465923
0.3000000000000001 0.100000000000000033 0 0 0 0 0.02515462883003056
-0.299999999999999989 0.200000000000000011 0 0 0 0 0.0291145688612014057
-0.199999999999999983 0.200000000000000011 0 0 0 0 0.0248996417662128815
-0.0999999999999999778 0.200000000000000011 0 0 0 0 0.0263817130308598297
5.5511151231257827e-17 0.200000000000000011 0 0 0 0 0.0268588598771020773
0.100000000000000033 0.200000000000000011 0 0 0 0 0.028739515919238328
0.200000000000000011 0.200000000000000011 0 0 0 0 0.0290364473760128007
0.3000000000000001 0.200000000000000011 0 0 0 0 0.0291315258294343946
-0.299999999999999989 0.3000000000000001 0 0 0 0 0.0278275782074779258
-0.199999999999999983 0.3000000000000001 0 0 0 0 0.0266079440452158464
-0.0999999999999999778 0.3000000000000001 0 0 0 0 0.0270042563676834123
5.5511151231257827e-17 0.3000000000000001 0 0 0 0 0.0244498282913118599
0.100000000000000033 0.3000000000000001 0 0 0 0 0.0299866259768605224
0.200000000000000011 0.3000000000000001 0 0 0 0 0.0258720208927988998
0.3000000000000001 0.3000000000000001 0 0 0 0 0.0307237716466188422
4 0 1 8 7
4 1 2 9 8
4 2 3 10 9
4 3 4 11 10
4 4 5 12 11
4 5 6 13 12
4 7 8 15 14
4 8 9 16 15
4 9 10 17 16
4 10 11 18 17
4 11 12 19 18
4 12 13 20 19
4 14 15 22 21
4 15 16 23 22
4 16 17 24 23
4 17 18 25 24
4 18 19 26 25
4 19 20 27 26
4 21 22 29 28
4 22 23 30 29
4 23 24 31 30
4 24 25 32 31
4 25 26 33 32
4 26 27 34 33
4 28 29 36 35
4 29 30 37 36
4 30 31 38 37
4 31 32 39 38
4 32 33 40 39
4 33 34 41 40
4 35 36 43 42
4 36 37 44 43
4 37 38 45 44
4 38 39 46 45
4 39 40 47 46
4 40 41 48 47
