ply
format ascii 1.0
element vertex 121
property double x
property double y
property double z
property double vx
property double vy
property double vz
property double s
element face 100
property list uchar int vertex_indices
end_header
-10 -10 0 0 0 0 2.5027620792388916
-8 -10 0 0 0 0 1.83331363487243659
-6 -10 0 0 0 0 1.32370485687255868
-4 -10 0 0 0 0 0.897166651248931912
-2 -10 0 0 0 0 0.587194079637527455
0 -10 0 0 0 0 0.433657334804534889
2 -10 0 0 0 0 0.48351611638069153
4 -10 0 0 0 0 0.823040606975555367
6 -10 0 0 0 0 1.89343586826324461
8 -10 0 0 0 0 5.52376411819458024
10 -10 0 0 0 0 15.7825069351196294
-10 -8 0 0 0 0 1.66033763599395745
-8 -8 0 0 0 0 1.13262170219421376
-6 -8 0 0 0 0 0.786116040468215926
-4 -8 0 0 0 0 0.608976162910461416
-2 -8 0 0 0 0 0.475584519386291482
0 -8 0 0 0 0 0.364412579774856582
2 -8 0 0 0 0 0.337168935656547542
4 -8 0 0 0 0 0.466391113758087172
6 -8 0 0 0 0 0.870364893436431863
8 -8 0 0 0 0 2.32272062015533454
10 -8 0 0 0 0 6.9042358283996581
-10 -6 0 0 0 0 1.04259012484550473
-8 -6 0 0 0 0 0.63286490654945371
-6 -6 0 0 0 0 0.415768050193786598
-4 -6 0 0 0 0 0.322756795287132248
-2 -6 0 0 0 0 0.325917665958404545
0 -6 0 0 0 0 0.308845741271972674
2 -6 0 0 0 0 0.296770826816558864
4 -6 0 0 0 0 0.306736302495002722
6 -6 0 0 0 0 0.483935791492462131
8 -6 0 0 0 0 1.03941395044326779
10 -6 0 0 0 0 2.99322932243347184
-10 -4 0 0 0 0 0.740448236465454102
-8 -4 0 0 0 0 0.422756594896316507
-6 -4 0 0 0 0 0.235548869371414171
-4 -4 0 0 0 0 0.164212960183620443
-2 -4 0 0 0 0 0.167756988048553463
0 -4 0 0 0 0 0.228581689119338988
2 -4 0 0 0 0 0.260210204243659982
4 -4 0 0 0 0 0.264668379068374648
6 -4 0 0 0 0 0.313943011999130273
8 -4 0 0 0 0 0.538200155496597277
10 -4 0 0 0 0 1.35894003963470467
-10 -2 0 0 0 0 0.617619559228420267
-8 -2 0 0 0 0 0.3639063602089882
-6 -2 0 0 0 0 0.18238712126016618
-4 -2 0 0 0 0 0.0985755227357149183
-2 -2 0 0 0 0 0.0633573281466960903
0 -2 0 0 0 0 0.0992255376875400552
2 -2 0 0 0 0 0.170358104348182687
4 -2 0 0 0 0 0.215916691184043885
6 -2 0 0 0 0 0.247003913044929496
8 -2 0 0 0 0 0.303820797443389912
10 -2 0 0 0 0 0.632274515151977523
-10 0 0 0 0 0 1.20019278812408436
-8 0 0 0 0 0 0.58713761329650882
-6 0 0 0 0 0 0.26798322337865832
-4 0 0 0 0 0 0.114469444928690794
-2 0 0 0 0 0 0.0706253123767673907
0 0 0 0 0 0 0.0576194287240505212
2 0 0 0 0 0 0.0943819744884967782
4 0 0 0 0 0 0.160014301896095279
6 0 0 0 0 0 0.200996202111244193
8 0 0 0 0 0 0.235081585884094252
10 0 0 0 0 0 0.330108844161033643
-10 2 0 0 0 0 3.31355863189697253
-8 2 0 0 0 0 1.8122248101234435
-6 2 0 0 0 0 1.07426409184932714
-4 2 0 0 0 0 0.598874713659286462
-2 2 0 0 0 0 0.26999848181009295
0 2 0 0 0 0 0.145357471644878389
2 2 0 0 0 0 0.116922441422939297
4 2 0 0 0 0 0.170852601349353789
6 2 0 0 0 0 0.234024709224700922
8 2 0 0 0 0 0.262278539061546301
10 2 0 0 0 0 0.307871322035789485
-10 4 0 0 0 0 9.40300169944763198
-8 4 0 0 0 0 6.00653207397460953
-6 4 0 0 0 0 3.68587045288085946
-4 4 0 0 0 0 2.31174675750732428
-2 4 0 0 0 0 1.47567687702178962
0 4 0 0 0 0 0.826959210276603685
2 4 0 0 0 0 0.537768431901931798
4 4 0 0 0 0 0.417328585267066954
6 4 0 0 0 0 0.384155987501144436
8 4 0 0 0 0 0.407072352409362792
10 4 0 0 0 0 0.475068346023559573
-10 6 0 0 0 0 21.5277208099365218
-8 6 0 0 0 0 15.5442017669677739
-6 6 0 0 0 0 10.3952551536560058
-4 6 0 0 0 0 6.29952206611633336
-2 6 0 0 0 0 4.16940732765197719
0 6 0 0 0 0 2.55913141250610332
2 6 0 0 0 0 1.9019243025779724
4 6 0 0 0 0 1.37274905443191519
6 6 0 0 0 0 1.0130513691902161
8 6 0 0 0 0 0.848376403331756568
10 6 0 0 0 0 0.790792252063751255
-10 8 0 0 0 0 52.8455762634277377
-8 8 0 0 0 0 35.0516523742675759
-6 8 0 0 0 0 24.18386627960205
-4 8 0 0 0 0 15.6364888916015623
-2 8 0 0 0 0 10.1194029960632328
0 8 0 0 0 0 6.60584346199035632
2 8 0 0 0 0 4.554518718719482
4 8 0 0 0 0 3.61643590736389164
6 8 0 0 0 0 2.85926567649841301
8 8 0 0 0 0 2.13041052627563499
10 8 0 0 0 0 1.66798625087738039
-10 10 0 0 0 0 105.270229553222663
-8 10 0 0 0 0 73.0199944152832074
-6 10 0 0 0 0 48.1085900268554667
-4 10 0 0 0 0 32.5138488464355504
-2 10 0 0 0 0 22.5583739013671867
0 10 0 0 0 0 15.9606174392700204
2 10 0 0 0 0 12.0126714782714838
4 10 0 0 0 0 9.10651409149169844
6 10 0 0 0 0 7.23248593902587888
8 10 0 0 0 0 5.44687568283081092
10 10 0 0 0 0 4.14770124053955058
4 0 1 12 11
4 1 2 13 12
4 2 3 14 13
4 3 4 15 14
4 4 5 16 15
4 5 6 17 16
4 6 7 18 17
4 7 8 19 18
4 8 9 20 19
4 9 10 21 20
4 11 12 23 22
4 12 13 24 23
4 13 14 25 24
4 14 15 26 25
4 15 16 27 26
4 16 17 28 27
4 17 18 29 28
4 18 19 30 29
4 19 20 31 30
4 20 21 32 31
4 22 23 34 33
4 23 24 35 34
4 24 25 36 35
4 25 26 37 36
4 26 27 38 37
4 27 28 39 38
4 28 29 40 39
4 29 30 41 40
4 30 31 42 41
4 31 32 43 42
4 33 34 45 44
4 34 35 46 45
4 35 36 47 46
4 36 37 48 47
4 37 38 49 48
4 38 39 50 49
4 39 40 51 50
4 40 41 52 51
4 41 42 53 52
4 42 43 54 53
4 44 45 56 55
4 45 46 57 56
4 46 47 58 57
4 47 48 59 58
4 48 49 60 59
4 49 50 61 60
4 50 51 62 61
4 51 52 63 62
4 52 53 64 63
4 53 54 65 64
4 55 56 67 66
4 56 57 68 67
4 57 58 69 68
4 58 59 70 69
4 59 60 71 70
4 60 61 72 71
4 61 62 73 72
4 62 63 74 73
4 63 64 75 74
4 64 65 76 75
4 66 67 78 77
4 67 68 79 78
4 68 69 80 79
4 69 70 81 80
4 70 71 82 81
4 71 72 83 82
4 72 73 84 83
4 73 74 85 84
4 74 75 86 85
4 75 76 87 86
4 77 78 89 88
4 78 79 90 89
4 79 80 91 90
4 80 81 92 91
4 81 82 93 92
4 82 83 94 93
4 83 84 95 94
4 84 85 96 95
4 85 86 97 96
4 86 87 98 97
4 88 89 100 99
4 89 90 101 100
4 90 91 102 101
4 91 92 103 102
4 92 93 104 103
4 93 94 105 104
4 94 95 106 105
4 95 96 107 106
4 96 97 108 107
4 97 98 109 108
4 99 100 111 110
4 100 101 112 111
4 101 102 113 112
4 102 103 114 113
4 103 104 115 114
4 104 105 116 115
4 105 106 117 116
4 106 107 118 117
4 107 108 119 118
4 108 109 120 119
