ply
format ascii 1.0
element vertex 324
property double x
property double y
property double z
property double vx
property double vy
property double vz
property double s
element face 289
property list uchar int vertex_indices
end_header
-10 -10 0 0 0 0 6.61655357933044463
-8.80000000000000071 -10 0 0 0 0 6.53508919906616192
-7.60000000000000142 -10 0 0 0 0 6.23811763000488284
-6.40000000000000213 -10 0 0 0 0 5.9285571155548098
-5.20000000000000284 -10 0 0 0 0 6.39689796829223667
-4.00000000000000355 -10 0 0 0 0 7.23043143463134808
-2.80000000000000426 -10 0 0 0 0 8.06527056884765692
-1.60000000000000497 -10 0 0 0 0 9.78581614685058554
-0.400000000000005684 -10 0 0 0 0 10.835554088592529
0.799999999999993605 -10 0 0 0 0 13.3438706398010254
1.99999999999999289 -10 0 0 0 0 15.2666180572509766
3.19999999999999218 -10 0 0 0 0 18.3195543975830084
4.39999999999999147 -10 0 0 0 0 23.9650370407104489
5.59999999999999076 -10 0 0 0 0 33.0915492095947243
6.79999999999999005 -10 0 0 0 0 42.8296395874023403
7.99999999999998934 -10 0 0 0 0 58.7861550903320307
9.19999999999998863 -10 0 0 0 0 79.1149327392578101
10.3999999999999879 -10 0 0 0 0 101.716814270019526
-10 -8.80000000000000071 0 0 0 0 4.02032895088195819
-8.80000000000000071 -8.80000000000000071 0 0 0 0 3.72183308219909659
-7.60000000000000142 -8.80000000000000071 0 0 0 0 3.65351393413543679
-6.40000000000000213 -8.80000000000000071 0 0 0 0 3.31757474803924568
-5.20000000000000284 -8.80000000000000071 0 0 0 0 3.45760308456420917
-4.00000000000000355 -8.80000000000000071 0 0 0 0 3.77852339744567889
-2.80000000000000426 -8.80000000000000071 0 0 0 0 4.30649405765533455
-1.60000000000000497 -8.80000000000000071 0 0 0 0 4.83402969551086414
-0.400000000000005684 -8.80000000000000071 0 0 0 0 5.75046754837036111
0.799999999999993605 -8.80000000000000071 0 0 0 0 6.74995162391662618
1.99999999999999289 -8.80000000000000071 0 0 0 0 8.66265851593017544
3.19999999999999218 -8.80000000000000071 0 0 0 0 10.412140632629395
4.39999999999999147 -8.80000000000000071 0 0 0 0 14.7346128311157223
5.59999999999999076 -8.80000000000000071 0 0 0 0 19.2246994171142589
6.79999999999999005 -8.80000000000000071 0 0 0 0 27.0505736083984374
7.99999999999998934 -8.80000000000000071 0 0 0 0 34.929137023925783
9.19999999999998863 -8.80000000000000071 0 0 0 0 49.8491525878906216
10.3999999999999879 -8.80000000000000071 0 0 0 0 63.5459228820800774
-10 -7.60000000000000142 0 0 0 0 2.53884533882141117
-8.80000000000000071 -7.60000000000000142 0 0 0 0 2.23826269912719722
-7.60000000000000142 -7.60000000000000142 0 0 0 0 1.96613463401794442
-6.40000000000000213 -7.60000000000000142 0 0 0 0 1.87844608879089359
-5.20000000000000284 -7.60000000000000142 0 0 0 0 1.79495158195495597
-4.00000000000000355 -7.60000000000000142 0 0 0 0 1.88351431274414072
-2.80000000000000426 -7.60000000000000142 0 0 0 0 2.29442863750457748
-1.60000000000000497 -7.60000000000000142 0 0 0 0 2.50277635860443137
-0.400000000000005684 -7.60000000000000142 0 0 0 0 2.92310401535034181
0.799999999999993605 -7.60000000000000142 0 0 0 0 3.62851365089416511
1.99999999999999289 -7.60000000000000142 0 0 0 0 4.4954847993850704
3.19999999999999218 -7.60000000000000142 0 0 0 0 5.89401604270935042
4.39999999999999147 -7.60000000000000142 0 0 0 0 8.15734593582153344
5.59999999999999076 -7.60000000000000142 0 0 0 0 11.2328060111999513
6.79999999999999005 -7.60000000000000142 0 0 0 0 16.6017562103271494
7.99999999999998934 -7.60000000000000142 0 0 0 0 21.7538581161499032
9.19999999999998863 -7.60000000000000142 0 0 0 0 29.2120435028076173
10.3999999999999879 -7.60000000000000142 0 0 0 0 37.7649515228271468
-10 -6.40000000000000213 0 0 0 0 1.74782753467559804
-8.80000000000000071 -6.40000000000000213 0 0 0 0 1.30152768421173093
-7.60000000000000142 -6.40000000000000213 0 0 0 0 1.1372428984642029
-6.40000000000000213 -6.40000000000000213 0 0 0 0 1.05534017109870915
-5.20000000000000284 -6.40000000000000213 0 0 0 0 1.0222859373092652
-4.00000000000000355 -6.40000000000000213 0 0 0 0 1.06773760461807243
-2.80000000000000426 -6.40000000000000213 0 0 0 0 1.06231713604927069
-1.60000000000000497 -6.40000000000000213 0 0 0 0 1.23562164187431334
-0.400000000000005684 -6.40000000000000213 0 0 0 0 1.52179059982299814
0.799999999999993605 -6.40000000000000213 0 0 0 0 1.71975154733657831
1.99999999999999289 -6.40000000000000213 0 0 0 0 2.42161906003952021
3.19999999999999218 -6.40000000000000213 0 0 0 0 3.15900299167633047
4.39999999999999147 -6.40000000000000213 0 0 0 0 4.69250354194641073
5.59999999999999076 -6.40000000000000213 0 0 0 0 6.38328080940246601
6.79999999999999005 -6.40000000000000213 0 0 0 0 9.53275864028930719
7.99999999999998934 -6.40000000000000213 0 0 0 0 12.6466753158569336
9.19999999999998863 -6.40000000000000213 0 0 0 0 17.0704549789428697
10.3999999999999879 -6.40000000000000213 0 0 0 0 24.014883651733399
-10 -5.20000000000000284 0 0 0 0 1.16663163924217228
-8.80000000000000071 -5.20000000000000284 0 0 0 0 0.847738463401794484
-7.60000000000000142 -5.20000000000000284 0 0 0 0 0.656918127775192207
-6.40000000000000213 -5.20000000000000284 0 0 0 0 0.628007010459899928
-5.20000000000000284 -5.20000000000000284 0 0 0 0 0.530162630081176811
-4.00000000000000355 -5.20000000000000284 0 0 0 0 0.530927613615989724
-2.80000000000000426 -5.20000000000000284 0 0 0 0 0.537740293979644735
-1.60000000000000497 -5.20000000000000284 0 0 0 0 0.617123423099517843
-0.400000000000005684 -5.20000000000000284 0 0 0 0 0.651725073099136298
0.799999999999993605 -5.20000000000000284 0 0 0 0 0.935358177661895773
1.99999999999999289 -5.20000000000000284 0 0 0 0 1.25278469944000248
3.19999999999999218 -5.20000000000000284 0 0 0 0 1.70221378207206731
4.39999999999999147 -5.20000000000000284 0 0 0 0 2.61144240570068353
5.59999999999999076 -5.20000000000000284 0 0 0 0 3.64962458992004413
6.79999999999999005 -5.20000000000000284 0 0 0 0 5.60439904022216773
7.99999999999998934 -5.20000000000000284 0 0 0 0 7.59643737220764148
9.19999999999998863 -5.20000000000000284 0 0 0 0 10.6502132911682121
10.3999999999999879 -5.20000000000000284 0 0 0 0 14.2686391677856452
-10 -4.00000000000000355 0 0 0 0 0.922358986854553198
-8.80000000000000071 -4.00000000000000355 0 0 0 0 0.587687948465347332
-7.60000000000000142 -4.00000000000000355 0 0 0 0 0.455763446569442732
-6.40000000000000213 -4.00000000000000355 0 0 0 0 0.381876556158065816
-5.20000000000000284 -4.00000000000000355 0 0 0 0 0.327826529741287231
-4.00000000000000355 -4.00000000000000355 0 0 0 0 0.282458415329456314
-2.80000000000000426 -4.00000000000000355 0 0 0 0 0.256566932499408706
-1.60000000000000497 -4.00000000000000355 0 0 0 0 0.278603183984756475
-0.400000000000005684 -4.00000000000000355 0 0 0 0 0.305475520074367513
0.799999999999993605 -4.00000000000000355 0 0 0 0 0.38916023176908493
1.99999999999999289 -4.00000000000000355 0 0 0 0 0.5489161126017571
3.19999999999999218 -4.00000000000000355 0 0 0 0 0.783295722365379365
4.39999999999999147 -4.00000000000000355 0 0 0 0 1.2053256516456603
5.59999999999999076 -4.00000000000000355 0 0 0 0 2.09324515104293818
6.79999999999999005 -4.00000000000000355 0 0 0 0 3.321399326324463
7.99999999999998934 -4.00000000000000355 0 0 0 0 4.60762136936187705
9.19999999999998863 -4.00000000000000355 0 0 0 0 6.37085412979125998
10.3999999999999879 -4.00000000000000355 0 0 0 0 8.72651543045043887
-10 -2.80000000000000426 0 0 0 0 0.764570656061172471
-8.80000000000000071 -2.80000000000000426 0 0 0 0 0.491966410398483267
-7.60000000000000142 -2.80000000000000426 0 0 0 0 0.339081102728843675
-6.40000000000000213 -2.80000000000000426 0 0 0 0 0.26457030212879179
-5.20000000000000284 -2.80000000000000426 0 0 0 0 0.223611666798591624
-4.00000000000000355 -2.80000000000000426 0 0 0 0 0.189150313973426826
-2.80000000000000426 -2.80000000000000426 0 0 0 0 0.148586492002010351
-1.60000000000000497 -2.80000000000000426 0 0 0 0 0.143610330253839485
-0.400000000000005684 -2.80000000000000426 0 0 0 0 0.137372203364968304
0.799999999999993605 -2.80000000000000426 0 0 0 0 0.181430843204259867
1.99999999999999289 -2.80000000000000426 0 0 0 0 0.229870341300964343
3.19999999999999218 -2.80000000000000426 0 0 0 0 0.395110373973846463
4.39999999999999147 -2.80000000000000426 0 0 0 0 0.621349275827407843
5.59999999999999076 -2.80000000000000426 0 0 0 0 1.20309650921821598
6.79999999999999005 -2.80000000000000426 0 0 0 0 1.88969034576416006
7.99999999999998934 -2.80000000000000426 0 0 0 0 2.89218321418762203
9.19999999999998863 -2.80000000000000426 0 0 0 0 4.06422485733032257
10.3999999999999879 -2.80000000000000426 0 0 0 0 5.97193257713317838
-10 -1.60000000000000497 0 0 0 0 0.712267216444015472
-8.80000000000000071 -1.60000000000000497 0 0 0 0 0.434710494041442852
-7.60000000000000142 -1.60000000000000497 0 0 0 0 0.28161600685119631
-6.40000000000000213 -1.60000000000000497 0 0 0 0 0.227177826762199414
-5.20000000000000284 -1.60000000000000497 0 0 0 0 0.191735744595527641
-4.00000000000000355 -1.60000000000000497 0 0 0 0 0.159417588829994211
-2.80000000000000426 -1.60000000000000497 0 0 0 0 0.118311167746782298
-1.60000000000000497 -1.60000000000000497 0 0 0 0 0.0914200778901576999
-0.400000000000005684 -1.60000000000000497 0 0 0 0 0.0803718314394354788
0.799999999999993605 -1.60000000000000497 0 0 0 0 0.090639529883861536
1.99999999999999289 -1.60000000000000497 0 0 0 0 0.117768278822302813
3.19999999999999218 -1.60000000000000497 0 0 0 0 0.183337133973836885
4.39999999999999147 -1.60000000000000497 0 0 0 0 0.355689401969313646
5.59999999999999076 -1.60000000000000497 0 0 0 0 0.634509606242179891
6.79999999999999005 -1.60000000000000497 0 0 0 0 1.06859584212303171
7.99999999999998934 -1.60000000000000497 0 0 0 0 1.76098185920715333
9.19999999999998863 -1.60000000000000497 0 0 0 0 2.44058995866775508
10.3999999999999879 -1.60000000000000497 0 0 0 0 3.43447549819946296
-10 -0.400000000000005684 0 0 0 0 1.01161804246902465
-8.80000000000000071 -0.400000000000005684 0 0 0 0 0.422134955883026131
-7.60000000000000142 -0.400000000000005684 0 0 0 0 0.281460894703865039
-6.40000000000000213 -0.400000000000005684 0 0 0 0 0.225759584426879878
-5.20000000000000284 -0.400000000000005684 0 0 0 0 0.192866971731185916
-4.00000000000000355 -0.400000000000005684 0 0 0 0 0.168916678428649908
-2.80000000000000426 -0.400000000000005684 0 0 0 0 0.133505900144577028
-1.60000000000000497 -0.400000000000005684 0 0 0 0 0.0869334293305873834
-0.400000000000005684 -0.400000000000005684 0 0 0 0 0.0623409370556473746
0.799999999999993605 -0.400000000000005684 0 0 0 0 0.0606325713172554959
1.99999999999999289 -0.400000000000005684 0 0 0 0 0.0733783938214182807
3.19999999999999218 -0.400000000000005684 0 0 0 0 0.112318026006221774
4.39999999999999147 -0.400000000000005684 0 0 0 0 0.205186828084290035
5.59999999999999076 -0.400000000000005684 0 0 0 0 0.345437072724103955
6.79999999999999005 -0.400000000000005684 0 0 0 0 0.622673335909843417
7.99999999999998934 -0.400000000000005684 0 0 0 0 1.05456783485412608
9.19999999999998863 -0.400000000000005684 0 0 0 0 1.59549276304245002
10.3999999999999879 -0.400000000000005684 0 0 0 0 2.37489671802520741
-10 0.799999999999993605 0 0 0 0 1.86922606563568117
-8.80000000000000071 0.799999999999993605 0 0 0 0 0.662622723817825277
-7.60000000000000142 0.799999999999993605 0 0 0 0 0.329985649108886725
-6.40000000000000213 0.799999999999993605 0 0 0 0 0.249126853942871096
-5.20000000000000284 0.799999999999993605 0 0 0 0 0.217815809488296513
-4.00000000000000355 0.799999999999993605 0 0 0 0 0.195708383917808537
-2.80000000000000426 0.799999999999993605 0 0 0 0 0.174998207092285168
-1.60000000000000497 0.799999999999993605 0 0 0 0 0.113613662004470831
-0.400000000000005684 0.799999999999993605 0 0 0 0 0.0648134592473506993
0.799999999999993605 0.799999999999993605 0 0 0 0 0.0614255596175789856
1.99999999999999289 0.799999999999993605 0 0 0 0 0.0668297745063900911
3.19999999999999218 0.799999999999993605 0 0 0 0 0.103857680462300775
4.39999999999999147 0.799999999999993605 0 0 0 0 0.160422821402549737
5.59999999999999076 0.799999999999993605 0 0 0 0 0.268074696004390711
6.79999999999999005 0.799999999999993605 0 0 0 0 0.437108314037322976
7.99999999999998934 0.799999999999993605 0 0 0 0 0.691991638660430897
9.19999999999998863 0.799999999999993605 0 0 0 0 1.14472120738029481
10.3999999999999879 0.799999999999993605 0 0 0 0 1.65865482521057128
-10 1.99999999999999289 0 0 0 0 3.86736775588989268
-8.80000000000000071 1.99999999999999289 0 0 0 0 1.2057115173339843
-7.60000000000000142 1.99999999999999289 0 0 0 0 0.479290402173995989
-6.40000000000000213 1.99999999999999289 0 0 0 0 0.291096496820449802
-5.20000000000000284 1.99999999999999289 0 0 0 0 0.25354163312911987
-4.00000000000000355 1.99999999999999289 0 0 0 0 0.23610269427299499
-2.80000000000000426 1.99999999999999289 0 0 0 0 0.212458887100219734
-1.60000000000000497 1.99999999999999289 0 0 0 0 0.161763392627239239
-0.400000000000005684 1.99999999999999289 0 0 0 0 0.0889628930091857922
0.799999999999993605 1.99999999999999289 0 0 0 0 0.0770002485290169764
1.99999999999999289 1.99999999999999289 0 0 0 0 0.0953472709134221136
3.19999999999999218 1.99999999999999289 0 0 0 0 0.114016198344528669
4.39999999999999147 1.99999999999999289 0 0 0 0 0.159294857710599896
5.59999999999999076 1.99999999999999289 0 0 0 0 0.250446781843900679
6.79999999999999005 1.99999999999999289 0 0 0 0 0.411869794189929972
7.99999999999998934 1.99999999999999289 0 0 0 0 0.593912385463714609
9.19999999999998863 1.99999999999999289 0 0 0 0 0.893343042373657248
10.3999999999999879 1.99999999999999289 0 0 0 0 1.32510273551940916
-10 3.19999999999999218 0 0 0 0 7.97810195541381795
-8.80000000000000071 3.19999999999999218 0 0 0 0 2.63635511779785148
-7.60000000000000142 3.19999999999999218 0 0 0 0 0.917711468219757132
-6.40000000000000213 3.19999999999999218 0 0 0 0 0.423470108032226566
-5.20000000000000284 3.19999999999999218 0 0 0 0 0.300277873277664198
-4.00000000000000355 3.19999999999999218 0 0 0 0 0.265141138076782246
-2.80000000000000426 3.19999999999999218 0 0 0 0 0.252170457720756525
-1.60000000000000497 3.19999999999999218 0 0 0 0 0.220223676919937134
-0.400000000000005684 3.19999999999999218 0 0 0 0 0.153124581217765815
0.799999999999993605 3.19999999999999218 0 0 0 0 0.127907873898744584
1.99999999999999289 3.19999999999999218 0 0 0 0 0.134594918340444569
3.19999999999999218 3.19999999999999218 0 0 0 0 0.170546853572130203
4.39999999999999147 3.19999999999999218 0 0 0 0 0.220323012918233863
5.59999999999999076 3.19999999999999218 0 0 0 0 0.29083492898941038
6.79999999999999005 3.19999999999999218 0 0 0 0 0.426891848325729351
7.99999999999998934 3.19999999999999218 0 0 0 0 0.624008851528167763
9.19999999999998863 3.19999999999999218 0 0 0 0 0.892515421390533414
10.3999999999999879 3.19999999999999218 0 0 0 0 1.26114701819419861
-10 4.39999999999999147 0 0 0 0 15.9901630401611321
-8.80000000000000071 4.39999999999999147 0 0 0 0 6.00299345588684119
-7.60000000000000142 4.39999999999999147 0 0 0 0 2.0809759464263915
-6.40000000000000213 4.39999999999999147 0 0 0 0 0.812322081565856946
-5.20000000000000284 4.39999999999999147 0 0 0 0 0.420793101549148563
-4.00000000000000355 4.39999999999999147 0 0 0 0 0.325466295719146703
-2.80000000000000426 4.39999999999999147 0 0 0 0 0.286368334293365501
-1.60000000000000497 4.39999999999999147 0 0 0 0 0.270966240644454959
-0.400000000000005684 4.39999999999999147 0 0 0 0 0.22751668953895568
0.799999999999993605 4.39999999999999147 0 0 0 0 0.231084503054618834
1.99999999999999289 4.39999999999999147 0 0 0 0 0.236454438805580147
3.19999999999999218 4.39999999999999147 0 0 0 0 0.259417074501514411
4.39999999999999147 4.39999999999999147 0 0 0 0 0.307631075859069847
5.59999999999999076 4.39999999999999147 0 0 0 0 0.409452446103096002
6.79999999999999005 4.39999999999999147 0 0 0 0 0.546646470069885204
7.99999999999998934 4.39999999999999147 0 0 0 0 0.684115117073059054
9.19999999999998863 4.39999999999999147 0 0 0 0 0.974924660921096753
10.3999999999999879 4.39999999999999147 0 0 0 0 1.42526324272155769
-10 5.59999999999999076 0 0 0 0 33.8394744110107411
-8.80000000000000071 5.59999999999999076 0 0 0 0 14.3911177368164065
-7.60000000000000142 5.59999999999999076 0 0 0 0 5.41755809402465793
-6.40000000000000213 5.59999999999999076 0 0 0 0 2.03498255538940409
-5.20000000000000284 5.59999999999999076 0 0 0 0 0.869593601703643748
-4.00000000000000355 5.59999999999999076 0 0 0 0 0.506344931125640829
-2.80000000000000426 5.59999999999999076 0 0 0 0 0.354918993473053002
-1.60000000000000497 5.59999999999999076 0 0 0 0 0.313284824252128613
-0.400000000000005684 5.59999999999999076 0 0 0 0 0.300904342412948611
0.799999999999993605 5.59999999999999076 0 0 0 0 0.368907287359237668
1.99999999999999289 5.59999999999999076 0 0 0 0 0.43467310738563536
3.19999999999999218 5.59999999999999076 0 0 0 0 0.429605260610580464
4.39999999999999147 5.59999999999999076 0 0 0 0 0.477942821502685522
5.59999999999999076 5.59999999999999076 0 0 0 0 0.571472922801971484
6.79999999999999005 5.59999999999999076 0 0 0 0 0.695612395763397173
7.99999999999998934 5.59999999999999076 0 0 0 0 0.895576766490936316
9.19999999999998863 5.59999999999999076 0 0 0 0 1.26073931074142465
10.3999999999999879 5.59999999999999076 0 0 0 0 1.69698542070388791
-10 6.79999999999999005 0 0 0 0 72.6902244873046897
-8.80000000000000071 6.79999999999999005 0 0 0 0 31.8793164672851574
-7.60000000000000142 6.79999999999999005 0 0 0 0 13.0190184020996096
-6.40000000000000213 6.79999999999999005 0 0 0 0 5.08345517158508287
-5.20000000000000284 6.79999999999999005 0 0 0 0 2.1285763597488403
-4.00000000000000355 6.79999999999999005 0 0 0 0 1.04122200870513915
-2.80000000000000426 6.79999999999999005 0 0 0 0 0.594160129547119165
-1.60000000000000497 6.79999999999999005 0 0 0 0 0.428787588119506846
-0.400000000000005684 6.79999999999999005 0 0 0 0 0.394877043247222892
0.799999999999993605 6.79999999999999005 0 0 0 0 0.495947252988815313
1.99999999999999289 6.79999999999999005 0 0 0 0 0.675691683530807441
3.19999999999999218 6.79999999999999005 0 0 0 0 0.757394413471221939
4.39999999999999147 6.79999999999999005 0 0 0 0 0.821153896808624273
5.59999999999999076 6.79999999999999005 0 0 0 0 0.83306137800216673
6.79999999999999005 6.79999999999999005 0 0 0 0 1.00403044724464419
7.99999999999998934 6.79999999999999005 0 0 0 0 1.29293322086334239
9.19999999999998863 6.79999999999999005 0 0 0 0 1.66443864107131967
10.3999999999999879 6.79999999999999005 0 0 0 0 2.28041475820541395
-10 7.99999999999998934 0 0 0 0 138.476296752929699
-8.80000000000000071 7.99999999999998934 0 0 0 0 65.6647514953613296
-7.60000000000000142 7.99999999999998934 0 0 0 0 29.6645514221191391
-6.40000000000000213 7.99999999999998934 0 0 0 0 11.9929649734497072
-5.20000000000000284 7.99999999999998934 0 0 0 0 5.10886164283752464
-4.00000000000000355 7.99999999999998934 0 0 0 0 2.41919452285766612
-2.80000000000000426 7.99999999999998934 0 0 0 0 1.24355848598480234
-1.60000000000000497 7.99999999999998934 0 0 0 0 0.760297533988952612
-0.400000000000005684 7.99999999999998934 0 0 0 0 0.588414291620254493
0.799999999999993605 7.99999999999998934 0 0 0 0 0.655188092231750452
1.99999999999999289 7.99999999999998934 0 0 0 0 0.873492007732391329
3.19999999999999218 7.99999999999998934 0 0 0 0 1.1317547206878662
4.39999999999999147 7.99999999999998934 0 0 0 0 1.260358835697174
5.59999999999999076 7.99999999999998934 0 0 0 0 1.37627602910995472
6.79999999999999005 7.99999999999998934 0 0 0 0 1.55044099426269533
7.99999999999998934 7.99999999999998934 0 0 0 0 1.92481989049911495
9.19999999999998863 7.99999999999998934 0 0 0 0 2.39913605308532718
10.3999999999999879 7.99999999999998934 0 0 0 0 3.21081557083129887
-10 9.19999999999998863 0 0 0 0 243.726680786132818
-8.80000000000000071 9.19999999999998863 0 0 0 0 123.73660229492188
-7.60000000000000142 9.19999999999998863 0 0 0 0 62.0042899169921853
-6.40000000000000213 9.19999999999998863 0 0 0 0 28.0501052551269545
-5.20000000000000284 9.19999999999998863 0 0 0 0 12.5419987182617181
-4.00000000000000355 9.19999999999998863 0 0 0 0 5.49844469833374028
-2.80000000000000426 9.19999999999998863 0 0 0 0 2.78122175025939944
-1.60000000000000497 9.19999999999998863 0 0 0 0 1.54256123828887937
-0.400000000000005684 9.19999999999998863 0 0 0 0 1.00122873783111577
0.799999999999993605 9.19999999999998863 0 0 0 0 0.967260705947875943
1.99999999999999289 9.19999999999998863 0 0 0 0 1.19727165222167975
3.19999999999999218 9.19999999999998863 0 0 0 0 1.58427618646621715
4.39999999999999147 9.19999999999998863 0 0 0 0 1.85737557792663566
5.59999999999999076 9.19999999999998863 0 0 0 0 2.19214513397216804
6.79999999999999005 9.19999999999998863 0 0 0 0 2.45776383399963372
7.99999999999998934 9.19999999999998863 0 0 0 0 2.9893466796874999
9.19999999999998863 9.19999999999998863 0 0 0 0 3.46405378341674819
10.3999999999999879 9.19999999999998863 0 0 0 0 4.42771390151977506
-10 10.3999999999999879 0 0 0 0 426.951181152343736
-8.80000000000000071 10.3999999999999879 0 0 0 0 237.960637207031255
-7.60000000000000142 10.3999999999999879 0 0 0 0 116.147230102539069
-6.40000000000000213 10.3999999999999879 0 0 0 0 60.4911477966308624
-5.20000000000000284 10.3999999999999879 0 0 0 0 27.9744776611328128
-4.00000000000000355 10.3999999999999879 0 0 0 0 12.4485382156372069
-2.80000000000000426 10.3999999999999879 0 0 0 0 5.85163368225097624
-1.60000000000000497 10.3999999999999879 0 0 0 0 3.25344168853759763
-0.400000000000005684 10.3999999999999879 0 0 0 0 1.99722502994537354
0.799999999999993605 10.3999999999999879 0 0 0 0 1.63855848503112789
1.99999999999999289 10.3999999999999879 0 0 0 0 1.77514309692382821
3.19999999999999218 10.3999999999999879 0 0 0 0 2.16936814403533917
4.39999999999999147 10.3999999999999879 0 0 0 0 2.58853443717956555
5.59999999999999076 10.3999999999999879 0 0 0 0 3.09447439384460443
6.79999999999999005 10.3999999999999879 0 0 0 0 3.45182122802734392
7.99999999999998934 10.3999999999999879 0 0 0 0 4.25173682212829629
9.19999999999998863 10.3999999999999879 0 0 0 0 5.03076505088806147
10.3999999999999879 10.3999999999999879 0 0 0 0 6.63503121948242214
4 0 1 19 18
4 1 2 20 19
4 2 3 21 20
4 3 4 22 21
4 4 5 23 22
4 5 6 24 23
4 6 7 25 24
4 7 8 26 25
4 8 9 27 26
4 9 10 28 27
4 10 11 29 28
4 11 12 30 29
4 12 13 31 30
4 13 14 32 31
4 14 15 33 32
4 15 16 34 33
4 16 17 35 34
4 18 19 37 36
4 19 20 38 37
4 20 21 39 38
4 21 22 40 39
4 22 23 41 40
4 23 24 42 41
4 24 25 43 42
4 25 26 44 43
4 26 27 45 44
4 27 28 46 45
4 28 29 47 46
4 29 30 48 47
4 30 31 49 48
4 31 32 50 49
4 32 33 51 50
4 33 34 52 51
4 34 35 53 52
4 36 37 55 54
4 37 38 56 55
4 38 39 57 56
4 39 40 58 57
4 40 41 59 58
4 41 42 60 59
4 42 43 61 60
4 43 44 62 61
4 44 45 63 62
4 45 46 64 63
4 46 47 65 64
4 47 48 66 65
4 48 49 67 66
4 49 50 68 67
4 50 51 69 68
4 51 52 70 69
4 52 53 71 70
4 54 55 73 72
4 55 56 74 73
4 56 57 75 74
4 57 58 76 75
4 58 59 77 76
4 59 60 78 77
4 60 61 79 78
4 61 62 80 79
4 62 63 81 80
4 63 64 82 81
4 64 65 83 82
4 65 66 84 83
4 66 67 85 84
4 67 68 86 85
4 68 69 87 86
4 69 70 88 87
4 70 71 89 88
4 72 73 91 90
4 73 74 92 91
4 74 75 93 92
4 75 76 94 93
4 76 77 95 94
4 77 78 96 95
4 78 79 97 96
4 79 80 98 97
4 80 81 99 98
4 81 82 100 99
4 82 83 101 100
4 83 84 102 101
4 84 85 103 102
4 85 86 104 103
4 86 87 105 104
4 87 88 106 105
4 88 89 107 106
4 90 91 109 108
4 91 92 110 109
4 92 93 111 110
4 93 94 112 111
4 94 95 113 112
4 95 96 114 113
4 96 97 115 114
4 97 98 116 115
4 98 99 117 116
4 99 100 118 117
4 100 101 119 118
4 101 102 120 119
4 102 103 121 120
4 103 104 122 121
4 104 105 123 122
4 105 106 124 123
4 106 107 125 124
4 108 109 127 126
4 109 110 128 127
4 110 111 129 128
4 111 112 130 129
4 112 113 131 130
4 113 114 132 131
4 114 115 133 132
4 115 116 134 133
4 116 117 135 134
4 117 118 136 135
4 118 119 137 136
4 119 120 138 137
4 120 121 139 138
4 121 122 140 139
4 122 123 141 140
4 123 124 142 141
4 124 125 143 142
4 126 127 145 144
4 127 128 146 145
4 128 129 147 146
4 129 130 148 147
4 130 131 149 148
4 131 132 150 149
4 132 133 151 150
4 133 134 152 151
4 134 135 153 152
4 135 136 154 153
4 136 137 155 154
4 137 138 156 155
4 138 139 157 156
4 139 140 158 157
4 140 141 159 158
4 141 142 160 159
4 142 143 161 160
4 144 145 163 162
4 145 146 164 163
4 146 147 165 164
4 147 148 166 165
4 148 149 167 166
4 149 150 168 167
4 150 151 169 168
4 151 152 170 169
4 152 153 171 170
4 153 154 172 171
4 154 155 173 172
4 155 156 174 173
4 156 157 175 174
4 157 158 176 175
4 158 159 177 176
4 159 160 178 177
4 160 161 179 178
4 162 163 181 180
4 163 164 182 181
4 164 165 183 182
4 165 166 184 183
4 166 167 185 184
4 167 168 186 185
4 168 169 187 186
4 169 170 188 187
4 170 171 189 188
4 171 172 190 189
4 172 173 191 190
4 173 174 192 191
4 174 175 193 192
4 175 176 194 193
4 176 177 195 194
4 177 178 196 195
4 178 179 197 196
4 180 181 199 198
4 181 182 200 199
4 182 183 201 200
4 183 184 202 201
4 184 185 203 202
4 185 186 204 203
4 186 187 205 204
4 187 188 206 205
4 188 189 207 206
4 189 190 208 207
4 190 191 209 208
4 191 192 210 209
4 192 193 211 210
4 193 194 212 211
4 194 195 213 212
4 195 196 214 213
4 196 197 215 214
4 198 199 217 216
4 199 200 218 217
4 200 201 219 218
4 201 202 220 219
4 202 203 221 220
4 203 204 222 221
4 204 205 223 222
4 205 206 224 223
4 206 207 225 224
4 207 208 226 225
4 208 209 227 226
4 209 210 228 227
4 210 211 229 228
4 211 212 230 229
4 212 213 231 230
4 213 214 232 231
4 214 215 233 232
4 216 217 235 234
4 217 218 236 235
4 218 219 237 236
4 219 220 238 237
4 220 221 239 238
4 221 222 240 239
4 222 223 241 240
4 223 224 242 241
4 224 225 243 242
4 225 226 244 243
4 226 227 245 244
4 227 228 246 245
4 228 229 247 246
4 229 230 248 247
4 230 231 249 248
4 231 232 250 249
4 232 233 251 250
4 234 235 253 252
4 235 236 254 253
4 236 237 255 254
4 237 238 256 255
4 238 239 257 256
4 239 240 258 257
4 240 241 259 258
4 241 242 260 259
4 242 243 261 260
4 243 244 262 261
4 244 245 263 262
4 245 246 264 263
4 246 247 265 264
4 247 248 266 265
4 248 249 267 266
4 249 250 268 267
4 250 251 269 268
4 252 253 271 270
4 253 254 272 271
4 254 255 273 272
4 255 256 274 273
4 256 257 275 274
4 257 258 276 275
4 258 259 277 276
4 259 260 278 277
4 260 261 279 278
4 261 262 280 279
4 262 263 281 280
4 263 264 282 281
4 264 265 283 282
4 265 266 284 283
4 266 267 285 284
4 267 268 286 285
4 268 269 287 286
4 270 271 289 288
4 271 272 290 289
4 272 273 291 290
4 273 274 292 291
4 274 275 293 292
4 275 276 294 293
4 276 277 295 294
4 277 278 296 295
4 278 279 297 296
4 279 280 298 297
4 280 281 299 298
4 281 282 300 299
4 282 283 301 300
4 283 284 302 301
4 284 285 303 302
4 285 286 304 303
4 286 287 305 304
4 288 289 307 306
4 289 290 308 307
4 290 291 309 308
4 291 292 310 309
4 292 293 311 310
4 293 294 312 311
4 294 295 313 312
4 295 296 314 313
4 296 297 315 314
4 297 298 316 315
4 298 299 317 316
4 299 300 318 317
4 300 301 319 318
4 301 302 320 319
4 302 303 321 320
4 303 304 322 321
4 304 305 323 322
