ply
format ascii 1.0
element vertex 324
property double x
property double y
property double z
property double vx
property double vy
property double vz
property double s
element face 289
property list uchar int vertex_indices
end_header
-10 -10 0 0 0 0 3.64012138223648085
-8.80000000000000071 -10 0 0 0 0 2.2514098234176636
-7.60000000000000142 -10 0 0 0 0 1.49465965032577519
-6.40000000000000213 -10 0 0 0 0 1.18105326414108269
-5.20000000000000284 -10 0 0 0 0 0.95528421831130983
-4.00000000000000355 -10 0 0 0 0 0.883424338340759285
-2.80000000000000426 -10 0 0 0 0 0.798243981838226313
-1.60000000000000497 -10 0 0 0 0 0.79337661886215205
-0.400000000000005684 -10 0 0 0 0 0.973875421047210699
0.799999999999993605 -10 0 0 0 0 1.06078634977340691
1.99999999999999289 -10 0 0 0 0 1.08610593032836911
3.19999999999999218 -10 0 0 0 0 1.07292668056488028
4.39999999999999147 -10 0 0 0 0 1.03757131195068353
5.59999999999999076 -10 0 0 0 0 0.801527790546417207
6.79999999999999005 -10 0 0 0 0 0.730038676023483268
7.99999999999998934 -10 0 0 0 0 0.702354432106018112
9.19999999999998863 -10 0 0 0 0 0.792933193445205742
10.3999999999999879 -10 0 0 0 0 0.848472970247268643
-10 -8.80000000000000071 0 0 0 0 2.56099858570098871
-8.80000000000000071 -8.80000000000000071 0 0 0 0 1.59605577230453499
-7.60000000000000142 -8.80000000000000071 0 0 0 0 1.20267337751388559
-6.40000000000000213 -8.80000000000000071 0 0 0 0 1.02997005319595347
-5.20000000000000284 -8.80000000000000071 0 0 0 0 0.979109416723251358
-4.00000000000000355 -8.80000000000000071 0 0 0 0 0.866987040281295807
-2.80000000000000426 -8.80000000000000071 0 0 0 0 0.764666839122772224
-1.60000000000000497 -8.80000000000000071 0 0 0 0 0.730435031890869113
-0.400000000000005684 -8.80000000000000071 0 0 0 0 0.729837061643600515
0.799999999999993605 -8.80000000000000071 0 0 0 0 0.729169200420379693
1.99999999999999289 -8.80000000000000071 0 0 0 0 0.759212761640548739
3.19999999999999218 -8.80000000000000071 0 0 0 0 0.722782188415527327
4.39999999999999147 -8.80000000000000071 0 0 0 0 0.647269271612167407
5.59999999999999076 -8.80000000000000071 0 0 0 0 0.545970185995101942
6.79999999999999005 -8.80000000000000071 0 0 0 0 0.500758663177490182
7.99999999999998934 -8.80000000000000071 0 0 0 0 0.50152586245536801
9.19999999999998863 -8.80000000000000071 0 0 0 0 0.626648450613021879
10.3999999999999879 -8.80000000000000071 0 0 0 0 0.671198404550552352
-10 -7.60000000000000142 0 0 0 0 1.90800394439697274
-8.80000000000000071 -7.60000000000000142 0 0 0 0 1.29469163465499881
-7.60000000000000142 -7.60000000000000142 0 0 0 0 1.01207191514968864
-6.40000000000000213 -7.60000000000000142 0 0 0 0 0.942133851528167754
-5.20000000000000284 -7.60000000000000142 0 0 0 0 0.892297714710235557
-4.00000000000000355 -7.60000000000000142 0 0 0 0 0.815596755027770959
-2.80000000000000426 -7.60000000000000142 0 0 0 0 0.637636939287185678
-1.60000000000000497 -7.60000000000000142 0 0 0 0 0.551435319423675518
-0.400000000000005684 -7.60000000000000142 0 0 0 0 0.523025363326072745
0.799999999999993605 -7.60000000000000142 0 0 0 0 0.522456260204315237
1.99999999999999289 -7.60000000000000142 0 0 0 0 0.495939773082733182
3.19999999999999218 -7.60000000000000142 0 0 0 0 0.496363687157630906
4.39999999999999147 -7.60000000000000142 0 0 0 0 0.451801760554313647
5.59999999999999076 -7.60000000000000142 0 0 0 0 0.406208565473556493
6.79999999999999005 -7.60000000000000142 0 0 0 0 0.394963601589202906
7.99999999999998934 -7.60000000000000142 0 0 0 0 0.445616314411163339
9.19999999999998863 -7.60000000000000142 0 0 0 0 0.559189251899719242
10.3999999999999879 -7.60000000000000142 0 0 0 0 0.599661889076232857
-10 -6.40000000000000213 0 0 0 0 1.73232699584960947
-8.80000000000000071 -6.40000000000000213 0 0 0 0 1.16199879980087273
-7.60000000000000142 -6.40000000000000213 0 0 0 0 0.952298818111419698
-6.40000000000000213 -6.40000000000000213 0 0 0 0 0.879344033718109097
-5.20000000000000284 -6.40000000000000213 0 0 0 0 0.7691142764091492
-4.00000000000000355 -6.40000000000000213 0 0 0 0 0.636705123424530006
-2.80000000000000426 -6.40000000000000213 0 0 0 0 0.494273789048194911
-1.60000000000000497 -6.40000000000000213 0 0 0 0 0.434476181387901284
-0.400000000000005684 -6.40000000000000213 0 0 0 0 0.385237091779708885
0.799999999999993605 -6.40000000000000213 0 0 0 0 0.3520348564982414
1.99999999999999289 -6.40000000000000213 0 0 0 0 0.355305687129497505
3.19999999999999218 -6.40000000000000213 0 0 0 0 0.33791857993602753
4.39999999999999147 -6.40000000000000213 0 0 0 0 0.344049083709716819
5.59999999999999076 -6.40000000000000213 0 0 0 0 0.327732195377349877
6.79999999999999005 -6.40000000000000213 0 0 0 0 0.339542120695114136
7.99999999999998934 -6.40000000000000213 0 0 0 0 0.393390494823455783
9.19999999999998863 -6.40000000000000213 0 0 0 0 0.478502596616744991
10.3999999999999879 -6.40000000000000213 0 0 0 0 0.551490745067596433
-10 -5.20000000000000284 0 0 0 0 1.59872371387481693
-8.80000000000000071 -5.20000000000000284 0 0 0 0 1.22457350015640265
-7.60000000000000142 -5.20000000000000284 0 0 0 0 1.00826546502113334
-6.40000000000000213 -5.20000000000000284 0 0 0 0 0.854050739765167211
-5.20000000000000284 -5.20000000000000284 0 0 0 0 0.65459324812889097
-4.00000000000000355 -5.20000000000000284 0 0 0 0 0.49661580097675323
-2.80000000000000426 -5.20000000000000284 0 0 0 0 0.37057798713445661
-1.60000000000000497 -5.20000000000000284 0 0 0 0 0.315914397716522244
-0.400000000000005684 -5.20000000000000284 0 0 0 0 0.26486703813076018
0.799999999999993605 -5.20000000000000284 0 0 0 0 0.247331301569938655
1.99999999999999289 -5.20000000000000284 0 0 0 0 0.264446702122688282
3.19999999999999218 -5.20000000000000284 0 0 0 0 0.265437033116817489
4.39999999999999147 -5.20000000000000284 0 0 0 0 0.282516307711601244
5.59999999999999076 -5.20000000000000284 0 0 0 0 0.292345354199409491
6.79999999999999005 -5.20000000000000284 0 0 0 0 0.316205166339874277
7.99999999999998934 -5.20000000000000284 0 0 0 0 0.390493970632553089
9.19999999999998863 -5.20000000000000284 0 0 0 0 0.488816202163696312
10.3999999999999879 -5.20000000000000284 0 0 0 0 0.515620699882507361
-10 -4.00000000000000355 0 0 0 0 1.71627534198760978
-8.80000000000000071 -4.00000000000000355 0 0 0 0 1.39149816274642935
-7.60000000000000142 -4.00000000000000355 0 0 0 0 1.08309948492050179
-6.40000000000000213 -4.00000000000000355 0 0 0 0 0.8207936093807221
-5.20000000000000284 -4.00000000000000355 0 0 0 0 0.610184155702590991
-4.00000000000000355 -4.00000000000000355 0 0 0 0 0.427763475298881535
-2.80000000000000426 -4.00000000000000355 0 0 0 0 0.299294338703155527
-1.60000000000000497 -4.00000000000000355 0 0 0 0 0.225866682752966869
-0.400000000000005684 -4.00000000000000355 0 0 0 0 0.165154216796159742
0.799999999999993605 -4.00000000000000355 0 0 0 0 0.170144680798053755
1.99999999999999289 -4.00000000000000355 0 0 0 0 0.17081967917084695
3.19999999999999218 -4.00000000000000355 0 0 0 0 0.191211103856563563
4.39999999999999147 -4.00000000000000355 0 0 0 0 0.232978471159935002
5.59999999999999076 -4.00000000000000355 0 0 0 0 0.260365920186042765
6.79999999999999005 -4.00000000000000355 0 0 0 0 0.311247980594634988
7.99999999999998934 -4.00000000000000355 0 0 0 0 0.396713185071945196
9.19999999999998863 -4.00000000000000355 0 0 0 0 0.471985913991928074
10.3999999999999879 -4.00000000000000355 0 0 0 0 0.568503440141677863
-10 -2.80000000000000426 0 0 0 0 1.78088397216796879
-8.80000000000000071 -2.80000000000000426 0 0 0 0 1.40733695936202996
-7.60000000000000142 -2.80000000000000426 0 0 0 0 1.12353708910942074
-6.40000000000000213 -2.80000000000000426 0 0 0 0 0.749521489262580887
-5.20000000000000284 -2.80000000000000426 0 0 0 0 0.486582495927810665
-4.00000000000000355 -2.80000000000000426 0 0 0 0 0.330227772094309313
-2.80000000000000426 -2.80000000000000426 0 0 0 0 0.210900105565786367
-1.60000000000000497 -2.80000000000000426 0 0 0 0 0.150581771612167348
-0.400000000000005684 -2.80000000000000426 0 0 0 0 0.116907198190689093
0.799999999999993605 -2.80000000000000426 0 0 0 0 0.0929714998304843887
1.99999999999999289 -2.80000000000000426 0 0 0 0 0.11736666522920132
3.19999999999999218 -2.80000000000000426 0 0 0 0 0.134790940821170796
4.39999999999999147 -2.80000000000000426 0 0 0 0 0.180786519169807425
5.59999999999999076 -2.80000000000000426 0 0 0 0 0.244420276403427117
6.79999999999999005 -2.80000000000000426 0 0 0 0 0.325502752542495721
7.99999999999998934 -2.80000000000000426 0 0 0 0 0.415719343900680549
9.19999999999998863 -2.80000000000000426 0 0 0 0 0.486211959123611426
10.3999999999999879 -2.80000000000000426 0 0 0 0 0.573309943199157734
-10 -1.60000000000000497 0 0 0 0 1.85695616531372076
-8.80000000000000071 -1.60000000000000497 0 0 0 0 1.34936971473693856
-7.60000000000000142 -1.60000000000000497 0 0 0 0 0.940958402872085542
-6.40000000000000213 -1.60000000000000497 0 0 0 0 0.614073438525199911
-5.20000000000000284 -1.60000000000000497 0 0 0 0 0.363831378638744374
-4.00000000000000355 -1.60000000000000497 0 0 0 0 0.211423892825841897
-2.80000000000000426 -1.60000000000000497 0 0 0 0 0.131766696296632291
-1.60000000000000497 -1.60000000000000497 0 0 0 0 0.0883906335942447191
-0.400000000000005684 -1.60000000000000497 0 0 0 0 0.0595389578845351916
0.799999999999993605 -1.60000000000000497 0 0 0 0 0.0552800696119666105
1.99999999999999289 -1.60000000000000497 0 0 0 0 0.0757742775678634656
3.19999999999999218 -1.60000000000000497 0 0 0 0 0.117308641552925114
4.39999999999999147 -1.60000000000000497 0 0 0 0 0.175674699604511264
5.59999999999999076 -1.60000000000000497 0 0 0 0 0.253822894692420975
6.79999999999999005 -1.60000000000000497 0 0 0 0 0.365704384088516243
7.99999999999998934 -1.60000000000000497 0 0 0 0 0.464079357624053945
9.19999999999998863 -1.60000000000000497 0 0 0 0 0.536362287044525154
10.3999999999999879 -1.60000000000000497 0 0 0 0 0.587248764038085902
-10 -0.400000000000005684 0 0 0 0 1.59144440984725954
-8.80000000000000071 -0.400000000000005684 0 0 0 0 1.1630218200683593
-7.60000000000000142 -0.400000000000005684 0 0 0 0 0.793170750379562417
-6.40000000000000213 -0.400000000000005684 0 0 0 0 0.493382023215293897
-5.20000000000000284 -0.400000000000005684 0 0 0 0 0.275384711921215053
-4.00000000000000355 -0.400000000000005684 0 0 0 0 0.140158306993544091
-2.80000000000000426 -0.400000000000005684 0 0 0 0 0.0737535359524190415
-1.60000000000000497 -0.400000000000005684 0 0 0 0 0.0471717764977365728
-0.400000000000005684 -0.400000000000005684 0 0 0 0 0.031936806602403521
0.799999999999993605 -0.400000000000005684 0 0 0 0 0.037608483351767065
1.99999999999999289 -0.400000000000005684 0 0 0 0 0.065062463819980626
3.19999999999999218 -0.400000000000005684 0 0 0 0 0.11836655682325363
4.39999999999999147 -0.400000000000005684 0 0 0 0 0.193065481781959536
5.59999999999999076 -0.400000000000005684 0 0 0 0 0.303062880635261545
6.79999999999999005 -0.400000000000005684 0 0 0 0 0.417048213005065893
7.99999999999998934 -0.400000000000005684 0 0 0 0 0.49173491525650026
9.19999999999998863 -0.400000000000005684 0 0 0 0 0.552496088981628386
10.3999999999999879 -0.400000000000005684 0 0 0 0 0.610166646957397418
-10 0.799999999999993605 0 0 0 0 1.36278848695754995
-8.80000000000000071 0.799999999999993605 0 0 0 0 1.07945367336273201
-7.60000000000000142 0.799999999999993605 0 0 0 0 0.724726058959960895
-6.40000000000000213 0.799999999999993605 0 0 0 0 0.417082732558250402
-5.20000000000000284 0.799999999999993605 0 0 0 0 0.247128765702247621
-4.00000000000000355 0.799999999999993605 0 0 0 0 0.117884981319308274
-2.80000000000000426 0.799999999999993605 0 0 0 0 0.0600964872688055027
-1.60000000000000497 0.799999999999993605 0 0 0 0 0.042587246913462877
-0.400000000000005684 0.799999999999993605 0 0 0 0 0.0341923274323344198
0.799999999999993605 0.799999999999993605 0 0 0 0 0.0476422161981463407
1.99999999999999289 0.799999999999993605 0 0 0 0 0.0822585114538669643
3.19999999999999218 0.799999999999993605 0 0 0 0 0.150002882838249196
4.39999999999999147 0.799999999999993605 0 0 0 0 0.254558066725730892
5.59999999999999076 0.799999999999993605 0 0 0 0 0.355008266448974596
6.79999999999999005 0.799999999999993605 0 0 0 0 0.454657607316970802
7.99999999999998934 0.799999999999993605 0 0 0 0 0.511475116729736334
9.19999999999998863 0.799999999999993605 0 0 0 0 0.548960034370422401
10.3999999999999879 0.799999999999993605 0 0 0 0 0.60004501438140867
-10 1.99999999999999289 0 0 0 0 1.25977550458908083
-8.80000000000000071 1.99999999999999289 0 0 0 0 0.901906655311584426
-7.60000000000000142 1.99999999999999289 0 0 0 0 0.627922769308090212
-6.40000000000000213 1.99999999999999289 0 0 0 0 0.387824610829353322
-5.20000000000000284 1.99999999999999289 0 0 0 0 0.229525370307266718
-4.00000000000000355 1.99999999999999289 0 0 0 0 0.142413233593106259
-2.80000000000000426 1.99999999999999289 0 0 0 0 0.0856407475471496621
-1.60000000000000497 1.99999999999999289 0 0 0 0 0.0661887666657566959
-0.400000000000005684 1.99999999999999289 0 0 0 0 0.0726364831253886178
0.799999999999993605 1.99999999999999289 0 0 0 0 0.0936257250905036947
1.99999999999999289 1.99999999999999289 0 0 0 0 0.145380183935165413
3.19999999999999218 1.99999999999999289 0 0 0 0 0.218514128565788279
4.39999999999999147 1.99999999999999289 0 0 0 0 0.318816802740097049
5.59999999999999076 1.99999999999999289 0 0 0 0 0.418735893487930277
6.79999999999999005 1.99999999999999289 0 0 0 0 0.482550881147384647
7.99999999999998934 1.99999999999999289 0 0 0 0 0.531296852588653556
9.19999999999998863 1.99999999999999289 0 0 0 0 0.566590399742126438
10.3999999999999879 1.99999999999999289 0 0 0 0 0.612215319633483857
-10 3.19999999999999218 0 0 0 0 1.19665001726150511
-8.80000000000000071 3.19999999999999218 0 0 0 0 0.894548830032348641
-7.60000000000000142 3.19999999999999218 0 0 0 0 0.612455679893493699
-6.40000000000000213 3.19999999999999218 0 0 0 0 0.382633540987968424
-5.20000000000000284 3.19999999999999218 0 0 0 0 0.252211149930954004
-4.00000000000000355 3.19999999999999218 0 0 0 0 0.171606944143772117
-2.80000000000000426 3.19999999999999218 0 0 0 0 0.131540716737508778
-1.60000000000000497 3.19999999999999218 0 0 0 0 0.117810666739940645
-0.400000000000005684 3.19999999999999218 0 0 0 0 0.133638783156871804
0.799999999999993605 3.19999999999999218 0 0 0 0 0.16859804427623748
1.99999999999999289 3.19999999999999218 0 0 0 0 0.229571727395057684
3.19999999999999218 3.19999999999999218 0 0 0 0 0.322354587554931626
4.39999999999999147 3.19999999999999218 0 0 0 0 0.41054997158050538
5.59999999999999076 3.19999999999999218 0 0 0 0 0.490598937988281247
6.79999999999999005 3.19999999999999218 0 0 0 0 0.539727032661437955
7.99999999999998934 3.19999999999999218 0 0 0 0 0.574073447704315232
9.19999999999998863 3.19999999999999218 0 0 0 0 0.602277615070343053
10.3999999999999879 3.19999999999999218 0 0 0 0 0.629898600578308154
-10 4.39999999999999147 0 0 0 0 1.23841333150863653
-8.80000000000000071 4.39999999999999147 0 0 0 0 0.861130825996398896
-7.60000000000000142 4.39999999999999147 0 0 0 0 0.56886470341682438
-6.40000000000000213 4.39999999999999147 0 0 0 0 0.384851353526115436
-5.20000000000000284 4.39999999999999147 0 0 0 0 0.268476918458938618
-4.00000000000000355 4.39999999999999147 0 0 0 0 0.207997873246669768
-2.80000000000000426 4.39999999999999147 0 0 0 0 0.191821908652782452
-1.60000000000000497 4.39999999999999147 0 0 0 0 0.190746058940887447
-0.400000000000005684 4.39999999999999147 0 0 0 0 0.215308326959609997
0.799999999999993605 4.39999999999999147 0 0 0 0 0.252934108495712295
1.99999999999999289 4.39999999999999147 0 0 0 0 0.321571136951446512
3.19999999999999218 4.39999999999999147 0 0 0 0 0.409666868925094629
4.39999999999999147 4.39999999999999147 0 0 0 0 0.496863605499267558
5.59999999999999076 4.39999999999999147 0 0 0 0 0.55798252391815184
6.79999999999999005 4.39999999999999147 0 0 0 0 0.595611965656280495
7.99999999999998934 4.39999999999999147 0 0 0 0 0.619421046733856229
9.19999999999998863 4.39999999999999147 0 0 0 0 0.636724668979644748
10.3999999999999879 4.39999999999999147 0 0 0 0 0.657583462238311767
-10 5.59999999999999076 0 0 0 0 1.2585032830238343
-8.80000000000000071 5.59999999999999076 0 0 0 0 0.821191995143890408
-7.60000000000000142 5.59999999999999076 0 0 0 0 0.503842150926590016
-6.40000000000000213 5.59999999999999076 0 0 0 0 0.356317081332206742
-5.20000000000000284 5.59999999999999076 0 0 0 0 0.278625615000724802
-4.00000000000000355 5.59999999999999076 0 0 0 0 0.259115271568298333
-2.80000000000000426 5.59999999999999076 0 0 0 0 0.249457670688629146
-1.60000000000000497 5.59999999999999076 0 0 0 0 0.263094092130660984
-0.400000000000005684 5.59999999999999076 0 0 0 0 0.272079539775848367
0.799999999999993605 5.59999999999999076 0 0 0 0 0.321565095186233496
1.99999999999999289 5.59999999999999076 0 0 0 0 0.400302889585494981
3.19999999999999218 5.59999999999999076 0 0 0 0 0.481605050563812254
4.39999999999999147 5.59999999999999076 0 0 0 0 0.553151922702789345
5.59999999999999076 5.59999999999999076 0 0 0 0 0.602182364940643255
6.79999999999999005 5.59999999999999076 0 0 0 0 0.631073885440826432
7.99999999999998934 5.59999999999999076 0 0 0 0 0.654114749431610076
9.19999999999998863 5.59999999999999076 0 0 0 0 0.668760409355163565
10.3999999999999879 5.59999999999999076 0 0 0 0 0.683719255924224889
-10 6.79999999999999005 0 0 0 0 1.20094133090972899
-8.80000000000000071 6.79999999999999005 0 0 0 0 0.700438248634338345
-7.60000000000000142 6.79999999999999005 0 0 0 0 0.506016464233398411
-6.40000000000000213 6.79999999999999005 0 0 0 0 0.369525242567062373
-5.20000000000000284 6.79999999999999005 0 0 0 0 0.332902394771575905
-4.00000000000000355 6.79999999999999005 0 0 0 0 0.313919752836227417
-2.80000000000000426 6.79999999999999005 0 0 0 0 0.299354331970214826
-1.60000000000000497 6.79999999999999005 0 0 0 0 0.29944238317012789
-0.400000000000005684 6.79999999999999005 0 0 0 0 0.328786449432373062
0.799999999999993605 6.79999999999999005 0 0 0 0 0.380829917907714866
1.99999999999999289 6.79999999999999005 0 0 0 0 0.450493591785430914
3.19999999999999218 6.79999999999999005 0 0 0 0 0.51656048679351807
4.39999999999999147 6.79999999999999005 0 0 0 0 0.579963627815246574
5.59999999999999076 6.79999999999999005 0 0 0 0 0.625128949165344228
6.79999999999999005 6.79999999999999005 0 0 0 0 0.65953289413452143
7.99999999999998934 6.79999999999999005 0 0 0 0 0.677811258316040055
9.19999999999998863 6.79999999999999005 0 0 0 0 0.686273844242095921
10.3999999999999879 6.79999999999999005 0 0 0 0 0.694310341358184813
-10 7.99999999999998934 0 0 0 0 1.05974351596832284
-8.80000000000000071 7.99999999999998934 0 0 0 0 0.654279064655303944
-7.60000000000000142 7.99999999999998934 0 0 0 0 0.45559515571594239
-6.40000000000000213 7.99999999999998934 0 0 0 0 0.399434342145919774
-5.20000000000000284 7.99999999999998934 0 0 0 0 0.373448564767837499
-4.00000000000000355 7.99999999999998934 0 0 0 0 0.352590306997299208
-2.80000000000000426 7.99999999999998934 0 0 0 0 0.332125618219375585
-1.60000000000000497 7.99999999999998934 0 0 0 0 0.337239928483963003
-0.400000000000005684 7.99999999999998934 0 0 0 0 0.366151704788208021
0.799999999999993605 7.99999999999998934 0 0 0 0 0.428353445291519142
1.99999999999999289 7.99999999999998934 0 0 0 0 0.497132643222808812
3.19999999999999218 7.99999999999998934 0 0 0 0 0.551945574760437041
4.39999999999999147 7.99999999999998934 0 0 0 0 0.601408964157104542
5.59999999999999076 7.99999999999998934 0 0 0 0 0.639426433086395241
6.79999999999999005 7.99999999999998934 0 0 0 0 0.664338306903839104
7.99999999999998934 7.99999999999998934 0 0 0 0 0.686236374378204395
9.19999999999998863 7.99999999999998934 0 0 0 0 0.70213756084442136
10.3999999999999879 7.99999999999998934 0 0 0 0 0.706393315315246628
-10 9.19999999999998863 0 0 0 0 1.01390688753128044
-8.80000000000000071 9.19999999999998863 0 0 0 0 0.631087819814681983
-7.60000000000000142 9.19999999999998863 0 0 0 0 0.505144015312194772
-6.40000000000000213 9.19999999999998863 0 0 0 0 0.428454488754272445
-5.20000000000000284 9.19999999999998863 0 0 0 0 0.411812275171279885
-4.00000000000000355 9.19999999999998863 0 0 0 0 0.384326787114143364
-2.80000000000000426 9.19999999999998863 0 0 0 0 0.362363316059112539
-1.60000000000000497 9.19999999999998863 0 0 0 0 0.367365751981735211
-0.400000000000005684 9.19999999999998863 0 0 0 0 0.41563770461082461
0.799999999999993605 9.19999999999998863 0 0 0 0 0.470000406026840234
1.99999999999999289 9.19999999999998863 0 0 0 0 0.527899632930755591
3.19999999999999218 9.19999999999998863 0 0 0 0 0.577442765235900879
4.39999999999999147 9.19999999999998863 0 0 0 0 0.61594152164459226
5.59999999999999076 9.19999999999998863 0 0 0 0 0.652849567890167237
6.79999999999999005 9.19999999999998863 0 0 0 0 0.670833951950073226
7.99999999999998934 9.19999999999998863 0 0 0 0 0.686614239215850852
9.19999999999998863 9.19999999999998863 0 0 0 0 0.704038966178894055
10.3999999999999879 9.19999999999998863 0 0 0 0 0.712577042102813696
-10 10.3999999999999879 0 0 0 0 0.950780543804168654
-8.80000000000000071 10.3999999999999879 0 0 0 0 0.654273801326751725
-7.60000000000000142 10.3999999999999879 0 0 0 0 0.500016886711120656
-6.40000000000000213 10.3999999999999879 0 0 0 0 0.469183625698089579
-5.20000000000000284 10.3999999999999879 0 0 0 0 0.447674444198608412
-4.00000000000000355 10.3999999999999879 0 0 0 0 0.419926457881927506
-2.80000000000000426 10.3999999999999879 0 0 0 0 0.394681404590606688
-1.60000000000000497 10.3999999999999879 0 0 0 0 0.410371059656143178
-0.400000000000005684 10.3999999999999879 0 0 0 0 0.431860550165176382
0.799999999999993605 10.3999999999999879 0 0 0 0 0.495695810079574584
1.99999999999999289 10.3999999999999879 0 0 0 0 0.553074656486511218
3.19999999999999218 10.3999999999999879 0 0 0 0 0.606230228900909385
4.39999999999999147 10.3999999999999879 0 0 0 0 0.635396694183349653
5.59999999999999076 10.3999999999999879 0 0 0 0 0.659957803726196279
6.79999999999999005 10.3999999999999879 0 0 0 0 0.685232954978942876
7.99999999999998934 10.3999999999999879 0 0 0 0 0.695284213066101109
9.19999999999998863 10.3999999999999879 0 0 0 0 0.705208611011505115
10.3999999999999879 10.3999999999999879 0 0 0 0 0.715996806621551518
4 0 1 19 18
4 1 2 20 19
4 2 3 21 20
4 3 4 22 21
4 4 5 23 22
4 5 6 24 23
4 6 7 25 24
4 7 8 26 25
4 8 9 27 26
4 9 10 28 27
4 10 11 29 28
4 11 12 30 29
4 12 13 31 30
4 13 14 32 31
4 14 15 33 32
4 15 16 34 33
4 16 17 35 34
4 18 19 37 36
4 19 20 38 37
4 20 21 39 38
4 21 22 40 39
4 22 23 41 40
4 23 24 42 41
4 24 25 43 42
4 25 26 44 43
4 26 27 45 44
4 27 28 46 45
4 28 29 47 46
4 29 30 48 47
4 30 31 49 48
4 31 32 50 49
4 32 33 51 50
4 33 34 52 51
4 34 35 53 52
4 36 37 55 54
4 37 38 56 55
4 38 39 57 56
4 39 40 58 57
4 40 41 59 58
4 41 42 60 59
4 42 43 61 60
4 43 44 62 61
4 44 45 63 62
4 45 46 64 63
4 46 47 65 64
4 47 48 66 65
4 48 49 67 66
4 49 50 68 67
4 50 51 69 68
4 51 52 70 69
4 52 53 71 70
4 54 55 73 72
4 55 56 74 73
4 56 57 75 74
4 57 58 76 75
4 58 59 77 76
4 59 60 78 77
4 60 61 79 78
4 61 62 80 79
4 62 63 81 80
4 63 64 82 81
4 64 65 83 82
4 65 66 84 83
4 66 67 85 84
4 67 68 86 85
4 68 69 87 86
4 69 70 88 87
4 70 71 89 88
4 72 73 91 90
4 73 74 92 91
4 74 75 93 92
4 75 76 94 93
4 76 77 95 94
4 77 78 96 95
4 78 79 97 96
4 79 80 98 97
4 80 81 99 98
4 81 82 100 99
4 82 83 101 100
4 83 84 102 101
4 84 85 103 102
4 85 86 104 103
4 86 87 105 104
4 87 88 106 105
4 88 89 107 106
4 90 91 109 108
4 91 92 110 109
4 92 93 111 110
4 93 94 112 111
4 94 95 113 112
4 95 96 114 113
4 96 97 115 114
4 97 98 116 115
4 98 99 117 116
4 99 100 118 117
4 100 101 119 118
4 101 102 120 119
4 102 103 121 120
4 103 104 122 121
4 104 105 123 122
4 105 106 124 123
4 106 107 125 124
4 108 109 127 126
4 109 110 128 127
4 110 111 129 128
4 111 112 130 129
4 112 113 131 130
4 113 114 132 131
4 114 115 133 132
4 115 116 134 133
4 116 117 135 134
4 117 118 136 135
4 118 119 137 136
4 119 120 138 137
4 120 121 139 138
4 121 122 140 139
4 122 123 141 140
4 123 124 142 141
4 124 125 143 142
4 126 127 145 144
4 127 128 146 145
4 128 129 147 146
4 129 130 148 147
4 130 131 149 148
4 131 132 150 149
4 132 133 151 150
4 133 134 152 151
4 134 135 153 152
4 135 136 154 153
4 136 137 155 154
4 137 138 156 155
4 138 139 157 156
4 139 140 158 157
4 140 141 159 158
4 141 142 160 159
4 142 143 161 160
4 144 145 163 162
4 145 146 164 163
4 146 147 165 164
4 147 148 166 165
4 148 149 167 166
4 149 150 168 167
4 150 151 169 168
4 151 152 170 169
4 152 153 171 170
4 153 154 172 171
4 154 155 173 172
4 155 156 174 173
4 156 157 175 174
4 157 158 176 175
4 158 159 177 176
4 159 160 178 177
4 160 161 179 178
4 162 163 181 180
4 163 164 182 181
4 164 165 183 182
4 165 166 184 183
4 166 167 185 184
4 167 168 186 185
4 168 169 187 186
4 169 170 188 187
4 170 171 189 188
4 171 172 190 189
4 172 173 191 190
4 173 174 192 191
4 174 175 193 192
4 175 176 194 193
4 176 177 195 194
4 177 178 196 195
4 178 179 197 196
4 180 181 199 198
4 181 182 200 199
4 182 183 201 200
4 183 184 202 201
4 184 185 203 202
4 185 186 204 203
4 186 187 205 204
4 187 188 206 205
4 188 189 207 206
4 189 190 208 207
4 190 191 209 208
4 191 192 210 209
4 192 193 211 210
4 193 194 212 211
4 194 195 213 212
4 195 196 214 213
4 196 197 215 214
4 198 199 217 216
4 199 200 218 217
4 200 201 219 218
4 201 202 220 219
4 202 203 221 220
4 203 204 222 221
4 204 205 223 222
4 205 206 224 223
4 206 207 225 224
4 207 208 226 225
4 208 209 227 226
4 209 210 228 227
4 210 211 229 228
4 211 212 230 229
4 212 213 231 230
4 213 214 232 231
4 214 215 233 232
4 216 217 235 234
4 217 218 236 235
4 218 219 237 236
4 219 220 238 237
4 220 221 239 238
4 221 222 240 239
4 222 223 241 240
4 223 224 242 241
4 224 225 243 242
4 225 226 244 243
4 226 227 245 244
4 227 228 246 245
4 228 229 247 246
4 229 230 248 247
4 230 231 249 248
4 231 232 250 249
4 232 233 251 250
4 234 235 253 252
4 235 236 254 253
4 236 237 255 254
4 237 238 256 255
4 238 239 257 256
4 239 240 258 257
4 240 241 259 258
4 241 242 260 259
4 242 243 261 260
4 243 244 262 261
4 244 245 263 262
4 245 246 264 263
4 246 247 265 264
4 247 248 266 265
4 248 249 267 266
4 249 250 268 267
4 250 251 269 268
4 252 253 271 270
4 253 254 272 271
4 254 255 273 272
4 255 256 274 273
4 256 257 275 274
4 257 258 276 275
4 258 259 277 276
4 259 260 278 277
4 260 261 279 278
4 261 262 280 279
4 262 263 281 280
4 263 264 282 281
4 264 265 283 282
4 265 266 284 283
4 266 267 285 284
4 267 268 286 285
4 268 269 287 286
4 270 271 289 288
4 271 272 290 289
4 272 273 291 290
4 273 274 292 291
4 274 275 293 292
4 275 276 294 293
4 276 277 295 294
4 277 278 296 295
4 278 279 297 296
4 279 280 298 297
4 280 281 299 298
4 281 282 300 299
4 282 283 301 300
4 283 284 302 301
4 284 285 303 302
4 285 286 304 303
4 286 287 305 304
4 288 289 307 306
4 289 290 308 307
4 290 291 309 308
4 291 292 310 309
4 292 293 311 310
4 293 294 312 311
4 294 295 313 312
4 295 296 314 313
4 296 297 315 314
4 297 298 316 315
4 298 299 317 316
4 299 300 318 317
4 300 301 319 318
4 301 302 320 319
4 302 303 321 320
4 303 304 322 321
4 304 305 323 322
